<?xml version="1.0" encoding="UTF-8" standalone="yes"?><svg xmlns="http://www.w3.org/2000/svg" xmlns:xlink="http://www.w3.org/1999/xlink" height="1599px" style="width:1530px;height:1599px;" version="1.1" viewBox="0 0 1530 1599" width="1530px"><defs><filter height="300%" id="f1" width="300%" x="-1" y="-1"><feGaussianBlur result="blurOut" stdDeviation="2.0"/><feColorMatrix in="blurOut" result="blurOut2" type="matrix" values="0 0 0 0 0 0 0 0 0 0 0 0 0 0 0 0 0 0 .4 0"/><feOffset dx="4.0" dy="4.0" in="blurOut2" result="blurOut3"/><feBlend in="SourceGraphic" in2="blurOut3" mode="normal"/></filter></defs><g><text fill="#000000" font-family="sans-serif" font-size="18" lengthAdjust="spacingAndGlyphs" textLength="45" x="747" y="16.708">SatPI</text><rect fill="#FEFECE" filter="url(#f1)" height="73.6094" style="stroke: #A80036; stroke-width: 1.5;" width="82" x="842" y="28.9531"/><ellipse cx="865.1" cy="44.9531" fill="#ADD1B2" rx="11" ry="11" style="stroke: #A80036; stroke-width: 1.0;"/><path d="M868.0688,50.5938 Q867.4906,50.8906 866.85,51.0391 Q866.2094,51.1875 865.5063,51.1875 Q863.0063,51.1875 861.6859,49.5391 Q860.3656,47.8906 860.3656,44.7656 Q860.3656,41.6406 861.6859,39.9844 Q863.0063,38.3281 865.5063,38.3281 Q866.2094,38.3281 866.8578,38.4844 Q867.5063,38.6406 868.0688,38.9375 L868.0688,41.6563 Q867.4438,41.0781 866.85,40.8047 Q866.2563,40.5313 865.6313,40.5313 Q864.2875,40.5313 863.6,41.6016 Q862.9125,42.6719 862.9125,44.7656 Q862.9125,46.8594 863.6,47.9297 Q864.2875,49 865.6313,49 Q866.2563,49 866.85,48.7266 Q867.4438,48.4531 868.0688,47.875 L868.0688,50.5938 Z "/><text fill="#000000" font-family="sans-serif" font-size="12" lengthAdjust="spacingAndGlyphs" textLength="32" x="880.9" y="49.1074">SatPI</text><line style="stroke: #A80036; stroke-width: 1.5;" x1="843" x2="923" y1="60.9531" y2="60.9531"/><text fill="#000000" font-family="sans-serif" font-size="11" lengthAdjust="spacingAndGlyphs" textLength="59" x="848" y="75.1636">Properties</text><text fill="#000000" font-family="sans-serif" font-size="11" lengthAdjust="spacingAndGlyphs" textLength="70" x="848" y="87.9683">InterfaceAttr</text><line style="stroke: #A80036; stroke-width: 1.5;" x1="843" x2="923" y1="94.5625" y2="94.5625"/><rect fill="#FEFECE" filter="url(#f1)" height="60.8047" style="stroke: #A80036; stroke-width: 1.5;" width="84" x="404.5" y="538.4531"/><ellipse cx="419.5" cy="554.4531" fill="#ADD1B2" rx="11" ry="11" style="stroke: #A80036; stroke-width: 1.0;"/><path d="M422.4688,560.0938 Q421.8906,560.3906 421.25,560.5391 Q420.6094,560.6875 419.9063,560.6875 Q417.4063,560.6875 416.0859,559.0391 Q414.7656,557.3906 414.7656,554.2656 Q414.7656,551.1406 416.0859,549.4844 Q417.4063,547.8281 419.9063,547.8281 Q420.6094,547.8281 421.2578,547.9844 Q421.9063,548.1406 422.4688,548.4375 L422.4688,551.1563 Q421.8438,550.5781 421.25,550.3047 Q420.6563,550.0313 420.0313,550.0313 Q418.6875,550.0313 418,551.1016 Q417.3125,552.1719 417.3125,554.2656 Q417.3125,556.3594 418,557.4297 Q418.6875,558.5 420.0313,558.5 Q420.6563,558.5 421.25,558.2266 Q421.8438,557.9531 422.4688,557.375 L422.4688,560.0938 Z "/><text fill="#000000" font-family="sans-serif" font-size="12" lengthAdjust="spacingAndGlyphs" textLength="52" x="433.5" y="558.6074">Streams</text><line style="stroke: #A80036; stroke-width: 1.5;" x1="405.5" x2="487.5" y1="570.4531" y2="570.4531"/><text fill="#000000" font-family="sans-serif" font-size="11" lengthAdjust="spacingAndGlyphs" textLength="33" x="410.5" y="584.6636">Mutex</text><line style="stroke: #A80036; stroke-width: 1.5;" x1="405.5" x2="487.5" y1="591.2578" y2="591.2578"/><rect fill="#FEFECE" filter="url(#f1)" height="48" style="stroke: #A80036; stroke-width: 1.5;" width="100" x="631" y="180.9531"/><ellipse cx="646" cy="196.9531" fill="#ADD1B2" rx="11" ry="11" style="stroke: #A80036; stroke-width: 1.0;"/><path d="M648.9688,202.5938 Q648.3906,202.8906 647.75,203.0391 Q647.1094,203.1875 646.4063,203.1875 Q643.9063,203.1875 642.5859,201.5391 Q641.2656,199.8906 641.2656,196.7656 Q641.2656,193.6406 642.5859,191.9844 Q643.9063,190.3281 646.4063,190.3281 Q647.1094,190.3281 647.7578,190.4844 Q648.4063,190.6406 648.9688,190.9375 L648.9688,193.6563 Q648.3438,193.0781 647.75,192.8047 Q647.1563,192.5313 646.5313,192.5313 Q645.1875,192.5313 644.5,193.6016 Q643.8125,194.6719 643.8125,196.7656 Q643.8125,198.8594 644.5,199.9297 Q645.1875,201 646.5313,201 Q647.1563,201 647.75,200.7266 Q648.3438,200.4531 648.9688,199.875 L648.9688,202.5938 Z "/><text fill="#000000" font-family="sans-serif" font-size="12" lengthAdjust="spacingAndGlyphs" textLength="68" x="660" y="201.1074">RtspServer</text><line style="stroke: #A80036; stroke-width: 1.5;" x1="632" x2="730" y1="212.9531" y2="212.9531"/><line style="stroke: #A80036; stroke-width: 1.5;" x1="632" x2="730" y1="220.9531" y2="220.9531"/><rect fill="#FEFECE" filter="url(#f1)" height="48" style="stroke: #A80036; stroke-width: 1.5;" width="99" x="766.75" y="180.9531"/><ellipse cx="781.75" cy="196.9531" fill="#ADD1B2" rx="11" ry="11" style="stroke: #A80036; stroke-width: 1.0;"/><path d="M784.7188,202.5938 Q784.1406,202.8906 783.5,203.0391 Q782.8594,203.1875 782.1563,203.1875 Q779.6563,203.1875 778.3359,201.5391 Q777.0156,199.8906 777.0156,196.7656 Q777.0156,193.6406 778.3359,191.9844 Q779.6563,190.3281 782.1563,190.3281 Q782.8594,190.3281 783.5078,190.4844 Q784.1563,190.6406 784.7188,190.9375 L784.7188,193.6563 Q784.0938,193.0781 783.5,192.8047 Q782.9063,192.5313 782.2813,192.5313 Q780.9375,192.5313 780.25,193.6016 Q779.5625,194.6719 779.5625,196.7656 Q779.5625,198.8594 780.25,199.9297 Q780.9375,201 782.2813,201 Q782.9063,201 783.5,200.7266 Q784.0938,200.4531 784.7188,199.875 L784.7188,202.5938 Z "/><text fill="#000000" font-family="sans-serif" font-size="12" lengthAdjust="spacingAndGlyphs" textLength="67" x="795.75" y="201.1074">HttpServer</text><line style="stroke: #A80036; stroke-width: 1.5;" x1="767.75" x2="864.75" y1="212.9531" y2="212.9531"/><line style="stroke: #A80036; stroke-width: 1.5;" x1="767.75" x2="864.75" y1="220.9531" y2="220.9531"/><rect fill="#FEFECE" filter="url(#f1)" height="48" style="stroke: #A80036; stroke-width: 1.5;" width="103" x="1030.75" y="258.9531"/><ellipse cx="1045.75" cy="274.9531" fill="#ADD1B2" rx="11" ry="11" style="stroke: #A80036; stroke-width: 1.0;"/><path d="M1048.7188,280.5938 Q1048.1406,280.8906 1047.5,281.0391 Q1046.8594,281.1875 1046.1563,281.1875 Q1043.6563,281.1875 1042.3359,279.5391 Q1041.0156,277.8906 1041.0156,274.7656 Q1041.0156,271.6406 1042.3359,269.9844 Q1043.6563,268.3281 1046.1563,268.3281 Q1046.8594,268.3281 1047.5078,268.4844 Q1048.1563,268.6406 1048.7188,268.9375 L1048.7188,271.6563 Q1048.0938,271.0781 1047.5,270.8047 Q1046.9063,270.5313 1046.2813,270.5313 Q1044.9375,270.5313 1044.25,271.6016 Q1043.5625,272.6719 1043.5625,274.7656 Q1043.5625,276.8594 1044.25,277.9297 Q1044.9375,279 1046.2813,279 Q1046.9063,279 1047.5,278.7266 Q1048.0938,278.4531 1048.7188,277.875 L1048.7188,280.5938 Z "/><text fill="#000000" font-family="sans-serif" font-size="12" lengthAdjust="spacingAndGlyphs" textLength="71" x="1059.75" y="279.1074">SsdpServer</text><line style="stroke: #A80036; stroke-width: 1.5;" x1="1031.75" x2="1132.75" y1="290.9531" y2="290.9531"/><line style="stroke: #A80036; stroke-width: 1.5;" x1="1031.75" x2="1132.75" y1="298.9531" y2="298.9531"/><rect fill="#FEFECE" filter="url(#f1)" height="48" style="stroke: #A80036; stroke-width: 1.5;" width="97" x="839.75" y="336.9531"/><ellipse cx="854.75" cy="352.9531" fill="#ADD1B2" rx="11" ry="11" style="stroke: #A80036; stroke-width: 1.0;"/><path d="M857.7188,358.5938 Q857.1406,358.8906 856.5,359.0391 Q855.8594,359.1875 855.1563,359.1875 Q852.6563,359.1875 851.3359,357.5391 Q850.0156,355.8906 850.0156,352.7656 Q850.0156,349.6406 851.3359,347.9844 Q852.6563,346.3281 855.1563,346.3281 Q855.8594,346.3281 856.5078,346.4844 Q857.1563,346.6406 857.7188,346.9375 L857.7188,349.6563 Q857.0938,349.0781 856.5,348.8047 Q855.9063,348.5313 855.2813,348.5313 Q853.9375,348.5313 853.25,349.6016 Q852.5625,350.6719 852.5625,352.7656 Q852.5625,354.8594 853.25,355.9297 Q853.9375,357 855.2813,357 Q855.9063,357 856.5,356.7266 Q857.0938,356.4531 857.7188,355.875 L857.7188,358.5938 Z "/><text fill="#000000" font-family="sans-serif" font-size="12" lengthAdjust="spacingAndGlyphs" textLength="65" x="868.75" y="357.1074">Properties</text><line style="stroke: #A80036; stroke-width: 1.5;" x1="840.75" x2="935.75" y1="368.9531" y2="368.9531"/><line style="stroke: #A80036; stroke-width: 1.5;" x1="840.75" x2="935.75" y1="376.9531" y2="376.9531"/><rect fill="#FEFECE" filter="url(#f1)" height="60.8047" style="stroke: #A80036; stroke-width: 1.5;" width="111" x="935.75" y="538.4531"/><ellipse cx="950.75" cy="554.4531" fill="#ADD1B2" rx="11" ry="11" style="stroke: #A80036; stroke-width: 1.0;"/><path d="M953.7188,560.0938 Q953.1406,560.3906 952.5,560.5391 Q951.8594,560.6875 951.1563,560.6875 Q948.6563,560.6875 947.3359,559.0391 Q946.0156,557.3906 946.0156,554.2656 Q946.0156,551.1406 947.3359,549.4844 Q948.6563,547.8281 951.1563,547.8281 Q951.8594,547.8281 952.5078,547.9844 Q953.1563,548.1406 953.7188,548.4375 L953.7188,551.1563 Q953.0938,550.5781 952.5,550.3047 Q951.9063,550.0313 951.2813,550.0313 Q949.9375,550.0313 949.25,551.1016 Q948.5625,552.1719 948.5625,554.2656 Q948.5625,556.3594 949.25,557.4297 Q949.9375,558.5 951.2813,558.5 Q951.9063,558.5 952.5,558.2266 Q953.0938,557.9531 953.7188,557.375 L953.7188,560.0938 Z "/><text fill="#000000" font-family="sans-serif" font-size="12" lengthAdjust="spacingAndGlyphs" textLength="79" x="964.75" y="558.6074">InterfaceAttr</text><line style="stroke: #A80036; stroke-width: 1.5;" x1="936.75" x2="1045.75" y1="570.4531" y2="570.4531"/><text fill="#000000" font-family="sans-serif" font-size="11" lengthAdjust="spacingAndGlyphs" textLength="50" x="941.75" y="584.6636">Eth0 etc.</text><line style="stroke: #A80036; stroke-width: 1.5;" x1="936.75" x2="1045.75" y1="591.2578" y2="591.2578"/><rect fill="#FEFECE" filter="url(#f1)" height="73.6094" style="stroke: #A80036; stroke-width: 1.5;" width="159" x="938.75" y="728.9531"/><ellipse cx="976.25" cy="744.9531" fill="#ADD1B2" rx="11" ry="11" style="stroke: #A80036; stroke-width: 1.0;"/><path d="M979.2188,750.5938 Q978.6406,750.8906 978,751.0391 Q977.3594,751.1875 976.6563,751.1875 Q974.1563,751.1875 972.8359,749.5391 Q971.5156,747.8906 971.5156,744.7656 Q971.5156,741.6406 972.8359,739.9844 Q974.1563,738.3281 976.6563,738.3281 Q977.3594,738.3281 978.0078,738.4844 Q978.6563,738.6406 979.2188,738.9375 L979.2188,741.6563 Q978.5938,741.0781 978,740.8047 Q977.4063,740.5313 976.7813,740.5313 Q975.4375,740.5313 974.75,741.6016 Q974.0625,742.6719 974.0625,744.7656 Q974.0625,746.8594 974.75,747.9297 Q975.4375,749 976.7813,749 Q977.4063,749 978,748.7266 Q978.5938,748.4531 979.2188,747.875 L979.2188,750.5938 Z "/><text fill="#000000" font-family="sans-serif" font-size="12" lengthAdjust="spacingAndGlyphs" textLength="77" x="995.25" y="749.1074">HttpcSocket</text><line style="stroke: #A80036; stroke-width: 1.5;" x1="939.75" x2="1096.75" y1="760.9531" y2="760.9531"/><line style="stroke: #A80036; stroke-width: 1.5;" x1="939.75" x2="1096.75" y1="768.9531" y2="768.9531"/><text fill="#000000" font-family="sans-serif" font-size="11" lengthAdjust="spacingAndGlyphs" textLength="120" x="944.75" y="783.1636">recvHttpcMessage(..)</text><text fill="#000000" font-family="sans-serif" font-size="11" lengthAdjust="spacingAndGlyphs" textLength="147" x="944.75" y="795.9683">recvfromHttpcMessage(..)</text><rect fill="#FEFECE" filter="url(#f1)" height="86.4141" style="stroke: #A80036; stroke-width: 1.5;" width="161" x="792.75" y="864.9531"/><ellipse cx="830.7" cy="880.9531" fill="#ADD1B2" rx="11" ry="11" style="stroke: #A80036; stroke-width: 1.0;"/><path d="M833.6688,886.5938 Q833.0906,886.8906 832.45,887.0391 Q831.8094,887.1875 831.1063,887.1875 Q828.6063,887.1875 827.2859,885.5391 Q825.9656,883.8906 825.9656,880.7656 Q825.9656,877.6406 827.2859,875.9844 Q828.6063,874.3281 831.1063,874.3281 Q831.8094,874.3281 832.4578,874.4844 Q833.1063,874.6406 833.6688,874.9375 L833.6688,877.6563 Q833.0438,877.0781 832.45,876.8047 Q831.8563,876.5313 831.2313,876.5313 Q829.8875,876.5313 829.2,877.6016 Q828.5125,878.6719 828.5125,880.7656 Q828.5125,882.8594 829.2,883.9297 Q829.8875,885 831.2313,885 Q831.8563,885 832.45,884.7266 Q833.0438,884.4531 833.6688,883.875 L833.6688,886.5938 Z "/><text fill="#000000" font-family="sans-serif" font-size="12" lengthAdjust="spacingAndGlyphs" textLength="78" x="849.8" y="885.1074">SocketClient</text><line style="stroke: #A80036; stroke-width: 1.5;" x1="793.75" x2="952.75" y1="896.9531" y2="896.9531"/><text fill="#000000" font-family="sans-serif" font-size="11" lengthAdjust="spacingAndGlyphs" textLength="94" x="798.75" y="911.1636">std::string _msg</text><text fill="#000000" font-family="sans-serif" font-size="11" lengthAdjust="spacingAndGlyphs" textLength="149" x="798.75" y="923.9683">std::string _protocolString</text><text fill="#000000" font-family="sans-serif" font-size="11" lengthAdjust="spacingAndGlyphs" textLength="125" x="798.75" y="936.7729">std::string _sessionID</text><line style="stroke: #A80036; stroke-width: 1.5;" x1="793.75" x2="952.75" y1="943.3672" y2="943.3672"/><rect fill="#FEFECE" filter="url(#f1)" height="73.6094" style="stroke: #A80036; stroke-width: 1.5;" width="123" x="575.75" y="1170.9531"/><ellipse cx="602" cy="1186.9531" fill="#ADD1B2" rx="11" ry="11" style="stroke: #A80036; stroke-width: 1.0;"/><path d="M604.9688,1192.5938 Q604.3906,1192.8906 603.75,1193.0391 Q603.1094,1193.1875 602.4063,1193.1875 Q599.9063,1193.1875 598.5859,1191.5391 Q597.2656,1189.8906 597.2656,1186.7656 Q597.2656,1183.6406 598.5859,1181.9844 Q599.9063,1180.3281 602.4063,1180.3281 Q603.1094,1180.3281 603.7578,1180.4844 Q604.4063,1180.6406 604.9688,1180.9375 L604.9688,1183.6563 Q604.3438,1183.0781 603.75,1182.8047 Q603.1563,1182.5313 602.5313,1182.5313 Q601.1875,1182.5313 600.5,1183.6016 Q599.8125,1184.6719 599.8125,1186.7656 Q599.8125,1188.8594 600.5,1189.9297 Q601.1875,1191 602.5313,1191 Q603.1563,1191 603.75,1190.7266 Q604.3438,1190.4531 604.9688,1189.875 L604.9688,1192.5938 Z "/><text fill="#000000" font-family="sans-serif" font-size="12" lengthAdjust="spacingAndGlyphs" textLength="66" x="618.5" y="1191.1074">SocketAttr</text><line style="stroke: #A80036; stroke-width: 1.5;" x1="576.75" x2="697.75" y1="1202.9531" y2="1202.9531"/><text fill="#000000" font-family="sans-serif" font-size="11" lengthAdjust="spacingAndGlyphs" textLength="17" x="581.75" y="1217.1636">_fd</text><text fill="#000000" font-family="sans-serif" font-size="11" lengthAdjust="spacingAndGlyphs" textLength="111" x="581.75" y="1229.9683">std::string _ip_addr</text><line style="stroke: #A80036; stroke-width: 1.5;" x1="576.75" x2="697.75" y1="1236.5625" y2="1236.5625"/><rect fill="#FEFECE" filter="url(#f1)" height="99.2188" style="stroke: #A80036; stroke-width: 1.5;" width="161" x="739.75" y="519.4531"/><ellipse cx="783.55" cy="535.4531" fill="#ADD1B2" rx="11" ry="11" style="stroke: #A80036; stroke-width: 1.0;"/><path d="M786.5188,541.0938 Q785.9406,541.3906 785.3,541.5391 Q784.6594,541.6875 783.9563,541.6875 Q781.4563,541.6875 780.1359,540.0391 Q778.8156,538.3906 778.8156,535.2656 Q778.8156,532.1406 780.1359,530.4844 Q781.4563,528.8281 783.9563,528.8281 Q784.6594,528.8281 785.3078,528.9844 Q785.9563,529.1406 786.5188,529.4375 L786.5188,532.1563 Q785.8938,531.5781 785.3,531.3047 Q784.7063,531.0313 784.0813,531.0313 Q782.7375,531.0313 782.05,532.1016 Q781.3625,533.1719 781.3625,535.2656 Q781.3625,537.3594 782.05,538.4297 Q782.7375,539.5 784.0813,539.5 Q784.7063,539.5 785.3,539.2266 Q785.8938,538.9531 786.5188,538.375 L786.5188,541.0938 Z "/><text fill="#000000" font-family="sans-serif" font-size="12" lengthAdjust="spacingAndGlyphs" textLength="65" x="803.95" y="539.6074">TcpSocket</text><line style="stroke: #A80036; stroke-width: 1.5;" x1="740.75" x2="899.75" y1="551.4531" y2="551.4531"/><text fill="#000000" font-family="sans-serif" font-size="11" lengthAdjust="spacingAndGlyphs" textLength="149" x="745.75" y="565.6636">std::string _protocolString</text><line style="stroke: #A80036; stroke-width: 1.5;" x1="740.75" x2="899.75" y1="572.2578" y2="572.2578"/><text fill="#000000" font-family="sans-serif" font-size="11" lengthAdjust="spacingAndGlyphs" textLength="36" x="745.75" y="586.4683">poll(..)</text><text fill="#000000" font-family="sans-serif" font-size="11" lengthAdjust="spacingAndGlyphs" textLength="62" x="745.75" y="599.2729">process(..)</text><text fill="#000000" font-family="sans-serif" font-size="11" lengthAdjust="spacingAndGlyphs" textLength="109" x="745.75" y="612.0776">closeConnection(..)</text><rect fill="#FEFECE" filter="url(#f1)" height="73.6094" style="stroke: #A80036; stroke-width: 1.5;" width="173" x="1013.75" y="414.9531"/><ellipse cx="1062" cy="430.9531" fill="#ADD1B2" rx="11" ry="11" style="stroke: #A80036; stroke-width: 1.0;"/><path d="M1064.9688,436.5938 Q1064.3906,436.8906 1063.75,437.0391 Q1063.1094,437.1875 1062.4063,437.1875 Q1059.9063,437.1875 1058.5859,435.5391 Q1057.2656,433.8906 1057.2656,430.7656 Q1057.2656,427.6406 1058.5859,425.9844 Q1059.9063,424.3281 1062.4063,424.3281 Q1063.1094,424.3281 1063.7578,424.4844 Q1064.4063,424.6406 1064.9688,424.9375 L1064.9688,427.6563 Q1064.3438,427.0781 1063.75,426.8047 Q1063.1563,426.5313 1062.5313,426.5313 Q1061.1875,426.5313 1060.5,427.6016 Q1059.8125,428.6719 1059.8125,430.7656 Q1059.8125,432.8594 1060.5,433.9297 Q1061.1875,435 1062.5313,435 Q1063.1563,435 1063.75,434.7266 Q1064.3438,434.4531 1064.9688,433.875 L1064.9688,436.5938 Z "/><text fill="#000000" font-family="sans-serif" font-size="12" lengthAdjust="spacingAndGlyphs" textLength="68" x="1082.5" y="435.1074">UdpSocket</text><line style="stroke: #A80036; stroke-width: 1.5;" x1="1014.75" x2="1185.75" y1="446.9531" y2="446.9531"/><line style="stroke: #A80036; stroke-width: 1.5;" x1="1014.75" x2="1185.75" y1="454.9531" y2="454.9531"/><text fill="#000000" font-family="sans-serif" font-size="11" lengthAdjust="spacingAndGlyphs" textLength="103" x="1019.75" y="469.1636">init_udp_socket(..)</text><text fill="#000000" font-family="sans-serif" font-size="11" lengthAdjust="spacingAndGlyphs" textLength="161" x="1019.75" y="481.9683">init_mutlicast_udp_socket(..)</text><rect fill="#FEFECE" filter="url(#f1)" height="48" style="stroke: #A80036; stroke-width: 1.5;" width="106" x="698.5" y="336.9531"/><ellipse cx="713.5" cy="352.9531" fill="#ADD1B2" rx="11" ry="11" style="stroke: #A80036; stroke-width: 1.0;"/><path d="M716.4688,358.5938 Q715.8906,358.8906 715.25,359.0391 Q714.6094,359.1875 713.9063,359.1875 Q711.4063,359.1875 710.0859,357.5391 Q708.7656,355.8906 708.7656,352.7656 Q708.7656,349.6406 710.0859,347.9844 Q711.4063,346.3281 713.9063,346.3281 Q714.6094,346.3281 715.2578,346.4844 Q715.9063,346.6406 716.4688,346.9375 L716.4688,349.6563 Q715.8438,349.0781 715.25,348.8047 Q714.6563,348.5313 714.0313,348.5313 Q712.6875,348.5313 712,349.6016 Q711.3125,350.6719 711.3125,352.7656 Q711.3125,354.8594 712,355.9297 Q712.6875,357 714.0313,357 Q714.6563,357 715.25,356.7266 Q715.8438,356.4531 716.4688,355.875 L716.4688,358.5938 Z "/><text fill="#000000" font-family="sans-serif" font-size="12" lengthAdjust="spacingAndGlyphs" textLength="74" x="727.5" y="357.1074">HttpcServer</text><line style="stroke: #A80036; stroke-width: 1.5;" x1="699.5" x2="803.5" y1="368.9531" y2="368.9531"/><line style="stroke: #A80036; stroke-width: 1.5;" x1="699.5" x2="803.5" y1="376.9531" y2="376.9531"/><rect fill="#FEFECE" filter="url(#f1)" height="48" style="stroke: #A80036; stroke-width: 1.5;" width="133" x="43.75" y="1183.9531"/><ellipse cx="58.75" cy="1199.9531" fill="#ADD1B2" rx="11" ry="11" style="stroke: #A80036; stroke-width: 1.0;"/><path d="M61.7188,1205.5938 Q61.1406,1205.8906 60.5,1206.0391 Q59.8594,1206.1875 59.1563,1206.1875 Q56.6563,1206.1875 55.3359,1204.5391 Q54.0156,1202.8906 54.0156,1199.7656 Q54.0156,1196.6406 55.3359,1194.9844 Q56.6563,1193.3281 59.1563,1193.3281 Q59.8594,1193.3281 60.5078,1193.4844 Q61.1563,1193.6406 61.7188,1193.9375 L61.7188,1196.6563 Q61.0938,1196.0781 60.5,1195.8047 Q59.9063,1195.5313 59.2813,1195.5313 Q57.9375,1195.5313 57.25,1196.6016 Q56.5625,1197.6719 56.5625,1199.7656 Q56.5625,1201.8594 57.25,1202.9297 Q57.9375,1204 59.2813,1204 Q59.9063,1204 60.5,1203.7266 Q61.0938,1203.4531 61.7188,1202.875 L61.7188,1205.5938 Z "/><text fill="#000000" font-family="sans-serif" font-size="12" lengthAdjust="spacingAndGlyphs" textLength="101" x="72.75" y="1204.1074">StreamInterface</text><line style="stroke: #A80036; stroke-width: 1.5;" x1="44.75" x2="175.75" y1="1215.9531" y2="1215.9531"/><line style="stroke: #A80036; stroke-width: 1.5;" x1="44.75" x2="175.75" y1="1223.9531" y2="1223.9531"/><rect fill="#FEFECE" filter="url(#f1)" height="137.6328" style="stroke: #A80036; stroke-width: 1.5;" width="198" x="437" y="696.9531"/><ellipse cx="509.25" cy="712.9531" fill="#ADD1B2" rx="11" ry="11" style="stroke: #A80036; stroke-width: 1.0;"/><path d="M512.2188,718.5938 Q511.6406,718.8906 511,719.0391 Q510.3594,719.1875 509.6563,719.1875 Q507.1563,719.1875 505.8359,717.5391 Q504.5156,715.8906 504.5156,712.7656 Q504.5156,709.6406 505.8359,707.9844 Q507.1563,706.3281 509.6563,706.3281 Q510.3594,706.3281 511.0078,706.4844 Q511.6563,706.6406 512.2188,706.9375 L512.2188,709.6563 Q511.5938,709.0781 511,708.8047 Q510.4063,708.5313 509.7813,708.5313 Q508.4375,708.5313 507.75,709.6016 Q507.0625,710.6719 507.0625,712.7656 Q507.0625,714.8594 507.75,715.9297 Q508.4375,717 509.7813,717 Q510.4063,717 511,716.7266 Q511.5938,716.4531 512.2188,715.875 L512.2188,718.5938 Z "/><text fill="#000000" font-family="sans-serif" font-size="12" lengthAdjust="spacingAndGlyphs" textLength="45" x="529.75" y="717.1074">Stream</text><line style="stroke: #A80036; stroke-width: 1.5;" x1="438" x2="634" y1="728.9531" y2="728.9531"/><text fill="#000000" font-family="sans-serif" font-size="11" lengthAdjust="spacingAndGlyphs" textLength="33" x="443" y="743.1636">Mutex</text><text fill="#000000" font-family="sans-serif" font-size="11" lengthAdjust="spacingAndGlyphs" textLength="73" x="443" y="755.9683">streamInUse</text><text fill="#000000" font-family="sans-serif" font-size="11" lengthAdjust="spacingAndGlyphs" textLength="45" x="443" y="768.7729">enabled</text><text fill="#000000" font-family="sans-serif" font-size="11" lengthAdjust="spacingAndGlyphs" textLength="86" x="443" y="781.5776">StreamingType</text><text fill="#000000" font-family="sans-serif" font-size="11" lengthAdjust="spacingAndGlyphs" textLength="101" x="443" y="794.3823">StreamProperties</text><text fill="#000000" font-family="sans-serif" font-size="11" lengthAdjust="spacingAndGlyphs" textLength="186" x="443" y="807.187">decrypt::dvbapi::ClientProperties</text><text fill="#000000" font-family="sans-serif" font-size="11" lengthAdjust="spacingAndGlyphs" textLength="72" x="443" y="819.9917">ChannelData</text><line style="stroke: #A80036; stroke-width: 1.5;" x1="438" x2="634" y1="826.5859" y2="826.5859"/><rect fill="#FEFECE" filter="url(#f1)" height="48" style="stroke: #A80036; stroke-width: 1.5;" width="181" x="523.75" y="544.9531"/><ellipse cx="538.75" cy="560.9531" fill="#ADD1B2" rx="11" ry="11" style="stroke: #A80036; stroke-width: 1.0;"/><path d="M541.7188,566.5938 Q541.1406,566.8906 540.5,567.0391 Q539.8594,567.1875 539.1563,567.1875 Q536.6563,567.1875 535.3359,565.5391 Q534.0156,563.8906 534.0156,560.7656 Q534.0156,557.6406 535.3359,555.9844 Q536.6563,554.3281 539.1563,554.3281 Q539.8594,554.3281 540.5078,554.4844 Q541.1563,554.6406 541.7188,554.9375 L541.7188,557.6563 Q541.0938,557.0781 540.5,556.8047 Q539.9063,556.5313 539.2813,556.5313 Q537.9375,556.5313 537.25,557.6016 Q536.5625,558.6719 536.5625,560.7656 Q536.5625,562.8594 537.25,563.9297 Q537.9375,565 539.2813,565 Q539.9063,565 540.5,564.7266 Q541.0938,564.4531 541.7188,563.875 L541.7188,566.5938 Z "/><text fill="#000000" font-family="sans-serif" font-size="12" lengthAdjust="spacingAndGlyphs" textLength="149" x="552.75" y="565.1074">StreamInterfaceDecrypt</text><line style="stroke: #A80036; stroke-width: 1.5;" x1="524.75" x2="703.75" y1="576.9531" y2="576.9531"/><line style="stroke: #A80036; stroke-width: 1.5;" x1="524.75" x2="703.75" y1="584.9531" y2="584.9531"/><rect fill="#FEFECE" filter="url(#f1)" height="112.0234" style="stroke: #A80036; stroke-width: 1.5;" width="113" x="479.75" y="980.9531"/><ellipse cx="495.2" cy="996.9531" fill="#ADD1B2" rx="11" ry="11" style="stroke: #A80036; stroke-width: 1.0;"/><path d="M498.1688,1002.5938 Q497.5906,1002.8906 496.95,1003.0391 Q496.3094,1003.1875 495.6063,1003.1875 Q493.1063,1003.1875 491.7859,1001.5391 Q490.4656,999.8906 490.4656,996.7656 Q490.4656,993.6406 491.7859,991.9844 Q493.1063,990.3281 495.6063,990.3281 Q496.3094,990.3281 496.9578,990.4844 Q497.6063,990.6406 498.1688,990.9375 L498.1688,993.6563 Q497.5438,993.0781 496.95,992.8047 Q496.3563,992.5313 495.7313,992.5313 Q494.3875,992.5313 493.7,993.6016 Q493.0125,994.6719 493.0125,996.7656 Q493.0125,998.8594 493.7,999.9297 Q494.3875,1001 495.7313,1001 Q496.3563,1001 496.95,1000.7266 Q497.5438,1000.4531 498.1688,999.875 L498.1688,1002.5938 Z "/><text fill="#000000" font-family="sans-serif" font-size="12" lengthAdjust="spacingAndGlyphs" textLength="80" x="509.3" y="1001.1074">StreamClient</text><line style="stroke: #A80036; stroke-width: 1.5;" x1="480.75" x2="591.75" y1="1012.9531" y2="1012.9531"/><text fill="#000000" font-family="sans-serif" font-size="11" lengthAdjust="spacingAndGlyphs" textLength="33" x="485.75" y="1027.1636">Mutex</text><text fill="#000000" font-family="sans-serif" font-size="11" lengthAdjust="spacingAndGlyphs" textLength="101" x="485.75" y="1039.9683">const int *httpcFD</text><text fill="#000000" font-family="sans-serif" font-size="11" lengthAdjust="spacingAndGlyphs" textLength="54" x="485.75" y="1052.7729">watchdog</text><text fill="#000000" font-family="sans-serif" font-size="11" lengthAdjust="spacingAndGlyphs" textLength="52" x="485.75" y="1065.5776">canClose</text><text fill="#000000" font-family="sans-serif" font-size="11" lengthAdjust="spacingAndGlyphs" textLength="27" x="485.75" y="1078.3823">cseq</text><line style="stroke: #A80036; stroke-width: 1.5;" x1="480.75" x2="591.75" y1="1084.9766" y2="1084.9766"/><rect fill="#FEFECE" filter="url(#f1)" height="48" style="stroke: #A80036; stroke-width: 1.5;" width="113" x="820.75" y="1012.9531"/><ellipse cx="835.75" cy="1028.9531" fill="#ADD1B2" rx="11" ry="11" style="stroke: #A80036; stroke-width: 1.0;"/><path d="M838.7188,1034.5938 Q838.1406,1034.8906 837.5,1035.0391 Q836.8594,1035.1875 836.1563,1035.1875 Q833.6563,1035.1875 832.3359,1033.5391 Q831.0156,1031.8906 831.0156,1028.7656 Q831.0156,1025.6406 832.3359,1023.9844 Q833.6563,1022.3281 836.1563,1022.3281 Q836.8594,1022.3281 837.5078,1022.4844 Q838.1563,1022.6406 838.7188,1022.9375 L838.7188,1025.6563 Q838.0938,1025.0781 837.5,1024.8047 Q836.9063,1024.5313 836.2813,1024.5313 Q834.9375,1024.5313 834.25,1025.6016 Q833.5625,1026.6719 833.5625,1028.7656 Q833.5625,1030.8594 834.25,1031.9297 Q834.9375,1033 836.2813,1033 Q836.9063,1033 837.5,1032.7266 Q838.0938,1032.4531 838.7188,1031.875 L838.7188,1034.5938 Z "/><text fill="#000000" font-family="sans-serif" font-size="12" lengthAdjust="spacingAndGlyphs" textLength="81" x="849.75" y="1033.1074">input::Device</text><line style="stroke: #A80036; stroke-width: 1.5;" x1="821.75" x2="932.75" y1="1044.9531" y2="1044.9531"/><line style="stroke: #A80036; stroke-width: 1.5;" x1="821.75" x2="932.75" y1="1052.9531" y2="1052.9531"/><rect fill="#FEFECE" filter="url(#f1)" height="48" style="stroke: #A80036; stroke-width: 1.5;" width="152" x="187" y="1012.9531"/><ellipse cx="202" cy="1028.9531" fill="#ADD1B2" rx="11" ry="11" style="stroke: #A80036; stroke-width: 1.0;"/><path d="M204.9688,1034.5938 Q204.3906,1034.8906 203.75,1035.0391 Q203.1094,1035.1875 202.4063,1035.1875 Q199.9063,1035.1875 198.5859,1033.5391 Q197.2656,1031.8906 197.2656,1028.7656 Q197.2656,1025.6406 198.5859,1023.9844 Q199.9063,1022.3281 202.4063,1022.3281 Q203.1094,1022.3281 203.7578,1022.4844 Q204.4063,1022.6406 204.9688,1022.9375 L204.9688,1025.6563 Q204.3438,1025.0781 203.75,1024.8047 Q203.1563,1024.5313 202.5313,1024.5313 Q201.1875,1024.5313 200.5,1025.6016 Q199.8125,1026.6719 199.8125,1028.7656 Q199.8125,1030.8594 200.5,1031.9297 Q201.1875,1033 202.5313,1033 Q203.1563,1033 203.75,1032.7266 Q204.3438,1032.4531 204.9688,1031.875 L204.9688,1034.5938 Z "/><text fill="#000000" font-family="sans-serif" font-size="12" lengthAdjust="spacingAndGlyphs" textLength="120" x="216" y="1033.1074">StreamThreadBase</text><line style="stroke: #A80036; stroke-width: 1.5;" x1="188" x2="338" y1="1044.9531" y2="1044.9531"/><line style="stroke: #A80036; stroke-width: 1.5;" x1="188" x2="338" y1="1052.9531" y2="1052.9531"/><rect fill="#FEFECE" filter="url(#f1)" height="73.6094" style="stroke: #A80036; stroke-width: 1.5;" width="187" x="107.75" y="531.9531"/><ellipse cx="129.95" cy="547.9531" fill="#ADD1B2" rx="11" ry="11" style="stroke: #A80036; stroke-width: 1.0;"/><path d="M132.9188,553.5938 Q132.3406,553.8906 131.7,554.0391 Q131.0594,554.1875 130.3563,554.1875 Q127.8562,554.1875 126.5359,552.5391 Q125.2156,550.8906 125.2156,547.7656 Q125.2156,544.6406 126.5359,542.9844 Q127.8562,541.3281 130.3563,541.3281 Q131.0594,541.3281 131.7078,541.4844 Q132.3563,541.6406 132.9188,541.9375 L132.9188,544.6563 Q132.2938,544.0781 131.7,543.8047 Q131.1063,543.5313 130.4813,543.5313 Q129.1375,543.5313 128.45,544.6016 Q127.7625,545.6719 127.7625,547.7656 Q127.7625,549.8594 128.45,550.9297 Q129.1375,552 130.4813,552 Q131.1063,552 131.7,551.7266 Q132.2938,551.4531 132.9188,550.875 L132.9188,553.5938 Z "/><text fill="#000000" font-family="sans-serif" font-size="12" lengthAdjust="spacingAndGlyphs" textLength="139" x="145.55" y="552.1074">decrypt::dvbapi::Client</text><line style="stroke: #A80036; stroke-width: 1.5;" x1="108.75" x2="293.75" y1="563.9531" y2="563.9531"/><text fill="#000000" font-family="sans-serif" font-size="11" lengthAdjust="spacingAndGlyphs" textLength="33" x="113.75" y="578.1636">Mutex</text><line style="stroke: #A80036; stroke-width: 1.5;" x1="108.75" x2="293.75" y1="584.7578" y2="584.7578"/><text fill="#000000" font-family="sans-serif" font-size="11" lengthAdjust="spacingAndGlyphs" textLength="175" x="113.75" y="598.9683">_getStreamInterfaceDecrypt(..)</text><rect fill="#FEFECE" filter="url(#f1)" height="48" style="stroke: #A80036; stroke-width: 1.5;" width="127" x="211.75" y="1183.9531"/><ellipse cx="226.75" cy="1199.9531" fill="#ADD1B2" rx="11" ry="11" style="stroke: #A80036; stroke-width: 1.0;"/><path d="M229.7188,1205.5938 Q229.1406,1205.8906 228.5,1206.0391 Q227.8594,1206.1875 227.1563,1206.1875 Q224.6563,1206.1875 223.3359,1204.5391 Q222.0156,1202.8906 222.0156,1199.7656 Q222.0156,1196.6406 223.3359,1194.9844 Q224.6563,1193.3281 227.1563,1193.3281 Q227.8594,1193.3281 228.5078,1193.4844 Q229.1563,1193.6406 229.7188,1193.9375 L229.7188,1196.6563 Q229.0938,1196.0781 228.5,1195.8047 Q227.9063,1195.5313 227.2813,1195.5313 Q225.9375,1195.5313 225.25,1196.6016 Q224.5625,1197.6719 224.5625,1199.7656 Q224.5625,1201.8594 225.25,1202.9297 Q225.9375,1204 227.2813,1204 Q227.9063,1204 228.5,1203.7266 Q229.0938,1203.4531 229.7188,1202.875 L229.7188,1205.5938 Z "/><text fill="#000000" font-family="sans-serif" font-size="12" lengthAdjust="spacingAndGlyphs" textLength="95" x="240.75" y="1204.1074">TSPacketBuffer</text><line style="stroke: #A80036; stroke-width: 1.5;" x1="212.75" x2="337.75" y1="1215.9531" y2="1215.9531"/><line style="stroke: #A80036; stroke-width: 1.5;" x1="212.75" x2="337.75" y1="1223.9531" y2="1223.9531"/><rect fill="#FEFECE" filter="url(#f1)" height="73.6094" style="stroke: #A80036; stroke-width: 1.5;" width="142" x="6" y="728.9531"/><ellipse cx="21" cy="744.9531" fill="#ADD1B2" rx="11" ry="11" style="stroke: #A80036; stroke-width: 1.0;"/><path d="M23.9688,750.5938 Q23.3906,750.8906 22.75,751.0391 Q22.1094,751.1875 21.4063,751.1875 Q18.9063,751.1875 17.5859,749.5391 Q16.2656,747.8906 16.2656,744.7656 Q16.2656,741.6406 17.5859,739.9844 Q18.9063,738.3281 21.4063,738.3281 Q22.1094,738.3281 22.7578,738.4844 Q23.4063,738.6406 23.9688,738.9375 L23.9688,741.6563 Q23.3438,741.0781 22.75,740.8047 Q22.1563,740.5313 21.5313,740.5313 Q20.1875,740.5313 19.5,741.6016 Q18.8125,742.6719 18.8125,744.7656 Q18.8125,746.8594 19.5,747.9297 Q20.1875,749 21.5313,749 Q22.1563,749 22.75,748.7266 Q23.3438,748.4531 23.9688,747.875 L23.9688,750.5938 Z "/><text fill="#000000" font-family="sans-serif" font-size="12" lengthAdjust="spacingAndGlyphs" textLength="110" x="35" y="749.1074">RtpStreamThread</text><line style="stroke: #A80036; stroke-width: 1.5;" x1="7" x2="147" y1="760.9531" y2="760.9531"/><text fill="#000000" font-family="sans-serif" font-size="11" lengthAdjust="spacingAndGlyphs" textLength="54" x="12" y="775.1636">socket_fd</text><text fill="#000000" font-family="sans-serif" font-size="11" lengthAdjust="spacingAndGlyphs" textLength="27" x="12" y="787.9683">cseq</text><line style="stroke: #A80036; stroke-width: 1.5;" x1="7" x2="147" y1="794.5625" y2="794.5625"/><rect fill="#FEFECE" filter="url(#f1)" height="60.8047" style="stroke: #A80036; stroke-width: 1.5;" width="104" x="42" y="1006.4531"/><ellipse cx="57" cy="1022.4531" fill="#ADD1B2" rx="11" ry="11" style="stroke: #A80036; stroke-width: 1.0;"/><path d="M59.9688,1028.0938 Q59.3906,1028.3906 58.75,1028.5391 Q58.1094,1028.6875 57.4063,1028.6875 Q54.9063,1028.6875 53.5859,1027.0391 Q52.2656,1025.3906 52.2656,1022.2656 Q52.2656,1019.1406 53.5859,1017.4844 Q54.9063,1015.8281 57.4063,1015.8281 Q58.1094,1015.8281 58.7578,1015.9844 Q59.4063,1016.1406 59.9688,1016.4375 L59.9688,1019.1563 Q59.3438,1018.5781 58.75,1018.3047 Q58.1563,1018.0313 57.5313,1018.0313 Q56.1875,1018.0313 55.5,1019.1016 Q54.8125,1020.1719 54.8125,1022.2656 Q54.8125,1024.3594 55.5,1025.4297 Q56.1875,1026.5 57.5313,1026.5 Q58.1563,1026.5 58.75,1026.2266 Q59.3438,1025.9531 59.9688,1025.375 L59.9688,1028.0938 Z "/><text fill="#000000" font-family="sans-serif" font-size="12" lengthAdjust="spacingAndGlyphs" textLength="72" x="71" y="1026.6074">RtcpThread</text><line style="stroke: #A80036; stroke-width: 1.5;" x1="43" x2="145" y1="1038.4531" y2="1038.4531"/><text fill="#000000" font-family="sans-serif" font-size="11" lengthAdjust="spacingAndGlyphs" textLength="54" x="48" y="1052.6636">socket_fd</text><line style="stroke: #A80036; stroke-width: 1.5;" x1="43" x2="145" y1="1059.2578" y2="1059.2578"/><rect fill="#FEFECE" filter="url(#f1)" height="48" style="stroke: #A80036; stroke-width: 1.5;" width="148" x="254" y="741.9531"/><ellipse cx="269" cy="757.9531" fill="#ADD1B2" rx="11" ry="11" style="stroke: #A80036; stroke-width: 1.0;"/><path d="M271.9688,763.5938 Q271.3906,763.8906 270.75,764.0391 Q270.1094,764.1875 269.4063,764.1875 Q266.9063,764.1875 265.5859,762.5391 Q264.2656,760.8906 264.2656,757.7656 Q264.2656,754.6406 265.5859,752.9844 Q266.9063,751.3281 269.4063,751.3281 Q270.1094,751.3281 270.7578,751.4844 Q271.4063,751.6406 271.9688,751.9375 L271.9688,754.6563 Q271.3438,754.0781 270.75,753.8047 Q270.1563,753.5313 269.5313,753.5313 Q268.1875,753.5313 267.5,754.6016 Q266.8125,755.6719 266.8125,757.7656 Q266.8125,759.8594 267.5,760.9297 Q268.1875,762 269.5313,762 Q270.1563,762 270.75,761.7266 Q271.3438,761.4531 271.9688,760.875 L271.9688,763.5938 Z "/><text fill="#000000" font-family="sans-serif" font-size="12" lengthAdjust="spacingAndGlyphs" textLength="116" x="283" y="762.1074">HttpStreamThread</text><line style="stroke: #A80036; stroke-width: 1.5;" x1="255" x2="401" y1="773.9531" y2="773.9531"/><line style="stroke: #A80036; stroke-width: 1.5;" x1="255" x2="401" y1="781.9531" y2="781.9531"/><rect fill="#FEFECE" filter="url(#f1)" height="48" style="stroke: #A80036; stroke-width: 1.5;" width="236" x="1135" y="41.9531"/><ellipse cx="1150" cy="57.9531" fill="#ADD1B2" rx="11" ry="11" style="stroke: #A80036; stroke-width: 1.0;"/><path d="M1152.9688,63.5938 Q1152.3906,63.8906 1151.75,64.0391 Q1151.1094,64.1875 1150.4063,64.1875 Q1147.9063,64.1875 1146.5859,62.5391 Q1145.2656,60.8906 1145.2656,57.7656 Q1145.2656,54.6406 1146.5859,52.9844 Q1147.9063,51.3281 1150.4063,51.3281 Q1151.1094,51.3281 1151.7578,51.4844 Q1152.4063,51.6406 1152.9688,51.9375 L1152.9688,54.6563 Q1152.3438,54.0781 1151.75,53.8047 Q1151.1563,53.5313 1150.5313,53.5313 Q1149.1875,53.5313 1148.5,54.6016 Q1147.8125,55.6719 1147.8125,57.7656 Q1147.8125,59.8594 1148.5,60.9297 Q1149.1875,62 1150.5313,62 Q1151.1563,62 1151.75,61.7266 Q1152.3438,61.4531 1152.9688,60.875 L1152.9688,63.5938 Z "/><text fill="#000000" font-family="sans-serif" font-size="12" lengthAdjust="spacingAndGlyphs" textLength="204" x="1164" y="62.1074">decrypt::dvbapi::ClientProperties</text><line style="stroke: #A80036; stroke-width: 1.5;" x1="1136" x2="1370" y1="73.9531" y2="73.9531"/><line style="stroke: #A80036; stroke-width: 1.5;" x1="1136" x2="1370" y1="81.9531" y2="81.9531"/><rect fill="#FEFECE" filter="url(#f1)" height="48" style="stroke: #A80036; stroke-width: 1.5;" width="116" x="1125.5" y="180.9531"/><ellipse cx="1140.5" cy="196.9531" fill="#ADD1B2" rx="11" ry="11" style="stroke: #A80036; stroke-width: 1.0;"/><path d="M1143.4688,202.5938 Q1142.8906,202.8906 1142.25,203.0391 Q1141.6094,203.1875 1140.9063,203.1875 Q1138.4063,203.1875 1137.0859,201.5391 Q1135.7656,199.8906 1135.7656,196.7656 Q1135.7656,193.6406 1137.0859,191.9844 Q1138.4063,190.3281 1140.9063,190.3281 Q1141.6094,190.3281 1142.2578,190.4844 Q1142.9063,190.6406 1143.4688,190.9375 L1143.4688,193.6563 Q1142.8438,193.0781 1142.25,192.8047 Q1141.6563,192.5313 1141.0313,192.5313 Q1139.6875,192.5313 1139,193.6016 Q1138.3125,194.6719 1138.3125,196.7656 Q1138.3125,198.8594 1139,199.9297 Q1139.6875,201 1141.0313,201 Q1141.6563,201 1142.25,200.7266 Q1142.8438,200.4531 1143.4688,199.875 L1143.4688,202.5938 Z "/><text fill="#000000" font-family="sans-serif" font-size="12" lengthAdjust="spacingAndGlyphs" textLength="84" x="1154.5" y="201.1074">dvbcsa_key_s</text><line style="stroke: #A80036; stroke-width: 1.5;" x1="1126.5" x2="1240.5" y1="212.9531" y2="212.9531"/><line style="stroke: #A80036; stroke-width: 1.5;" x1="1126.5" x2="1240.5" y1="220.9531" y2="220.9531"/><rect fill="#FEFECE" filter="url(#f1)" height="48" style="stroke: #A80036; stroke-width: 1.5;" width="111" x="1276.75" y="180.9531"/><ellipse cx="1291.75" cy="196.9531" fill="#ADD1B2" rx="11" ry="11" style="stroke: #A80036; stroke-width: 1.0;"/><path d="M1294.7188,202.5938 Q1294.1406,202.8906 1293.5,203.0391 Q1292.8594,203.1875 1292.1563,203.1875 Q1289.6563,203.1875 1288.3359,201.5391 Q1287.0156,199.8906 1287.0156,196.7656 Q1287.0156,193.6406 1288.3359,191.9844 Q1289.6563,190.3281 1292.1563,190.3281 Q1292.8594,190.3281 1293.5078,190.4844 Q1294.1563,190.6406 1294.7188,190.9375 L1294.7188,193.6563 Q1294.0938,193.0781 1293.5,192.8047 Q1292.9063,192.5313 1292.2813,192.5313 Q1290.9375,192.5313 1290.25,193.6016 Q1289.5625,194.6719 1289.5625,196.7656 Q1289.5625,198.8594 1290.25,199.9297 Q1290.9375,201 1292.2813,201 Q1292.9063,201 1293.5,200.7266 Q1294.0938,200.4531 1294.7188,199.875 L1294.7188,202.5938 Z "/><text fill="#000000" font-family="sans-serif" font-size="12" lengthAdjust="spacingAndGlyphs" textLength="79" x="1305.75" y="201.1074">TSTableData</text><line style="stroke: #A80036; stroke-width: 1.5;" x1="1277.75" x2="1386.75" y1="212.9531" y2="212.9531"/><line style="stroke: #A80036; stroke-width: 1.5;" x1="1277.75" x2="1386.75" y1="220.9531" y2="220.9531"/><rect fill="#FEFECE" filter="url(#f1)" height="48" style="stroke: #A80036; stroke-width: 1.5;" width="159" x="765.75" y="1183.9531"/><ellipse cx="780.75" cy="1199.9531" fill="#ADD1B2" rx="11" ry="11" style="stroke: #A80036; stroke-width: 1.0;"/><path d="M783.7188,1205.5938 Q783.1406,1205.8906 782.5,1206.0391 Q781.8594,1206.1875 781.1563,1206.1875 Q778.6563,1206.1875 777.3359,1204.5391 Q776.0156,1202.8906 776.0156,1199.7656 Q776.0156,1196.6406 777.3359,1194.9844 Q778.6563,1193.3281 781.1563,1193.3281 Q781.8594,1193.3281 782.5078,1193.4844 Q783.1563,1193.6406 783.7188,1193.9375 L783.7188,1196.6563 Q783.0938,1196.0781 782.5,1195.8047 Q781.9063,1195.5313 781.2813,1195.5313 Q779.9375,1195.5313 779.25,1196.6016 Q778.5625,1197.6719 778.5625,1199.7656 Q778.5625,1201.8594 779.25,1202.9297 Q779.9375,1204 781.2813,1204 Q781.9063,1204 782.5,1203.7266 Q783.0938,1203.4531 783.7188,1202.875 L783.7188,1205.5938 Z "/><text fill="#000000" font-family="sans-serif" font-size="12" lengthAdjust="spacingAndGlyphs" textLength="127" x="794.75" y="1204.1074">input::dvb::Frontend</text><line style="stroke: #A80036; stroke-width: 1.5;" x1="766.75" x2="923.75" y1="1215.9531" y2="1215.9531"/><line style="stroke: #A80036; stroke-width: 1.5;" x1="766.75" x2="923.75" y1="1223.9531" y2="1223.9531"/><rect fill="#FEFECE" filter="url(#f1)" height="48" style="stroke: #A80036; stroke-width: 1.5;" width="158" x="959.5" y="1183.9531"/><ellipse cx="974.5" cy="1199.9531" fill="#ADD1B2" rx="11" ry="11" style="stroke: #A80036; stroke-width: 1.0;"/><path d="M977.4688,1205.5938 Q976.8906,1205.8906 976.25,1206.0391 Q975.6094,1206.1875 974.9063,1206.1875 Q972.4063,1206.1875 971.0859,1204.5391 Q969.7656,1202.8906 969.7656,1199.7656 Q969.7656,1196.6406 971.0859,1194.9844 Q972.4063,1193.3281 974.9063,1193.3281 Q975.6094,1193.3281 976.2578,1193.4844 Q976.9063,1193.6406 977.4688,1193.9375 L977.4688,1196.6563 Q976.8438,1196.0781 976.25,1195.8047 Q975.6563,1195.5313 975.0313,1195.5313 Q973.6875,1195.5313 973,1196.6016 Q972.3125,1197.6719 972.3125,1199.7656 Q972.3125,1201.8594 973,1202.9297 Q973.6875,1204 975.0313,1204 Q975.6563,1204 976.25,1203.7266 Q976.8438,1203.4531 977.4688,1202.875 L977.4688,1205.5938 Z "/><text fill="#000000" font-family="sans-serif" font-size="12" lengthAdjust="spacingAndGlyphs" textLength="126" x="988.5" y="1204.1074">input::file::TSReader</text><line style="stroke: #A80036; stroke-width: 1.5;" x1="960.5" x2="1116.5" y1="1215.9531" y2="1215.9531"/><line style="stroke: #A80036; stroke-width: 1.5;" x1="960.5" x2="1116.5" y1="1223.9531" y2="1223.9531"/><rect fill="#FEFECE" filter="url(#f1)" height="48" style="stroke: #A80036; stroke-width: 1.5;" width="202" x="744" y="1322.9531"/><ellipse cx="759" cy="1338.9531" fill="#ADD1B2" rx="11" ry="11" style="stroke: #A80036; stroke-width: 1.0;"/><path d="M761.9688,1344.5938 Q761.3906,1344.8906 760.75,1345.0391 Q760.1094,1345.1875 759.4063,1345.1875 Q756.9063,1345.1875 755.5859,1343.5391 Q754.2656,1341.8906 754.2656,1338.7656 Q754.2656,1335.6406 755.5859,1333.9844 Q756.9063,1332.3281 759.4063,1332.3281 Q760.1094,1332.3281 760.7578,1332.4844 Q761.4063,1332.6406 761.9688,1332.9375 L761.9688,1335.6563 Q761.3438,1335.0781 760.75,1334.8047 Q760.1563,1334.5313 759.5313,1334.5313 Q758.1875,1334.5313 757.5,1335.6016 Q756.8125,1336.6719 756.8125,1338.7656 Q756.8125,1340.8594 757.5,1341.9297 Q758.1875,1343 759.5313,1343 Q760.1563,1343 760.75,1342.7266 Q761.3438,1342.4531 761.9688,1341.875 L761.9688,1344.5938 Z "/><text fill="#000000" font-family="sans-serif" font-size="12" lengthAdjust="spacingAndGlyphs" textLength="170" x="773" y="1343.1074">input::dvb::delivery::System</text><line style="stroke: #A80036; stroke-width: 1.5;" x1="745" x2="945" y1="1354.9531" y2="1354.9531"/><line style="stroke: #A80036; stroke-width: 1.5;" x1="745" x2="945" y1="1362.9531" y2="1362.9531"/><rect fill="#FEFECE" filter="url(#f1)" height="48" style="stroke: #A80036; stroke-width: 1.5;" width="71" x="650.75" y="1432.9531"/><ellipse cx="665.75" cy="1448.9531" fill="#ADD1B2" rx="11" ry="11" style="stroke: #A80036; stroke-width: 1.0;"/><path d="M668.7188,1454.5938 Q668.1406,1454.8906 667.5,1455.0391 Q666.8594,1455.1875 666.1563,1455.1875 Q663.6563,1455.1875 662.3359,1453.5391 Q661.0156,1451.8906 661.0156,1448.7656 Q661.0156,1445.6406 662.3359,1443.9844 Q663.6563,1442.3281 666.1563,1442.3281 Q666.8594,1442.3281 667.5078,1442.4844 Q668.1563,1442.6406 668.7188,1442.9375 L668.7188,1445.6563 Q668.0938,1445.0781 667.5,1444.8047 Q666.9063,1444.5313 666.2813,1444.5313 Q664.9375,1444.5313 664.25,1445.6016 Q663.5625,1446.6719 663.5625,1448.7656 Q663.5625,1450.8594 664.25,1451.9297 Q664.9375,1453 666.2813,1453 Q666.9063,1453 667.5,1452.7266 Q668.0938,1452.4531 668.7188,1451.875 L668.7188,1454.5938 Z "/><text fill="#000000" font-family="sans-serif" font-size="12" lengthAdjust="spacingAndGlyphs" textLength="39" x="679.75" y="1453.1074">DVB_S</text><line style="stroke: #A80036; stroke-width: 1.5;" x1="651.75" x2="720.75" y1="1464.9531" y2="1464.9531"/><line style="stroke: #A80036; stroke-width: 1.5;" x1="651.75" x2="720.75" y1="1472.9531" y2="1472.9531"/><rect fill="#FEFECE" filter="url(#f1)" height="48" style="stroke: #A80036; stroke-width: 1.5;" width="71" x="756.75" y="1432.9531"/><ellipse cx="771.75" cy="1448.9531" fill="#ADD1B2" rx="11" ry="11" style="stroke: #A80036; stroke-width: 1.0;"/><path d="M774.7188,1454.5938 Q774.1406,1454.8906 773.5,1455.0391 Q772.8594,1455.1875 772.1563,1455.1875 Q769.6563,1455.1875 768.3359,1453.5391 Q767.0156,1451.8906 767.0156,1448.7656 Q767.0156,1445.6406 768.3359,1443.9844 Q769.6563,1442.3281 772.1563,1442.3281 Q772.8594,1442.3281 773.5078,1442.4844 Q774.1563,1442.6406 774.7188,1442.9375 L774.7188,1445.6563 Q774.0938,1445.0781 773.5,1444.8047 Q772.9063,1444.5313 772.2813,1444.5313 Q770.9375,1444.5313 770.25,1445.6016 Q769.5625,1446.6719 769.5625,1448.7656 Q769.5625,1450.8594 770.25,1451.9297 Q770.9375,1453 772.2813,1453 Q772.9063,1453 773.5,1452.7266 Q774.0938,1452.4531 774.7188,1451.875 L774.7188,1454.5938 Z "/><text fill="#000000" font-family="sans-serif" font-size="12" lengthAdjust="spacingAndGlyphs" textLength="39" x="785.75" y="1453.1074">DVB_C</text><line style="stroke: #A80036; stroke-width: 1.5;" x1="757.75" x2="826.75" y1="1464.9531" y2="1464.9531"/><line style="stroke: #A80036; stroke-width: 1.5;" x1="757.75" x2="826.75" y1="1472.9531" y2="1472.9531"/><rect fill="#FEFECE" filter="url(#f1)" height="48" style="stroke: #A80036; stroke-width: 1.5;" width="70" x="863" y="1432.9531"/><ellipse cx="878" cy="1448.9531" fill="#ADD1B2" rx="11" ry="11" style="stroke: #A80036; stroke-width: 1.0;"/><path d="M880.9688,1454.5938 Q880.3906,1454.8906 879.75,1455.0391 Q879.1094,1455.1875 878.4063,1455.1875 Q875.9063,1455.1875 874.5859,1453.5391 Q873.2656,1451.8906 873.2656,1448.7656 Q873.2656,1445.6406 874.5859,1443.9844 Q875.9063,1442.3281 878.4063,1442.3281 Q879.1094,1442.3281 879.7578,1442.4844 Q880.4063,1442.6406 880.9688,1442.9375 L880.9688,1445.6563 Q880.3438,1445.0781 879.75,1444.8047 Q879.1563,1444.5313 878.5313,1444.5313 Q877.1875,1444.5313 876.5,1445.6016 Q875.8125,1446.6719 875.8125,1448.7656 Q875.8125,1450.8594 876.5,1451.9297 Q877.1875,1453 878.5313,1453 Q879.1563,1453 879.75,1452.7266 Q880.3438,1452.4531 880.9688,1451.875 L880.9688,1454.5938 Z "/><text fill="#000000" font-family="sans-serif" font-size="12" lengthAdjust="spacingAndGlyphs" textLength="38" x="892" y="1453.1074">DVB_T</text><line style="stroke: #A80036; stroke-width: 1.5;" x1="864" x2="932" y1="1464.9531" y2="1464.9531"/><line style="stroke: #A80036; stroke-width: 1.5;" x1="864" x2="932" y1="1472.9531" y2="1472.9531"/><rect fill="#FEFECE" filter="url(#f1)" height="48" style="stroke: #A80036; stroke-width: 1.5;" width="63" x="968.75" y="1432.9531"/><ellipse cx="983.75" cy="1448.9531" fill="#ADD1B2" rx="11" ry="11" style="stroke: #A80036; stroke-width: 1.0;"/><path d="M986.7188,1454.5938 Q986.1406,1454.8906 985.5,1455.0391 Q984.8594,1455.1875 984.1563,1455.1875 Q981.6563,1455.1875 980.3359,1453.5391 Q979.0156,1451.8906 979.0156,1448.7656 Q979.0156,1445.6406 980.3359,1443.9844 Q981.6563,1442.3281 984.1563,1442.3281 Q984.8594,1442.3281 985.5078,1442.4844 Q986.1563,1442.6406 986.7188,1442.9375 L986.7188,1445.6563 Q986.0938,1445.0781 985.5,1444.8047 Q984.9063,1444.5313 984.2813,1444.5313 Q982.9375,1444.5313 982.25,1445.6016 Q981.5625,1446.6719 981.5625,1448.7656 Q981.5625,1450.8594 982.25,1451.9297 Q982.9375,1453 984.2813,1453 Q984.9063,1453 985.5,1452.7266 Q986.0938,1452.4531 986.7188,1451.875 L986.7188,1454.5938 Z "/><text fill="#000000" font-family="sans-serif" font-size="12" lengthAdjust="spacingAndGlyphs" textLength="31" x="997.75" y="1453.1074">ATSC</text><line style="stroke: #A80036; stroke-width: 1.5;" x1="969.75" x2="1030.75" y1="1464.9531" y2="1464.9531"/><line style="stroke: #A80036; stroke-width: 1.5;" x1="969.75" x2="1030.75" y1="1472.9531" y2="1472.9531"/><rect fill="#FEFECE" filter="url(#f1)" height="48" style="stroke: #A80036; stroke-width: 1.5;" width="65" x="598.75" y="1542.9531"/><ellipse cx="613.75" cy="1558.9531" fill="#ADD1B2" rx="11" ry="11" style="stroke: #A80036; stroke-width: 1.0;"/><path d="M616.7188,1564.5938 Q616.1406,1564.8906 615.5,1565.0391 Q614.8594,1565.1875 614.1563,1565.1875 Q611.6563,1565.1875 610.3359,1563.5391 Q609.0156,1561.8906 609.0156,1558.7656 Q609.0156,1555.6406 610.3359,1553.9844 Q611.6563,1552.3281 614.1563,1552.3281 Q614.8594,1552.3281 615.5078,1552.4844 Q616.1563,1552.6406 616.7188,1552.9375 L616.7188,1555.6563 Q616.0938,1555.0781 615.5,1554.8047 Q614.9063,1554.5313 614.2813,1554.5313 Q612.9375,1554.5313 612.25,1555.6016 Q611.5625,1556.6719 611.5625,1558.7656 Q611.5625,1560.8594 612.25,1561.9297 Q612.9375,1563 614.2813,1563 Q614.9063,1563 615.5,1562.7266 Q616.0938,1562.4531 616.7188,1561.875 L616.7188,1564.5938 Z "/><text fill="#000000" font-family="sans-serif" font-size="12" lengthAdjust="spacingAndGlyphs" textLength="33" x="627.75" y="1563.1074">Lnb_t</text><line style="stroke: #A80036; stroke-width: 1.5;" x1="599.75" x2="662.75" y1="1574.9531" y2="1574.9531"/><line style="stroke: #A80036; stroke-width: 1.5;" x1="599.75" x2="662.75" y1="1582.9531" y2="1582.9531"/><rect fill="#FEFECE" filter="url(#f1)" height="48" style="stroke: #A80036; stroke-width: 1.5;" width="86" x="699" y="1542.9531"/><ellipse cx="714" cy="1558.9531" fill="#ADD1B2" rx="11" ry="11" style="stroke: #A80036; stroke-width: 1.0;"/><path d="M716.9688,1564.5938 Q716.3906,1564.8906 715.75,1565.0391 Q715.1094,1565.1875 714.4063,1565.1875 Q711.9063,1565.1875 710.5859,1563.5391 Q709.2656,1561.8906 709.2656,1558.7656 Q709.2656,1555.6406 710.5859,1553.9844 Q711.9063,1552.3281 714.4063,1552.3281 Q715.1094,1552.3281 715.7578,1552.4844 Q716.4063,1552.6406 716.9688,1552.9375 L716.9688,1555.6563 Q716.3438,1555.0781 715.75,1554.8047 Q715.1563,1554.5313 714.5313,1554.5313 Q713.1875,1554.5313 712.5,1555.6016 Q711.8125,1556.6719 711.8125,1558.7656 Q711.8125,1560.8594 712.5,1561.9297 Q713.1875,1563 714.5313,1563 Q715.1563,1563 715.75,1562.7266 Q716.3438,1562.4531 716.9688,1561.875 L716.9688,1564.5938 Z "/><text fill="#000000" font-family="sans-serif" font-size="12" lengthAdjust="spacingAndGlyphs" textLength="54" x="728" y="1563.1074">DiSEqc_t</text><line style="stroke: #A80036; stroke-width: 1.5;" x1="700" x2="784" y1="1574.9531" y2="1574.9531"/><line style="stroke: #A80036; stroke-width: 1.5;" x1="700" x2="784" y1="1582.9531" y2="1582.9531"/><rect fill="#FEFECE" filter="url(#f1)" height="48" style="stroke: #A80036; stroke-width: 1.5;" width="113" x="1408.75" y="41.9531"/><ellipse cx="1423.75" cy="57.9531" fill="#ADD1B2" rx="11" ry="11" style="stroke: #A80036; stroke-width: 1.0;"/><path d="M1426.7188,63.5938 Q1426.1406,63.8906 1425.5,64.0391 Q1424.8594,64.1875 1424.1563,64.1875 Q1421.6563,64.1875 1420.3359,62.5391 Q1419.0156,60.8906 1419.0156,57.7656 Q1419.0156,54.6406 1420.3359,52.9844 Q1421.6563,51.3281 1424.1563,51.3281 Q1424.8594,51.3281 1425.5078,51.4844 Q1426.1563,51.6406 1426.7188,51.9375 L1426.7188,54.6563 Q1426.0938,54.0781 1425.5,53.8047 Q1424.9063,53.5313 1424.2813,53.5313 Q1422.9375,53.5313 1422.25,54.6016 Q1421.5625,55.6719 1421.5625,57.7656 Q1421.5625,59.8594 1422.25,60.9297 Q1422.9375,62 1424.2813,62 Q1424.9063,62 1425.5,61.7266 Q1426.0938,61.4531 1426.7188,60.875 L1426.7188,63.5938 Z "/><text fill="#000000" font-family="sans-serif" font-size="12" lengthAdjust="spacingAndGlyphs" textLength="81" x="1437.75" y="62.1074">ChannelData</text><line style="stroke: #A80036; stroke-width: 1.5;" x1="1409.75" x2="1520.75" y1="73.9531" y2="73.9531"/><line style="stroke: #A80036; stroke-width: 1.5;" x1="1409.75" x2="1520.75" y1="81.9531" y2="81.9531"/><rect fill="#FEFECE" filter="url(#f1)" height="48" style="stroke: #A80036; stroke-width: 1.5;" width="85" x="1422.75" y="180.9531"/><ellipse cx="1437.75" cy="196.9531" fill="#ADD1B2" rx="11" ry="11" style="stroke: #A80036; stroke-width: 1.0;"/><path d="M1440.7188,202.5938 Q1440.1406,202.8906 1439.5,203.0391 Q1438.8594,203.1875 1438.1563,203.1875 Q1435.6563,203.1875 1434.3359,201.5391 Q1433.0156,199.8906 1433.0156,196.7656 Q1433.0156,193.6406 1434.3359,191.9844 Q1435.6563,190.3281 1438.1563,190.3281 Q1438.8594,190.3281 1439.5078,190.4844 Q1440.1563,190.6406 1440.7188,190.9375 L1440.7188,193.6563 Q1440.0938,193.0781 1439.5,192.8047 Q1438.9063,192.5313 1438.2813,192.5313 Q1436.9375,192.5313 1436.25,193.6016 Q1435.5625,194.6719 1435.5625,196.7656 Q1435.5625,198.8594 1436.25,199.9297 Q1436.9375,201 1438.2813,201 Q1438.9063,201 1439.5,200.7266 Q1440.0938,200.4531 1440.7188,199.875 L1440.7188,202.5938 Z "/><text fill="#000000" font-family="sans-serif" font-size="12" lengthAdjust="spacingAndGlyphs" textLength="53" x="1451.75" y="201.1074">PidTable</text><line style="stroke: #A80036; stroke-width: 1.5;" x1="1423.75" x2="1506.75" y1="212.9531" y2="212.9531"/><line style="stroke: #A80036; stroke-width: 1.5;" x1="1423.75" x2="1506.75" y1="220.9531" y2="220.9531"/><path d="M829.031,77.1531 C769.164,91.0431 673.109,121.3131 613,180.9531 C507.678,285.4531 464.434,467.1731 451,538.2531 " fill="none" style="stroke: #A80036; stroke-width: 1.0;"/><polygon fill="#A80036" points="841.962,74.2831,835.2367,71.6812,830.2482,76.8884,836.9735,79.4903,841.962,74.2831" style="stroke: #A80036; stroke-width: 1.0;"/><path d="M830.699,102.4231 C794.21,127.1731 746.572,159.4831 714.942,180.9331 " fill="none" style="stroke: #A80036; stroke-width: 1.0;"/><polygon fill="#A80036" points="841.635,95.0031,834.4241,95.0612,831.7043,101.7397,838.9152,101.6816,841.635,95.0031" style="stroke: #A80036; stroke-width: 1.0;"/><path d="M859.365,115.2831 C848.482,137.5331 836.074,162.9031 827.327,180.7931 " fill="none" style="stroke: #A80036; stroke-width: 1.0;"/><polygon fill="#A80036" points="865.221,103.3031,858.991,106.9345,859.9469,114.082,866.1769,110.4506,865.221,103.3031" style="stroke: #A80036; stroke-width: 1.0;"/><path d="M936.48,83.6731 C963.17,94.2531 994.303,110.2831 1016,132.9531 C1050.73,169.2331 1069.03,226.8331 1076.98,258.7431 " fill="none" style="stroke: #A80036; stroke-width: 1.0;"/><polygon fill="#A80036" points="924.189,79.0531,928.3977,84.9086,935.4215,83.2759,931.2128,77.4203,924.189,79.0531" style="stroke: #A80036; stroke-width: 1.0;"/><path d="M883.846,116.5131 C884.939,180.5931 886.799,289.5531 887.606,336.8831 " fill="none" style="stroke: #A80036; stroke-width: 1.0;"/><polygon fill="#A80036" points="883.618,103.1731,879.7241,109.2425,883.829,115.1713,887.7229,109.1019,883.618,103.1731" style="stroke: #A80036; stroke-width: 1.0;"/><path d="M904.897,115.5731 C907.128,121.3631 909.223,127.2531 911,132.9531 C957.269,281.4031 980.395,467.1831 988.041,538.3531 " fill="none" style="stroke: #A80036; stroke-width: 1.0;"/><polygon fill="#A80036" points="899.867,103.1231,898.4068,110.1848,904.3637,114.2488,905.8239,107.1871,899.867,103.1231" style="stroke: #A80036; stroke-width: 1.0;"/><path d="M827.8,951.2371 C819.021,960.5721 810.293,970.7371 803,980.9531 C756.691,1045.8241 772.71,1079.4611 722,1140.9531 C717.264,1146.6961 711.943,1152.2501 706.334,1157.5351 " fill="none" style="stroke: #A80036; stroke-width: 1.0;"/><polygon fill="none" points="710.707,1163.0091,691.018,1170.8411,701.526,1152.4401,710.707,1163.0091" style="stroke: #A80036; stroke-width: 1.0;"/><path d="M882.932,618.5761 C894.567,628.2951 906.387,638.6831 917,648.9531 C937.619,668.9041 958.722,692.5431 976.271,713.2581 " fill="none" style="stroke: #A80036; stroke-width: 1.0;"/><polygon fill="none" points="981.775,708.9291,989.217,728.7691,971.027,717.9001,981.775,708.9291" style="stroke: #A80036; stroke-width: 1.0;"/><path d="M799.161,631.0071 C779.157,690.4371 748.584,783.4561 725,864.9531 C692.959,975.6711 660.519,1108.2151 645.546,1170.8171 " fill="none" style="stroke: #A80036; stroke-width: 1.0;"/><polygon fill="#A80036" points="803.387,618.4851,797.6788,622.8915,799.5508,629.8554,805.259,625.449,803.387,618.4851" style="stroke: #A80036; stroke-width: 1.0;"/><text fill="#000000" font-family="sans-serif" font-size="13" lengthAdjust="spacingAndGlyphs" textLength="47" x="726" y="912.02">_server</text><path d="M829.691,631.5751 C840.328,699.2101 857.118,805.9681 866.357,864.7151 " fill="none" style="stroke: #A80036; stroke-width: 1.0;"/><polygon fill="#A80036" points="827.65,618.5961,824.6308,625.1448,829.5145,630.4504,832.5337,623.9018,827.65,618.5961" style="stroke: #A80036; stroke-width: 1.0;"/><text fill="#000000" font-family="sans-serif" font-size="13" lengthAdjust="spacingAndGlyphs" textLength="59" x="836" y="662.02">_client[..]</text><path d="M1092.81,489.0931 C1085.89,522.8631 1074.77,574.5731 1063,618.9531 C1055.01,649.0881 1044.87,682.3291 1036.24,709.4701 " fill="none" style="stroke: #A80036; stroke-width: 1.0;"/><polygon fill="none" points="1042.78,711.9891,1030,728.8851,1029.46,707.7021,1042.78,711.9891" style="stroke: #A80036; stroke-width: 1.0;"/><path d="M1084.5,307.1731 C1086.93,329.7131 1090.71,364.7931 1093.93,394.6631 " fill="none" style="stroke: #A80036; stroke-width: 1.0;"/><polygon fill="none" points="1100.92,394.1231,1096.1,414.7631,1087,395.6231,1100.92,394.1231" style="stroke: #A80036; stroke-width: 1.0;"/><path d="M691.48,229.0131 C702.202,252.5931 719.094,289.7631 732.148,318.4731 " fill="none" style="stroke: #A80036; stroke-width: 1.0;"/><polygon fill="none" points="738.545,315.6331,740.449,336.7431,725.8,321.4331,738.545,315.6331" style="stroke: #A80036; stroke-width: 1.0;"/><path d="M806.269,229.0131 C796.36,252.4831 780.778,289.4031 768.681,318.0631 " fill="none" style="stroke: #A80036; stroke-width: 1.0;"/><polygon fill="none" points="775.024,321.0331,760.798,336.7431,762.126,315.5931,775.024,321.0331" style="stroke: #A80036; stroke-width: 1.0;"/><path d="M832.466,241.1731 C846.171,270.4831 865.293,311.3831 877.147,336.7431 " fill="none" style="stroke: #A80036; stroke-width: 1.0; stroke-dasharray: 7.0,7.0;"/><polygon fill="#A80036" points="826.779,229.0131,825.7007,236.1431,831.8675,239.8808,832.9458,232.7508,826.779,229.0131" style="stroke: #A80036; stroke-width: 1.0;"/><path d="M758.781,385.1831 C768.058,412.8831 783.978,460.4131 797.257,500.0531 " fill="none" style="stroke: #A80036; stroke-width: 1.0;"/><polygon fill="none" points="803.906,497.8631,803.62,519.0531,790.63,502.3131,803.906,497.8631" style="stroke: #A80036; stroke-width: 1.0;"/><path d="M700.681,391.8531 C650.356,422.3031 571.263,471.6331 506,518.9531 C497.725,524.9531 489.075,531.7131 481.003,538.2431 " fill="none" style="stroke: #A80036; stroke-width: 1.0; stroke-dasharray: 7.0,7.0;"/><polygon fill="#A80036" points="711.898,385.0931,704.6943,384.7664,701.6221,391.2903,708.8258,391.617,711.898,385.0931" style="stroke: #A80036; stroke-width: 1.0;"/><text fill="#000000" font-family="sans-serif" font-size="13" lengthAdjust="spacingAndGlyphs" textLength="60" x="663" y="456.02">_streams</text><path d="M788.188,393.8731 C834.098,433.2831 911.572,499.7731 956.303,538.1731 " fill="none" style="stroke: #A80036; stroke-width: 1.0; stroke-dasharray: 7.0,7.0;"/><polygon fill="#A80036" points="778.065,385.1831,780.015,392.1256,787.1734,392.9958,785.2234,386.0533,778.065,385.1831" style="stroke: #A80036; stroke-width: 1.0;"/><path d="M177.311,1176.5141 C182.9,1174.4751 188.511,1172.5871 194,1170.9531 C267.955,1148.9421 303.94,1188.1281 365,1140.9531 C415.989,1101.5591 480.086,931.7881 513.458,835.0761 " fill="none" style="stroke: #A80036; stroke-width: 1.0;"/><polygon fill="none" points="179.773,1183.0681,158.599,1183.8761,174.648,1170.0401,179.773,1183.0681" style="stroke: #A80036; stroke-width: 1.0;"/><path d="M597.213,611.9201 C587.334,636.6171 574.603,668.4461 563.311,696.6741 " fill="none" style="stroke: #A80036; stroke-width: 1.0;"/><polygon fill="none" points="590.819,609.0581,604.746,593.0881,603.818,614.2571,590.819,609.0581" style="stroke: #A80036; stroke-width: 1.0;"/><path d="M536,848.2021 C536,891.1301 536,942.6891 536,980.9071 " fill="none" style="stroke: #A80036; stroke-width: 1.0;"/><polygon fill="#A80036" points="536,835.1811,532,841.1811,536,847.1811,540,841.1811,536,835.1811" style="stroke: #A80036; stroke-width: 1.0;"/><text fill="#000000" font-family="sans-serif" font-size="13" lengthAdjust="spacingAndGlyphs" textLength="59" x="541" y="912.02">_client[..]</text><path d="M647.325,802.3561 C682.285,817.4891 719.018,838.0171 747,864.9531 C777.932,894.7281 765.633,916.3131 791,950.9531 C807.868,973.9871 831.085,996.5371 849.145,1012.6161 " fill="none" style="stroke: #A80036; stroke-width: 1.0;"/><polygon fill="#A80036" points="635.05,797.2271,639.0441,803.231,646.1224,801.8534,642.1283,795.8495,635.05,797.2271" style="stroke: #A80036; stroke-width: 1.0;"/><path d="M425.281,832.3761 C401.054,847.1951 381.062,860.0291 376,864.9531 C343.305,896.7561 345.147,912.9001 320,950.9531 C306.09,972.0021 290.074,995.8531 278.568,1012.9201 " fill="none" style="stroke: #A80036; stroke-width: 1.0;"/><polygon fill="#A80036" points="436.672,825.4491,429.4671,825.1492,426.4191,831.6844,433.624,831.9844,436.672,825.4491" style="stroke: #A80036; stroke-width: 1.0;"/><path d="M463.703,612.0141 C471.042,629.1371 479.755,649.0711 488,666.9531 C492.482,676.6731 497.324,686.8771 502.148,696.8761 " fill="none" style="stroke: #A80036; stroke-width: 1.0;"/><polygon fill="#A80036" points="458.509,599.8301,457.1819,606.9181,463.2142,610.8692,464.5413,603.7813,458.509,599.8301" style="stroke: #A80036; stroke-width: 1.0;"/><text fill="#000000" font-family="sans-serif" font-size="13" lengthAdjust="spacingAndGlyphs" textLength="71" x="493" y="662.02">_stream[..]</text><path d="M391.345,588.1931 C359,596.3071 326.656,598.6191 294.311,595.1271 " fill="none" style="stroke: #A80036; stroke-width: 1.0;"/><polygon fill="#A80036" points="404.226,584.6531,397.3804,582.3865,392.6552,587.8337,399.5008,590.1004,404.226,584.6531" style="stroke: #A80036; stroke-width: 1.0;"/><path d="M294.311,542.7831 C330.949,538.8231 367.588,542.3131 404.226,553.2531 " fill="none" style="stroke: #A80036; stroke-width: 1.0; stroke-dasharray: 7.0,7.0;"/><path d="M586.208,1104.2281 C590.355,1110.4551 594.349,1116.7571 598,1122.9531 C606.897,1138.0531 615.287,1155.5221 621.99,1170.6061 " fill="none" style="stroke: #A80036; stroke-width: 1.0;"/><polygon fill="#A80036" points="578.623,1093.1381,578.7085,1100.3487,585.3973,1103.0431,585.3118,1095.8325,578.623,1093.1381" style="stroke: #A80036; stroke-width: 1.0;"/><text fill="#000000" font-family="sans-serif" font-size="13" lengthAdjust="spacingAndGlyphs" textLength="25" x="613" y="1136.02">_rtp</text><path d="M469.344,1080.0141 C448.906,1098.2201 435.248,1120.1031 450,1140.9531 C478.236,1180.8621 532.684,1196.8041 575.577,1203.0881 " fill="none" style="stroke: #A80036; stroke-width: 1.0;"/><polygon fill="#A80036" points="479.479,1071.6591,472.305,1072.3894,470.2198,1079.2925,477.3939,1078.5622,479.479,1071.6591" style="stroke: #A80036; stroke-width: 1.0;"/><text fill="#000000" font-family="sans-serif" font-size="13" lengthAdjust="spacingAndGlyphs" textLength="32" x="455" y="1136.02">_rtcp</text><path d="M520.58,1106.2481 C520.793,1118.3621 523.109,1130.4491 529,1140.9531 C539.373,1159.4481 557.271,1173.3771 575.548,1183.5561 " fill="none" style="stroke: #A80036; stroke-width: 1.0; stroke-dasharray: 7.0,7.0;"/><polygon fill="#A80036" points="521.106,1093.1661,516.8685,1099.0008,520.6246,1105.1565,524.8621,1099.3217,521.106,1093.1661" style="stroke: #A80036; stroke-width: 1.0;"/><text fill="#000000" font-family="sans-serif" font-size="13" lengthAdjust="spacingAndGlyphs" textLength="50" x="534" y="1136.02">httpcFD</text><path d="M258.102,999.6751 C252.674,959.4261 243.673,892.5541 236,834.9531 C225.093,753.0731 212.433,656.9401 205.73,605.9611 " fill="none" style="stroke: #A80036; stroke-width: 1.0; stroke-dasharray: 7.0,7.0;"/><polygon fill="#A80036" points="259.865,1012.7421,263.0266,1006.2611,258.2601,1000.8499,255.0985,1007.331,259.865,1012.7421" style="stroke: #A80036; stroke-width: 1.0;"/><path d="M265.582,1074.3131 C267.939,1107.5101 271.352,1155.5831 273.357,1183.8181 " fill="none" style="stroke: #A80036; stroke-width: 1.0;"/><polygon fill="#A80036" points="264.643,1061.0971,261.0783,1067.3656,265.4936,1073.0669,269.0582,1066.7985,264.643,1061.0971" style="stroke: #A80036; stroke-width: 1.0;"/><text fill="#000000" font-family="sans-serif" font-size="13" lengthAdjust="spacingAndGlyphs" textLength="75" x="276" y="1136.02">_tsBuffer[..]</text><path d="M233.25,1070.8141 C203.16,1104.0511 157.419,1154.5751 130.945,1183.8181 " fill="none" style="stroke: #A80036; stroke-width: 1.0; stroke-dasharray: 7.0,7.0;"/><polygon fill="#A80036" points="242.047,1061.0971,235.0549,1062.8607,233.9935,1069.9933,240.9856,1068.2297,242.047,1061.0971" style="stroke: #A80036; stroke-width: 1.0;"/><path d="M92.184,803.1551 C109.28,841.7541 139.374,903.7041 175,950.9531 C187.908,968.0721 204.318,984.9061 219.461,999.0181 " fill="none" style="stroke: #A80036; stroke-width: 1.0;"/><polygon fill="none" points="224.406,994.0511,234.584,1012.6371,215.038,1004.4541,224.406,994.0511" style="stroke: #A80036; stroke-width: 1.0;"/><path d="M80.1173,816.2801 C83.6342,871.9291 89.2398,960.6301 92.1345,1006.4341 " fill="none" style="stroke: #A80036; stroke-width: 1.0;"/><polygon fill="#A80036" points="79.2927,803.2321,75.6791,809.4725,80.0496,815.2082,83.6632,808.9679,79.2927,803.2321" style="stroke: #A80036; stroke-width: 1.0;"/><path d="M98.0807,1081.0551 C101.1811,1113.8031 105.3245,1157.5681 107.82,1183.9311 " fill="none" style="stroke: #A80036; stroke-width: 1.0; stroke-dasharray: 7.0,7.0;"/><polygon fill="#A80036" points="96.8236,1067.7781,93.4071,1074.1285,97.955,1079.7247,101.3715,1073.3743,96.8236,1067.7781" style="stroke: #A80036; stroke-width: 1.0;"/><path d="M322.345,790.3541 C311.418,835.5791 287.255,935.5761 273.366,993.0531 " fill="none" style="stroke: #A80036; stroke-width: 1.0;"/><polygon fill="none" points="280.097,995.0011,268.595,1012.7971,266.489,991.7131,280.097,995.0011" style="stroke: #A80036; stroke-width: 1.0;"/><path d="M1228.94,100.8431 C1222.34,110.9131 1215.49,122.1431 1210,132.9531 C1202.17,148.3531 1195.28,166.5831 1190.42,180.7131 " fill="none" style="stroke: #A80036; stroke-width: 1.0;"/><polygon fill="#A80036" points="1236.21,90.0431,1229.5418,92.7882,1229.5111,99.9992,1236.1792,97.2542,1236.21,90.0431" style="stroke: #A80036; stroke-width: 1.0;"/><path d="M1243.81,103.1031 C1241.78,118.6831 1242.18,136.5831 1250,150.9531 C1256.65,163.1631 1267.45,172.9831 1279.06,180.7031 " fill="none" style="stroke: #A80036; stroke-width: 1.0;"/><polygon fill="#A80036" points="1246.09,90.1531,1241.1088,95.3673,1244.0061,101.9708,1248.9873,96.7566,1246.09,90.1531" style="stroke: #A80036; stroke-width: 1.0;"/><text fill="#000000" font-family="sans-serif" font-size="13" lengthAdjust="spacingAndGlyphs" textLength="28" x="1255" y="146.02">_pat</text><path d="M1274.22,101.3431 C1280.37,111.4731 1287.03,122.6131 1293,132.9531 C1302.14,148.7831 1312.06,166.8531 1319.6,180.7931 " fill="none" style="stroke: #A80036; stroke-width: 1.0;"/><polygon fill="#A80036" points="1267.31,90.0231,1267.0199,97.2284,1273.5594,100.2674,1273.8495,93.0621,1267.31,90.0231" style="stroke: #A80036; stroke-width: 1.0;"/><text fill="#000000" font-family="sans-serif" font-size="13" lengthAdjust="spacingAndGlyphs" textLength="33" x="1308" y="146.02">_pmt</text><path d="M868.817,1081.1721 C862.627,1113.8601 854.369,1157.4741 849.381,1183.8181 " fill="none" style="stroke: #A80036; stroke-width: 1.0;"/><polygon fill="none" points="862.019,1079.4461,872.618,1061.0971,875.774,1082.0511,862.019,1079.4461" style="stroke: #A80036; stroke-width: 1.0;"/><path d="M912.917,1075.6551 C944.488,1108.7941 989.422,1155.9611 1015.96,1183.8181 " fill="none" style="stroke: #A80036; stroke-width: 1.0;"/><polygon fill="none" points="907.776,1080.4061,899.049,1061.0971,917.912,1070.7501,907.776,1080.4061" style="stroke: #A80036; stroke-width: 1.0;"/><path d="M845,1245.3141 C845,1269.8131 845,1301.4041 845,1322.5991 " fill="none" style="stroke: #A80036; stroke-width: 1.0;"/><polygon fill="#A80036" points="845,1232.1931,841,1238.1931,845,1244.1931,849,1238.1931,845,1232.1931" style="stroke: #A80036; stroke-width: 1.0;"/><text fill="#000000" font-family="sans-serif" font-size="13" lengthAdjust="spacingAndGlyphs" textLength="123" x="850" y="1288.02">_deliverySystem[..]</text><path d="M794.139,1382.5001 C769.929,1398.9451 741.629,1418.1671 720.053,1432.8231 " fill="none" style="stroke: #A80036; stroke-width: 1.0;"/><polygon fill="none" points="790.413,1376.5691,810.891,1371.1221,798.279,1388.1501,790.413,1376.5691" style="stroke: #A80036; stroke-width: 1.0;"/><path d="M824.689,1389.3411 C817.453,1404.0861 809.565,1420.1591 803.351,1432.8231 " fill="none" style="stroke: #A80036; stroke-width: 1.0;"/><polygon fill="none" points="818.535,1385.9921,833.63,1371.1221,831.103,1392.1601,818.535,1385.9921" style="stroke: #A80036; stroke-width: 1.0;"/><path d="M865.311,1389.3411 C872.547,1404.0861 880.435,1420.1591 886.649,1432.8231 " fill="none" style="stroke: #A80036; stroke-width: 1.0;"/><polygon fill="none" points="858.897,1392.1601,856.37,1371.1221,871.465,1385.9921,858.897,1392.1601" style="stroke: #A80036; stroke-width: 1.0;"/><path d="M894.991,1382.7851 C919.201,1399.6541 947.526,1419.3901 968.653,1434.1111 " fill="none" style="stroke: #A80036; stroke-width: 1.0;"/><polygon fill="none" points="890.659,1388.2991,878.251,1371.1221,898.663,1376.8121,890.659,1388.2991" style="stroke: #A80036; stroke-width: 1.0;"/><path d="M668.162,1492.9797 C659.842,1509.3174 650.17,1528.3097 642.779,1542.8227 " fill="none" style="stroke: #A80036; stroke-width: 1.0;"/><polygon fill="#A80036" points="674.201,1481.1221,667.9137,1484.6533,668.755,1491.8152,675.0424,1488.284,674.201,1481.1221" style="stroke: #A80036; stroke-width: 1.0;"/><path d="M704.162,1492.9797 C712.633,1509.3174 722.481,1528.3097 730.006,1542.8227 " fill="none" style="stroke: #A80036; stroke-width: 1.0;"/><polygon fill="#A80036" points="698.013,1481.1221,697.2238,1488.2899,703.5367,1491.7752,704.3259,1484.6075,698.013,1481.1221" style="stroke: #A80036; stroke-width: 1.0;"/><path d="M1465,103.3131 C1465,127.8131 1465,159.4031 1465,180.6031 " fill="none" style="stroke: #A80036; stroke-width: 1.0;"/><polygon fill="#A80036" points="1465,90.1931,1461,96.1931,1465,102.1931,1469,96.1931,1465,90.1931" style="stroke: #A80036; stroke-width: 1.0;"/></g></svg>