<?xml version="1.0" encoding="UTF-8" standalone="yes"?><svg xmlns="http://www.w3.org/2000/svg" xmlns:xlink="http://www.w3.org/1999/xlink" height="1561px" style="width:1326px;height:1561px;" version="1.1" viewBox="0 0 1326 1561" width="1326px"><defs><filter height="300%" id="f1" width="300%" x="-1" y="-1"><feGaussianBlur result="blurOut" stdDeviation="2.0"/><feColorMatrix in="blurOut" result="blurOut2" type="matrix" values="0 0 0 0 0 0 0 0 0 0 0 0 0 0 0 0 0 0 .4 0"/><feOffset dx="4.0" dy="4.0" in="blurOut2" result="blurOut3"/><feBlend in="SourceGraphic" in2="blurOut3" mode="normal"/></filter></defs><g><text fill="#000000" font-family="sans-serif" font-size="18" lengthAdjust="spacingAndGlyphs" textLength="45" x="645" y="16.708">SatPI</text><rect fill="#FEFECE" filter="url(#f1)" height="73.6094" style="stroke: #A80036; stroke-width: 1.5;" width="82" x="728" y="28.9531"/><ellipse cx="751.1" cy="44.9531" fill="#ADD1B2" rx="11" ry="11" style="stroke: #A80036; stroke-width: 1.0;"/><path d="M754.0688,50.5938 Q753.4906,50.8906 752.85,51.0391 Q752.2094,51.1875 751.5063,51.1875 Q749.0063,51.1875 747.6859,49.5391 Q746.3656,47.8906 746.3656,44.7656 Q746.3656,41.6406 747.6859,39.9844 Q749.0063,38.3281 751.5063,38.3281 Q752.2094,38.3281 752.8578,38.4844 Q753.5063,38.6406 754.0688,38.9375 L754.0688,41.6563 Q753.4438,41.0781 752.85,40.8047 Q752.2563,40.5313 751.6313,40.5313 Q750.2875,40.5313 749.6,41.6016 Q748.9125,42.6719 748.9125,44.7656 Q748.9125,46.8594 749.6,47.9297 Q750.2875,49 751.6313,49 Q752.2563,49 752.85,48.7266 Q753.4438,48.4531 754.0688,47.875 L754.0688,50.5938 Z "/><text fill="#000000" font-family="sans-serif" font-size="12" lengthAdjust="spacingAndGlyphs" textLength="32" x="766.9" y="49.1074">SatPI</text><line style="stroke: #A80036; stroke-width: 1.5;" x1="729" x2="809" y1="60.9531" y2="60.9531"/><text fill="#000000" font-family="sans-serif" font-size="11" lengthAdjust="spacingAndGlyphs" textLength="59" x="734" y="75.1636">Properties</text><text fill="#000000" font-family="sans-serif" font-size="11" lengthAdjust="spacingAndGlyphs" textLength="70" x="734" y="87.9683">InterfaceAttr</text><line style="stroke: #A80036; stroke-width: 1.5;" x1="729" x2="809" y1="94.5625" y2="94.5625"/><rect fill="#FEFECE" filter="url(#f1)" height="60.8047" style="stroke: #A80036; stroke-width: 1.5;" width="132" x="470" y="522.4531"/><ellipse cx="485" cy="538.4531" fill="#ADD1B2" rx="11" ry="11" style="stroke: #A80036; stroke-width: 1.0;"/><path d="M487.9688,544.0938 Q487.3906,544.3906 486.75,544.5391 Q486.1094,544.6875 485.4063,544.6875 Q482.9063,544.6875 481.5859,543.0391 Q480.2656,541.3906 480.2656,538.2656 Q480.2656,535.1406 481.5859,533.4844 Q482.9063,531.8281 485.4063,531.8281 Q486.1094,531.8281 486.7578,531.9844 Q487.4063,532.1406 487.9688,532.4375 L487.9688,535.1563 Q487.3438,534.5781 486.75,534.3047 Q486.1563,534.0313 485.5313,534.0313 Q484.1875,534.0313 483.5,535.1016 Q482.8125,536.1719 482.8125,538.2656 Q482.8125,540.3594 483.5,541.4297 Q484.1875,542.5 485.5313,542.5 Q486.1563,542.5 486.75,542.2266 Q487.3438,541.9531 487.9688,541.375 L487.9688,544.0938 Z "/><text fill="#000000" font-family="sans-serif" font-size="12" lengthAdjust="spacingAndGlyphs" textLength="100" x="499" y="542.6074">StreamManager</text><line style="stroke: #A80036; stroke-width: 1.5;" x1="471" x2="601" y1="554.4531" y2="554.4531"/><text fill="#000000" font-family="sans-serif" font-size="11" lengthAdjust="spacingAndGlyphs" textLength="33" x="476" y="568.6636">Mutex</text><line style="stroke: #A80036; stroke-width: 1.5;" x1="471" x2="601" y1="575.2578" y2="575.2578"/><rect fill="#FEFECE" filter="url(#f1)" height="48" style="stroke: #A80036; stroke-width: 1.5;" width="100" x="993" y="164.9531"/><ellipse cx="1008" cy="180.9531" fill="#ADD1B2" rx="11" ry="11" style="stroke: #A80036; stroke-width: 1.0;"/><path d="M1010.9688,186.5938 Q1010.3906,186.8906 1009.75,187.0391 Q1009.1094,187.1875 1008.4063,187.1875 Q1005.9063,187.1875 1004.5859,185.5391 Q1003.2656,183.8906 1003.2656,180.7656 Q1003.2656,177.6406 1004.5859,175.9844 Q1005.9063,174.3281 1008.4063,174.3281 Q1009.1094,174.3281 1009.7578,174.4844 Q1010.4063,174.6406 1010.9688,174.9375 L1010.9688,177.6563 Q1010.3438,177.0781 1009.75,176.8047 Q1009.1563,176.5313 1008.5313,176.5313 Q1007.1875,176.5313 1006.5,177.6016 Q1005.8125,178.6719 1005.8125,180.7656 Q1005.8125,182.8594 1006.5,183.9297 Q1007.1875,185 1008.5313,185 Q1009.1563,185 1009.75,184.7266 Q1010.3438,184.4531 1010.9688,183.875 L1010.9688,186.5938 Z "/><text fill="#000000" font-family="sans-serif" font-size="12" lengthAdjust="spacingAndGlyphs" textLength="68" x="1022" y="185.1074">RtspServer</text><line style="stroke: #A80036; stroke-width: 1.5;" x1="994" x2="1092" y1="196.9531" y2="196.9531"/><line style="stroke: #A80036; stroke-width: 1.5;" x1="994" x2="1092" y1="204.9531" y2="204.9531"/><rect fill="#FEFECE" filter="url(#f1)" height="48" style="stroke: #A80036; stroke-width: 1.5;" width="99" x="858.75" y="164.9531"/><ellipse cx="873.75" cy="180.9531" fill="#ADD1B2" rx="11" ry="11" style="stroke: #A80036; stroke-width: 1.0;"/><path d="M876.7188,186.5938 Q876.1406,186.8906 875.5,187.0391 Q874.8594,187.1875 874.1563,187.1875 Q871.6563,187.1875 870.3359,185.5391 Q869.0156,183.8906 869.0156,180.7656 Q869.0156,177.6406 870.3359,175.9844 Q871.6563,174.3281 874.1563,174.3281 Q874.8594,174.3281 875.5078,174.4844 Q876.1563,174.6406 876.7188,174.9375 L876.7188,177.6563 Q876.0938,177.0781 875.5,176.8047 Q874.9063,176.5313 874.2813,176.5313 Q872.9375,176.5313 872.25,177.6016 Q871.5625,178.6719 871.5625,180.7656 Q871.5625,182.8594 872.25,183.9297 Q872.9375,185 874.2813,185 Q874.9063,185 875.5,184.7266 Q876.0938,184.4531 876.7188,183.875 L876.7188,186.5938 Z "/><text fill="#000000" font-family="sans-serif" font-size="12" lengthAdjust="spacingAndGlyphs" textLength="67" x="887.75" y="185.1074">HttpServer</text><line style="stroke: #A80036; stroke-width: 1.5;" x1="859.75" x2="956.75" y1="196.9531" y2="196.9531"/><line style="stroke: #A80036; stroke-width: 1.5;" x1="859.75" x2="956.75" y1="204.9531" y2="204.9531"/><rect fill="#FEFECE" filter="url(#f1)" height="48" style="stroke: #A80036; stroke-width: 1.5;" width="103" x="600.75" y="242.9531"/><ellipse cx="615.75" cy="258.9531" fill="#ADD1B2" rx="11" ry="11" style="stroke: #A80036; stroke-width: 1.0;"/><path d="M618.7188,264.5938 Q618.1406,264.8906 617.5,265.0391 Q616.8594,265.1875 616.1563,265.1875 Q613.6563,265.1875 612.3359,263.5391 Q611.0156,261.8906 611.0156,258.7656 Q611.0156,255.6406 612.3359,253.9844 Q613.6563,252.3281 616.1563,252.3281 Q616.8594,252.3281 617.5078,252.4844 Q618.1563,252.6406 618.7188,252.9375 L618.7188,255.6563 Q618.0938,255.0781 617.5,254.8047 Q616.9063,254.5313 616.2813,254.5313 Q614.9375,254.5313 614.25,255.6016 Q613.5625,256.6719 613.5625,258.7656 Q613.5625,260.8594 614.25,261.9297 Q614.9375,263 616.2813,263 Q616.9063,263 617.5,262.7266 Q618.0938,262.4531 618.7188,261.875 L618.7188,264.5938 Z "/><text fill="#000000" font-family="sans-serif" font-size="12" lengthAdjust="spacingAndGlyphs" textLength="71" x="629.75" y="263.1074">SsdpServer</text><line style="stroke: #A80036; stroke-width: 1.5;" x1="601.75" x2="702.75" y1="274.9531" y2="274.9531"/><line style="stroke: #A80036; stroke-width: 1.5;" x1="601.75" x2="702.75" y1="282.9531" y2="282.9531"/><rect fill="#FEFECE" filter="url(#f1)" height="48" style="stroke: #A80036; stroke-width: 1.5;" width="97" x="787.75" y="320.9531"/><ellipse cx="802.75" cy="336.9531" fill="#ADD1B2" rx="11" ry="11" style="stroke: #A80036; stroke-width: 1.0;"/><path d="M805.7188,342.5938 Q805.1406,342.8906 804.5,343.0391 Q803.8594,343.1875 803.1563,343.1875 Q800.6563,343.1875 799.3359,341.5391 Q798.0156,339.8906 798.0156,336.7656 Q798.0156,333.6406 799.3359,331.9844 Q800.6563,330.3281 803.1563,330.3281 Q803.8594,330.3281 804.5078,330.4844 Q805.1563,330.6406 805.7188,330.9375 L805.7188,333.6563 Q805.0938,333.0781 804.5,332.8047 Q803.9063,332.5313 803.2813,332.5313 Q801.9375,332.5313 801.25,333.6016 Q800.5625,334.6719 800.5625,336.7656 Q800.5625,338.8594 801.25,339.9297 Q801.9375,341 803.2813,341 Q803.9063,341 804.5,340.7266 Q805.0938,340.4531 805.7188,339.875 L805.7188,342.5938 Z "/><text fill="#000000" font-family="sans-serif" font-size="12" lengthAdjust="spacingAndGlyphs" textLength="65" x="816.75" y="341.1074">Properties</text><line style="stroke: #A80036; stroke-width: 1.5;" x1="788.75" x2="883.75" y1="352.9531" y2="352.9531"/><line style="stroke: #A80036; stroke-width: 1.5;" x1="788.75" x2="883.75" y1="360.9531" y2="360.9531"/><rect fill="#FEFECE" filter="url(#f1)" height="60.8047" style="stroke: #A80036; stroke-width: 1.5;" width="111" x="725.75" y="522.4531"/><ellipse cx="740.75" cy="538.4531" fill="#ADD1B2" rx="11" ry="11" style="stroke: #A80036; stroke-width: 1.0;"/><path d="M743.7188,544.0938 Q743.1406,544.3906 742.5,544.5391 Q741.8594,544.6875 741.1563,544.6875 Q738.6563,544.6875 737.3359,543.0391 Q736.0156,541.3906 736.0156,538.2656 Q736.0156,535.1406 737.3359,533.4844 Q738.6563,531.8281 741.1563,531.8281 Q741.8594,531.8281 742.5078,531.9844 Q743.1563,532.1406 743.7188,532.4375 L743.7188,535.1563 Q743.0938,534.5781 742.5,534.3047 Q741.9063,534.0313 741.2813,534.0313 Q739.9375,534.0313 739.25,535.1016 Q738.5625,536.1719 738.5625,538.2656 Q738.5625,540.3594 739.25,541.4297 Q739.9375,542.5 741.2813,542.5 Q741.9063,542.5 742.5,542.2266 Q743.0938,541.9531 743.7188,541.375 L743.7188,544.0938 Z "/><text fill="#000000" font-family="sans-serif" font-size="12" lengthAdjust="spacingAndGlyphs" textLength="79" x="754.75" y="542.6074">InterfaceAttr</text><line style="stroke: #A80036; stroke-width: 1.5;" x1="726.75" x2="835.75" y1="554.4531" y2="554.4531"/><text fill="#000000" font-family="sans-serif" font-size="11" lengthAdjust="spacingAndGlyphs" textLength="50" x="731.75" y="568.6636">Eth0 etc.</text><line style="stroke: #A80036; stroke-width: 1.5;" x1="726.75" x2="835.75" y1="575.2578" y2="575.2578"/><rect fill="#FEFECE" filter="url(#f1)" height="73.6094" style="stroke: #A80036; stroke-width: 1.5;" width="159" x="619.75" y="693.9531"/><ellipse cx="634.75" cy="709.9531" fill="#ADD1B2" rx="11" ry="11" style="stroke: #A80036; stroke-width: 1.0;"/><path d="M637.7188,715.5938 Q637.1406,715.8906 636.5,716.0391 Q635.8594,716.1875 635.1563,716.1875 Q632.6563,716.1875 631.3359,714.5391 Q630.0156,712.8906 630.0156,709.7656 Q630.0156,706.6406 631.3359,704.9844 Q632.6563,703.3281 635.1563,703.3281 Q635.8594,703.3281 636.5078,703.4844 Q637.1563,703.6406 637.7188,703.9375 L637.7188,706.6563 Q637.0938,706.0781 636.5,705.8047 Q635.9063,705.5313 635.2813,705.5313 Q633.9375,705.5313 633.25,706.6016 Q632.5625,707.6719 632.5625,709.7656 Q632.5625,711.8594 633.25,712.9297 Q633.9375,714 635.2813,714 Q635.9063,714 636.5,713.7266 Q637.0938,713.4531 637.7188,712.875 L637.7188,715.5938 Z "/><text fill="#000000" font-family="sans-serif" font-size="12" lengthAdjust="spacingAndGlyphs" textLength="127" x="648.75" y="714.1074">socket::HttpcSocket</text><line style="stroke: #A80036; stroke-width: 1.5;" x1="620.75" x2="777.75" y1="725.9531" y2="725.9531"/><line style="stroke: #A80036; stroke-width: 1.5;" x1="620.75" x2="777.75" y1="733.9531" y2="733.9531"/><text fill="#000000" font-family="sans-serif" font-size="11" lengthAdjust="spacingAndGlyphs" textLength="120" x="625.75" y="748.1636">recvHttpcMessage(..)</text><text fill="#000000" font-family="sans-serif" font-size="11" lengthAdjust="spacingAndGlyphs" textLength="147" x="625.75" y="760.9683">recvfromHttpcMessage(..)</text><rect fill="#FEFECE" filter="url(#f1)" height="86.4141" style="stroke: #A80036; stroke-width: 1.5;" width="161" x="928.75" y="810.9531"/><ellipse cx="944.2" cy="826.9531" fill="#ADD1B2" rx="11" ry="11" style="stroke: #A80036; stroke-width: 1.0;"/><path d="M947.1688,832.5938 Q946.5906,832.8906 945.95,833.0391 Q945.3094,833.1875 944.6063,833.1875 Q942.1063,833.1875 940.7859,831.5391 Q939.4656,829.8906 939.4656,826.7656 Q939.4656,823.6406 940.7859,821.9844 Q942.1063,820.3281 944.6063,820.3281 Q945.3094,820.3281 945.9578,820.4844 Q946.6063,820.6406 947.1688,820.9375 L947.1688,823.6563 Q946.5438,823.0781 945.95,822.8047 Q945.3563,822.5313 944.7313,822.5313 Q943.3875,822.5313 942.7,823.6016 Q942.0125,824.6719 942.0125,826.7656 Q942.0125,828.8594 942.7,829.9297 Q943.3875,831 944.7313,831 Q945.3563,831 945.95,830.7266 Q946.5438,830.4531 947.1688,829.875 L947.1688,832.5938 Z "/><text fill="#000000" font-family="sans-serif" font-size="12" lengthAdjust="spacingAndGlyphs" textLength="128" x="958.3" y="831.1074">socket::SocketClient</text><line style="stroke: #A80036; stroke-width: 1.5;" x1="929.75" x2="1088.75" y1="842.9531" y2="842.9531"/><text fill="#000000" font-family="sans-serif" font-size="11" lengthAdjust="spacingAndGlyphs" textLength="94" x="934.75" y="857.1636">std::string _msg</text><text fill="#000000" font-family="sans-serif" font-size="11" lengthAdjust="spacingAndGlyphs" textLength="149" x="934.75" y="869.9683">std::string _protocolString</text><text fill="#000000" font-family="sans-serif" font-size="11" lengthAdjust="spacingAndGlyphs" textLength="125" x="934.75" y="882.7729">std::string _sessionID</text><line style="stroke: #A80036; stroke-width: 1.5;" x1="929.75" x2="1088.75" y1="889.3672" y2="889.3672"/><rect fill="#FEFECE" filter="url(#f1)" height="73.6094" style="stroke: #A80036; stroke-width: 1.5;" width="148" x="702" y="1116.9531"/><ellipse cx="717" cy="1132.9531" fill="#ADD1B2" rx="11" ry="11" style="stroke: #A80036; stroke-width: 1.0;"/><path d="M719.9688,1138.5938 Q719.3906,1138.8906 718.75,1139.0391 Q718.1094,1139.1875 717.4063,1139.1875 Q714.9063,1139.1875 713.5859,1137.5391 Q712.2656,1135.8906 712.2656,1132.7656 Q712.2656,1129.6406 713.5859,1127.9844 Q714.9063,1126.3281 717.4063,1126.3281 Q718.1094,1126.3281 718.7578,1126.4844 Q719.4063,1126.6406 719.9688,1126.9375 L719.9688,1129.6563 Q719.3438,1129.0781 718.75,1128.8047 Q718.1563,1128.5313 717.5313,1128.5313 Q716.1875,1128.5313 715.5,1129.6016 Q714.8125,1130.6719 714.8125,1132.7656 Q714.8125,1134.8594 715.5,1135.9297 Q716.1875,1137 717.5313,1137 Q718.1563,1137 718.75,1136.7266 Q719.3438,1136.4531 719.9688,1135.875 L719.9688,1138.5938 Z "/><text fill="#000000" font-family="sans-serif" font-size="12" lengthAdjust="spacingAndGlyphs" textLength="116" x="731" y="1137.1074">socket::SocketAttr</text><line style="stroke: #A80036; stroke-width: 1.5;" x1="703" x2="849" y1="1148.9531" y2="1148.9531"/><text fill="#000000" font-family="sans-serif" font-size="11" lengthAdjust="spacingAndGlyphs" textLength="17" x="708" y="1163.1636">_fd</text><text fill="#000000" font-family="sans-serif" font-size="11" lengthAdjust="spacingAndGlyphs" textLength="111" x="708" y="1175.9683">std::string _ip_addr</text><line style="stroke: #A80036; stroke-width: 1.5;" x1="703" x2="849" y1="1182.5625" y2="1182.5625"/><rect fill="#FEFECE" filter="url(#f1)" height="99.2188" style="stroke: #A80036; stroke-width: 1.5;" width="161" x="874.75" y="503.4531"/><ellipse cx="896.05" cy="519.4531" fill="#ADD1B2" rx="11" ry="11" style="stroke: #A80036; stroke-width: 1.0;"/><path d="M899.0188,525.0938 Q898.4406,525.3906 897.8,525.5391 Q897.1594,525.6875 896.4563,525.6875 Q893.9563,525.6875 892.6359,524.0391 Q891.3156,522.3906 891.3156,519.2656 Q891.3156,516.1406 892.6359,514.4844 Q893.9563,512.8281 896.4563,512.8281 Q897.1594,512.8281 897.8078,512.9844 Q898.4563,513.1406 899.0188,513.4375 L899.0188,516.1563 Q898.3938,515.5781 897.8,515.3047 Q897.2063,515.0313 896.5813,515.0313 Q895.2375,515.0313 894.55,516.1016 Q893.8625,517.1719 893.8625,519.2656 Q893.8625,521.3594 894.55,522.4297 Q895.2375,523.5 896.5813,523.5 Q897.2063,523.5 897.8,523.2266 Q898.3938,522.9531 899.0188,522.375 L899.0188,525.0938 Z "/><text fill="#000000" font-family="sans-serif" font-size="12" lengthAdjust="spacingAndGlyphs" textLength="115" x="911.45" y="523.6074">socket::TcpSocket</text><line style="stroke: #A80036; stroke-width: 1.5;" x1="875.75" x2="1034.75" y1="535.4531" y2="535.4531"/><text fill="#000000" font-family="sans-serif" font-size="11" lengthAdjust="spacingAndGlyphs" textLength="149" x="880.75" y="549.6636">std::string _protocolString</text><line style="stroke: #A80036; stroke-width: 1.5;" x1="875.75" x2="1034.75" y1="556.2578" y2="556.2578"/><text fill="#000000" font-family="sans-serif" font-size="11" lengthAdjust="spacingAndGlyphs" textLength="36" x="880.75" y="570.4683">poll(..)</text><text fill="#000000" font-family="sans-serif" font-size="11" lengthAdjust="spacingAndGlyphs" textLength="62" x="880.75" y="583.2729">process(..)</text><text fill="#000000" font-family="sans-serif" font-size="11" lengthAdjust="spacingAndGlyphs" textLength="109" x="880.75" y="596.0776">closeConnection(..)</text><rect fill="#FEFECE" filter="url(#f1)" height="73.6094" style="stroke: #A80036; stroke-width: 1.5;" width="173" x="542.75" y="398.9531"/><ellipse cx="568.1" cy="414.9531" fill="#ADD1B2" rx="11" ry="11" style="stroke: #A80036; stroke-width: 1.0;"/><path d="M571.0688,420.5938 Q570.4906,420.8906 569.85,421.0391 Q569.2094,421.1875 568.5063,421.1875 Q566.0063,421.1875 564.6859,419.5391 Q563.3656,417.8906 563.3656,414.7656 Q563.3656,411.6406 564.6859,409.9844 Q566.0063,408.3281 568.5063,408.3281 Q569.2094,408.3281 569.8578,408.4844 Q570.5063,408.6406 571.0688,408.9375 L571.0688,411.6563 Q570.4438,411.0781 569.85,410.8047 Q569.2563,410.5313 568.6313,410.5313 Q567.2875,410.5313 566.6,411.6016 Q565.9125,412.6719 565.9125,414.7656 Q565.9125,416.8594 566.6,417.9297 Q567.2875,419 568.6313,419 Q569.2563,419 569.85,418.7266 Q570.4438,418.4531 571.0688,417.875 L571.0688,420.5938 Z "/><text fill="#000000" font-family="sans-serif" font-size="12" lengthAdjust="spacingAndGlyphs" textLength="118" x="584.4" y="419.1074">socket::UdpSocket</text><line style="stroke: #A80036; stroke-width: 1.5;" x1="543.75" x2="714.75" y1="430.9531" y2="430.9531"/><line style="stroke: #A80036; stroke-width: 1.5;" x1="543.75" x2="714.75" y1="438.9531" y2="438.9531"/><text fill="#000000" font-family="sans-serif" font-size="11" lengthAdjust="spacingAndGlyphs" textLength="103" x="548.75" y="453.1636">init_udp_socket(..)</text><text fill="#000000" font-family="sans-serif" font-size="11" lengthAdjust="spacingAndGlyphs" textLength="161" x="548.75" y="465.9683">init_mutlicast_udp_socket(..)</text><rect fill="#FEFECE" filter="url(#f1)" height="48" style="stroke: #A80036; stroke-width: 1.5;" width="106" x="920.5" y="320.9531"/><ellipse cx="935.5" cy="336.9531" fill="#ADD1B2" rx="11" ry="11" style="stroke: #A80036; stroke-width: 1.0;"/><path d="M938.4688,342.5938 Q937.8906,342.8906 937.25,343.0391 Q936.6094,343.1875 935.9063,343.1875 Q933.4063,343.1875 932.0859,341.5391 Q930.7656,339.8906 930.7656,336.7656 Q930.7656,333.6406 932.0859,331.9844 Q933.4063,330.3281 935.9063,330.3281 Q936.6094,330.3281 937.2578,330.4844 Q937.9063,330.6406 938.4688,330.9375 L938.4688,333.6563 Q937.8438,333.0781 937.25,332.8047 Q936.6563,332.5313 936.0313,332.5313 Q934.6875,332.5313 934,333.6016 Q933.3125,334.6719 933.3125,336.7656 Q933.3125,338.8594 934,339.9297 Q934.6875,341 936.0313,341 Q936.6563,341 937.25,340.7266 Q937.8438,340.4531 938.4688,339.875 L938.4688,342.5938 Z "/><text fill="#000000" font-family="sans-serif" font-size="12" lengthAdjust="spacingAndGlyphs" textLength="74" x="949.5" y="341.1074">HttpcServer</text><line style="stroke: #A80036; stroke-width: 1.5;" x1="921.5" x2="1025.5" y1="352.9531" y2="352.9531"/><line style="stroke: #A80036; stroke-width: 1.5;" x1="921.5" x2="1025.5" y1="360.9531" y2="360.9531"/><rect fill="#FEFECE" filter="url(#f1)" height="99.2188" style="stroke: #A80036; stroke-width: 1.5;" width="98" x="487.5" y="681.4531"/><ellipse cx="511.95" cy="697.4531" fill="#ADD1B2" rx="11" ry="11" style="stroke: #A80036; stroke-width: 1.0;"/><path d="M514.9188,703.0938 Q514.3406,703.3906 513.7,703.5391 Q513.0594,703.6875 512.3563,703.6875 Q509.8563,703.6875 508.5359,702.0391 Q507.2156,700.3906 507.2156,697.2656 Q507.2156,694.1406 508.5359,692.4844 Q509.8563,690.8281 512.3563,690.8281 Q513.0594,690.8281 513.7078,690.9844 Q514.3563,691.1406 514.9188,691.4375 L514.9188,694.1563 Q514.2938,693.5781 513.7,693.3047 Q513.1063,693.0313 512.4813,693.0313 Q511.1375,693.0313 510.45,694.1016 Q509.7625,695.1719 509.7625,697.2656 Q509.7625,699.3594 510.45,700.4297 Q511.1375,701.5 512.4813,701.5 Q513.1063,701.5 513.7,701.2266 Q514.2938,700.9531 514.9188,700.375 L514.9188,703.0938 Z "/><text fill="#000000" font-family="sans-serif" font-size="12" lengthAdjust="spacingAndGlyphs" textLength="45" x="528.05" y="701.6074">Stream</text><line style="stroke: #A80036; stroke-width: 1.5;" x1="488.5" x2="584.5" y1="713.4531" y2="713.4531"/><text fill="#000000" font-family="sans-serif" font-size="11" lengthAdjust="spacingAndGlyphs" textLength="33" x="493.5" y="727.6636">Mutex</text><text fill="#000000" font-family="sans-serif" font-size="11" lengthAdjust="spacingAndGlyphs" textLength="73" x="493.5" y="740.4683">streamInUse</text><text fill="#000000" font-family="sans-serif" font-size="11" lengthAdjust="spacingAndGlyphs" textLength="45" x="493.5" y="753.2729">enabled</text><text fill="#000000" font-family="sans-serif" font-size="11" lengthAdjust="spacingAndGlyphs" textLength="86" x="493.5" y="766.0776">StreamingType</text><line style="stroke: #A80036; stroke-width: 1.5;" x1="488.5" x2="584.5" y1="772.6719" y2="772.6719"/><rect fill="#FEFECE" filter="url(#f1)" height="48" style="stroke: #A80036; stroke-width: 1.5;" width="133" x="335.75" y="1129.9531"/><ellipse cx="350.75" cy="1145.9531" fill="#ADD1B2" rx="11" ry="11" style="stroke: #A80036; stroke-width: 1.0;"/><path d="M353.7188,1151.5938 Q353.1406,1151.8906 352.5,1152.0391 Q351.8594,1152.1875 351.1563,1152.1875 Q348.6563,1152.1875 347.3359,1150.5391 Q346.0156,1148.8906 346.0156,1145.7656 Q346.0156,1142.6406 347.3359,1140.9844 Q348.6563,1139.3281 351.1563,1139.3281 Q351.8594,1139.3281 352.5078,1139.4844 Q353.1563,1139.6406 353.7188,1139.9375 L353.7188,1142.6563 Q353.0938,1142.0781 352.5,1141.8047 Q351.9063,1141.5313 351.2813,1141.5313 Q349.9375,1141.5313 349.25,1142.6016 Q348.5625,1143.6719 348.5625,1145.7656 Q348.5625,1147.8594 349.25,1148.9297 Q349.9375,1150 351.2813,1150 Q351.9063,1150 352.5,1149.7266 Q353.0938,1149.4531 353.7188,1148.875 L353.7188,1151.5938 Z "/><text fill="#000000" font-family="sans-serif" font-size="12" lengthAdjust="spacingAndGlyphs" textLength="101" x="364.75" y="1150.1074">StreamInterface</text><line style="stroke: #A80036; stroke-width: 1.5;" x1="336.75" x2="467.75" y1="1161.9531" y2="1161.9531"/><line style="stroke: #A80036; stroke-width: 1.5;" x1="336.75" x2="467.75" y1="1169.9531" y2="1169.9531"/><rect fill="#FEFECE" filter="url(#f1)" height="112.0234" style="stroke: #A80036; stroke-width: 1.5;" width="113" x="602.75" y="926.9531"/><ellipse cx="618.2" cy="942.9531" fill="#ADD1B2" rx="11" ry="11" style="stroke: #A80036; stroke-width: 1.0;"/><path d="M621.1688,948.5938 Q620.5906,948.8906 619.95,949.0391 Q619.3094,949.1875 618.6063,949.1875 Q616.1063,949.1875 614.7859,947.5391 Q613.4656,945.8906 613.4656,942.7656 Q613.4656,939.6406 614.7859,937.9844 Q616.1063,936.3281 618.6063,936.3281 Q619.3094,936.3281 619.9578,936.4844 Q620.6063,936.6406 621.1688,936.9375 L621.1688,939.6563 Q620.5438,939.0781 619.95,938.8047 Q619.3563,938.5313 618.7313,938.5313 Q617.3875,938.5313 616.7,939.6016 Q616.0125,940.6719 616.0125,942.7656 Q616.0125,944.8594 616.7,945.9297 Q617.3875,947 618.7313,947 Q619.3563,947 619.95,946.7266 Q620.5438,946.4531 621.1688,945.875 L621.1688,948.5938 Z "/><text fill="#000000" font-family="sans-serif" font-size="12" lengthAdjust="spacingAndGlyphs" textLength="80" x="632.3" y="947.1074">StreamClient</text><line style="stroke: #A80036; stroke-width: 1.5;" x1="603.75" x2="714.75" y1="958.9531" y2="958.9531"/><text fill="#000000" font-family="sans-serif" font-size="11" lengthAdjust="spacingAndGlyphs" textLength="33" x="608.75" y="973.1636">Mutex</text><text fill="#000000" font-family="sans-serif" font-size="11" lengthAdjust="spacingAndGlyphs" textLength="101" x="608.75" y="985.9683">const int *httpcFD</text><text fill="#000000" font-family="sans-serif" font-size="11" lengthAdjust="spacingAndGlyphs" textLength="54" x="608.75" y="998.7729">watchdog</text><text fill="#000000" font-family="sans-serif" font-size="11" lengthAdjust="spacingAndGlyphs" textLength="52" x="608.75" y="1011.5776">canClose</text><text fill="#000000" font-family="sans-serif" font-size="11" lengthAdjust="spacingAndGlyphs" textLength="27" x="608.75" y="1024.3823">cseq</text><line style="stroke: #A80036; stroke-width: 1.5;" x1="603.75" x2="714.75" y1="1030.9766" y2="1030.9766"/><rect fill="#FEFECE" filter="url(#f1)" height="48" style="stroke: #A80036; stroke-width: 1.5;" width="113" x="956.75" y="958.9531"/><ellipse cx="971.75" cy="974.9531" fill="#ADD1B2" rx="11" ry="11" style="stroke: #A80036; stroke-width: 1.0;"/><path d="M974.7188,980.5938 Q974.1406,980.8906 973.5,981.0391 Q972.8594,981.1875 972.1563,981.1875 Q969.6563,981.1875 968.3359,979.5391 Q967.0156,977.8906 967.0156,974.7656 Q967.0156,971.6406 968.3359,969.9844 Q969.6563,968.3281 972.1563,968.3281 Q972.8594,968.3281 973.5078,968.4844 Q974.1563,968.6406 974.7188,968.9375 L974.7188,971.6563 Q974.0938,971.0781 973.5,970.8047 Q972.9063,970.5313 972.2813,970.5313 Q970.9375,970.5313 970.25,971.6016 Q969.5625,972.6719 969.5625,974.7656 Q969.5625,976.8594 970.25,977.9297 Q970.9375,979 972.2813,979 Q972.9063,979 973.5,978.7266 Q974.0938,978.4531 974.7188,977.875 L974.7188,980.5938 Z "/><text fill="#000000" font-family="sans-serif" font-size="12" lengthAdjust="spacingAndGlyphs" textLength="81" x="985.75" y="979.1074">input::Device</text><line style="stroke: #A80036; stroke-width: 1.5;" x1="957.75" x2="1068.75" y1="990.9531" y2="990.9531"/><line style="stroke: #A80036; stroke-width: 1.5;" x1="957.75" x2="1068.75" y1="998.9531" y2="998.9531"/><rect fill="#FEFECE" filter="url(#f1)" height="48" style="stroke: #A80036; stroke-width: 1.5;" width="202" x="113" y="958.9531"/><ellipse cx="128" cy="974.9531" fill="#ADD1B2" rx="11" ry="11" style="stroke: #A80036; stroke-width: 1.0;"/><path d="M130.9688,980.5938 Q130.3906,980.8906 129.75,981.0391 Q129.1094,981.1875 128.4063,981.1875 Q125.9063,981.1875 124.5859,979.5391 Q123.2656,977.8906 123.2656,974.7656 Q123.2656,971.6406 124.5859,969.9844 Q125.9063,968.3281 128.4063,968.3281 Q129.1094,968.3281 129.7578,968.4844 Q130.4063,968.6406 130.9688,968.9375 L130.9688,971.6563 Q130.3438,971.0781 129.75,970.8047 Q129.1563,970.5313 128.5313,970.5313 Q127.1875,970.5313 126.5,971.6016 Q125.8125,972.6719 125.8125,974.7656 Q125.8125,976.8594 126.5,977.9297 Q127.1875,979 128.5313,979 Q129.1563,979 129.75,978.7266 Q130.3438,978.4531 130.9688,977.875 L130.9688,980.5938 Z "/><text fill="#000000" font-family="sans-serif" font-size="12" lengthAdjust="spacingAndGlyphs" textLength="170" x="142" y="979.1074">output::StreamThreadBase</text><line style="stroke: #A80036; stroke-width: 1.5;" x1="114" x2="314" y1="990.9531" y2="990.9531"/><line style="stroke: #A80036; stroke-width: 1.5;" x1="114" x2="314" y1="998.9531" y2="998.9531"/><rect fill="#FEFECE" filter="url(#f1)" height="73.6094" style="stroke: #A80036; stroke-width: 1.5;" width="189" x="112.75" y="515.9531"/><ellipse cx="135.85" cy="531.9531" fill="#ADD1B2" rx="11" ry="11" style="stroke: #A80036; stroke-width: 1.0;"/><path d="M138.8188,537.5938 Q138.2406,537.8906 137.6,538.0391 Q136.9594,538.1875 136.2563,538.1875 Q133.7563,538.1875 132.4359,536.5391 Q131.1156,534.8906 131.1156,531.7656 Q131.1156,528.6406 132.4359,526.9844 Q133.7563,525.3281 136.2563,525.3281 Q136.9594,525.3281 137.6078,525.4844 Q138.2563,525.6406 138.8188,525.9375 L138.8188,528.6563 Q138.1938,528.0781 137.6,527.8047 Q137.0063,527.5313 136.3813,527.5313 Q135.0375,527.5313 134.35,528.6016 Q133.6625,529.6719 133.6625,531.7656 Q133.6625,533.8594 134.35,534.9297 Q135.0375,536 136.3813,536 Q137.0063,536 137.6,535.7266 Q138.1938,535.4531 138.8188,534.875 L138.8188,537.5938 Z "/><text fill="#000000" font-family="sans-serif" font-size="12" lengthAdjust="spacingAndGlyphs" textLength="139" x="151.65" y="536.1074">decrypt::dvbapi::Client</text><line style="stroke: #A80036; stroke-width: 1.5;" x1="113.75" x2="300.75" y1="547.9531" y2="547.9531"/><text fill="#000000" font-family="sans-serif" font-size="11" lengthAdjust="spacingAndGlyphs" textLength="33" x="118.75" y="562.1636">Mutex</text><line style="stroke: #A80036; stroke-width: 1.5;" x1="113.75" x2="300.75" y1="568.7578" y2="568.7578"/><text fill="#000000" font-family="sans-serif" font-size="11" lengthAdjust="spacingAndGlyphs" textLength="177" x="118.75" y="582.9683">getFrontendDecryptInterface(..)</text><rect fill="#FEFECE" filter="url(#f1)" height="48" style="stroke: #A80036; stroke-width: 1.5;" width="127" x="150.75" y="1129.9531"/><ellipse cx="165.75" cy="1145.9531" fill="#ADD1B2" rx="11" ry="11" style="stroke: #A80036; stroke-width: 1.0;"/><path d="M168.7188,1151.5938 Q168.1406,1151.8906 167.5,1152.0391 Q166.8594,1152.1875 166.1563,1152.1875 Q163.6563,1152.1875 162.3359,1150.5391 Q161.0156,1148.8906 161.0156,1145.7656 Q161.0156,1142.6406 162.3359,1140.9844 Q163.6563,1139.3281 166.1563,1139.3281 Q166.8594,1139.3281 167.5078,1139.4844 Q168.1563,1139.6406 168.7188,1139.9375 L168.7188,1142.6563 Q168.0938,1142.0781 167.5,1141.8047 Q166.9063,1141.5313 166.2813,1141.5313 Q164.9375,1141.5313 164.25,1142.6016 Q163.5625,1143.6719 163.5625,1145.7656 Q163.5625,1147.8594 164.25,1148.9297 Q164.9375,1150 166.2813,1150 Q166.9063,1150 167.5,1149.7266 Q168.0938,1149.4531 168.7188,1148.875 L168.7188,1151.5938 Z "/><text fill="#000000" font-family="sans-serif" font-size="12" lengthAdjust="spacingAndGlyphs" textLength="95" x="179.75" y="1150.1074">TSPacketBuffer</text><line style="stroke: #A80036; stroke-width: 1.5;" x1="151.75" x2="276.75" y1="1161.9531" y2="1161.9531"/><line style="stroke: #A80036; stroke-width: 1.5;" x1="151.75" x2="276.75" y1="1169.9531" y2="1169.9531"/><rect fill="#FEFECE" filter="url(#f1)" height="73.6094" style="stroke: #A80036; stroke-width: 1.5;" width="192" x="260" y="693.9531"/><ellipse cx="275" cy="709.9531" fill="#ADD1B2" rx="11" ry="11" style="stroke: #A80036; stroke-width: 1.0;"/><path d="M277.9688,715.5938 Q277.3906,715.8906 276.75,716.0391 Q276.1094,716.1875 275.4063,716.1875 Q272.9063,716.1875 271.5859,714.5391 Q270.2656,712.8906 270.2656,709.7656 Q270.2656,706.6406 271.5859,704.9844 Q272.9063,703.3281 275.4063,703.3281 Q276.1094,703.3281 276.7578,703.4844 Q277.4063,703.6406 277.9688,703.9375 L277.9688,706.6563 Q277.3438,706.0781 276.75,705.8047 Q276.1563,705.5313 275.5313,705.5313 Q274.1875,705.5313 273.5,706.6016 Q272.8125,707.6719 272.8125,709.7656 Q272.8125,711.8594 273.5,712.9297 Q274.1875,714 275.5313,714 Q276.1563,714 276.75,713.7266 Q277.3438,713.4531 277.9688,712.875 L277.9688,715.5938 Z "/><text fill="#000000" font-family="sans-serif" font-size="12" lengthAdjust="spacingAndGlyphs" textLength="160" x="289" y="714.1074">output::StreamThreadRtp</text><line style="stroke: #A80036; stroke-width: 1.5;" x1="261" x2="451" y1="725.9531" y2="725.9531"/><text fill="#000000" font-family="sans-serif" font-size="11" lengthAdjust="spacingAndGlyphs" textLength="54" x="266" y="740.1636">socket_fd</text><text fill="#000000" font-family="sans-serif" font-size="11" lengthAdjust="spacingAndGlyphs" textLength="27" x="266" y="752.9683">cseq</text><line style="stroke: #A80036; stroke-width: 1.5;" x1="261" x2="451" y1="759.5625" y2="759.5625"/><rect fill="#FEFECE" filter="url(#f1)" height="60.8047" style="stroke: #A80036; stroke-width: 1.5;" width="104" x="350" y="952.4531"/><ellipse cx="365" cy="968.4531" fill="#ADD1B2" rx="11" ry="11" style="stroke: #A80036; stroke-width: 1.0;"/><path d="M367.9688,974.0938 Q367.3906,974.3906 366.75,974.5391 Q366.1094,974.6875 365.4063,974.6875 Q362.9063,974.6875 361.5859,973.0391 Q360.2656,971.3906 360.2656,968.2656 Q360.2656,965.1406 361.5859,963.4844 Q362.9063,961.8281 365.4063,961.8281 Q366.1094,961.8281 366.7578,961.9844 Q367.4063,962.1406 367.9688,962.4375 L367.9688,965.1563 Q367.3438,964.5781 366.75,964.3047 Q366.1563,964.0313 365.5313,964.0313 Q364.1875,964.0313 363.5,965.1016 Q362.8125,966.1719 362.8125,968.2656 Q362.8125,970.3594 363.5,971.4297 Q364.1875,972.5 365.5313,972.5 Q366.1563,972.5 366.75,972.2266 Q367.3438,971.9531 367.9688,971.375 L367.9688,974.0938 Z "/><text fill="#000000" font-family="sans-serif" font-size="12" lengthAdjust="spacingAndGlyphs" textLength="72" x="379" y="972.6074">RtcpThread</text><line style="stroke: #A80036; stroke-width: 1.5;" x1="351" x2="453" y1="984.4531" y2="984.4531"/><text fill="#000000" font-family="sans-serif" font-size="11" lengthAdjust="spacingAndGlyphs" textLength="54" x="356" y="998.6636">socket_fd</text><line style="stroke: #A80036; stroke-width: 1.5;" x1="351" x2="453" y1="1005.2578" y2="1005.2578"/><rect fill="#FEFECE" filter="url(#f1)" height="48" style="stroke: #A80036; stroke-width: 1.5;" width="148" x="6" y="706.9531"/><ellipse cx="21" cy="722.9531" fill="#ADD1B2" rx="11" ry="11" style="stroke: #A80036; stroke-width: 1.0;"/><path d="M23.9688,728.5938 Q23.3906,728.8906 22.75,729.0391 Q22.1094,729.1875 21.4063,729.1875 Q18.9063,729.1875 17.5859,727.5391 Q16.2656,725.8906 16.2656,722.7656 Q16.2656,719.6406 17.5859,717.9844 Q18.9063,716.3281 21.4063,716.3281 Q22.1094,716.3281 22.7578,716.4844 Q23.4063,716.6406 23.9688,716.9375 L23.9688,719.6563 Q23.3438,719.0781 22.75,718.8047 Q22.1563,718.5313 21.5313,718.5313 Q20.1875,718.5313 19.5,719.6016 Q18.8125,720.6719 18.8125,722.7656 Q18.8125,724.8594 19.5,725.9297 Q20.1875,727 21.5313,727 Q22.1563,727 22.75,726.7266 Q23.3438,726.4531 23.9688,725.875 L23.9688,728.5938 Z "/><text fill="#000000" font-family="sans-serif" font-size="12" lengthAdjust="spacingAndGlyphs" textLength="116" x="35" y="727.1074">StreamThreadHttp</text><line style="stroke: #A80036; stroke-width: 1.5;" x1="7" x2="153" y1="738.9531" y2="738.9531"/><line style="stroke: #A80036; stroke-width: 1.5;" x1="7" x2="153" y1="746.9531" y2="746.9531"/><rect fill="#FEFECE" filter="url(#f1)" height="48" style="stroke: #A80036; stroke-width: 1.5;" width="158" x="1034.5" y="706.9531"/><ellipse cx="1049.5" cy="722.9531" fill="#ADD1B2" rx="11" ry="11" style="stroke: #A80036; stroke-width: 1.0;"/><path d="M1052.4688,728.5938 Q1051.8906,728.8906 1051.25,729.0391 Q1050.6094,729.1875 1049.9063,729.1875 Q1047.4063,729.1875 1046.0859,727.5391 Q1044.7656,725.8906 1044.7656,722.7656 Q1044.7656,719.6406 1046.0859,717.9844 Q1047.4063,716.3281 1049.9063,716.3281 Q1050.6094,716.3281 1051.2578,716.4844 Q1051.9063,716.6406 1052.4688,716.9375 L1052.4688,719.6563 Q1051.8438,719.0781 1051.25,718.8047 Q1050.6563,718.5313 1050.0313,718.5313 Q1048.6875,718.5313 1048,719.6016 Q1047.3125,720.6719 1047.3125,722.7656 Q1047.3125,724.8594 1048,725.9297 Q1048.6875,727 1050.0313,727 Q1050.6563,727 1051.25,726.7266 Q1051.8438,726.4531 1052.4688,725.875 L1052.4688,728.5938 Z "/><text fill="#000000" font-family="sans-serif" font-size="12" lengthAdjust="spacingAndGlyphs" textLength="126" x="1063.5" y="727.1074">input::file::TSReader</text><line style="stroke: #A80036; stroke-width: 1.5;" x1="1035.5" x2="1191.5" y1="738.9531" y2="738.9531"/><line style="stroke: #A80036; stroke-width: 1.5;" x1="1035.5" x2="1191.5" y1="746.9531" y2="746.9531"/><rect fill="#FEFECE" filter="url(#f1)" height="48" style="stroke: #A80036; stroke-width: 1.5;" width="159" x="909.75" y="1129.9531"/><ellipse cx="924.75" cy="1145.9531" fill="#ADD1B2" rx="11" ry="11" style="stroke: #A80036; stroke-width: 1.0;"/><path d="M927.7188,1151.5938 Q927.1406,1151.8906 926.5,1152.0391 Q925.8594,1152.1875 925.1563,1152.1875 Q922.6563,1152.1875 921.3359,1150.5391 Q920.0156,1148.8906 920.0156,1145.7656 Q920.0156,1142.6406 921.3359,1140.9844 Q922.6563,1139.3281 925.1563,1139.3281 Q925.8594,1139.3281 926.5078,1139.4844 Q927.1563,1139.6406 927.7188,1139.9375 L927.7188,1142.6563 Q927.0938,1142.0781 926.5,1141.8047 Q925.9063,1141.5313 925.2813,1141.5313 Q923.9375,1141.5313 923.25,1142.6016 Q922.5625,1143.6719 922.5625,1145.7656 Q922.5625,1147.8594 923.25,1148.9297 Q923.9375,1150 925.2813,1150 Q925.9063,1150 926.5,1149.7266 Q927.0938,1149.4531 927.7188,1148.875 L927.7188,1151.5938 Z "/><text fill="#000000" font-family="sans-serif" font-size="12" lengthAdjust="spacingAndGlyphs" textLength="127" x="938.75" y="1150.1074">input::dvb::Frontend</text><line style="stroke: #A80036; stroke-width: 1.5;" x1="910.75" x2="1067.75" y1="1161.9531" y2="1161.9531"/><line style="stroke: #A80036; stroke-width: 1.5;" x1="910.75" x2="1067.75" y1="1169.9531" y2="1169.9531"/><rect fill="#FEFECE" filter="url(#f1)" height="48" style="stroke: #A80036; stroke-width: 1.5;" width="193" x="834.75" y="1268.9531"/><ellipse cx="849.75" cy="1284.9531" fill="#ADD1B2" rx="11" ry="11" style="stroke: #A80036; stroke-width: 1.0;"/><path d="M852.7188,1290.5938 Q852.1406,1290.8906 851.5,1291.0391 Q850.8594,1291.1875 850.1563,1291.1875 Q847.6563,1291.1875 846.3359,1289.5391 Q845.0156,1287.8906 845.0156,1284.7656 Q845.0156,1281.6406 846.3359,1279.9844 Q847.6563,1278.3281 850.1563,1278.3281 Q850.8594,1278.3281 851.5078,1278.4844 Q852.1563,1278.6406 852.7188,1278.9375 L852.7188,1281.6563 Q852.0938,1281.0781 851.5,1280.8047 Q850.9063,1280.5313 850.2813,1280.5313 Q848.9375,1280.5313 848.25,1281.6016 Q847.5625,1282.6719 847.5625,1284.7656 Q847.5625,1286.8594 848.25,1287.9297 Q848.9375,1289 850.2813,1289 Q850.9063,1289 851.5,1288.7266 Q852.0938,1288.4531 852.7188,1287.875 L852.7188,1290.5938 Z "/><text fill="#000000" font-family="sans-serif" font-size="12" lengthAdjust="spacingAndGlyphs" textLength="161" x="863.75" y="1289.1074">FrontendDecryptInterface</text><line style="stroke: #A80036; stroke-width: 1.5;" x1="835.75" x2="1026.75" y1="1300.9531" y2="1300.9531"/><line style="stroke: #A80036; stroke-width: 1.5;" x1="835.75" x2="1026.75" y1="1308.9531" y2="1308.9531"/><rect fill="#FEFECE" filter="url(#f1)" height="48" style="stroke: #A80036; stroke-width: 1.5;" width="202" x="1063" y="1268.9531"/><ellipse cx="1078" cy="1284.9531" fill="#ADD1B2" rx="11" ry="11" style="stroke: #A80036; stroke-width: 1.0;"/><path d="M1080.9688,1290.5938 Q1080.3906,1290.8906 1079.75,1291.0391 Q1079.1094,1291.1875 1078.4063,1291.1875 Q1075.9063,1291.1875 1074.5859,1289.5391 Q1073.2656,1287.8906 1073.2656,1284.7656 Q1073.2656,1281.6406 1074.5859,1279.9844 Q1075.9063,1278.3281 1078.4063,1278.3281 Q1079.1094,1278.3281 1079.7578,1278.4844 Q1080.4063,1278.6406 1080.9688,1278.9375 L1080.9688,1281.6563 Q1080.3438,1281.0781 1079.75,1280.8047 Q1079.1563,1280.5313 1078.5313,1280.5313 Q1077.1875,1280.5313 1076.5,1281.6016 Q1075.8125,1282.6719 1075.8125,1284.7656 Q1075.8125,1286.8594 1076.5,1287.9297 Q1077.1875,1289 1078.5313,1289 Q1079.1563,1289 1079.75,1288.7266 Q1080.3438,1288.4531 1080.9688,1287.875 L1080.9688,1290.5938 Z "/><text fill="#000000" font-family="sans-serif" font-size="12" lengthAdjust="spacingAndGlyphs" textLength="170" x="1092" y="1289.1074">input::dvb::delivery::System</text><line style="stroke: #A80036; stroke-width: 1.5;" x1="1064" x2="1264" y1="1300.9531" y2="1300.9531"/><line style="stroke: #A80036; stroke-width: 1.5;" x1="1064" x2="1264" y1="1308.9531" y2="1308.9531"/><rect fill="#FEFECE" filter="url(#f1)" height="48" style="stroke: #A80036; stroke-width: 1.5;" width="189" x="514.75" y="1268.9531"/><ellipse cx="529.75" cy="1284.9531" fill="#ADD1B2" rx="11" ry="11" style="stroke: #A80036; stroke-width: 1.0;"/><path d="M532.7188,1290.5938 Q532.1406,1290.8906 531.5,1291.0391 Q530.8594,1291.1875 530.1563,1291.1875 Q527.6563,1291.1875 526.3359,1289.5391 Q525.0156,1287.8906 525.0156,1284.7656 Q525.0156,1281.6406 526.3359,1279.9844 Q527.6563,1278.3281 530.1563,1278.3281 Q530.8594,1278.3281 531.5078,1278.4844 Q532.1563,1278.6406 532.7188,1278.9375 L532.7188,1281.6563 Q532.0938,1281.0781 531.5,1280.8047 Q530.9063,1280.5313 530.2813,1280.5313 Q528.9375,1280.5313 528.25,1281.6016 Q527.5625,1282.6719 527.5625,1284.7656 Q527.5625,1286.8594 528.25,1287.9297 Q528.9375,1289 530.2813,1289 Q530.9063,1289 531.5,1288.7266 Q532.0938,1288.4531 532.7188,1287.875 L532.7188,1290.5938 Z "/><text fill="#000000" font-family="sans-serif" font-size="12" lengthAdjust="spacingAndGlyphs" textLength="157" x="543.75" y="1289.1074">input::dvb::FrontendData</text><line style="stroke: #A80036; stroke-width: 1.5;" x1="515.75" x2="702.75" y1="1300.9531" y2="1300.9531"/><line style="stroke: #A80036; stroke-width: 1.5;" x1="515.75" x2="702.75" y1="1308.9531" y2="1308.9531"/><rect fill="#FEFECE" filter="url(#f1)" height="48" style="stroke: #A80036; stroke-width: 1.5;" width="65" x="1152.75" y="1378.9531"/><ellipse cx="1167.75" cy="1394.9531" fill="#ADD1B2" rx="11" ry="11" style="stroke: #A80036; stroke-width: 1.0;"/><path d="M1170.7188,1400.5938 Q1170.1406,1400.8906 1169.5,1401.0391 Q1168.8594,1401.1875 1168.1563,1401.1875 Q1165.6563,1401.1875 1164.3359,1399.5391 Q1163.0156,1397.8906 1163.0156,1394.7656 Q1163.0156,1391.6406 1164.3359,1389.9844 Q1165.6563,1388.3281 1168.1563,1388.3281 Q1168.8594,1388.3281 1169.5078,1388.4844 Q1170.1563,1388.6406 1170.7188,1388.9375 L1170.7188,1391.6563 Q1170.0938,1391.0781 1169.5,1390.8047 Q1168.9063,1390.5313 1168.2813,1390.5313 Q1166.9375,1390.5313 1166.25,1391.6016 Q1165.5625,1392.6719 1165.5625,1394.7656 Q1165.5625,1396.8594 1166.25,1397.9297 Q1166.9375,1399 1168.2813,1399 Q1168.9063,1399 1169.5,1398.7266 Q1170.0938,1398.4531 1170.7188,1397.875 L1170.7188,1400.5938 Z "/><text fill="#000000" font-family="sans-serif" font-size="12" lengthAdjust="spacingAndGlyphs" textLength="33" x="1181.75" y="1399.1074">DVBS</text><line style="stroke: #A80036; stroke-width: 1.5;" x1="1153.75" x2="1216.75" y1="1410.9531" y2="1410.9531"/><line style="stroke: #A80036; stroke-width: 1.5;" x1="1153.75" x2="1216.75" y1="1418.9531" y2="1418.9531"/><rect fill="#FEFECE" filter="url(#f1)" height="48" style="stroke: #A80036; stroke-width: 1.5;" width="65" x="1252.75" y="1378.9531"/><ellipse cx="1267.75" cy="1394.9531" fill="#ADD1B2" rx="11" ry="11" style="stroke: #A80036; stroke-width: 1.0;"/><path d="M1270.7188,1400.5938 Q1270.1406,1400.8906 1269.5,1401.0391 Q1268.8594,1401.1875 1268.1563,1401.1875 Q1265.6563,1401.1875 1264.3359,1399.5391 Q1263.0156,1397.8906 1263.0156,1394.7656 Q1263.0156,1391.6406 1264.3359,1389.9844 Q1265.6563,1388.3281 1268.1563,1388.3281 Q1268.8594,1388.3281 1269.5078,1388.4844 Q1270.1563,1388.6406 1270.7188,1388.9375 L1270.7188,1391.6563 Q1270.0938,1391.0781 1269.5,1390.8047 Q1268.9063,1390.5313 1268.2813,1390.5313 Q1266.9375,1390.5313 1266.25,1391.6016 Q1265.5625,1392.6719 1265.5625,1394.7656 Q1265.5625,1396.8594 1266.25,1397.9297 Q1266.9375,1399 1268.2813,1399 Q1268.9063,1399 1269.5,1398.7266 Q1270.0938,1398.4531 1270.7188,1397.875 L1270.7188,1400.5938 Z "/><text fill="#000000" font-family="sans-serif" font-size="12" lengthAdjust="spacingAndGlyphs" textLength="33" x="1281.75" y="1399.1074">DVBC</text><line style="stroke: #A80036; stroke-width: 1.5;" x1="1253.75" x2="1316.75" y1="1410.9531" y2="1410.9531"/><line style="stroke: #A80036; stroke-width: 1.5;" x1="1253.75" x2="1316.75" y1="1418.9531" y2="1418.9531"/><rect fill="#FEFECE" filter="url(#f1)" height="48" style="stroke: #A80036; stroke-width: 1.5;" width="64" x="955" y="1378.9531"/><ellipse cx="970" cy="1394.9531" fill="#ADD1B2" rx="11" ry="11" style="stroke: #A80036; stroke-width: 1.0;"/><path d="M972.9688,1400.5938 Q972.3906,1400.8906 971.75,1401.0391 Q971.1094,1401.1875 970.4063,1401.1875 Q967.9063,1401.1875 966.5859,1399.5391 Q965.2656,1397.8906 965.2656,1394.7656 Q965.2656,1391.6406 966.5859,1389.9844 Q967.9063,1388.3281 970.4063,1388.3281 Q971.1094,1388.3281 971.7578,1388.4844 Q972.4063,1388.6406 972.9688,1388.9375 L972.9688,1391.6563 Q972.3438,1391.0781 971.75,1390.8047 Q971.1563,1390.5313 970.5313,1390.5313 Q969.1875,1390.5313 968.5,1391.6016 Q967.8125,1392.6719 967.8125,1394.7656 Q967.8125,1396.8594 968.5,1397.9297 Q969.1875,1399 970.5313,1399 Q971.1563,1399 971.75,1398.7266 Q972.3438,1398.4531 972.9688,1397.875 L972.9688,1400.5938 Z "/><text fill="#000000" font-family="sans-serif" font-size="12" lengthAdjust="spacingAndGlyphs" textLength="32" x="984" y="1399.1074">DVBT</text><line style="stroke: #A80036; stroke-width: 1.5;" x1="956" x2="1018" y1="1410.9531" y2="1410.9531"/><line style="stroke: #A80036; stroke-width: 1.5;" x1="956" x2="1018" y1="1418.9531" y2="1418.9531"/><rect fill="#FEFECE" filter="url(#f1)" height="48" style="stroke: #A80036; stroke-width: 1.5;" width="63" x="1054.75" y="1378.9531"/><ellipse cx="1069.75" cy="1394.9531" fill="#ADD1B2" rx="11" ry="11" style="stroke: #A80036; stroke-width: 1.0;"/><path d="M1072.7188,1400.5938 Q1072.1406,1400.8906 1071.5,1401.0391 Q1070.8594,1401.1875 1070.1563,1401.1875 Q1067.6563,1401.1875 1066.3359,1399.5391 Q1065.0156,1397.8906 1065.0156,1394.7656 Q1065.0156,1391.6406 1066.3359,1389.9844 Q1067.6563,1388.3281 1070.1563,1388.3281 Q1070.8594,1388.3281 1071.5078,1388.4844 Q1072.1563,1388.6406 1072.7188,1388.9375 L1072.7188,1391.6563 Q1072.0938,1391.0781 1071.5,1390.8047 Q1070.9063,1390.5313 1070.2813,1390.5313 Q1068.9375,1390.5313 1068.25,1391.6016 Q1067.5625,1392.6719 1067.5625,1394.7656 Q1067.5625,1396.8594 1068.25,1397.9297 Q1068.9375,1399 1070.2813,1399 Q1070.9063,1399 1071.5,1398.7266 Q1072.0938,1398.4531 1072.7188,1397.875 L1072.7188,1400.5938 Z "/><text fill="#000000" font-family="sans-serif" font-size="12" lengthAdjust="spacingAndGlyphs" textLength="31" x="1083.75" y="1399.1074">ATSC</text><line style="stroke: #A80036; stroke-width: 1.5;" x1="1055.75" x2="1116.75" y1="1410.9531" y2="1410.9531"/><line style="stroke: #A80036; stroke-width: 1.5;" x1="1055.75" x2="1116.75" y1="1418.9531" y2="1418.9531"/><rect fill="#FEFECE" filter="url(#f1)" height="48" style="stroke: #A80036; stroke-width: 1.5;" width="65" x="1207.75" y="1504.9531"/><ellipse cx="1222.75" cy="1520.9531" fill="#ADD1B2" rx="11" ry="11" style="stroke: #A80036; stroke-width: 1.0;"/><path d="M1225.7188,1526.5938 Q1225.1406,1526.8906 1224.5,1527.0391 Q1223.8594,1527.1875 1223.1563,1527.1875 Q1220.6563,1527.1875 1219.3359,1525.5391 Q1218.0156,1523.8906 1218.0156,1520.7656 Q1218.0156,1517.6406 1219.3359,1515.9844 Q1220.6563,1514.3281 1223.1563,1514.3281 Q1223.8594,1514.3281 1224.5078,1514.4844 Q1225.1563,1514.6406 1225.7188,1514.9375 L1225.7188,1517.6563 Q1225.0938,1517.0781 1224.5,1516.8047 Q1223.9063,1516.5313 1223.2813,1516.5313 Q1221.9375,1516.5313 1221.25,1517.6016 Q1220.5625,1518.6719 1220.5625,1520.7656 Q1220.5625,1522.8594 1221.25,1523.9297 Q1221.9375,1525 1223.2813,1525 Q1223.9063,1525 1224.5,1524.7266 Q1225.0938,1524.4531 1225.7188,1523.875 L1225.7188,1526.5938 Z "/><text fill="#000000" font-family="sans-serif" font-size="12" lengthAdjust="spacingAndGlyphs" textLength="33" x="1236.75" y="1525.1074">Lnb_t</text><line style="stroke: #A80036; stroke-width: 1.5;" x1="1208.75" x2="1271.75" y1="1536.9531" y2="1536.9531"/><line style="stroke: #A80036; stroke-width: 1.5;" x1="1208.75" x2="1271.75" y1="1544.9531" y2="1544.9531"/><rect fill="#FEFECE" filter="url(#f1)" height="48" style="stroke: #A80036; stroke-width: 1.5;" width="86" x="1086" y="1504.9531"/><ellipse cx="1101" cy="1520.9531" fill="#ADD1B2" rx="11" ry="11" style="stroke: #A80036; stroke-width: 1.0;"/><path d="M1103.9688,1526.5938 Q1103.3906,1526.8906 1102.75,1527.0391 Q1102.1094,1527.1875 1101.4063,1527.1875 Q1098.9063,1527.1875 1097.5859,1525.5391 Q1096.2656,1523.8906 1096.2656,1520.7656 Q1096.2656,1517.6406 1097.5859,1515.9844 Q1098.9063,1514.3281 1101.4063,1514.3281 Q1102.1094,1514.3281 1102.7578,1514.4844 Q1103.4063,1514.6406 1103.9688,1514.9375 L1103.9688,1517.6563 Q1103.3438,1517.0781 1102.75,1516.8047 Q1102.1563,1516.5313 1101.5313,1516.5313 Q1100.1875,1516.5313 1099.5,1517.6016 Q1098.8125,1518.6719 1098.8125,1520.7656 Q1098.8125,1522.8594 1099.5,1523.9297 Q1100.1875,1525 1101.5313,1525 Q1102.1563,1525 1102.75,1524.7266 Q1103.3438,1524.4531 1103.9688,1523.875 L1103.9688,1526.5938 Z "/><text fill="#000000" font-family="sans-serif" font-size="12" lengthAdjust="spacingAndGlyphs" textLength="54" x="1115" y="1525.1074">DiSEqc_t</text><line style="stroke: #A80036; stroke-width: 1.5;" x1="1087" x2="1171" y1="1536.9531" y2="1536.9531"/><line style="stroke: #A80036; stroke-width: 1.5;" x1="1087" x2="1171" y1="1544.9531" y2="1544.9531"/><rect fill="#FEFECE" filter="url(#f1)" height="48" style="stroke: #A80036; stroke-width: 1.5;" width="236" x="473" y="1378.9531"/><ellipse cx="488" cy="1394.9531" fill="#ADD1B2" rx="11" ry="11" style="stroke: #A80036; stroke-width: 1.0;"/><path d="M490.9688,1400.5938 Q490.3906,1400.8906 489.75,1401.0391 Q489.1094,1401.1875 488.4063,1401.1875 Q485.9063,1401.1875 484.5859,1399.5391 Q483.2656,1397.8906 483.2656,1394.7656 Q483.2656,1391.6406 484.5859,1389.9844 Q485.9063,1388.3281 488.4063,1388.3281 Q489.1094,1388.3281 489.7578,1388.4844 Q490.4063,1388.6406 490.9688,1388.9375 L490.9688,1391.6563 Q490.3438,1391.0781 489.75,1390.8047 Q489.1563,1390.5313 488.5313,1390.5313 Q487.1875,1390.5313 486.5,1391.6016 Q485.8125,1392.6719 485.8125,1394.7656 Q485.8125,1396.8594 486.5,1397.9297 Q487.1875,1399 488.5313,1399 Q489.1563,1399 489.75,1398.7266 Q490.3438,1398.4531 490.9688,1397.875 L490.9688,1400.5938 Z "/><text fill="#000000" font-family="sans-serif" font-size="12" lengthAdjust="spacingAndGlyphs" textLength="204" x="502" y="1399.1074">decrypt::dvbapi::ClientProperties</text><line style="stroke: #A80036; stroke-width: 1.5;" x1="474" x2="708" y1="1410.9531" y2="1410.9531"/><line style="stroke: #A80036; stroke-width: 1.5;" x1="474" x2="708" y1="1418.9531" y2="1418.9531"/><rect fill="#FEFECE" filter="url(#f1)" height="48" style="stroke: #A80036; stroke-width: 1.5;" width="116" x="468.5" y="1504.9531"/><ellipse cx="483.5" cy="1520.9531" fill="#ADD1B2" rx="11" ry="11" style="stroke: #A80036; stroke-width: 1.0;"/><path d="M486.4688,1526.5938 Q485.8906,1526.8906 485.25,1527.0391 Q484.6094,1527.1875 483.9063,1527.1875 Q481.4063,1527.1875 480.0859,1525.5391 Q478.7656,1523.8906 478.7656,1520.7656 Q478.7656,1517.6406 480.0859,1515.9844 Q481.4063,1514.3281 483.9063,1514.3281 Q484.6094,1514.3281 485.2578,1514.4844 Q485.9063,1514.6406 486.4688,1514.9375 L486.4688,1517.6563 Q485.8438,1517.0781 485.25,1516.8047 Q484.6563,1516.5313 484.0313,1516.5313 Q482.6875,1516.5313 482,1517.6016 Q481.3125,1518.6719 481.3125,1520.7656 Q481.3125,1522.8594 482,1523.9297 Q482.6875,1525 484.0313,1525 Q484.6563,1525 485.25,1524.7266 Q485.8438,1524.4531 486.4688,1523.875 L486.4688,1526.5938 Z "/><text fill="#000000" font-family="sans-serif" font-size="12" lengthAdjust="spacingAndGlyphs" textLength="84" x="497.5" y="1525.1074">dvbcsa_key_s</text><line style="stroke: #A80036; stroke-width: 1.5;" x1="469.5" x2="583.5" y1="1536.9531" y2="1536.9531"/><line style="stroke: #A80036; stroke-width: 1.5;" x1="469.5" x2="583.5" y1="1544.9531" y2="1544.9531"/><rect fill="#FEFECE" filter="url(#f1)" height="48" style="stroke: #A80036; stroke-width: 1.5;" width="111" x="619.75" y="1504.9531"/><ellipse cx="634.75" cy="1520.9531" fill="#ADD1B2" rx="11" ry="11" style="stroke: #A80036; stroke-width: 1.0;"/><path d="M637.7188,1526.5938 Q637.1406,1526.8906 636.5,1527.0391 Q635.8594,1527.1875 635.1563,1527.1875 Q632.6563,1527.1875 631.3359,1525.5391 Q630.0156,1523.8906 630.0156,1520.7656 Q630.0156,1517.6406 631.3359,1515.9844 Q632.6563,1514.3281 635.1563,1514.3281 Q635.8594,1514.3281 636.5078,1514.4844 Q637.1563,1514.6406 637.7188,1514.9375 L637.7188,1517.6563 Q637.0938,1517.0781 636.5,1516.8047 Q635.9063,1516.5313 635.2813,1516.5313 Q633.9375,1516.5313 633.25,1517.6016 Q632.5625,1518.6719 632.5625,1520.7656 Q632.5625,1522.8594 633.25,1523.9297 Q633.9375,1525 635.2813,1525 Q635.9063,1525 636.5,1524.7266 Q637.0938,1524.4531 637.7188,1523.875 L637.7188,1526.5938 Z "/><text fill="#000000" font-family="sans-serif" font-size="12" lengthAdjust="spacingAndGlyphs" textLength="79" x="648.75" y="1525.1074">TSTableData</text><line style="stroke: #A80036; stroke-width: 1.5;" x1="620.75" x2="729.75" y1="1536.9531" y2="1536.9531"/><line style="stroke: #A80036; stroke-width: 1.5;" x1="620.75" x2="729.75" y1="1544.9531" y2="1544.9531"/><rect fill="#FEFECE" filter="url(#f1)" height="48" style="stroke: #A80036; stroke-width: 1.5;" width="143" x="523.75" y="1129.9531"/><ellipse cx="538.75" cy="1145.9531" fill="#ADD1B2" rx="11" ry="11" style="stroke: #A80036; stroke-width: 1.0;"/><path d="M541.7188,1151.5938 Q541.1406,1151.8906 540.5,1152.0391 Q539.8594,1152.1875 539.1563,1152.1875 Q536.6563,1152.1875 535.3359,1150.5391 Q534.0156,1148.8906 534.0156,1145.7656 Q534.0156,1142.6406 535.3359,1140.9844 Q536.6563,1139.3281 539.1563,1139.3281 Q539.8594,1139.3281 540.5078,1139.4844 Q541.1563,1139.6406 541.7188,1139.9375 L541.7188,1142.6563 Q541.0938,1142.0781 540.5,1141.8047 Q539.9063,1141.5313 539.2813,1141.5313 Q537.9375,1141.5313 537.25,1142.6016 Q536.5625,1143.6719 536.5625,1145.7656 Q536.5625,1147.8594 537.25,1148.9297 Q537.9375,1150 539.2813,1150 Q539.9063,1150 540.5,1149.7266 Q541.0938,1149.4531 541.7188,1148.875 L541.7188,1151.5938 Z "/><text fill="#000000" font-family="sans-serif" font-size="12" lengthAdjust="spacingAndGlyphs" textLength="111" x="552.75" y="1150.1074">input::DeviceData</text><line style="stroke: #A80036; stroke-width: 1.5;" x1="524.75" x2="665.75" y1="1161.9531" y2="1161.9531"/><line style="stroke: #A80036; stroke-width: 1.5;" x1="524.75" x2="665.75" y1="1169.9531" y2="1169.9531"/><rect fill="#FEFECE" filter="url(#f1)" height="48" style="stroke: #A80036; stroke-width: 1.5;" width="155" x="744.75" y="1378.9531"/><ellipse cx="759.75" cy="1394.9531" fill="#ADD1B2" rx="11" ry="11" style="stroke: #A80036; stroke-width: 1.0;"/><path d="M762.7188,1400.5938 Q762.1406,1400.8906 761.5,1401.0391 Q760.8594,1401.1875 760.1563,1401.1875 Q757.6563,1401.1875 756.3359,1399.5391 Q755.0156,1397.8906 755.0156,1394.7656 Q755.0156,1391.6406 756.3359,1389.9844 Q757.6563,1388.3281 760.1563,1388.3281 Q760.8594,1388.3281 761.5078,1388.4844 Q762.1563,1388.6406 762.7188,1388.9375 L762.7188,1391.6563 Q762.0938,1391.0781 761.5,1390.8047 Q760.9063,1390.5313 760.2813,1390.5313 Q758.9375,1390.5313 758.25,1391.6016 Q757.5625,1392.6719 757.5625,1394.7656 Q757.5625,1396.8594 758.25,1397.9297 Q758.9375,1399 760.2813,1399 Q760.9063,1399 761.5,1398.7266 Q762.0938,1398.4531 762.7188,1397.875 L762.7188,1400.5938 Z "/><text fill="#000000" font-family="sans-serif" font-size="12" lengthAdjust="spacingAndGlyphs" textLength="123" x="773.75" y="1399.1074">input::dvb::PidTable</text><line style="stroke: #A80036; stroke-width: 1.5;" x1="745.75" x2="898.75" y1="1410.9531" y2="1410.9531"/><line style="stroke: #A80036; stroke-width: 1.5;" x1="745.75" x2="898.75" y1="1418.9531" y2="1418.9531"/><path d="M716.958,102.8831 C674.61,134.8431 616.549,185.3531 583,242.9531 C530.021,333.9231 530.347,464.4631 533.613,522.3631 " fill="none" style="stroke: #A80036; stroke-width: 1.0;"/><polygon fill="#A80036" points="727.633,94.9631,720.4309,95.3236,717.9936,102.1103,725.1957,101.7498,727.633,94.9631" style="stroke: #A80036; stroke-width: 1.0;"/><path d="M822.031,90.3731 C871.395,112.1731 944.435,144.4231 992.85,165.8031 " fill="none" style="stroke: #A80036; stroke-width: 1.0;"/><polygon fill="#A80036" points="810.021,85.0631,813.8953,91.145,820.9995,89.9079,817.1252,83.826,810.021,85.0631" style="stroke: #A80036; stroke-width: 1.0;"/><path d="M820.311,111.6231 C841.101,129.7131 864.227,149.8531 881.507,164.8931 " fill="none" style="stroke: #A80036; stroke-width: 1.0;"/><polygon fill="#A80036" points="810.328,102.9331,812.2253,109.8902,819.3769,110.8146,817.4796,103.8576,810.328,102.9331" style="stroke: #A80036; stroke-width: 1.0;"/><path d="M722.85,112.9531 C717.489,119.4031 712.381,126.1531 708,132.9531 C685.07,168.5431 668.01,215.1131 659.062,242.6431 " fill="none" style="stroke: #A80036; stroke-width: 1.0;"/><polygon fill="#A80036" points="731.415,103.1131,724.4577,105.0095,723.5324,112.161,730.4896,110.2646,731.415,103.1131" style="stroke: #A80036; stroke-width: 1.0;"/><path d="M780.89,116.1131 C795.45,176.3031 819.511,275.7831 830.372,320.6831 " fill="none" style="stroke: #A80036; stroke-width: 1.0;"/><polygon fill="#A80036" points="777.759,103.1631,775.2821,109.9355,780.5809,114.8266,783.0578,108.0542,777.759,103.1631" style="stroke: #A80036; stroke-width: 1.0;"/><path d="M763.529,115.9231 C755.991,192.4531 745.045,344.9231 761,472.9531 C763.064,489.5231 767.475,507.6031 771.63,522.2731 " fill="none" style="stroke: #A80036; stroke-width: 1.0;"/><polygon fill="#A80036" points="764.843,102.9731,760.2569,108.538,763.6299,114.9116,768.216,109.3468,764.843,102.9731" style="stroke: #A80036; stroke-width: 1.0;"/><path d="M963.8,897.2371 C955.021,906.5721 946.293,916.7371 939,926.9531 C892.691,991.8241 908.171,1025.0201 858,1086.9531 C853.552,1092.4441 848.576,1097.7831 843.334,1102.8891 " fill="none" style="stroke: #A80036; stroke-width: 1.0;"/><polygon fill="none" points="847.627,1108.4421,828.071,1116.6001,838.272,1098.0271,847.627,1108.4421" style="stroke: #A80036; stroke-width: 1.0;"/><path d="M874.735,591.8361 C851.837,603.8741 827.329,617.9831 806,632.9531 C786.259,646.8091 766.246,663.9471 748.953,679.9451 " fill="none" style="stroke: #A80036; stroke-width: 1.0;"/><polygon fill="none" points="753.562,685.2211,734.228,693.8931,743.934,675.0571,753.562,685.2211" style="stroke: #A80036; stroke-width: 1.0;"/><path d="M930.592,614.9541 C910.42,666.6371 881.817,742.9671 861,810.9531 C827.325,920.9341 797.269,1053.8231 783.678,1116.6611 " fill="none" style="stroke: #A80036; stroke-width: 1.0;"/><polygon fill="#A80036" points="935.4,602.6911,929.4857,606.8168,931.0194,613.863,936.9336,609.7373,935.4,602.6911" style="stroke: #A80036; stroke-width: 1.0;"/><text fill="#000000" font-family="sans-serif" font-size="13" lengthAdjust="spacingAndGlyphs" textLength="47" x="862" y="858.02">_server</text><path d="M966.158,615.7381 C976.676,673.9751 992.156,759.6881 1001.344,810.5611 " fill="none" style="stroke: #A80036; stroke-width: 1.0;"/><polygon fill="#A80036" points="963.796,602.6581,960.9265,609.2737,965.9296,614.4669,968.7991,607.8513,963.796,602.6581" style="stroke: #A80036; stroke-width: 1.0;"/><text fill="#000000" font-family="sans-serif" font-size="13" lengthAdjust="spacingAndGlyphs" textLength="59" x="973" y="646.02">_client[..]</text><path d="M637.654,473.1731 C649.669,523.4631 671.516,614.9131 685.635,674.0111 " fill="none" style="stroke: #A80036; stroke-width: 1.0;"/><polygon fill="none" points="692.527,672.7351,690.366,693.8141,678.91,675.9881,692.527,672.7351" style="stroke: #A80036; stroke-width: 1.0;"/><path d="M648.802,291.1731 C645.698,313.7131 640.866,348.7931 636.753,378.6631 " fill="none" style="stroke: #A80036; stroke-width: 1.0;"/><polygon fill="none" points="643.648,379.9031,633.984,398.7631,629.779,377.9931,643.648,379.9031" style="stroke: #A80036; stroke-width: 1.0;"/><path d="M1032.52,213.0131 C1021.8,236.5931 1004.906,273.7631 991.852,302.4731 " fill="none" style="stroke: #A80036; stroke-width: 1.0;"/><polygon fill="none" points="998.2,305.4331,983.551,320.7431,985.455,299.6331,998.2,305.4331" style="stroke: #A80036; stroke-width: 1.0;"/><path d="M917.731,213.0131 C927.64,236.4831 943.222,273.4031 955.319,302.0631 " fill="none" style="stroke: #A80036; stroke-width: 1.0;"/><polygon fill="none" points="961.874,299.5931,963.202,320.7431,948.976,305.0331,961.874,299.5931" style="stroke: #A80036; stroke-width: 1.0;"/><path d="M891.534,225.1731 C877.829,254.4831 858.707,295.3831 846.853,320.7431 " fill="none" style="stroke: #A80036; stroke-width: 1.0; stroke-dasharray: 7.0,7.0;"/><polygon fill="#A80036" points="897.221,213.0131,891.0542,216.7508,892.1325,223.8808,898.2993,220.1431,897.221,213.0131" style="stroke: #A80036; stroke-width: 1.0;"/><path d="M970.97,369.1831 C968.572,396.6331 964.473,443.5431 961.028,482.9731 " fill="none" style="stroke: #A80036; stroke-width: 1.0;"/><polygon fill="none" points="967.987,483.7331,959.273,503.0531,954.041,482.5131,967.987,483.7331" style="stroke: #A80036; stroke-width: 1.0;"/><path d="M907.881,366.9031 C905.561,367.6031 903.262,368.2831 901,368.9531 C851.981,383.4031 832.606,370.7331 790,398.9531 C755.161,422.0231 765.403,447.8431 732,472.9531 C693.289,502.0531 642.388,522.1431 602.161,534.7831 " fill="none" style="stroke: #A80036; stroke-width: 1.0; stroke-dasharray: 7.0,7.0;"/><polygon fill="#A80036" points="920.393,363.0631,913.4837,360.9988,908.9207,366.5826,915.83,368.647,920.393,363.0631" style="stroke: #A80036; stroke-width: 1.0;"/><text fill="#000000" font-family="sans-serif" font-size="13" lengthAdjust="spacingAndGlyphs" textLength="109" x="791" y="440.02">_streamManager</text><path d="M958.255,381.3131 C944.239,413.7531 923.371,458.8331 910,472.9531 C891.39,492.6031 880.162,488.9431 857,502.9531 C846.925,509.0431 836.23,515.7731 826.143,522.2431 " fill="none" style="stroke: #A80036; stroke-width: 1.0; stroke-dasharray: 7.0,7.0;"/><polygon fill="#A80036" points="963.441,369.1731,957.4076,373.1225,958.7326,380.2108,964.766,376.2614,963.441,369.1731" style="stroke: #A80036; stroke-width: 1.0;"/><path d="M530.826,780.4681 C523.102,842.2321 505.6,951.4291 471,1038.9531 C460.686,1065.0431 444.661,1091.9951 430.65,1113.1391 " fill="none" style="stroke: #A80036; stroke-width: 1.0;"/><polygon fill="none" points="436.366,1117.1801,419.287,1129.7221,424.818,1109.2661,436.366,1117.1801" style="stroke: #A80036; stroke-width: 1.0;"/><path d="M565.774,792.4701 C585.906,833.3881 612.283,887.0001 631.841,926.7521 " fill="none" style="stroke: #A80036; stroke-width: 1.0;"/><polygon fill="#A80036" points="560.008,780.7491,559.0675,787.8986,565.3054,791.5166,566.2458,784.3671,560.008,780.7491" style="stroke: #A80036; stroke-width: 1.0;"/><text fill="#000000" font-family="sans-serif" font-size="13" lengthAdjust="spacingAndGlyphs" textLength="59" x="621" y="858.02">_client[..]</text><path d="M596.539,778.6261 C598.351,779.4601 600.172,780.2391 602,780.9531 C718.985,826.6641 779.49,739.8151 883,810.9531 C918.384,835.2711 901.633,862.3131 927,896.9531 C943.868,919.9871 967.085,942.5371 985.145,958.6161 " fill="none" style="stroke: #A80036; stroke-width: 1.0;"/><polygon fill="#A80036" points="584.788,772.4061,588.2198,778.7483,595.394,778.0197,591.9622,771.6776,584.788,772.4061" style="stroke: #A80036; stroke-width: 1.0;"/><path d="M477.172,777.6271 C408.188,831.1861 296.557,917.8561 243.641,958.9401 " fill="none" style="stroke: #A80036; stroke-width: 1.0;"/><polygon fill="#A80036" points="487.445,769.6511,480.2527,770.1713,477.9666,777.0105,485.1589,776.4903,487.445,769.6511" style="stroke: #A80036; stroke-width: 1.0;"/><path d="M536,596.8241 C536,622.3511 536,654.8231 536,681.3071 " fill="none" style="stroke: #A80036; stroke-width: 1.0;"/><polygon fill="#A80036" points="536,583.8091,532,589.8091,536,595.8091,540,589.8091,536,583.8091" style="stroke: #A80036; stroke-width: 1.0;"/><text fill="#000000" font-family="sans-serif" font-size="13" lengthAdjust="spacingAndGlyphs" textLength="71" x="541" y="646.02">_stream[..]</text><path d="M456.771,573.2461 C405.001,582.3011 353.23,583.1091 301.459,575.6721 " fill="none" style="stroke: #A80036; stroke-width: 1.0;"/><polygon fill="#A80036" points="469.577,570.8391,462.9411,568.017,457.7837,573.057,464.4196,575.8791,469.577,570.8391" style="stroke: #A80036; stroke-width: 1.0;"/><path d="M301.459,530.2331 C357.498,522.1831 413.538,523.7931 469.577,535.0631 " fill="none" style="stroke: #A80036; stroke-width: 1.0; stroke-dasharray: 7.0,7.0;"/><path d="M670.513,1051.8231 C674.487,1064.1681 679.826,1076.4461 687,1086.9531 C694.593,1098.0741 704.688,1108.0471 715.349,1116.6701 " fill="none" style="stroke: #A80036; stroke-width: 1.0;"/><polygon fill="#A80036" points="666.847,1039.0061,664.6516,1045.8749,670.1477,1050.5433,672.343,1043.6745,666.847,1039.0061" style="stroke: #A80036; stroke-width: 1.0;"/><text fill="#000000" font-family="sans-serif" font-size="13" lengthAdjust="spacingAndGlyphs" textLength="25" x="692" y="1082.02">_rtp</text><path d="M713.276,1049.8941 C718.04,1056.2451 722.685,1062.6641 727,1068.9531 C737.412,1084.1271 747.841,1101.6071 756.385,1116.6801 " fill="none" style="stroke: #A80036; stroke-width: 1.0;"/><polygon fill="#A80036" points="705.186,1039.3041,705.6504,1046.5003,712.4716,1048.8393,712.0072,1041.6432,705.186,1039.3041" style="stroke: #A80036; stroke-width: 1.0;"/><text fill="#000000" font-family="sans-serif" font-size="13" lengthAdjust="spacingAndGlyphs" textLength="32" x="744" y="1082.02">_rtcp</text><path d="M605.323,1051.2001 C601.365,1063.4531 601.455,1075.8581 609,1086.9531 C609.751,1088.0571 657.525,1106.8811 701.779,1124.1431 " fill="none" style="stroke: #A80036; stroke-width: 1.0; stroke-dasharray: 7.0,7.0;"/><polygon fill="#A80036" points="610.504,1039.0531,604.4707,1043.0028,605.7961,1050.091,611.8293,1046.1414,610.504,1039.0531" style="stroke: #A80036; stroke-width: 1.0;"/><text fill="#000000" font-family="sans-serif" font-size="13" lengthAdjust="spacingAndGlyphs" textLength="50" x="614" y="1082.02">httpcFD</text><path d="M213.407,945.7151 C212.086,864.9131 208.911,670.7691 207.591,590.0751 " fill="none" style="stroke: #A80036; stroke-width: 1.0; stroke-dasharray: 7.0,7.0;"/><polygon fill="#A80036" points="213.621,958.7761,217.5222,952.7114,213.4245,946.7777,209.5233,952.8424,213.621,958.7761" style="stroke: #A80036; stroke-width: 1.0;"/><path d="M214,1020.3131 C214,1053.5101 214,1101.5831 214,1129.8181 " fill="none" style="stroke: #A80036; stroke-width: 1.0;"/><polygon fill="#A80036" points="214,1007.0971,210,1013.0971,214,1019.0971,218,1013.0971,214,1007.0971" style="stroke: #A80036; stroke-width: 1.0;"/><text fill="#000000" font-family="sans-serif" font-size="13" lengthAdjust="spacingAndGlyphs" textLength="75" x="219" y="1082.02">_tsBuffer[..]</text><path d="M249.604,1015.9591 C286.558,1049.1781 343.453,1100.3231 376.264,1129.8181 " fill="none" style="stroke: #A80036; stroke-width: 1.0; stroke-dasharray: 7.0,7.0;"/><polygon fill="#A80036" points="239.746,1007.0971,241.5346,1014.0829,248.6709,1015.1187,246.8823,1008.133,239.746,1007.0971" style="stroke: #A80036; stroke-width: 1.0;"/><path d="M335.504,768.0381 C309.389,814.0151 264.375,893.2651 237.08,941.3201 " fill="none" style="stroke: #A80036; stroke-width: 1.0;"/><polygon fill="none" points="243.032,945.0141,227.067,958.9471,230.859,938.0991,243.032,945.0141" style="stroke: #A80036; stroke-width: 1.0;"/><path d="M365.023,780.9891 C374.387,831.8811 388.73,909.8361 396.515,952.1411 " fill="none" style="stroke: #A80036; stroke-width: 1.0;"/><polygon fill="#A80036" points="362.64,768.0381,359.792,774.663,364.8118,779.84,367.6598,773.2151,362.64,768.0381" style="stroke: #A80036; stroke-width: 1.0;"/><path d="M402,1027.0551 C402,1059.8031 402,1103.5681 402,1129.9311 " fill="none" style="stroke: #A80036; stroke-width: 1.0; stroke-dasharray: 7.0,7.0;"/><polygon fill="#A80036" points="402,1013.7781,398,1019.7781,402,1025.7781,406,1019.7781,402,1013.7781" style="stroke: #A80036; stroke-width: 1.0;"/><path d="M92.3662,755.0241 C115.102,797.4411 163.807,888.3101 192.206,941.2921 " fill="none" style="stroke: #A80036; stroke-width: 1.0;"/><polygon fill="none" points="198.385,938.0031,201.664,958.9371,186.046,944.6171,198.385,938.0031" style="stroke: #A80036; stroke-width: 1.0;"/><path d="M1114.17,755.0381 C1114.94,788.0961 1112.92,850.0961 1091,896.9531 C1082.8,914.4841 1069.68,930.8921 1056.52,944.5261 " fill="none" style="stroke: #A80036; stroke-width: 1.0;"/><polygon fill="none" points="1061.15,949.7861,1041.9,958.6521,1051.42,939.7191,1061.15,949.7861" style="stroke: #A80036; stroke-width: 1.0;"/><path d="M1006.86,1027.1721 C1002.22,1059.8601 996.027,1103.4741 992.286,1129.8181 " fill="none" style="stroke: #A80036; stroke-width: 1.0;"/><polygon fill="none" points="999.971,1025.9141,1009.71,1007.0971,1013.83,1027.8831,999.971,1025.9141" style="stroke: #A80036; stroke-width: 1.0;"/><path d="M978.651,1178.1021 C973.049,1190.7331 966.056,1206.6641 960,1220.9531 C955.989,1230.4161 951.761,1240.6271 947.81,1250.2751 " fill="none" style="stroke: #A80036; stroke-width: 1.0;"/><polygon fill="none" points="954.269,1252.9761,940.251,1268.8671,941.299,1247.7031,954.269,1252.9761" style="stroke: #A80036; stroke-width: 1.0;"/><path d="M1029.07,1186.3211 C1061.18,1211.4621 1105.51,1246.1661 1134.46,1268.8281 " fill="none" style="stroke: #A80036; stroke-width: 1.0;"/><polygon fill="#A80036" points="1018.69,1178.1931,1020.9487,1185.0414,1028.1389,1185.5903,1025.8802,1178.7421,1018.69,1178.1931" style="stroke: #A80036; stroke-width: 1.0;"/><text fill="#000000" font-family="sans-serif" font-size="13" lengthAdjust="spacingAndGlyphs" textLength="123" x="1098" y="1234.02">_deliverySystem[..]</text><path d="M912.667,1182.4731 C842.321,1207.8351 739.103,1245.0471 672.977,1268.8881 " fill="none" style="stroke: #A80036; stroke-width: 1.0;"/><polygon fill="#A80036" points="924.968,1178.0381,917.9669,1176.3105,913.6795,1182.1086,920.6806,1183.8362,924.968,1178.0381" style="stroke: #A80036; stroke-width: 1.0;"/><path d="M1172.34,1336.8361 C1175.12,1351.1651 1178.12,1366.5861 1180.5,1378.8231 " fill="none" style="stroke: #A80036; stroke-width: 1.0;"/><polygon fill="none" points="1165.45,1338.0901,1168.51,1317.1221,1179.19,1335.4181,1165.45,1338.0901" style="stroke: #A80036; stroke-width: 1.0;"/><path d="M1205.14,1330.6711 C1223,1346.6151 1243.38,1364.8081 1259.09,1378.8231 " fill="none" style="stroke: #A80036; stroke-width: 1.0;"/><polygon fill="none" points="1200.22,1335.6621,1189.96,1317.1221,1209.54,1325.2171,1200.22,1335.6621" style="stroke: #A80036; stroke-width: 1.0;"/><path d="M1108.62,1327.7461 C1079.24,1345.6681 1044.19,1367.0601 1019.27,1382.2611 " fill="none" style="stroke: #A80036; stroke-width: 1.0;"/><polygon fill="none" points="1105.31,1321.5641,1126.03,1317.1221,1112.6,1333.5151,1105.31,1321.5641" style="stroke: #A80036; stroke-width: 1.0;"/><path d="M1135.54,1333.3611 C1124.51,1348.6341 1112.26,1365.5901 1102.71,1378.8231 " fill="none" style="stroke: #A80036; stroke-width: 1.0;"/><polygon fill="none" points="1129.88,1329.2371,1147.27,1317.1221,1141.23,1337.4341,1129.88,1329.2371" style="stroke: #A80036; stroke-width: 1.0;"/><path d="M1200.53,1438.9761 C1209.85,1459.9844 1221.45,1486.1256 1229.65,1504.6228 " fill="none" style="stroke: #A80036; stroke-width: 1.0;"/><polygon fill="#A80036" points="1195.22,1426.9861,1193.9953,1434.0925,1200.084,1437.9562,1201.3087,1430.8498,1195.22,1426.9861" style="stroke: #A80036; stroke-width: 1.0;"/><path d="M1169.18,1438.9761 C1159.7,1459.9844 1147.89,1486.1256 1139.54,1504.6228 " fill="none" style="stroke: #A80036; stroke-width: 1.0;"/><polygon fill="#A80036" points="1174.6,1426.9861,1168.4846,1430.8073,1169.6597,1437.922,1175.7752,1434.1008,1174.6,1426.9861" style="stroke: #A80036; stroke-width: 1.0;"/><path d="M560.56,1437.6421 C555.929,1443.7921 551.527,1450.3571 548,1456.9531 C539.968,1471.9744 534.37,1490.3817 530.831,1504.6895 " fill="none" style="stroke: #A80036; stroke-width: 1.0;"/><polygon fill="#A80036" points="569.004,1427.1071,562.1301,1429.2865,561.498,1436.4698,568.3719,1434.2905,569.004,1427.1071" style="stroke: #A80036; stroke-width: 1.0;"/><path d="M621.105,1437.3631 C626.304,1443.6941 631.482,1450.3931 636,1456.9531 C646.53,1472.2417 656.57,1490.6407 663.825,1504.8776 " fill="none" style="stroke: #A80036; stroke-width: 1.0;"/><polygon fill="#A80036" points="612.451,1427.1461,613.2763,1434.3098,620.2064,1436.3033,619.3811,1429.1396,612.451,1427.1461" style="stroke: #A80036; stroke-width: 1.0;"/><text fill="#000000" font-family="sans-serif" font-size="13" lengthAdjust="spacingAndGlyphs" textLength="28" x="652" y="1470.02">_pat</text><path d="M579.344,1439.9121 C577.564,1451.7261 577.99,1464.4982 584,1474.9531 C592.109,1489.0602 605.579,1499.7643 619.701,1507.7265 " fill="none" style="stroke: #A80036; stroke-width: 1.0;"/><polygon fill="#A80036" points="582.11,1427.1551,576.9291,1432.171,579.5665,1438.8825,584.7474,1433.8666,582.11,1427.1551" style="stroke: #A80036; stroke-width: 1.0;"/><text fill="#000000" font-family="sans-serif" font-size="13" lengthAdjust="spacingAndGlyphs" textLength="33" x="589" y="1470.02">_pmt</text><path d="M599.432,1198.3211 C601.811,1221.6001 604.649,1249.3751 606.613,1268.5991 " fill="none" style="stroke: #A80036; stroke-width: 1.0;"/><polygon fill="none" points="592.444,1198.8011,597.375,1178.1931,606.372,1197.3781,592.444,1198.8011" style="stroke: #A80036; stroke-width: 1.0;"/><path d="M605.139,1317.1221 C603.11,1329.2941 600.557,1344.6081 598.181,1358.8641 " fill="none" style="stroke: #A80036; stroke-width: 1.0;"/><polygon fill="none" points="605.048,1360.2461,594.855,1378.8231,591.238,1357.9441,605.048,1360.2461" style="stroke: #A80036; stroke-width: 1.0;"/><path d="M666.274,1322.9931 C700.894,1340.5471 744.412,1362.6131 776.637,1378.9521 " fill="none" style="stroke: #A80036; stroke-width: 1.0;"/><polygon fill="#A80036" points="654.433,1316.9891,657.9756,1323.2701,665.1359,1322.4157,661.5933,1316.1348,654.433,1316.9891" style="stroke: #A80036; stroke-width: 1.0;"/></g></svg>