<?xml version="1.0" encoding="UTF-8" standalone="yes"?><svg xmlns="http://www.w3.org/2000/svg" xmlns:xlink="http://www.w3.org/1999/xlink" height="1757px" style="width:1637px;height:1757px;" version="1.1" viewBox="0 0 1637 1757" width="1637px"><defs><filter height="300%" id="f1" width="300%" x="-1" y="-1"><feGaussianBlur result="blurOut" stdDeviation="2.0"/><feColorMatrix in="blurOut" result="blurOut2" type="matrix" values="0 0 0 0 0 0 0 0 0 0 0 0 0 0 0 0 0 0 .4 0"/><feOffset dx="4.0" dy="4.0" in="blurOut2" result="blurOut3"/><feBlend in="SourceGraphic" in2="blurOut3" mode="normal"/></filter></defs><g><text fill="#000000" font-family="sans-serif" font-size="18" lengthAdjust="spacingAndGlyphs" textLength="45" x="800.5" y="16.708">SatPI</text><rect fill="#FEFECE" filter="url(#f1)" height="73.6094" style="stroke: #A80036; stroke-width: 1.5;" width="82" x="584" y="28.9531"/><ellipse cx="607.1" cy="44.9531" fill="#ADD1B2" rx="11" ry="11" style="stroke: #A80036; stroke-width: 1.0;"/><path d="M610.0688,50.5938 Q609.4906,50.8906 608.85,51.0391 Q608.2094,51.1875 607.5063,51.1875 Q605.0063,51.1875 603.6859,49.5391 Q602.3656,47.8906 602.3656,44.7656 Q602.3656,41.6406 603.6859,39.9844 Q605.0063,38.3281 607.5063,38.3281 Q608.2094,38.3281 608.8578,38.4844 Q609.5063,38.6406 610.0688,38.9375 L610.0688,41.6563 Q609.4438,41.0781 608.85,40.8047 Q608.2563,40.5313 607.6313,40.5313 Q606.2875,40.5313 605.6,41.6016 Q604.9125,42.6719 604.9125,44.7656 Q604.9125,46.8594 605.6,47.9297 Q606.2875,49 607.6313,49 Q608.2563,49 608.85,48.7266 Q609.4438,48.4531 610.0688,47.875 L610.0688,50.5938 Z "/><text fill="#000000" font-family="sans-serif" font-size="12" lengthAdjust="spacingAndGlyphs" textLength="32" x="622.9" y="49.1074">SatPI</text><line style="stroke: #A80036; stroke-width: 1.5;" x1="585" x2="665" y1="60.9531" y2="60.9531"/><text fill="#000000" font-family="sans-serif" font-size="11" lengthAdjust="spacingAndGlyphs" textLength="59" x="590" y="75.1636">Properties</text><text fill="#000000" font-family="sans-serif" font-size="11" lengthAdjust="spacingAndGlyphs" textLength="70" x="590" y="87.9683">InterfaceAttr</text><line style="stroke: #A80036; stroke-width: 1.5;" x1="585" x2="665" y1="94.5625" y2="94.5625"/><rect fill="#FEFECE" filter="url(#f1)" height="60.8047" style="stroke: #A80036; stroke-width: 1.5;" width="132" x="456" y="638.4531"/><ellipse cx="471" cy="654.4531" fill="#ADD1B2" rx="11" ry="11" style="stroke: #A80036; stroke-width: 1.0;"/><path d="M473.9688,660.0938 Q473.3906,660.3906 472.75,660.5391 Q472.1094,660.6875 471.4063,660.6875 Q468.9063,660.6875 467.5859,659.0391 Q466.2656,657.3906 466.2656,654.2656 Q466.2656,651.1406 467.5859,649.4844 Q468.9063,647.8281 471.4063,647.8281 Q472.1094,647.8281 472.7578,647.9844 Q473.4063,648.1406 473.9688,648.4375 L473.9688,651.1563 Q473.3438,650.5781 472.75,650.3047 Q472.1563,650.0313 471.5313,650.0313 Q470.1875,650.0313 469.5,651.1016 Q468.8125,652.1719 468.8125,654.2656 Q468.8125,656.3594 469.5,657.4297 Q470.1875,658.5 471.5313,658.5 Q472.1563,658.5 472.75,658.2266 Q473.3438,657.9531 473.9688,657.375 L473.9688,660.0938 Z "/><text fill="#000000" font-family="sans-serif" font-size="12" lengthAdjust="spacingAndGlyphs" textLength="100" x="485" y="658.6074">StreamManager</text><line style="stroke: #A80036; stroke-width: 1.5;" x1="457" x2="587" y1="670.4531" y2="670.4531"/><text fill="#000000" font-family="sans-serif" font-size="11" lengthAdjust="spacingAndGlyphs" textLength="33" x="462" y="684.6636">Mutex</text><line style="stroke: #A80036; stroke-width: 1.5;" x1="457" x2="587" y1="691.2578" y2="691.2578"/><rect fill="#FEFECE" filter="url(#f1)" height="124.8281" style="stroke: #A80036; stroke-width: 1.5;" width="173" x="922.75" y="165.4531"/><ellipse cx="971" cy="181.4531" fill="#ADD1B2" rx="11" ry="11" style="stroke: #A80036; stroke-width: 1.0;"/><path d="M973.9688,187.0938 Q973.3906,187.3906 972.75,187.5391 Q972.1094,187.6875 971.4063,187.6875 Q968.9063,187.6875 967.5859,186.0391 Q966.2656,184.3906 966.2656,181.2656 Q966.2656,178.1406 967.5859,176.4844 Q968.9063,174.8281 971.4063,174.8281 Q972.1094,174.8281 972.7578,174.9844 Q973.4063,175.1406 973.9688,175.4375 L973.9688,178.1563 Q973.3438,177.5781 972.75,177.3047 Q972.1563,177.0313 971.5313,177.0313 Q970.1875,177.0313 969.5,178.1016 Q968.8125,179.1719 968.8125,181.2656 Q968.8125,183.3594 969.5,184.4297 Q970.1875,185.5 971.5313,185.5 Q972.1563,185.5 972.75,185.2266 Q973.3438,184.9531 973.9688,184.375 L973.9688,187.0938 Z "/><text fill="#000000" font-family="sans-serif" font-size="12" lengthAdjust="spacingAndGlyphs" textLength="68" x="991.5" y="185.6074">RtspServer</text><line style="stroke: #A80036; stroke-width: 1.5;" x1="923.75" x2="1094.75" y1="197.4531" y2="197.4531"/><line style="stroke: #A80036; stroke-width: 1.5;" x1="923.75" x2="1094.75" y1="205.4531" y2="205.4531"/><text fill="#000000" font-family="sans-serif" font-size="11" lengthAdjust="spacingAndGlyphs" textLength="161" x="928.75" y="219.6636">threadEntry() -&gt; calls poll(..)</text><text fill="#000000" font-family="sans-serif" font-size="11" lengthAdjust="spacingAndGlyphs" textLength="92" x="928.75" y="232.4683">methodSetup(..)</text><text fill="#000000" font-family="sans-serif" font-size="11" lengthAdjust="spacingAndGlyphs" textLength="82" x="928.75" y="245.2729">methodPlay(..)</text><text fill="#000000" font-family="sans-serif" font-size="11" lengthAdjust="spacingAndGlyphs" textLength="103" x="928.75" y="258.0776">methodOptions(..)</text><text fill="#000000" font-family="sans-serif" font-size="11" lengthAdjust="spacingAndGlyphs" textLength="109" x="928.75" y="270.8823">methodDescribe(..)</text><text fill="#000000" font-family="sans-serif" font-size="11" lengthAdjust="spacingAndGlyphs" textLength="115" x="928.75" y="283.687">methodTeardown(..)</text><rect fill="#FEFECE" filter="url(#f1)" height="86.4141" style="stroke: #A80036; stroke-width: 1.5;" width="173" x="714.75" y="184.9531"/><ellipse cx="763.5" cy="200.9531" fill="#ADD1B2" rx="11" ry="11" style="stroke: #A80036; stroke-width: 1.0;"/><path d="M766.4688,206.5938 Q765.8906,206.8906 765.25,207.0391 Q764.6094,207.1875 763.9063,207.1875 Q761.4063,207.1875 760.0859,205.5391 Q758.7656,203.8906 758.7656,200.7656 Q758.7656,197.6406 760.0859,195.9844 Q761.4063,194.3281 763.9063,194.3281 Q764.6094,194.3281 765.2578,194.4844 Q765.9063,194.6406 766.4688,194.9375 L766.4688,197.6563 Q765.8438,197.0781 765.25,196.8047 Q764.6563,196.5313 764.0313,196.5313 Q762.6875,196.5313 762,197.6016 Q761.3125,198.6719 761.3125,200.7656 Q761.3125,202.8594 762,203.9297 Q762.6875,205 764.0313,205 Q764.6563,205 765.25,204.7266 Q765.8438,204.4531 766.4688,203.875 L766.4688,206.5938 Z "/><text fill="#000000" font-family="sans-serif" font-size="12" lengthAdjust="spacingAndGlyphs" textLength="67" x="784" y="205.1074">HttpServer</text><line style="stroke: #A80036; stroke-width: 1.5;" x1="715.75" x2="886.75" y1="216.9531" y2="216.9531"/><line style="stroke: #A80036; stroke-width: 1.5;" x1="715.75" x2="886.75" y1="224.9531" y2="224.9531"/><text fill="#000000" font-family="sans-serif" font-size="11" lengthAdjust="spacingAndGlyphs" textLength="161" x="720.75" y="239.1636">threadEntry() -&gt; calls poll(..)</text><text fill="#000000" font-family="sans-serif" font-size="11" lengthAdjust="spacingAndGlyphs" textLength="84" x="720.75" y="251.9683">methodPost(..)</text><text fill="#000000" font-family="sans-serif" font-size="11" lengthAdjust="spacingAndGlyphs" textLength="79" x="720.75" y="264.7729">methodGet(..)</text><rect fill="#FEFECE" filter="url(#f1)" height="48" style="stroke: #A80036; stroke-width: 1.5;" width="103" x="383.75" y="320.9531"/><ellipse cx="398.75" cy="336.9531" fill="#ADD1B2" rx="11" ry="11" style="stroke: #A80036; stroke-width: 1.0;"/><path d="M401.7188,342.5938 Q401.1406,342.8906 400.5,343.0391 Q399.8594,343.1875 399.1563,343.1875 Q396.6563,343.1875 395.3359,341.5391 Q394.0156,339.8906 394.0156,336.7656 Q394.0156,333.6406 395.3359,331.9844 Q396.6563,330.3281 399.1563,330.3281 Q399.8594,330.3281 400.5078,330.4844 Q401.1563,330.6406 401.7188,330.9375 L401.7188,333.6563 Q401.0938,333.0781 400.5,332.8047 Q399.9063,332.5313 399.2813,332.5313 Q397.9375,332.5313 397.25,333.6016 Q396.5625,334.6719 396.5625,336.7656 Q396.5625,338.8594 397.25,339.9297 Q397.9375,341 399.2813,341 Q399.9063,341 400.5,340.7266 Q401.0938,340.4531 401.7188,339.875 L401.7188,342.5938 Z "/><text fill="#000000" font-family="sans-serif" font-size="12" lengthAdjust="spacingAndGlyphs" textLength="71" x="412.75" y="341.1074">SsdpServer</text><line style="stroke: #A80036; stroke-width: 1.5;" x1="384.75" x2="485.75" y1="352.9531" y2="352.9531"/><line style="stroke: #A80036; stroke-width: 1.5;" x1="384.75" x2="485.75" y1="360.9531" y2="360.9531"/><rect fill="#FEFECE" filter="url(#f1)" height="48" style="stroke: #A80036; stroke-width: 1.5;" width="97" x="643.75" y="417.9531"/><ellipse cx="658.75" cy="433.9531" fill="#ADD1B2" rx="11" ry="11" style="stroke: #A80036; stroke-width: 1.0;"/><path d="M661.7188,439.5938 Q661.1406,439.8906 660.5,440.0391 Q659.8594,440.1875 659.1563,440.1875 Q656.6563,440.1875 655.3359,438.5391 Q654.0156,436.8906 654.0156,433.7656 Q654.0156,430.6406 655.3359,428.9844 Q656.6563,427.3281 659.1563,427.3281 Q659.8594,427.3281 660.5078,427.4844 Q661.1563,427.6406 661.7188,427.9375 L661.7188,430.6563 Q661.0938,430.0781 660.5,429.8047 Q659.9063,429.5313 659.2813,429.5313 Q657.9375,429.5313 657.25,430.6016 Q656.5625,431.6719 656.5625,433.7656 Q656.5625,435.8594 657.25,436.9297 Q657.9375,438 659.2813,438 Q659.9063,438 660.5,437.7266 Q661.0938,437.4531 661.7188,436.875 L661.7188,439.5938 Z "/><text fill="#000000" font-family="sans-serif" font-size="12" lengthAdjust="spacingAndGlyphs" textLength="65" x="672.75" y="438.1074">Properties</text><line style="stroke: #A80036; stroke-width: 1.5;" x1="644.75" x2="739.75" y1="449.9531" y2="449.9531"/><line style="stroke: #A80036; stroke-width: 1.5;" x1="644.75" x2="739.75" y1="457.9531" y2="457.9531"/><rect fill="#FEFECE" filter="url(#f1)" height="60.8047" style="stroke: #A80036; stroke-width: 1.5;" width="111" x="623.75" y="638.4531"/><ellipse cx="638.75" cy="654.4531" fill="#ADD1B2" rx="11" ry="11" style="stroke: #A80036; stroke-width: 1.0;"/><path d="M641.7188,660.0938 Q641.1406,660.3906 640.5,660.5391 Q639.8594,660.6875 639.1563,660.6875 Q636.6563,660.6875 635.3359,659.0391 Q634.0156,657.3906 634.0156,654.2656 Q634.0156,651.1406 635.3359,649.4844 Q636.6563,647.8281 639.1563,647.8281 Q639.8594,647.8281 640.5078,647.9844 Q641.1563,648.1406 641.7188,648.4375 L641.7188,651.1563 Q641.0938,650.5781 640.5,650.3047 Q639.9063,650.0313 639.2813,650.0313 Q637.9375,650.0313 637.25,651.1016 Q636.5625,652.1719 636.5625,654.2656 Q636.5625,656.3594 637.25,657.4297 Q637.9375,658.5 639.2813,658.5 Q639.9063,658.5 640.5,658.2266 Q641.0938,657.9531 641.7188,657.375 L641.7188,660.0938 Z "/><text fill="#000000" font-family="sans-serif" font-size="12" lengthAdjust="spacingAndGlyphs" textLength="79" x="652.75" y="658.6074">InterfaceAttr</text><line style="stroke: #A80036; stroke-width: 1.5;" x1="624.75" x2="733.75" y1="670.4531" y2="670.4531"/><text fill="#000000" font-family="sans-serif" font-size="11" lengthAdjust="spacingAndGlyphs" textLength="50" x="629.75" y="684.6636">Eth0 etc.</text><line style="stroke: #A80036; stroke-width: 1.5;" x1="624.75" x2="733.75" y1="691.2578" y2="691.2578"/><rect fill="#FEFECE" filter="url(#f1)" height="73.6094" style="stroke: #A80036; stroke-width: 1.5;" width="159" x="619.75" y="809.9531"/><ellipse cx="634.75" cy="825.9531" fill="#ADD1B2" rx="11" ry="11" style="stroke: #A80036; stroke-width: 1.0;"/><path d="M637.7188,831.5938 Q637.1406,831.8906 636.5,832.0391 Q635.8594,832.1875 635.1563,832.1875 Q632.6563,832.1875 631.3359,830.5391 Q630.0156,828.8906 630.0156,825.7656 Q630.0156,822.6406 631.3359,820.9844 Q632.6563,819.3281 635.1563,819.3281 Q635.8594,819.3281 636.5078,819.4844 Q637.1563,819.6406 637.7188,819.9375 L637.7188,822.6563 Q637.0938,822.0781 636.5,821.8047 Q635.9063,821.5313 635.2813,821.5313 Q633.9375,821.5313 633.25,822.6016 Q632.5625,823.6719 632.5625,825.7656 Q632.5625,827.8594 633.25,828.9297 Q633.9375,830 635.2813,830 Q635.9063,830 636.5,829.7266 Q637.0938,829.4531 637.7188,828.875 L637.7188,831.5938 Z "/><text fill="#000000" font-family="sans-serif" font-size="12" lengthAdjust="spacingAndGlyphs" textLength="127" x="648.75" y="830.1074">socket::HttpcSocket</text><line style="stroke: #A80036; stroke-width: 1.5;" x1="620.75" x2="777.75" y1="841.9531" y2="841.9531"/><line style="stroke: #A80036; stroke-width: 1.5;" x1="620.75" x2="777.75" y1="849.9531" y2="849.9531"/><text fill="#000000" font-family="sans-serif" font-size="11" lengthAdjust="spacingAndGlyphs" textLength="120" x="625.75" y="864.1636">recvHttpcMessage(..)</text><text fill="#000000" font-family="sans-serif" font-size="11" lengthAdjust="spacingAndGlyphs" textLength="147" x="625.75" y="876.9683">recvfromHttpcMessage(..)</text><rect fill="#FEFECE" filter="url(#f1)" height="86.4141" style="stroke: #A80036; stroke-width: 1.5;" width="161" x="559.75" y="1164.9531"/><ellipse cx="575.2" cy="1180.9531" fill="#ADD1B2" rx="11" ry="11" style="stroke: #A80036; stroke-width: 1.0;"/><path d="M578.1688,1186.5938 Q577.5906,1186.8906 576.95,1187.0391 Q576.3094,1187.1875 575.6063,1187.1875 Q573.1063,1187.1875 571.7859,1185.5391 Q570.4656,1183.8906 570.4656,1180.7656 Q570.4656,1177.6406 571.7859,1175.9844 Q573.1063,1174.3281 575.6063,1174.3281 Q576.3094,1174.3281 576.9578,1174.4844 Q577.6063,1174.6406 578.1688,1174.9375 L578.1688,1177.6563 Q577.5438,1177.0781 576.95,1176.8047 Q576.3563,1176.5313 575.7313,1176.5313 Q574.3875,1176.5313 573.7,1177.6016 Q573.0125,1178.6719 573.0125,1180.7656 Q573.0125,1182.8594 573.7,1183.9297 Q574.3875,1185 575.7313,1185 Q576.3563,1185 576.95,1184.7266 Q577.5438,1184.4531 578.1688,1183.875 L578.1688,1186.5938 Z "/><text fill="#000000" font-family="sans-serif" font-size="12" lengthAdjust="spacingAndGlyphs" textLength="128" x="589.3" y="1185.1074">socket::SocketClient</text><line style="stroke: #A80036; stroke-width: 1.5;" x1="560.75" x2="719.75" y1="1196.9531" y2="1196.9531"/><text fill="#000000" font-family="sans-serif" font-size="11" lengthAdjust="spacingAndGlyphs" textLength="94" x="565.75" y="1211.1636">std::string _msg</text><text fill="#000000" font-family="sans-serif" font-size="11" lengthAdjust="spacingAndGlyphs" textLength="149" x="565.75" y="1223.9683">std::string _protocolString</text><text fill="#000000" font-family="sans-serif" font-size="11" lengthAdjust="spacingAndGlyphs" textLength="125" x="565.75" y="1236.7729">std::string _sessionID</text><line style="stroke: #A80036; stroke-width: 1.5;" x1="560.75" x2="719.75" y1="1243.3672" y2="1243.3672"/><rect fill="#FEFECE" filter="url(#f1)" height="73.6094" style="stroke: #A80036; stroke-width: 1.5;" width="148" x="641" y="1328.9531"/><ellipse cx="656" cy="1344.9531" fill="#ADD1B2" rx="11" ry="11" style="stroke: #A80036; stroke-width: 1.0;"/><path d="M658.9688,1350.5938 Q658.3906,1350.8906 657.75,1351.0391 Q657.1094,1351.1875 656.4063,1351.1875 Q653.9063,1351.1875 652.5859,1349.5391 Q651.2656,1347.8906 651.2656,1344.7656 Q651.2656,1341.6406 652.5859,1339.9844 Q653.9063,1338.3281 656.4063,1338.3281 Q657.1094,1338.3281 657.7578,1338.4844 Q658.4063,1338.6406 658.9688,1338.9375 L658.9688,1341.6563 Q658.3438,1341.0781 657.75,1340.8047 Q657.1563,1340.5313 656.5313,1340.5313 Q655.1875,1340.5313 654.5,1341.6016 Q653.8125,1342.6719 653.8125,1344.7656 Q653.8125,1346.8594 654.5,1347.9297 Q655.1875,1349 656.5313,1349 Q657.1563,1349 657.75,1348.7266 Q658.3438,1348.4531 658.9688,1347.875 L658.9688,1350.5938 Z "/><text fill="#000000" font-family="sans-serif" font-size="12" lengthAdjust="spacingAndGlyphs" textLength="116" x="670" y="1349.1074">socket::SocketAttr</text><line style="stroke: #A80036; stroke-width: 1.5;" x1="642" x2="788" y1="1360.9531" y2="1360.9531"/><text fill="#000000" font-family="sans-serif" font-size="11" lengthAdjust="spacingAndGlyphs" textLength="17" x="647" y="1375.1636">_fd</text><text fill="#000000" font-family="sans-serif" font-size="11" lengthAdjust="spacingAndGlyphs" textLength="111" x="647" y="1387.9683">std::string _ip_addr</text><line style="stroke: #A80036; stroke-width: 1.5;" x1="642" x2="788" y1="1394.5625" y2="1394.5625"/><rect fill="#FEFECE" filter="url(#f1)" height="99.2188" style="stroke: #A80036; stroke-width: 1.5;" width="219" x="769.75" y="619.4531"/><ellipse cx="817.5" cy="635.4531" fill="#ADD1B2" rx="11" ry="11" style="stroke: #A80036; stroke-width: 1.0;"/><path d="M820.4688,641.0938 Q819.8906,641.3906 819.25,641.5391 Q818.6094,641.6875 817.9063,641.6875 Q815.4063,641.6875 814.0859,640.0391 Q812.7656,638.3906 812.7656,635.2656 Q812.7656,632.1406 814.0859,630.4844 Q815.4063,628.8281 817.9063,628.8281 Q818.6094,628.8281 819.2578,628.9844 Q819.9063,629.1406 820.4688,629.4375 L820.4688,632.1563 Q819.8438,631.5781 819.25,631.3047 Q818.6563,631.0313 818.0313,631.0313 Q816.6875,631.0313 816,632.1016 Q815.3125,633.1719 815.3125,635.2656 Q815.3125,637.3594 816,638.4297 Q816.6875,639.5 818.0313,639.5 Q818.6563,639.5 819.25,639.2266 Q819.8438,638.9531 820.4688,638.375 L820.4688,641.0938 Z "/><text fill="#000000" font-family="sans-serif" font-size="12" lengthAdjust="spacingAndGlyphs" textLength="115" x="838" y="639.6074">socket::TcpSocket</text><line style="stroke: #A80036; stroke-width: 1.5;" x1="770.75" x2="987.75" y1="651.4531" y2="651.4531"/><text fill="#000000" font-family="sans-serif" font-size="11" lengthAdjust="spacingAndGlyphs" textLength="149" x="775.75" y="665.6636">std::string _protocolString</text><line style="stroke: #A80036; stroke-width: 1.5;" x1="770.75" x2="987.75" y1="672.2578" y2="672.2578"/><text fill="#000000" font-family="sans-serif" font-size="11" lengthAdjust="spacingAndGlyphs" textLength="207" x="775.75" y="686.4683">poll(..) -&gt; calls recvHttpcMessage(..)</text><text fill="#000000" font-family="sans-serif" font-size="11" lengthAdjust="spacingAndGlyphs" textLength="109" x="811.75" y="699.2729">-&gt; calls process(..)</text><text fill="#000000" font-family="sans-serif" font-size="11" lengthAdjust="spacingAndGlyphs" textLength="156" x="811.75" y="712.0776">-&gt; calls closeConnection(..)</text><rect fill="#FEFECE" filter="url(#f1)" height="73.6094" style="stroke: #A80036; stroke-width: 1.5;" width="173" x="320.75" y="514.9531"/><ellipse cx="346.1" cy="530.9531" fill="#ADD1B2" rx="11" ry="11" style="stroke: #A80036; stroke-width: 1.0;"/><path d="M349.0688,536.5938 Q348.4906,536.8906 347.85,537.0391 Q347.2094,537.1875 346.5063,537.1875 Q344.0063,537.1875 342.6859,535.5391 Q341.3656,533.8906 341.3656,530.7656 Q341.3656,527.6406 342.6859,525.9844 Q344.0063,524.3281 346.5063,524.3281 Q347.2094,524.3281 347.8578,524.4844 Q348.5063,524.6406 349.0688,524.9375 L349.0688,527.6563 Q348.4438,527.0781 347.85,526.8047 Q347.2563,526.5313 346.6313,526.5313 Q345.2875,526.5313 344.6,527.6016 Q343.9125,528.6719 343.9125,530.7656 Q343.9125,532.8594 344.6,533.9297 Q345.2875,535 346.6313,535 Q347.2563,535 347.85,534.7266 Q348.4438,534.4531 349.0688,533.875 L349.0688,536.5938 Z "/><text fill="#000000" font-family="sans-serif" font-size="12" lengthAdjust="spacingAndGlyphs" textLength="118" x="362.4" y="535.1074">socket::UdpSocket</text><line style="stroke: #A80036; stroke-width: 1.5;" x1="321.75" x2="492.75" y1="546.9531" y2="546.9531"/><line style="stroke: #A80036; stroke-width: 1.5;" x1="321.75" x2="492.75" y1="554.9531" y2="554.9531"/><text fill="#000000" font-family="sans-serif" font-size="11" lengthAdjust="spacingAndGlyphs" textLength="103" x="326.75" y="569.1636">init_udp_socket(..)</text><text fill="#000000" font-family="sans-serif" font-size="11" lengthAdjust="spacingAndGlyphs" textLength="161" x="326.75" y="581.9683">init_mutlicast_udp_socket(..)</text><rect fill="#FEFECE" filter="url(#f1)" height="86.4141" style="stroke: #A80036; stroke-width: 1.5;" width="179" x="775.75" y="398.9531"/><ellipse cx="824" cy="414.9531" fill="#ADD1B2" rx="11" ry="11" style="stroke: #A80036; stroke-width: 1.0;"/><path d="M826.9688,420.5938 Q826.3906,420.8906 825.75,421.0391 Q825.1094,421.1875 824.4063,421.1875 Q821.9063,421.1875 820.5859,419.5391 Q819.2656,417.8906 819.2656,414.7656 Q819.2656,411.6406 820.5859,409.9844 Q821.9063,408.3281 824.4063,408.3281 Q825.1094,408.3281 825.7578,408.4844 Q826.4063,408.6406 826.9688,408.9375 L826.9688,411.6563 Q826.3438,411.0781 825.75,410.8047 Q825.1563,410.5313 824.5313,410.5313 Q823.1875,410.5313 822.5,411.6016 Q821.8125,412.6719 821.8125,414.7656 Q821.8125,416.8594 822.5,417.9297 Q823.1875,419 824.5313,419 Q825.1563,419 825.75,418.7266 Q826.3438,418.4531 826.9688,417.875 L826.9688,420.5938 Z "/><text fill="#000000" font-family="sans-serif" font-size="12" lengthAdjust="spacingAndGlyphs" textLength="74" x="844.5" y="419.1074">HttpcServer</text><line style="stroke: #A80036; stroke-width: 1.5;" x1="776.75" x2="953.75" y1="430.9531" y2="430.9531"/><line style="stroke: #A80036; stroke-width: 1.5;" x1="776.75" x2="953.75" y1="438.9531" y2="438.9531"/><text fill="#000000" font-family="sans-serif" font-size="11" lengthAdjust="spacingAndGlyphs" textLength="62" x="781.75" y="453.1636">process(..)</text><text fill="#000000" font-family="sans-serif" font-size="11" lengthAdjust="spacingAndGlyphs" textLength="109" x="781.75" y="465.9683">closeConnection(..)</text><text fill="#000000" font-family="sans-serif" font-size="11" lengthAdjust="spacingAndGlyphs" textLength="167" x="781.75" y="478.7729">processStreamingRequest(..)</text><rect fill="#FEFECE" filter="url(#f1)" height="99.2188" style="stroke: #A80036; stroke-width: 1.5;" width="98" x="487.5" y="797.4531"/><ellipse cx="511.95" cy="813.4531" fill="#ADD1B2" rx="11" ry="11" style="stroke: #A80036; stroke-width: 1.0;"/><path d="M514.9188,819.0938 Q514.3406,819.3906 513.7,819.5391 Q513.0594,819.6875 512.3563,819.6875 Q509.8563,819.6875 508.5359,818.0391 Q507.2156,816.3906 507.2156,813.2656 Q507.2156,810.1406 508.5359,808.4844 Q509.8563,806.8281 512.3563,806.8281 Q513.0594,806.8281 513.7078,806.9844 Q514.3563,807.1406 514.9188,807.4375 L514.9188,810.1563 Q514.2938,809.5781 513.7,809.3047 Q513.1063,809.0313 512.4813,809.0313 Q511.1375,809.0313 510.45,810.1016 Q509.7625,811.1719 509.7625,813.2656 Q509.7625,815.3594 510.45,816.4297 Q511.1375,817.5 512.4813,817.5 Q513.1063,817.5 513.7,817.2266 Q514.2938,816.9531 514.9188,816.375 L514.9188,819.0938 Z "/><text fill="#000000" font-family="sans-serif" font-size="12" lengthAdjust="spacingAndGlyphs" textLength="45" x="528.05" y="817.6074">Stream</text><line style="stroke: #A80036; stroke-width: 1.5;" x1="488.5" x2="584.5" y1="829.4531" y2="829.4531"/><text fill="#000000" font-family="sans-serif" font-size="11" lengthAdjust="spacingAndGlyphs" textLength="33" x="493.5" y="843.6636">Mutex</text><text fill="#000000" font-family="sans-serif" font-size="11" lengthAdjust="spacingAndGlyphs" textLength="73" x="493.5" y="856.4683">streamInUse</text><text fill="#000000" font-family="sans-serif" font-size="11" lengthAdjust="spacingAndGlyphs" textLength="45" x="493.5" y="869.2729">enabled</text><text fill="#000000" font-family="sans-serif" font-size="11" lengthAdjust="spacingAndGlyphs" textLength="86" x="493.5" y="882.0776">StreamingType</text><line style="stroke: #A80036; stroke-width: 1.5;" x1="488.5" x2="584.5" y1="888.6719" y2="888.6719"/><rect fill="#FEFECE" filter="url(#f1)" height="48" style="stroke: #A80036; stroke-width: 1.5;" width="133" x="278.75" y="1183.9531"/><ellipse cx="293.75" cy="1199.9531" fill="#ADD1B2" rx="11" ry="11" style="stroke: #A80036; stroke-width: 1.0;"/><path d="M296.7188,1205.5938 Q296.1406,1205.8906 295.5,1206.0391 Q294.8594,1206.1875 294.1563,1206.1875 Q291.6563,1206.1875 290.3359,1204.5391 Q289.0156,1202.8906 289.0156,1199.7656 Q289.0156,1196.6406 290.3359,1194.9844 Q291.6563,1193.3281 294.1563,1193.3281 Q294.8594,1193.3281 295.5078,1193.4844 Q296.1563,1193.6406 296.7188,1193.9375 L296.7188,1196.6563 Q296.0938,1196.0781 295.5,1195.8047 Q294.9063,1195.5313 294.2813,1195.5313 Q292.9375,1195.5313 292.25,1196.6016 Q291.5625,1197.6719 291.5625,1199.7656 Q291.5625,1201.8594 292.25,1202.9297 Q292.9375,1204 294.2813,1204 Q294.9063,1204 295.5,1203.7266 Q296.0938,1203.4531 296.7188,1202.875 L296.7188,1205.5938 Z "/><text fill="#000000" font-family="sans-serif" font-size="12" lengthAdjust="spacingAndGlyphs" textLength="101" x="307.75" y="1204.1074">StreamInterface</text><line style="stroke: #A80036; stroke-width: 1.5;" x1="279.75" x2="410.75" y1="1215.9531" y2="1215.9531"/><line style="stroke: #A80036; stroke-width: 1.5;" x1="279.75" x2="410.75" y1="1223.9531" y2="1223.9531"/><rect fill="#FEFECE" filter="url(#f1)" height="112.0234" style="stroke: #A80036; stroke-width: 1.5;" width="126" x="520" y="974.9531"/><ellipse cx="541.3" cy="990.9531" fill="#ADD1B2" rx="11" ry="11" style="stroke: #A80036; stroke-width: 1.0;"/><path d="M544.2688,996.5938 Q543.6906,996.8906 543.05,997.0391 Q542.4094,997.1875 541.7063,997.1875 Q539.2063,997.1875 537.8859,995.5391 Q536.5656,993.8906 536.5656,990.7656 Q536.5656,987.6406 537.8859,985.9844 Q539.2063,984.3281 541.7063,984.3281 Q542.4094,984.3281 543.0578,984.4844 Q543.7063,984.6406 544.2688,984.9375 L544.2688,987.6563 Q543.6438,987.0781 543.05,986.8047 Q542.4563,986.5313 541.8313,986.5313 Q540.4875,986.5313 539.8,987.6016 Q539.1125,988.6719 539.1125,990.7656 Q539.1125,992.8594 539.8,993.9297 Q540.4875,995 541.8313,995 Q542.4563,995 543.05,994.7266 Q543.6438,994.4531 544.2688,993.875 L544.2688,996.5938 Z "/><text fill="#000000" font-family="sans-serif" font-size="12" lengthAdjust="spacingAndGlyphs" textLength="80" x="556.7" y="995.1074">StreamClient</text><line style="stroke: #A80036; stroke-width: 1.5;" x1="521" x2="645" y1="1006.9531" y2="1006.9531"/><text fill="#000000" font-family="sans-serif" font-size="11" lengthAdjust="spacingAndGlyphs" textLength="33" x="526" y="1021.1636">Mutex</text><text fill="#000000" font-family="sans-serif" font-size="11" lengthAdjust="spacingAndGlyphs" textLength="114" x="526" y="1033.9683">SocketClient *_httpc</text><text fill="#000000" font-family="sans-serif" font-size="11" lengthAdjust="spacingAndGlyphs" textLength="54" x="526" y="1046.7729">watchdog</text><text fill="#000000" font-family="sans-serif" font-size="11" lengthAdjust="spacingAndGlyphs" textLength="52" x="526" y="1059.5776">canClose</text><text fill="#000000" font-family="sans-serif" font-size="11" lengthAdjust="spacingAndGlyphs" textLength="27" x="526" y="1072.3823">cseq</text><line style="stroke: #A80036; stroke-width: 1.5;" x1="521" x2="645" y1="1078.9766" y2="1078.9766"/><rect fill="#FEFECE" filter="url(#f1)" height="48" style="stroke: #A80036; stroke-width: 1.5;" width="113" x="1043.75" y="1006.9531"/><ellipse cx="1058.75" cy="1022.9531" fill="#ADD1B2" rx="11" ry="11" style="stroke: #A80036; stroke-width: 1.0;"/><path d="M1061.7188,1028.5938 Q1061.1406,1028.8906 1060.5,1029.0391 Q1059.8594,1029.1875 1059.1563,1029.1875 Q1056.6563,1029.1875 1055.3359,1027.5391 Q1054.0156,1025.8906 1054.0156,1022.7656 Q1054.0156,1019.6406 1055.3359,1017.9844 Q1056.6563,1016.3281 1059.1563,1016.3281 Q1059.8594,1016.3281 1060.5078,1016.4844 Q1061.1563,1016.6406 1061.7188,1016.9375 L1061.7188,1019.6563 Q1061.0938,1019.0781 1060.5,1018.8047 Q1059.9063,1018.5313 1059.2813,1018.5313 Q1057.9375,1018.5313 1057.25,1019.6016 Q1056.5625,1020.6719 1056.5625,1022.7656 Q1056.5625,1024.8594 1057.25,1025.9297 Q1057.9375,1027 1059.2813,1027 Q1059.9063,1027 1060.5,1026.7266 Q1061.0938,1026.4531 1061.7188,1025.875 L1061.7188,1028.5938 Z "/><text fill="#000000" font-family="sans-serif" font-size="12" lengthAdjust="spacingAndGlyphs" textLength="81" x="1072.75" y="1027.1074">input::Device</text><line style="stroke: #A80036; stroke-width: 1.5;" x1="1044.75" x2="1155.75" y1="1038.9531" y2="1038.9531"/><line style="stroke: #A80036; stroke-width: 1.5;" x1="1044.75" x2="1155.75" y1="1046.9531" y2="1046.9531"/><rect fill="#FEFECE" filter="url(#f1)" height="48" style="stroke: #A80036; stroke-width: 1.5;" width="202" x="192" y="1006.9531"/><ellipse cx="207" cy="1022.9531" fill="#ADD1B2" rx="11" ry="11" style="stroke: #A80036; stroke-width: 1.0;"/><path d="M209.9688,1028.5938 Q209.3906,1028.8906 208.75,1029.0391 Q208.1094,1029.1875 207.4063,1029.1875 Q204.9063,1029.1875 203.5859,1027.5391 Q202.2656,1025.8906 202.2656,1022.7656 Q202.2656,1019.6406 203.5859,1017.9844 Q204.9063,1016.3281 207.4063,1016.3281 Q208.1094,1016.3281 208.7578,1016.4844 Q209.4063,1016.6406 209.9688,1016.9375 L209.9688,1019.6563 Q209.3438,1019.0781 208.75,1018.8047 Q208.1563,1018.5313 207.5313,1018.5313 Q206.1875,1018.5313 205.5,1019.6016 Q204.8125,1020.6719 204.8125,1022.7656 Q204.8125,1024.8594 205.5,1025.9297 Q206.1875,1027 207.5313,1027 Q208.1563,1027 208.75,1026.7266 Q209.3438,1026.4531 209.9688,1025.875 L209.9688,1028.5938 Z "/><text fill="#000000" font-family="sans-serif" font-size="12" lengthAdjust="spacingAndGlyphs" textLength="170" x="221" y="1027.1074">output::StreamThreadBase</text><line style="stroke: #A80036; stroke-width: 1.5;" x1="193" x2="393" y1="1038.9531" y2="1038.9531"/><line style="stroke: #A80036; stroke-width: 1.5;" x1="193" x2="393" y1="1046.9531" y2="1046.9531"/><rect fill="#FEFECE" filter="url(#f1)" height="73.6094" style="stroke: #A80036; stroke-width: 1.5;" width="189" x="160.75" y="631.9531"/><ellipse cx="183.85" cy="647.9531" fill="#ADD1B2" rx="11" ry="11" style="stroke: #A80036; stroke-width: 1.0;"/><path d="M186.8188,653.5938 Q186.2406,653.8906 185.6,654.0391 Q184.9594,654.1875 184.2563,654.1875 Q181.7563,654.1875 180.4359,652.5391 Q179.1156,650.8906 179.1156,647.7656 Q179.1156,644.6406 180.4359,642.9844 Q181.7563,641.3281 184.2563,641.3281 Q184.9594,641.3281 185.6078,641.4844 Q186.2563,641.6406 186.8188,641.9375 L186.8188,644.6563 Q186.1938,644.0781 185.6,643.8047 Q185.0063,643.5313 184.3813,643.5313 Q183.0375,643.5313 182.35,644.6016 Q181.6625,645.6719 181.6625,647.7656 Q181.6625,649.8594 182.35,650.9297 Q183.0375,652 184.3813,652 Q185.0063,652 185.6,651.7266 Q186.1938,651.4531 186.8188,650.875 L186.8188,653.5938 Z "/><text fill="#000000" font-family="sans-serif" font-size="12" lengthAdjust="spacingAndGlyphs" textLength="139" x="199.65" y="652.1074">decrypt::dvbapi::Client</text><line style="stroke: #A80036; stroke-width: 1.5;" x1="161.75" x2="348.75" y1="663.9531" y2="663.9531"/><text fill="#000000" font-family="sans-serif" font-size="11" lengthAdjust="spacingAndGlyphs" textLength="33" x="166.75" y="678.1636">Mutex</text><line style="stroke: #A80036; stroke-width: 1.5;" x1="161.75" x2="348.75" y1="684.7578" y2="684.7578"/><text fill="#000000" font-family="sans-serif" font-size="11" lengthAdjust="spacingAndGlyphs" textLength="177" x="166.75" y="698.9683">getFrontendDecryptInterface(..)</text><rect fill="#FEFECE" filter="url(#f1)" height="48" style="stroke: #A80036; stroke-width: 1.5;" width="127" x="116.75" y="1183.9531"/><ellipse cx="131.75" cy="1199.9531" fill="#ADD1B2" rx="11" ry="11" style="stroke: #A80036; stroke-width: 1.0;"/><path d="M134.7188,1205.5938 Q134.1406,1205.8906 133.5,1206.0391 Q132.8594,1206.1875 132.1563,1206.1875 Q129.6563,1206.1875 128.3359,1204.5391 Q127.0156,1202.8906 127.0156,1199.7656 Q127.0156,1196.6406 128.3359,1194.9844 Q129.6563,1193.3281 132.1563,1193.3281 Q132.8594,1193.3281 133.5078,1193.4844 Q134.1563,1193.6406 134.7188,1193.9375 L134.7188,1196.6563 Q134.0938,1196.0781 133.5,1195.8047 Q132.9063,1195.5313 132.2813,1195.5313 Q130.9375,1195.5313 130.25,1196.6016 Q129.5625,1197.6719 129.5625,1199.7656 Q129.5625,1201.8594 130.25,1202.9297 Q130.9375,1204 132.2813,1204 Q132.9063,1204 133.5,1203.7266 Q134.0938,1203.4531 134.7188,1202.875 L134.7188,1205.5938 Z "/><text fill="#000000" font-family="sans-serif" font-size="12" lengthAdjust="spacingAndGlyphs" textLength="95" x="145.75" y="1204.1074">TSPacketBuffer</text><line style="stroke: #A80036; stroke-width: 1.5;" x1="117.75" x2="242.75" y1="1215.9531" y2="1215.9531"/><line style="stroke: #A80036; stroke-width: 1.5;" x1="117.75" x2="242.75" y1="1223.9531" y2="1223.9531"/><rect fill="#FEFECE" filter="url(#f1)" height="60.8047" style="stroke: #A80036; stroke-width: 1.5;" width="192" x="6" y="816.4531"/><ellipse cx="21" cy="832.4531" fill="#ADD1B2" rx="11" ry="11" style="stroke: #A80036; stroke-width: 1.0;"/><path d="M23.9688,838.0938 Q23.3906,838.3906 22.75,838.5391 Q22.1094,838.6875 21.4063,838.6875 Q18.9063,838.6875 17.5859,837.0391 Q16.2656,835.3906 16.2656,832.2656 Q16.2656,829.1406 17.5859,827.4844 Q18.9063,825.8281 21.4063,825.8281 Q22.1094,825.8281 22.7578,825.9844 Q23.4063,826.1406 23.9688,826.4375 L23.9688,829.1563 Q23.3438,828.5781 22.75,828.3047 Q22.1563,828.0313 21.5313,828.0313 Q20.1875,828.0313 19.5,829.1016 Q18.8125,830.1719 18.8125,832.2656 Q18.8125,834.3594 19.5,835.4297 Q20.1875,836.5 21.5313,836.5 Q22.1563,836.5 22.75,836.2266 Q23.3438,835.9531 23.9688,835.375 L23.9688,838.0938 Z "/><text fill="#000000" font-family="sans-serif" font-size="12" lengthAdjust="spacingAndGlyphs" textLength="160" x="35" y="836.6074">output::StreamThreadRtp</text><line style="stroke: #A80036; stroke-width: 1.5;" x1="7" x2="197" y1="848.4531" y2="848.4531"/><text fill="#000000" font-family="sans-serif" font-size="11" lengthAdjust="spacingAndGlyphs" textLength="27" x="12" y="862.6636">cseq</text><line style="stroke: #A80036; stroke-width: 1.5;" x1="7" x2="197" y1="869.2578" y2="869.2578"/><rect fill="#FEFECE" filter="url(#f1)" height="48" style="stroke: #A80036; stroke-width: 1.5;" width="104" x="52" y="1006.9531"/><ellipse cx="67" cy="1022.9531" fill="#ADD1B2" rx="11" ry="11" style="stroke: #A80036; stroke-width: 1.0;"/><path d="M69.9688,1028.5938 Q69.3906,1028.8906 68.75,1029.0391 Q68.1094,1029.1875 67.4063,1029.1875 Q64.9063,1029.1875 63.5859,1027.5391 Q62.2656,1025.8906 62.2656,1022.7656 Q62.2656,1019.6406 63.5859,1017.9844 Q64.9063,1016.3281 67.4063,1016.3281 Q68.1094,1016.3281 68.7578,1016.4844 Q69.4063,1016.6406 69.9688,1016.9375 L69.9688,1019.6563 Q69.3438,1019.0781 68.75,1018.8047 Q68.1563,1018.5313 67.5313,1018.5313 Q66.1875,1018.5313 65.5,1019.6016 Q64.8125,1020.6719 64.8125,1022.7656 Q64.8125,1024.8594 65.5,1025.9297 Q66.1875,1027 67.5313,1027 Q68.1563,1027 68.75,1026.7266 Q69.3438,1026.4531 69.9688,1025.875 L69.9688,1028.5938 Z "/><text fill="#000000" font-family="sans-serif" font-size="12" lengthAdjust="spacingAndGlyphs" textLength="72" x="81" y="1027.1074">RtcpThread</text><line style="stroke: #A80036; stroke-width: 1.5;" x1="53" x2="155" y1="1038.9531" y2="1038.9531"/><line style="stroke: #A80036; stroke-width: 1.5;" x1="53" x2="155" y1="1046.9531" y2="1046.9531"/><rect fill="#FEFECE" filter="url(#f1)" height="48" style="stroke: #A80036; stroke-width: 1.5;" width="148" x="304" y="822.9531"/><ellipse cx="319" cy="838.9531" fill="#ADD1B2" rx="11" ry="11" style="stroke: #A80036; stroke-width: 1.0;"/><path d="M321.9688,844.5938 Q321.3906,844.8906 320.75,845.0391 Q320.1094,845.1875 319.4063,845.1875 Q316.9063,845.1875 315.5859,843.5391 Q314.2656,841.8906 314.2656,838.7656 Q314.2656,835.6406 315.5859,833.9844 Q316.9063,832.3281 319.4063,832.3281 Q320.1094,832.3281 320.7578,832.4844 Q321.4063,832.6406 321.9688,832.9375 L321.9688,835.6563 Q321.3438,835.0781 320.75,834.8047 Q320.1563,834.5313 319.5313,834.5313 Q318.1875,834.5313 317.5,835.6016 Q316.8125,836.6719 316.8125,838.7656 Q316.8125,840.8594 317.5,841.9297 Q318.1875,843 319.5313,843 Q320.1563,843 320.75,842.7266 Q321.3438,842.4531 321.9688,841.875 L321.9688,844.5938 Z "/><text fill="#000000" font-family="sans-serif" font-size="12" lengthAdjust="spacingAndGlyphs" textLength="116" x="333" y="843.1074">StreamThreadHttp</text><line style="stroke: #A80036; stroke-width: 1.5;" x1="305" x2="451" y1="854.9531" y2="854.9531"/><line style="stroke: #A80036; stroke-width: 1.5;" x1="305" x2="451" y1="862.9531" y2="862.9531"/><rect fill="#FEFECE" filter="url(#f1)" height="48" style="stroke: #A80036; stroke-width: 1.5;" width="158" x="1021.5" y="822.9531"/><ellipse cx="1036.5" cy="838.9531" fill="#ADD1B2" rx="11" ry="11" style="stroke: #A80036; stroke-width: 1.0;"/><path d="M1039.4688,844.5938 Q1038.8906,844.8906 1038.25,845.0391 Q1037.6094,845.1875 1036.9063,845.1875 Q1034.4063,845.1875 1033.0859,843.5391 Q1031.7656,841.8906 1031.7656,838.7656 Q1031.7656,835.6406 1033.0859,833.9844 Q1034.4063,832.3281 1036.9063,832.3281 Q1037.6094,832.3281 1038.2578,832.4844 Q1038.9063,832.6406 1039.4688,832.9375 L1039.4688,835.6563 Q1038.8438,835.0781 1038.25,834.8047 Q1037.6563,834.5313 1037.0313,834.5313 Q1035.6875,834.5313 1035,835.6016 Q1034.3125,836.6719 1034.3125,838.7656 Q1034.3125,840.8594 1035,841.9297 Q1035.6875,843 1037.0313,843 Q1037.6563,843 1038.25,842.7266 Q1038.8438,842.4531 1039.4688,841.875 L1039.4688,844.5938 Z "/><text fill="#000000" font-family="sans-serif" font-size="12" lengthAdjust="spacingAndGlyphs" textLength="126" x="1050.5" y="843.1074">input::file::TSReader</text><line style="stroke: #A80036; stroke-width: 1.5;" x1="1022.5" x2="1178.5" y1="854.9531" y2="854.9531"/><line style="stroke: #A80036; stroke-width: 1.5;" x1="1022.5" x2="1178.5" y1="862.9531" y2="862.9531"/><rect fill="#FEFECE" filter="url(#f1)" height="48" style="stroke: #A80036; stroke-width: 1.5;" width="159" x="1208.75" y="1183.9531"/><ellipse cx="1223.75" cy="1199.9531" fill="#ADD1B2" rx="11" ry="11" style="stroke: #A80036; stroke-width: 1.0;"/><path d="M1226.7188,1205.5938 Q1226.1406,1205.8906 1225.5,1206.0391 Q1224.8594,1206.1875 1224.1563,1206.1875 Q1221.6563,1206.1875 1220.3359,1204.5391 Q1219.0156,1202.8906 1219.0156,1199.7656 Q1219.0156,1196.6406 1220.3359,1194.9844 Q1221.6563,1193.3281 1224.1563,1193.3281 Q1224.8594,1193.3281 1225.5078,1193.4844 Q1226.1563,1193.6406 1226.7188,1193.9375 L1226.7188,1196.6563 Q1226.0938,1196.0781 1225.5,1195.8047 Q1224.9063,1195.5313 1224.2813,1195.5313 Q1222.9375,1195.5313 1222.25,1196.6016 Q1221.5625,1197.6719 1221.5625,1199.7656 Q1221.5625,1201.8594 1222.25,1202.9297 Q1222.9375,1204 1224.2813,1204 Q1224.9063,1204 1225.5,1203.7266 Q1226.0938,1203.4531 1226.7188,1202.875 L1226.7188,1205.5938 Z "/><text fill="#000000" font-family="sans-serif" font-size="12" lengthAdjust="spacingAndGlyphs" textLength="127" x="1237.75" y="1204.1074">input::dvb::Frontend</text><line style="stroke: #A80036; stroke-width: 1.5;" x1="1209.75" x2="1366.75" y1="1215.9531" y2="1215.9531"/><line style="stroke: #A80036; stroke-width: 1.5;" x1="1209.75" x2="1366.75" y1="1223.9531" y2="1223.9531"/><rect fill="#FEFECE" filter="url(#f1)" height="48" style="stroke: #A80036; stroke-width: 1.5;" width="193" x="1191.75" y="1006.9531"/><ellipse cx="1206.75" cy="1022.9531" fill="#ADD1B2" rx="11" ry="11" style="stroke: #A80036; stroke-width: 1.0;"/><path d="M1209.7188,1028.5938 Q1209.1406,1028.8906 1208.5,1029.0391 Q1207.8594,1029.1875 1207.1563,1029.1875 Q1204.6563,1029.1875 1203.3359,1027.5391 Q1202.0156,1025.8906 1202.0156,1022.7656 Q1202.0156,1019.6406 1203.3359,1017.9844 Q1204.6563,1016.3281 1207.1563,1016.3281 Q1207.8594,1016.3281 1208.5078,1016.4844 Q1209.1563,1016.6406 1209.7188,1016.9375 L1209.7188,1019.6563 Q1209.0938,1019.0781 1208.5,1018.8047 Q1207.9063,1018.5313 1207.2813,1018.5313 Q1205.9375,1018.5313 1205.25,1019.6016 Q1204.5625,1020.6719 1204.5625,1022.7656 Q1204.5625,1024.8594 1205.25,1025.9297 Q1205.9375,1027 1207.2813,1027 Q1207.9063,1027 1208.5,1026.7266 Q1209.0938,1026.4531 1209.7188,1025.875 L1209.7188,1028.5938 Z "/><text fill="#000000" font-family="sans-serif" font-size="12" lengthAdjust="spacingAndGlyphs" textLength="161" x="1220.75" y="1027.1074">FrontendDecryptInterface</text><line style="stroke: #A80036; stroke-width: 1.5;" x1="1192.75" x2="1383.75" y1="1038.9531" y2="1038.9531"/><line style="stroke: #A80036; stroke-width: 1.5;" x1="1192.75" x2="1383.75" y1="1046.9531" y2="1046.9531"/><rect fill="#FEFECE" filter="url(#f1)" height="48" style="stroke: #A80036; stroke-width: 1.5;" width="202" x="980" y="1341.9531"/><ellipse cx="995" cy="1357.9531" fill="#ADD1B2" rx="11" ry="11" style="stroke: #A80036; stroke-width: 1.0;"/><path d="M997.9688,1363.5938 Q997.3906,1363.8906 996.75,1364.0391 Q996.1094,1364.1875 995.4063,1364.1875 Q992.9063,1364.1875 991.5859,1362.5391 Q990.2656,1360.8906 990.2656,1357.7656 Q990.2656,1354.6406 991.5859,1352.9844 Q992.9063,1351.3281 995.4063,1351.3281 Q996.1094,1351.3281 996.7578,1351.4844 Q997.4063,1351.6406 997.9688,1351.9375 L997.9688,1354.6563 Q997.3438,1354.0781 996.75,1353.8047 Q996.1563,1353.5313 995.5313,1353.5313 Q994.1875,1353.5313 993.5,1354.6016 Q992.8125,1355.6719 992.8125,1357.7656 Q992.8125,1359.8594 993.5,1360.9297 Q994.1875,1362 995.5313,1362 Q996.1563,1362 996.75,1361.7266 Q997.3438,1361.4531 997.9688,1360.875 L997.9688,1363.5938 Z "/><text fill="#000000" font-family="sans-serif" font-size="12" lengthAdjust="spacingAndGlyphs" textLength="170" x="1009" y="1362.1074">input::dvb::delivery::System</text><line style="stroke: #A80036; stroke-width: 1.5;" x1="981" x2="1181" y1="1373.9531" y2="1373.9531"/><line style="stroke: #A80036; stroke-width: 1.5;" x1="981" x2="1181" y1="1381.9531" y2="1381.9531"/><rect fill="#FEFECE" filter="url(#f1)" height="48" style="stroke: #A80036; stroke-width: 1.5;" width="189" x="1394.75" y="1341.9531"/><ellipse cx="1409.75" cy="1357.9531" fill="#ADD1B2" rx="11" ry="11" style="stroke: #A80036; stroke-width: 1.0;"/><path d="M1412.7188,1363.5938 Q1412.1406,1363.8906 1411.5,1364.0391 Q1410.8594,1364.1875 1410.1563,1364.1875 Q1407.6563,1364.1875 1406.3359,1362.5391 Q1405.0156,1360.8906 1405.0156,1357.7656 Q1405.0156,1354.6406 1406.3359,1352.9844 Q1407.6563,1351.3281 1410.1563,1351.3281 Q1410.8594,1351.3281 1411.5078,1351.4844 Q1412.1563,1351.6406 1412.7188,1351.9375 L1412.7188,1354.6563 Q1412.0938,1354.0781 1411.5,1353.8047 Q1410.9063,1353.5313 1410.2813,1353.5313 Q1408.9375,1353.5313 1408.25,1354.6016 Q1407.5625,1355.6719 1407.5625,1357.7656 Q1407.5625,1359.8594 1408.25,1360.9297 Q1408.9375,1362 1410.2813,1362 Q1410.9063,1362 1411.5,1361.7266 Q1412.0938,1361.4531 1412.7188,1360.875 L1412.7188,1363.5938 Z "/><text fill="#000000" font-family="sans-serif" font-size="12" lengthAdjust="spacingAndGlyphs" textLength="157" x="1423.75" y="1362.1074">input::dvb::FrontendData</text><line style="stroke: #A80036; stroke-width: 1.5;" x1="1395.75" x2="1582.75" y1="1373.9531" y2="1373.9531"/><line style="stroke: #A80036; stroke-width: 1.5;" x1="1395.75" x2="1582.75" y1="1381.9531" y2="1381.9531"/><rect fill="#FEFECE" filter="url(#f1)" height="48" style="stroke: #A80036; stroke-width: 1.5;" width="142" x="1217" y="1341.9531"/><ellipse cx="1232" cy="1357.9531" fill="#ADD1B2" rx="11" ry="11" style="stroke: #A80036; stroke-width: 1.0;"/><path d="M1234.9688,1363.5938 Q1234.3906,1363.8906 1233.75,1364.0391 Q1233.1094,1364.1875 1232.4063,1364.1875 Q1229.9063,1364.1875 1228.5859,1362.5391 Q1227.2656,1360.8906 1227.2656,1357.7656 Q1227.2656,1354.6406 1228.5859,1352.9844 Q1229.9063,1351.3281 1232.4063,1351.3281 Q1233.1094,1351.3281 1233.7578,1351.4844 Q1234.4063,1351.6406 1234.9688,1351.9375 L1234.9688,1354.6563 Q1234.3438,1354.0781 1233.75,1353.8047 Q1233.1563,1353.5313 1232.5313,1353.5313 Q1231.1875,1353.5313 1230.5,1354.6016 Q1229.8125,1355.6719 1229.8125,1357.7656 Q1229.8125,1359.8594 1230.5,1360.9297 Q1231.1875,1362 1232.5313,1362 Q1233.1563,1362 1233.75,1361.7266 Q1234.3438,1361.4531 1234.9688,1360.875 L1234.9688,1363.5938 Z "/><text fill="#000000" font-family="sans-serif" font-size="12" lengthAdjust="spacingAndGlyphs" textLength="110" x="1246" y="1362.1074">input::Translation</text><line style="stroke: #A80036; stroke-width: 1.5;" x1="1218" x2="1358" y1="1373.9531" y2="1373.9531"/><line style="stroke: #A80036; stroke-width: 1.5;" x1="1218" x2="1358" y1="1381.9531" y2="1381.9531"/><rect fill="#FEFECE" filter="url(#f1)" height="48" style="stroke: #A80036; stroke-width: 1.5;" width="65" x="1112.75" y="1464.9531"/><ellipse cx="1127.75" cy="1480.9531" fill="#ADD1B2" rx="11" ry="11" style="stroke: #A80036; stroke-width: 1.0;"/><path d="M1130.7188,1486.5938 Q1130.1406,1486.8906 1129.5,1487.0391 Q1128.8594,1487.1875 1128.1563,1487.1875 Q1125.6563,1487.1875 1124.3359,1485.5391 Q1123.0156,1483.8906 1123.0156,1480.7656 Q1123.0156,1477.6406 1124.3359,1475.9844 Q1125.6563,1474.3281 1128.1563,1474.3281 Q1128.8594,1474.3281 1129.5078,1474.4844 Q1130.1563,1474.6406 1130.7188,1474.9375 L1130.7188,1477.6563 Q1130.0938,1477.0781 1129.5,1476.8047 Q1128.9063,1476.5313 1128.2813,1476.5313 Q1126.9375,1476.5313 1126.25,1477.6016 Q1125.5625,1478.6719 1125.5625,1480.7656 Q1125.5625,1482.8594 1126.25,1483.9297 Q1126.9375,1485 1128.2813,1485 Q1128.9063,1485 1129.5,1484.7266 Q1130.0938,1484.4531 1130.7188,1483.875 L1130.7188,1486.5938 Z "/><text fill="#000000" font-family="sans-serif" font-size="12" lengthAdjust="spacingAndGlyphs" textLength="33" x="1141.75" y="1485.1074">DVBS</text><line style="stroke: #A80036; stroke-width: 1.5;" x1="1113.75" x2="1176.75" y1="1496.9531" y2="1496.9531"/><line style="stroke: #A80036; stroke-width: 1.5;" x1="1113.75" x2="1176.75" y1="1504.9531" y2="1504.9531"/><rect fill="#FEFECE" filter="url(#f1)" height="48" style="stroke: #A80036; stroke-width: 1.5;" width="65" x="1212.75" y="1464.9531"/><ellipse cx="1227.75" cy="1480.9531" fill="#ADD1B2" rx="11" ry="11" style="stroke: #A80036; stroke-width: 1.0;"/><path d="M1230.7188,1486.5938 Q1230.1406,1486.8906 1229.5,1487.0391 Q1228.8594,1487.1875 1228.1563,1487.1875 Q1225.6563,1487.1875 1224.3359,1485.5391 Q1223.0156,1483.8906 1223.0156,1480.7656 Q1223.0156,1477.6406 1224.3359,1475.9844 Q1225.6563,1474.3281 1228.1563,1474.3281 Q1228.8594,1474.3281 1229.5078,1474.4844 Q1230.1563,1474.6406 1230.7188,1474.9375 L1230.7188,1477.6563 Q1230.0938,1477.0781 1229.5,1476.8047 Q1228.9063,1476.5313 1228.2813,1476.5313 Q1226.9375,1476.5313 1226.25,1477.6016 Q1225.5625,1478.6719 1225.5625,1480.7656 Q1225.5625,1482.8594 1226.25,1483.9297 Q1226.9375,1485 1228.2813,1485 Q1228.9063,1485 1229.5,1484.7266 Q1230.0938,1484.4531 1230.7188,1483.875 L1230.7188,1486.5938 Z "/><text fill="#000000" font-family="sans-serif" font-size="12" lengthAdjust="spacingAndGlyphs" textLength="33" x="1241.75" y="1485.1074">DVBC</text><line style="stroke: #A80036; stroke-width: 1.5;" x1="1213.75" x2="1276.75" y1="1496.9531" y2="1496.9531"/><line style="stroke: #A80036; stroke-width: 1.5;" x1="1213.75" x2="1276.75" y1="1504.9531" y2="1504.9531"/><rect fill="#FEFECE" filter="url(#f1)" height="48" style="stroke: #A80036; stroke-width: 1.5;" width="64" x="915" y="1464.9531"/><ellipse cx="930" cy="1480.9531" fill="#ADD1B2" rx="11" ry="11" style="stroke: #A80036; stroke-width: 1.0;"/><path d="M932.9688,1486.5938 Q932.3906,1486.8906 931.75,1487.0391 Q931.1094,1487.1875 930.4063,1487.1875 Q927.9063,1487.1875 926.5859,1485.5391 Q925.2656,1483.8906 925.2656,1480.7656 Q925.2656,1477.6406 926.5859,1475.9844 Q927.9063,1474.3281 930.4063,1474.3281 Q931.1094,1474.3281 931.7578,1474.4844 Q932.4063,1474.6406 932.9688,1474.9375 L932.9688,1477.6563 Q932.3438,1477.0781 931.75,1476.8047 Q931.1563,1476.5313 930.5313,1476.5313 Q929.1875,1476.5313 928.5,1477.6016 Q927.8125,1478.6719 927.8125,1480.7656 Q927.8125,1482.8594 928.5,1483.9297 Q929.1875,1485 930.5313,1485 Q931.1563,1485 931.75,1484.7266 Q932.3438,1484.4531 932.9688,1483.875 L932.9688,1486.5938 Z "/><text fill="#000000" font-family="sans-serif" font-size="12" lengthAdjust="spacingAndGlyphs" textLength="32" x="944" y="1485.1074">DVBT</text><line style="stroke: #A80036; stroke-width: 1.5;" x1="916" x2="978" y1="1496.9531" y2="1496.9531"/><line style="stroke: #A80036; stroke-width: 1.5;" x1="916" x2="978" y1="1504.9531" y2="1504.9531"/><rect fill="#FEFECE" filter="url(#f1)" height="48" style="stroke: #A80036; stroke-width: 1.5;" width="63" x="1014.75" y="1464.9531"/><ellipse cx="1029.75" cy="1480.9531" fill="#ADD1B2" rx="11" ry="11" style="stroke: #A80036; stroke-width: 1.0;"/><path d="M1032.7188,1486.5938 Q1032.1406,1486.8906 1031.5,1487.0391 Q1030.8594,1487.1875 1030.1563,1487.1875 Q1027.6563,1487.1875 1026.3359,1485.5391 Q1025.0156,1483.8906 1025.0156,1480.7656 Q1025.0156,1477.6406 1026.3359,1475.9844 Q1027.6563,1474.3281 1030.1563,1474.3281 Q1030.8594,1474.3281 1031.5078,1474.4844 Q1032.1563,1474.6406 1032.7188,1474.9375 L1032.7188,1477.6563 Q1032.0938,1477.0781 1031.5,1476.8047 Q1030.9063,1476.5313 1030.2813,1476.5313 Q1028.9375,1476.5313 1028.25,1477.6016 Q1027.5625,1478.6719 1027.5625,1480.7656 Q1027.5625,1482.8594 1028.25,1483.9297 Q1028.9375,1485 1030.2813,1485 Q1030.9063,1485 1031.5,1484.7266 Q1032.0938,1484.4531 1032.7188,1483.875 L1032.7188,1486.5938 Z "/><text fill="#000000" font-family="sans-serif" font-size="12" lengthAdjust="spacingAndGlyphs" textLength="31" x="1043.75" y="1485.1074">ATSC</text><line style="stroke: #A80036; stroke-width: 1.5;" x1="1015.75" x2="1076.75" y1="1496.9531" y2="1496.9531"/><line style="stroke: #A80036; stroke-width: 1.5;" x1="1015.75" x2="1076.75" y1="1504.9531" y2="1504.9531"/><rect fill="#FEFECE" filter="url(#f1)" height="48" style="stroke: #A80036; stroke-width: 1.5;" width="86" x="1102" y="1590.9531"/><ellipse cx="1117" cy="1606.9531" fill="#ADD1B2" rx="11" ry="11" style="stroke: #A80036; stroke-width: 1.0;"/><path d="M1119.9688,1612.5938 Q1119.3906,1612.8906 1118.75,1613.0391 Q1118.1094,1613.1875 1117.4063,1613.1875 Q1114.9063,1613.1875 1113.5859,1611.5391 Q1112.2656,1609.8906 1112.2656,1606.7656 Q1112.2656,1603.6406 1113.5859,1601.9844 Q1114.9063,1600.3281 1117.4063,1600.3281 Q1118.1094,1600.3281 1118.7578,1600.4844 Q1119.4063,1600.6406 1119.9688,1600.9375 L1119.9688,1603.6563 Q1119.3438,1603.0781 1118.75,1602.8047 Q1118.1563,1602.5313 1117.5313,1602.5313 Q1116.1875,1602.5313 1115.5,1603.6016 Q1114.8125,1604.6719 1114.8125,1606.7656 Q1114.8125,1608.8594 1115.5,1609.9297 Q1116.1875,1611 1117.5313,1611 Q1118.1563,1611 1118.75,1610.7266 Q1119.3438,1610.4531 1119.9688,1609.875 L1119.9688,1612.5938 Z "/><text fill="#000000" font-family="sans-serif" font-size="12" lengthAdjust="spacingAndGlyphs" textLength="54" x="1131" y="1611.1074">DiSEqc_t</text><line style="stroke: #A80036; stroke-width: 1.5;" x1="1103" x2="1187" y1="1622.9531" y2="1622.9531"/><line style="stroke: #A80036; stroke-width: 1.5;" x1="1103" x2="1187" y1="1630.9531" y2="1630.9531"/><rect fill="#FEFECE" filter="url(#f1)" height="48" style="stroke: #A80036; stroke-width: 1.5;" width="65" x="1112.75" y="1700.9531"/><ellipse cx="1127.75" cy="1716.9531" fill="#ADD1B2" rx="11" ry="11" style="stroke: #A80036; stroke-width: 1.0;"/><path d="M1130.7188,1722.5938 Q1130.1406,1722.8906 1129.5,1723.0391 Q1128.8594,1723.1875 1128.1563,1723.1875 Q1125.6563,1723.1875 1124.3359,1721.5391 Q1123.0156,1719.8906 1123.0156,1716.7656 Q1123.0156,1713.6406 1124.3359,1711.9844 Q1125.6563,1710.3281 1128.1563,1710.3281 Q1128.8594,1710.3281 1129.5078,1710.4844 Q1130.1563,1710.6406 1130.7188,1710.9375 L1130.7188,1713.6563 Q1130.0938,1713.0781 1129.5,1712.8047 Q1128.9063,1712.5313 1128.2813,1712.5313 Q1126.9375,1712.5313 1126.25,1713.6016 Q1125.5625,1714.6719 1125.5625,1716.7656 Q1125.5625,1718.8594 1126.25,1719.9297 Q1126.9375,1721 1128.2813,1721 Q1128.9063,1721 1129.5,1720.7266 Q1130.0938,1720.4531 1130.7188,1719.875 L1130.7188,1722.5938 Z "/><text fill="#000000" font-family="sans-serif" font-size="12" lengthAdjust="spacingAndGlyphs" textLength="33" x="1141.75" y="1721.1074">Lnb_t</text><line style="stroke: #A80036; stroke-width: 1.5;" x1="1113.75" x2="1176.75" y1="1732.9531" y2="1732.9531"/><line style="stroke: #A80036; stroke-width: 1.5;" x1="1113.75" x2="1176.75" y1="1740.9531" y2="1740.9531"/><rect fill="#FEFECE" filter="url(#f1)" height="48" style="stroke: #A80036; stroke-width: 1.5;" width="236" x="1371" y="1464.9531"/><ellipse cx="1386" cy="1480.9531" fill="#ADD1B2" rx="11" ry="11" style="stroke: #A80036; stroke-width: 1.0;"/><path d="M1388.9688,1486.5938 Q1388.3906,1486.8906 1387.75,1487.0391 Q1387.1094,1487.1875 1386.4063,1487.1875 Q1383.9063,1487.1875 1382.5859,1485.5391 Q1381.2656,1483.8906 1381.2656,1480.7656 Q1381.2656,1477.6406 1382.5859,1475.9844 Q1383.9063,1474.3281 1386.4063,1474.3281 Q1387.1094,1474.3281 1387.7578,1474.4844 Q1388.4063,1474.6406 1388.9688,1474.9375 L1388.9688,1477.6563 Q1388.3438,1477.0781 1387.75,1476.8047 Q1387.1563,1476.5313 1386.5313,1476.5313 Q1385.1875,1476.5313 1384.5,1477.6016 Q1383.8125,1478.6719 1383.8125,1480.7656 Q1383.8125,1482.8594 1384.5,1483.9297 Q1385.1875,1485 1386.5313,1485 Q1387.1563,1485 1387.75,1484.7266 Q1388.3438,1484.4531 1388.9688,1483.875 L1388.9688,1486.5938 Z "/><text fill="#000000" font-family="sans-serif" font-size="12" lengthAdjust="spacingAndGlyphs" textLength="204" x="1400" y="1485.1074">decrypt::dvbapi::ClientProperties</text><line style="stroke: #A80036; stroke-width: 1.5;" x1="1372" x2="1606" y1="1496.9531" y2="1496.9531"/><line style="stroke: #A80036; stroke-width: 1.5;" x1="1372" x2="1606" y1="1504.9531" y2="1504.9531"/><rect fill="#FEFECE" filter="url(#f1)" height="48" style="stroke: #A80036; stroke-width: 1.5;" width="116" x="1366.5" y="1590.9531"/><ellipse cx="1381.5" cy="1606.9531" fill="#ADD1B2" rx="11" ry="11" style="stroke: #A80036; stroke-width: 1.0;"/><path d="M1384.4688,1612.5938 Q1383.8906,1612.8906 1383.25,1613.0391 Q1382.6094,1613.1875 1381.9063,1613.1875 Q1379.4063,1613.1875 1378.0859,1611.5391 Q1376.7656,1609.8906 1376.7656,1606.7656 Q1376.7656,1603.6406 1378.0859,1601.9844 Q1379.4063,1600.3281 1381.9063,1600.3281 Q1382.6094,1600.3281 1383.2578,1600.4844 Q1383.9063,1600.6406 1384.4688,1600.9375 L1384.4688,1603.6563 Q1383.8438,1603.0781 1383.25,1602.8047 Q1382.6563,1602.5313 1382.0313,1602.5313 Q1380.6875,1602.5313 1380,1603.6016 Q1379.3125,1604.6719 1379.3125,1606.7656 Q1379.3125,1608.8594 1380,1609.9297 Q1380.6875,1611 1382.0313,1611 Q1382.6563,1611 1383.25,1610.7266 Q1383.8438,1610.4531 1384.4688,1609.875 L1384.4688,1612.5938 Z "/><text fill="#000000" font-family="sans-serif" font-size="12" lengthAdjust="spacingAndGlyphs" textLength="84" x="1395.5" y="1611.1074">dvbcsa_key_s</text><line style="stroke: #A80036; stroke-width: 1.5;" x1="1367.5" x2="1481.5" y1="1622.9531" y2="1622.9531"/><line style="stroke: #A80036; stroke-width: 1.5;" x1="1367.5" x2="1481.5" y1="1630.9531" y2="1630.9531"/><rect fill="#FEFECE" filter="url(#f1)" height="48" style="stroke: #A80036; stroke-width: 1.5;" width="111" x="1517.75" y="1590.9531"/><ellipse cx="1532.75" cy="1606.9531" fill="#ADD1B2" rx="11" ry="11" style="stroke: #A80036; stroke-width: 1.0;"/><path d="M1535.7188,1612.5938 Q1535.1406,1612.8906 1534.5,1613.0391 Q1533.8594,1613.1875 1533.1563,1613.1875 Q1530.6563,1613.1875 1529.3359,1611.5391 Q1528.0156,1609.8906 1528.0156,1606.7656 Q1528.0156,1603.6406 1529.3359,1601.9844 Q1530.6563,1600.3281 1533.1563,1600.3281 Q1533.8594,1600.3281 1534.5078,1600.4844 Q1535.1563,1600.6406 1535.7188,1600.9375 L1535.7188,1603.6563 Q1535.0938,1603.0781 1534.5,1602.8047 Q1533.9063,1602.5313 1533.2813,1602.5313 Q1531.9375,1602.5313 1531.25,1603.6016 Q1530.5625,1604.6719 1530.5625,1606.7656 Q1530.5625,1608.8594 1531.25,1609.9297 Q1531.9375,1611 1533.2813,1611 Q1533.9063,1611 1534.5,1610.7266 Q1535.0938,1610.4531 1535.7188,1609.875 L1535.7188,1612.5938 Z "/><text fill="#000000" font-family="sans-serif" font-size="12" lengthAdjust="spacingAndGlyphs" textLength="79" x="1546.75" y="1611.1074">TSTableData</text><line style="stroke: #A80036; stroke-width: 1.5;" x1="1518.75" x2="1627.75" y1="1622.9531" y2="1622.9531"/><line style="stroke: #A80036; stroke-width: 1.5;" x1="1518.75" x2="1627.75" y1="1630.9531" y2="1630.9531"/><rect fill="#FEFECE" filter="url(#f1)" height="48" style="stroke: #A80036; stroke-width: 1.5;" width="143" x="1417.75" y="1183.9531"/><ellipse cx="1432.75" cy="1199.9531" fill="#ADD1B2" rx="11" ry="11" style="stroke: #A80036; stroke-width: 1.0;"/><path d="M1435.7188,1205.5938 Q1435.1406,1205.8906 1434.5,1206.0391 Q1433.8594,1206.1875 1433.1563,1206.1875 Q1430.6563,1206.1875 1429.3359,1204.5391 Q1428.0156,1202.8906 1428.0156,1199.7656 Q1428.0156,1196.6406 1429.3359,1194.9844 Q1430.6563,1193.3281 1433.1563,1193.3281 Q1433.8594,1193.3281 1434.5078,1193.4844 Q1435.1563,1193.6406 1435.7188,1193.9375 L1435.7188,1196.6563 Q1435.0938,1196.0781 1434.5,1195.8047 Q1433.9063,1195.5313 1433.2813,1195.5313 Q1431.9375,1195.5313 1431.25,1196.6016 Q1430.5625,1197.6719 1430.5625,1199.7656 Q1430.5625,1201.8594 1431.25,1202.9297 Q1431.9375,1204 1433.2813,1204 Q1433.9063,1204 1434.5,1203.7266 Q1435.0938,1203.4531 1435.7188,1202.875 L1435.7188,1205.5938 Z "/><text fill="#000000" font-family="sans-serif" font-size="12" lengthAdjust="spacingAndGlyphs" textLength="111" x="1446.75" y="1204.1074">input::DeviceData</text><line style="stroke: #A80036; stroke-width: 1.5;" x1="1418.75" x2="1559.75" y1="1215.9531" y2="1215.9531"/><line style="stroke: #A80036; stroke-width: 1.5;" x1="1418.75" x2="1559.75" y1="1223.9531" y2="1223.9531"/><rect fill="#FEFECE" filter="url(#f1)" height="48" style="stroke: #A80036; stroke-width: 1.5;" width="140" x="1420" y="1006.9531"/><ellipse cx="1435" cy="1022.9531" fill="#ADD1B2" rx="11" ry="11" style="stroke: #A80036; stroke-width: 1.0;"/><path d="M1437.9688,1028.5938 Q1437.3906,1028.8906 1436.75,1029.0391 Q1436.1094,1029.1875 1435.4063,1029.1875 Q1432.9063,1029.1875 1431.5859,1027.5391 Q1430.2656,1025.8906 1430.2656,1022.7656 Q1430.2656,1019.6406 1431.5859,1017.9844 Q1432.9063,1016.3281 1435.4063,1016.3281 Q1436.1094,1016.3281 1436.7578,1016.4844 Q1437.4063,1016.6406 1437.9688,1016.9375 L1437.9688,1019.6563 Q1437.3438,1019.0781 1436.75,1018.8047 Q1436.1563,1018.5313 1435.5313,1018.5313 Q1434.1875,1018.5313 1433.5,1019.6016 Q1432.8125,1020.6719 1432.8125,1022.7656 Q1432.8125,1024.8594 1433.5,1025.9297 Q1434.1875,1027 1435.5313,1027 Q1436.1563,1027 1436.75,1026.7266 Q1437.3438,1026.4531 1437.9688,1025.875 L1437.9688,1028.5938 Z "/><text fill="#000000" font-family="sans-serif" font-size="12" lengthAdjust="spacingAndGlyphs" textLength="108" x="1449" y="1027.1074">mpegts::PidTable</text><line style="stroke: #A80036; stroke-width: 1.5;" x1="1421" x2="1559" y1="1038.9531" y2="1038.9531"/><line style="stroke: #A80036; stroke-width: 1.5;" x1="1421" x2="1559" y1="1046.9531" y2="1046.9531"/><path d="M596.583,115.2431 C588.693,130.6631 580.942,148.1031 576,164.9531 C524.956,338.9831 521.124,559.5431 521.551,638.3231 " fill="none" style="stroke: #A80036; stroke-width: 1.0;"/><polygon fill="#A80036" points="602.89,103.3631,596.5425,106.785,597.2598,113.9603,603.6073,110.5385,602.89,103.3631" style="stroke: #A80036; stroke-width: 1.0;"/><path d="M678.864,82.4331 C735.974,99.6331 828.217,129.6831 904,164.9531 C910.142,167.8131 916.389,170.9231 922.619,174.1831 " fill="none" style="stroke: #A80036; stroke-width: 1.0;"/><polygon fill="#A80036" points="666.182,78.6531,670.7883,84.2013,677.6813,82.0831,673.075,76.535,666.182,78.6531" style="stroke: #A80036; stroke-width: 1.0;"/><path d="M674.639,112.0831 C699.754,134.9131 730.053,162.4531 754.684,184.8431 " fill="none" style="stroke: #A80036; stroke-width: 1.0;"/><polygon fill="#A80036" points="664.937,103.2631,666.6895,110.258,673.8204,111.3307,672.0679,104.3358,664.937,103.2631" style="stroke: #A80036; stroke-width: 1.0;"/><path d="M571.345,82.1631 C544.267,92.4131 513.007,108.5931 493,132.9531 C446.94,189.0231 437.324,278.8831 435.41,320.8931 " fill="none" style="stroke: #A80036; stroke-width: 1.0;"/><polygon fill="#A80036" points="583.834,77.7331,576.8414,75.9713,572.5257,81.7484,579.5183,83.5102,583.834,77.7331" style="stroke: #A80036; stroke-width: 1.0;"/><path d="M633.789,116.0131 C648.404,197.5931 677.153,358.0731 687.856,417.8231 " fill="none" style="stroke: #A80036; stroke-width: 1.0;"/><polygon fill="#A80036" points="631.485,103.1531,628.6096,109.7661,633.6079,114.9638,636.4834,108.3508,631.485,103.1531" style="stroke: #A80036; stroke-width: 1.0;"/><path d="M612.146,116.0931 C589.805,210.9631 551.664,424.5231 612,588.9531 C618.815,607.5231 632.143,624.7231 645.13,638.2931 " fill="none" style="stroke: #A80036; stroke-width: 1.0;"/><polygon fill="#A80036" points="615.248,103.2431,609.9493,108.1344,612.4264,114.9067,617.725,110.0154,615.248,103.2431" style="stroke: #A80036; stroke-width: 1.0;"/><path d="M660.296,1251.1691 C669.094,1269.4681 679.505,1291.1231 688.871,1310.6041 " fill="none" style="stroke: #A80036; stroke-width: 1.0;"/><polygon fill="none" points="695.259,1307.7351,697.616,1328.7941,682.641,1313.8021,695.259,1307.7351" style="stroke: #A80036; stroke-width: 1.0;"/><path d="M829.338,718.5131 C804.749,742.5531 775.094,771.5501 750.288,795.8051 " fill="none" style="stroke: #A80036; stroke-width: 1.0;"/><polygon fill="none" points="755.132,800.8581,735.938,809.8361,745.345,790.8481,755.132,800.8581" style="stroke: #A80036; stroke-width: 1.0;"/><path d="M920.814,729.7531 C939.763,762.5201 958,804.7581 958,845.9531 C958,845.9531 958,845.9531 958,1208.9531 C958,1290.1681 860.69,1331.0661 789.228,1350.1501 " fill="none" style="stroke: #A80036; stroke-width: 1.0;"/><polygon fill="#A80036" points="914.111,718.5731,913.766,725.776,920.282,728.8648,920.6271,721.6619,914.111,718.5731" style="stroke: #A80036; stroke-width: 1.0;"/><text fill="#000000" font-family="sans-serif" font-size="13" lengthAdjust="spacingAndGlyphs" textLength="47" x="959" y="1035.02">_server</text><path d="M858.336,731.3131 C842.326,777.4051 818.908,841.8001 795,896.9531 C752.641,994.6711 694.76,1105.4571 663.07,1164.5261 " fill="none" style="stroke: #A80036; stroke-width: 1.0;"/><polygon fill="#A80036" points="862.649,718.8231,856.9097,723.1889,858.7322,730.1659,864.4715,725.8001,862.649,718.8231" style="stroke: #A80036; stroke-width: 1.0;"/><text fill="#000000" font-family="sans-serif" font-size="13" lengthAdjust="spacingAndGlyphs" textLength="59" x="782" y="940.02">_client[..]</text><path d="M405.38,588.9831 C405.544,625.0431 410.83,680.5331 438,718.9531 C484.372,784.5241 527.383,764.8511 601,796.9531 C604.147,798.3251 607.337,799.7471 610.549,801.2061 " fill="none" style="stroke: #A80036; stroke-width: 1.0;"/><polygon fill="none" points="613.883,795.0381,629.028,809.8571,607.946,807.7171,613.883,795.0381" style="stroke: #A80036; stroke-width: 1.0;"/><path d="M431.842,369.0731 C427.704,399.3731 420.309,453.5131 414.66,494.8631 " fill="none" style="stroke: #A80036; stroke-width: 1.0;"/><polygon fill="none" points="421.574,495.9831,411.931,514.8431,407.703,494.0831,421.574,495.9831" style="stroke: #A80036; stroke-width: 1.0;"/><path d="M967.156,290.5531 C947.626,319.3131 924.483,353.3831 905.167,381.8231 " fill="none" style="stroke: #A80036; stroke-width: 1.0;"/><polygon fill="none" points="910.73,386.0831,893.701,398.7031,899.149,378.2231,910.73,386.0831" style="stroke: #A80036; stroke-width: 1.0;"/><path d="M813.721,271.0931 C823.076,302.0831 835.936,344.6831 846.437,379.4631 " fill="none" style="stroke: #A80036; stroke-width: 1.0;"/><polygon fill="none" points="853.224,377.7231,852.303,398.8931,839.822,381.7731,853.224,377.7231" style="stroke: #A80036; stroke-width: 1.0;"/><path d="M773.387,282.6631 C750.957,326.2831 720.419,385.6831 703.86,417.8831 " fill="none" style="stroke: #A80036; stroke-width: 1.0; stroke-dasharray: 7.0,7.0;"/><polygon fill="#A80036" points="779.335,271.0931,773.0345,274.6008,773.849,281.7657,780.1495,278.2581,779.335,271.0931" style="stroke: #A80036; stroke-width: 1.0;"/><path d="M867.617,485.0131 C869.609,517.0231 872.393,561.7731 874.71,599.0031 " fill="none" style="stroke: #A80036; stroke-width: 1.0;"/><polygon fill="none" points="881.702,598.6631,875.958,619.0531,867.729,599.5331,881.702,598.6631" style="stroke: #A80036; stroke-width: 1.0;"/><path d="M763.304,482.6731 C761.186,483.4431 759.083,484.2031 757,484.9531 C716.919,499.3431 701.92,492.0731 666,514.9531 C614.003,548.0631 567.902,604.1431 542.573,638.4231 " fill="none" style="stroke: #A80036; stroke-width: 1.0; stroke-dasharray: 7.0,7.0;"/><polygon fill="#A80036" points="775.558,478.1531,768.5445,476.4766,764.2995,482.3059,771.313,483.9823,775.558,478.1531" style="stroke: #A80036; stroke-width: 1.0;"/><text fill="#000000" font-family="sans-serif" font-size="13" lengthAdjust="spacingAndGlyphs" textLength="109" x="667" y="556.02">_streamManager</text><path d="M842.715,497.0731 C829.057,526.2431 809.653,561.7331 786,588.9531 C776.004,600.4531 747.868,621.1031 722.957,638.4031 " fill="none" style="stroke: #A80036; stroke-width: 1.0; stroke-dasharray: 7.0,7.0;"/><polygon fill="#A80036" points="848.212,484.9931,842.0856,488.7968,843.2404,495.9148,849.3668,492.1112,848.212,484.9931" style="stroke: #A80036; stroke-width: 1.0;"/><path d="M510.92,896.6311 C485.891,945.0381 446.195,1021.3441 411,1086.9531 C396.863,1113.3071 380.685,1142.7331 367.884,1165.8501 " fill="none" style="stroke: #A80036; stroke-width: 1.0;"/><polygon fill="none" points="373.871,1169.4881,358.045,1183.5781,361.63,1162.6941,373.871,1169.4881" style="stroke: #A80036; stroke-width: 1.0;"/><path d="M551.91,909.5611 C557.381,930.7471 563.467,954.3141 568.793,974.9401 " fill="none" style="stroke: #A80036; stroke-width: 1.0;"/><polygon fill="#A80036" points="548.595,896.7261,546.222,903.5356,551.595,908.3451,553.968,901.5356,548.595,896.7261" style="stroke: #A80036; stroke-width: 1.0;"/><text fill="#000000" font-family="sans-serif" font-size="13" lengthAdjust="spacingAndGlyphs" textLength="59" x="566" y="940.02">_client[..]</text><path d="M596.535,894.6361 C598.348,895.4681 600.171,896.2431 602,896.9531 C724.029,944.3301 767.844,895.8571 895,926.9531 C951.199,940.6961 964.648,948.3041 1016,974.9531 C1033.79,984.1861 1052.55,996.2231 1067.82,1006.6811 " fill="none" style="stroke: #A80036; stroke-width: 1.0;"/><polygon fill="#A80036" points="584.778,888.4321,588.2176,894.77,595.3909,894.0327,591.9513,887.6948,584.778,888.4321" style="stroke: #A80036; stroke-width: 1.0;"/><path d="M476.959,891.1221 C452.475,909.0271 429.374,925.9261 428,926.9531 C391.63,954.1251 350.164,985.8791 322.895,1006.8701 " fill="none" style="stroke: #A80036; stroke-width: 1.0;"/><polygon fill="#A80036" points="487.478,883.4301,480.2737,883.7435,477.7921,890.5142,484.9964,890.2008,487.478,883.4301" style="stroke: #A80036; stroke-width: 1.0;"/><path d="M525.41,712.8231 C527.441,738.3531 530.024,770.8231 532.13,797.3071 " fill="none" style="stroke: #A80036; stroke-width: 1.0;"/><polygon fill="#A80036" points="524.375,699.8131,520.8691,706.1146,525.3375,711.7745,528.8434,705.473,524.375,699.8131" style="stroke: #A80036; stroke-width: 1.0;"/><text fill="#000000" font-family="sans-serif" font-size="13" lengthAdjust="spacingAndGlyphs" textLength="71" x="535" y="762.02">_stream[..]</text><path d="M443.022,692.0731 C411.811,697.3731 380.6,698.1231 349.389,694.3231 " fill="none" style="stroke: #A80036; stroke-width: 1.0;"/><polygon fill="#A80036" points="455.922,689.6231,449.2813,686.8122,444.1325,691.861,450.7732,694.6719,455.922,689.6231" style="stroke: #A80036; stroke-width: 1.0;"/><path d="M349.389,643.5831 C384.9,639.2631 420.411,640.8231 455.922,648.2831 " fill="none" style="stroke: #A80036; stroke-width: 1.0; stroke-dasharray: 7.0,7.0;"/><path d="M530.794,1098.3401 C502.139,1143.3811 477.646,1203.1901 506,1250.9531 C535.01,1299.8221 593.151,1329.0821 640.76,1345.7001 " fill="none" style="stroke: #A80036; stroke-width: 1.0;"/><polygon fill="#A80036" points="538.14,1087.2231,531.4949,1090.0236,531.5241,1097.2346,538.1692,1094.4342,538.14,1087.2231" style="stroke: #A80036; stroke-width: 1.0;"/><text fill="#000000" font-family="sans-serif" font-size="13" lengthAdjust="spacingAndGlyphs" textLength="25" x="511" y="1212.02">_rtp</text><path d="M657.07,1075.4881 C687.838,1097.9261 720.232,1128.3171 737,1164.9531 C761.35,1218.1561 744.417,1287.3591 729.8,1328.8481 " fill="none" style="stroke: #A80036; stroke-width: 1.0;"/><polygon fill="#A80036" points="646.283,1067.8851,648.8831,1074.6111,656.0918,1074.798,653.4917,1068.0719,646.283,1067.8851" style="stroke: #A80036; stroke-width: 1.0;"/><text fill="#000000" font-family="sans-serif" font-size="13" lengthAdjust="spacingAndGlyphs" textLength="32" x="755" y="1212.02">_rtcp</text><path d="M605.141,1099.9311 C612.249,1121.7511 619.912,1145.2791 626.238,1164.7021 " fill="none" style="stroke: #A80036; stroke-width: 1.0; stroke-dasharray: 7.0,7.0;"/><polygon fill="#A80036" points="601.035,1087.3241,599.0896,1094.2678,604.7509,1098.7343,606.6963,1091.7906,601.035,1087.3241" style="stroke: #A80036; stroke-width: 1.0;"/><text fill="#000000" font-family="sans-serif" font-size="13" lengthAdjust="spacingAndGlyphs" textLength="40" x="620" y="1130.02">_httpc</text><path d="M289.15,993.4791 C281.853,924.3471 266.09,775.0121 258.818,706.1231 " fill="none" style="stroke: #A80036; stroke-width: 1.0; stroke-dasharray: 7.0,7.0;"/><polygon fill="#A80036" points="290.532,1006.5721,293.8803,1000.1855,289.2727,994.6384,285.9244,1001.025,290.532,1006.5721" style="stroke: #A80036; stroke-width: 1.0;"/><path d="M263.803,1065.0771 C251.091,1080.3161 236.503,1098.9751 225,1116.9531 C211.16,1138.5841 198.376,1165.0491 190,1183.6631 " fill="none" style="stroke: #A80036; stroke-width: 1.0;"/><polygon fill="#A80036" points="272.244,1055.1231,265.3125,1057.1117,264.4822,1064.2749,271.4137,1062.2863,272.244,1055.1231" style="stroke: #A80036; stroke-width: 1.0;"/><text fill="#000000" font-family="sans-serif" font-size="13" lengthAdjust="spacingAndGlyphs" textLength="75" x="230" y="1130.02">_tsBuffer[..]</text><path d="M303.729,1068.0591 C314.059,1102.8241 329.371,1154.3561 338.149,1183.8971 " fill="none" style="stroke: #A80036; stroke-width: 1.0; stroke-dasharray: 7.0,7.0;"/><polygon fill="#A80036" points="299.905,1055.1921,297.7797,1062.0829,303.323,1066.695,305.4483,1059.8042,299.905,1055.1921" style="stroke: #A80036; stroke-width: 1.0;"/><path d="M133.113,877.6001 C166.078,909.0111 218.201,958.6791 253.916,992.7101 " fill="none" style="stroke: #A80036; stroke-width: 1.0;"/><polygon fill="none" points="258.927,987.8171,268.578,1006.6821,249.27,997.9521,258.927,987.8171" style="stroke: #A80036; stroke-width: 1.0;"/><path d="M102.4698,890.7061 C102.8679,926.9311 103.4237,977.5061 103.7443,1006.6821 " fill="none" style="stroke: #A80036; stroke-width: 1.0;"/><polygon fill="#A80036" points="102.3258,877.6001,98.392,883.6437,102.4577,889.5994,106.3915,883.5558,102.3258,877.6001" style="stroke: #A80036; stroke-width: 1.0;"/><path d="M132.58,1064.9791 C152.349,1086.5741 180.038,1114.4701 208,1134.9531 C223.498,1146.3061 264.43,1167.4411 297.545,1183.8881 " fill="none" style="stroke: #A80036; stroke-width: 1.0; stroke-dasharray: 7.0,7.0;"/><polygon fill="#A80036" points="123.814,1055.2481,124.8576,1062.3833,131.8453,1064.1643,130.8017,1057.0291,123.814,1055.2481" style="stroke: #A80036; stroke-width: 1.0;"/><path d="M367.235,871.0031 C353.445,900.5291 329.3,952.2281 312.298,988.6321 " fill="none" style="stroke: #A80036; stroke-width: 1.0;"/><polygon fill="none" points="318.617,991.6441,303.812,1006.8031,305.933,985.7201,318.617,991.6441" style="stroke: #A80036; stroke-width: 1.0;"/><path d="M1100,871.0031 C1100,899.9841 1100,950.3261 1100,986.5991 " fill="none" style="stroke: #A80036; stroke-width: 1.0;"/><polygon fill="none" points="1107,986.8031,1100,1006.8031,1093,986.8031,1107,986.8031" style="stroke: #A80036; stroke-width: 1.0;"/><path d="M1139.78,1068.9861 C1177.11,1103.7351 1231.78,1154.6181 1263.23,1183.8971 " fill="none" style="stroke: #A80036; stroke-width: 1.0;"/><polygon fill="none" points="1134.83,1073.9421,1124.96,1055.1921,1144.37,1063.6951,1134.83,1073.9421" style="stroke: #A80036; stroke-width: 1.0;"/><path d="M1288,1075.1921 C1288,1109.5681 1288,1156.3171 1288,1183.8971 " fill="none" style="stroke: #A80036; stroke-width: 1.0;"/><polygon fill="none" points="1281,1075.1921,1288,1055.1921,1295,1075.1921,1281,1075.1921" style="stroke: #A80036; stroke-width: 1.0;"/><path d="M1216.63,1237.5231 C1192.78,1248.9861 1166.96,1263.6281 1146,1280.9531 C1125.11,1298.2231 1106.78,1323.3561 1094.95,1341.6281 " fill="none" style="stroke: #A80036; stroke-width: 1.0;"/><polygon fill="#A80036" points="1228.52,1231.9881,1221.3924,1230.8939,1217.641,1237.0524,1224.7686,1238.1466,1228.52,1231.9881" style="stroke: #A80036; stroke-width: 1.0;"/><text fill="#000000" font-family="sans-serif" font-size="13" lengthAdjust="spacingAndGlyphs" textLength="123" x="1151" y="1294.02">_deliverySystem[..]</text><path d="M1328.96,1240.1621 C1345.47,1252.7841 1364.68,1267.5191 1382,1280.9531 C1408.31,1301.3591 1438.1,1324.7691 1459.55,1341.6831 " fill="none" style="stroke: #A80036; stroke-width: 1.0;"/><polygon fill="#A80036" points="1318.55,1232.2081,1320.8925,1239.0281,1328.0889,1239.4889,1325.7464,1232.6689,1318.55,1232.2081" style="stroke: #A80036; stroke-width: 1.0;"/><path d="M1288,1245.1561 C1288,1274.9681 1288,1316.3391 1288,1341.8401 " fill="none" style="stroke: #A80036; stroke-width: 1.0;"/><polygon fill="#A80036" points="1288,1231.9711,1284,1237.9711,1288,1243.9711,1292,1237.9711,1288,1231.9711" style="stroke: #A80036; stroke-width: 1.0;"/><text fill="#000000" font-family="sans-serif" font-size="13" lengthAdjust="spacingAndGlyphs" textLength="75" x="1293" y="1294.02">_translation</text><path d="M1102.68,1407.9501 C1112.67,1426.8281 1124.16,1448.5441 1132.64,1464.5831 " fill="none" style="stroke: #A80036; stroke-width: 1.0;"/><polygon fill="none" points="1096.35,1410.9491,1093.19,1389.9971,1108.73,1404.4031,1096.35,1410.9491" style="stroke: #A80036; stroke-width: 1.0;"/><path d="M1128.34,1401.8771 C1155.74,1422.0951 1189.47,1446.9841 1213.6,1464.7891 " fill="none" style="stroke: #A80036; stroke-width: 1.0;"/><polygon fill="none" points="1124.17,1407.5041,1112.23,1389.9971,1132.48,1396.2381,1124.17,1407.5041" style="stroke: #A80036; stroke-width: 1.0;"/><path d="M1040.46,1403.5581 C1018.51,1423.3821 992.038,1447.2841 972.881,1464.5831 " fill="none" style="stroke: #A80036; stroke-width: 1.0;"/><polygon fill="none" points="1035.95,1398.2051,1055.48,1389.9971,1045.33,1408.5961,1035.95,1398.2051" style="stroke: #A80036; stroke-width: 1.0;"/><path d="M1068.71,1409.4381 C1063.35,1427.9611 1057.28,1448.9641 1052.76,1464.5831 " fill="none" style="stroke: #A80036; stroke-width: 1.0;"/><polygon fill="none" points="1062.05,1407.2641,1074.33,1389.9971,1075.5,1411.1541,1062.05,1407.2641" style="stroke: #A80036; stroke-width: 1.0;"/><path d="M1145,1526.1651 C1145,1546.9631 1145,1572.4731 1145,1590.6231 " fill="none" style="stroke: #A80036; stroke-width: 1.0;"/><polygon fill="#A80036" points="1145,1512.9861,1141,1518.9861,1145,1524.9861,1149,1518.9861,1145,1512.9861" style="stroke: #A80036; stroke-width: 1.0;"/><path d="M1145,1652.428 C1145,1668.4308 1145,1686.7366 1145,1700.8227 " fill="none" style="stroke: #A80036; stroke-width: 1.0;"/><polygon fill="#A80036" points="1145,1639.1221,1141,1645.1221,1145,1651.1221,1149,1645.1221,1145,1639.1221" style="stroke: #A80036; stroke-width: 1.0;"/><path d="M1458.56,1523.6421 C1453.93,1529.7921 1449.53,1536.3571 1446,1542.9531 C1437.97,1557.9741 1432.37,1576.3821 1428.83,1590.6891 " fill="none" style="stroke: #A80036; stroke-width: 1.0;"/><polygon fill="#A80036" points="1467,1513.1071,1460.1261,1515.2865,1459.494,1522.4698,1466.3679,1520.2905,1467,1513.1071" style="stroke: #A80036; stroke-width: 1.0;"/><path d="M1519.11,1523.3631 C1524.3,1529.6941 1529.48,1536.3931 1534,1542.9531 C1544.53,1558.2421 1554.57,1576.6411 1561.83,1590.8781 " fill="none" style="stroke: #A80036; stroke-width: 1.0;"/><polygon fill="#A80036" points="1510.45,1513.1461,1511.2722,1520.3102,1518.2015,1522.3066,1517.3792,1515.1425,1510.45,1513.1461" style="stroke: #A80036; stroke-width: 1.0;"/><text fill="#000000" font-family="sans-serif" font-size="13" lengthAdjust="spacingAndGlyphs" textLength="28" x="1549" y="1556.02">_pat</text><path d="M1477.34,1525.9121 C1475.56,1537.7261 1475.99,1550.4981 1482,1560.9531 C1490.11,1575.0601 1503.58,1585.7641 1517.7,1593.7261 " fill="none" style="stroke: #A80036; stroke-width: 1.0;"/><polygon fill="#A80036" points="1480.11,1513.1551,1474.9287,1518.1705,1477.5654,1524.8822,1482.7467,1519.8669,1480.11,1513.1551" style="stroke: #A80036; stroke-width: 1.0;"/><text fill="#000000" font-family="sans-serif" font-size="13" lengthAdjust="spacingAndGlyphs" textLength="33" x="1487" y="1556.02">_pmt</text><path d="M1489,1252.2291 C1489,1281.2391 1489,1318.3011 1489,1341.8401 " fill="none" style="stroke: #A80036; stroke-width: 1.0;"/><polygon fill="none" points="1482,1251.9711,1489,1231.9711,1496,1251.9711,1482,1251.9711" style="stroke: #A80036; stroke-width: 1.0;"/><path d="M1489.87,1055.1921 C1489.7,1084.6911 1489.41,1135.9091 1489.21,1170.6001 " fill="none" style="stroke: #A80036; stroke-width: 1.0;"/><polygon fill="#A80036" points="1489.13,1183.8971,1493.1642,1177.9201,1489.1986,1171.8973,1485.1644,1177.8744,1489.13,1183.8971" style="stroke: #A80036; stroke-width: 1.0;"/><path d="M1489,1389.9971 C1489,1405.3731 1489,1426.0721 1489,1444.4801 " fill="none" style="stroke: #A80036; stroke-width: 1.0;"/><polygon fill="none" points="1496,1444.5831,1489,1464.5831,1482,1444.5831,1496,1444.5831" style="stroke: #A80036; stroke-width: 1.0;"/></g></svg>