<?xml version="1.0" encoding="UTF-8" standalone="yes"?><svg xmlns="http://www.w3.org/2000/svg" xmlns:xlink="http://www.w3.org/1999/xlink" height="1561px" style="width:1819px;height:1561px;" version="1.1" viewBox="0 0 1819 1561" width="1819px"><defs><filter height="300%" id="f1" width="300%" x="-1" y="-1"><feGaussianBlur result="blurOut" stdDeviation="2.0"/><feColorMatrix in="blurOut" result="blurOut2" type="matrix" values="0 0 0 0 0 0 0 0 0 0 0 0 0 0 0 0 0 0 .4 0"/><feOffset dx="4.0" dy="4.0" in="blurOut2" result="blurOut3"/><feBlend in="SourceGraphic" in2="blurOut3" mode="normal"/></filter></defs><g><text fill="#000000" font-family="sans-serif" font-size="18" lengthAdjust="spacingAndGlyphs" textLength="45" x="891.5" y="16.708">SatPI</text><rect fill="#FEFECE" filter="url(#f1)" height="73.6094" style="stroke: #A80036; stroke-width: 1.5;" width="82" x="539" y="28.9531"/><ellipse cx="562.1" cy="44.9531" fill="#ADD1B2" rx="11" ry="11" style="stroke: #A80036; stroke-width: 1.0;"/><path d="M565.0688,50.5938 Q564.4906,50.8906 563.85,51.0391 Q563.2094,51.1875 562.5063,51.1875 Q560.0063,51.1875 558.6859,49.5391 Q557.3656,47.8906 557.3656,44.7656 Q557.3656,41.6406 558.6859,39.9844 Q560.0063,38.3281 562.5063,38.3281 Q563.2094,38.3281 563.8578,38.4844 Q564.5063,38.6406 565.0688,38.9375 L565.0688,41.6563 Q564.4438,41.0781 563.85,40.8047 Q563.2563,40.5313 562.6313,40.5313 Q561.2875,40.5313 560.6,41.6016 Q559.9125,42.6719 559.9125,44.7656 Q559.9125,46.8594 560.6,47.9297 Q561.2875,49 562.6313,49 Q563.2563,49 563.85,48.7266 Q564.4438,48.4531 565.0688,47.875 L565.0688,50.5938 Z "/><text fill="#000000" font-family="sans-serif" font-size="12" lengthAdjust="spacingAndGlyphs" textLength="32" x="577.9" y="49.1074">SatPI</text><line style="stroke: #A80036; stroke-width: 1.5;" x1="540" x2="620" y1="60.9531" y2="60.9531"/><text fill="#000000" font-family="sans-serif" font-size="11" lengthAdjust="spacingAndGlyphs" textLength="59" x="545" y="75.1636">Properties</text><text fill="#000000" font-family="sans-serif" font-size="11" lengthAdjust="spacingAndGlyphs" textLength="70" x="545" y="87.9683">InterfaceAttr</text><line style="stroke: #A80036; stroke-width: 1.5;" x1="540" x2="620" y1="94.5625" y2="94.5625"/><rect fill="#FEFECE" filter="url(#f1)" height="60.8047" style="stroke: #A80036; stroke-width: 1.5;" width="132" x="411" y="522.4531"/><ellipse cx="426" cy="538.4531" fill="#ADD1B2" rx="11" ry="11" style="stroke: #A80036; stroke-width: 1.0;"/><path d="M428.9688,544.0938 Q428.3906,544.3906 427.75,544.5391 Q427.1094,544.6875 426.4063,544.6875 Q423.9063,544.6875 422.5859,543.0391 Q421.2656,541.3906 421.2656,538.2656 Q421.2656,535.1406 422.5859,533.4844 Q423.9063,531.8281 426.4063,531.8281 Q427.1094,531.8281 427.7578,531.9844 Q428.4063,532.1406 428.9688,532.4375 L428.9688,535.1563 Q428.3438,534.5781 427.75,534.3047 Q427.1563,534.0313 426.5313,534.0313 Q425.1875,534.0313 424.5,535.1016 Q423.8125,536.1719 423.8125,538.2656 Q423.8125,540.3594 424.5,541.4297 Q425.1875,542.5 426.5313,542.5 Q427.1563,542.5 427.75,542.2266 Q428.3438,541.9531 428.9688,541.375 L428.9688,544.0938 Z "/><text fill="#000000" font-family="sans-serif" font-size="12" lengthAdjust="spacingAndGlyphs" textLength="100" x="440" y="542.6074">StreamManager</text><line style="stroke: #A80036; stroke-width: 1.5;" x1="412" x2="542" y1="554.4531" y2="554.4531"/><text fill="#000000" font-family="sans-serif" font-size="11" lengthAdjust="spacingAndGlyphs" textLength="33" x="417" y="568.6636">Mutex</text><line style="stroke: #A80036; stroke-width: 1.5;" x1="412" x2="542" y1="575.2578" y2="575.2578"/><rect fill="#FEFECE" filter="url(#f1)" height="48" style="stroke: #A80036; stroke-width: 1.5;" width="100" x="804" y="164.9531"/><ellipse cx="819" cy="180.9531" fill="#ADD1B2" rx="11" ry="11" style="stroke: #A80036; stroke-width: 1.0;"/><path d="M821.9688,186.5938 Q821.3906,186.8906 820.75,187.0391 Q820.1094,187.1875 819.4063,187.1875 Q816.9063,187.1875 815.5859,185.5391 Q814.2656,183.8906 814.2656,180.7656 Q814.2656,177.6406 815.5859,175.9844 Q816.9063,174.3281 819.4063,174.3281 Q820.1094,174.3281 820.7578,174.4844 Q821.4063,174.6406 821.9688,174.9375 L821.9688,177.6563 Q821.3438,177.0781 820.75,176.8047 Q820.1563,176.5313 819.5313,176.5313 Q818.1875,176.5313 817.5,177.6016 Q816.8125,178.6719 816.8125,180.7656 Q816.8125,182.8594 817.5,183.9297 Q818.1875,185 819.5313,185 Q820.1563,185 820.75,184.7266 Q821.3438,184.4531 821.9688,183.875 L821.9688,186.5938 Z "/><text fill="#000000" font-family="sans-serif" font-size="12" lengthAdjust="spacingAndGlyphs" textLength="68" x="833" y="185.1074">RtspServer</text><line style="stroke: #A80036; stroke-width: 1.5;" x1="805" x2="903" y1="196.9531" y2="196.9531"/><line style="stroke: #A80036; stroke-width: 1.5;" x1="805" x2="903" y1="204.9531" y2="204.9531"/><rect fill="#FEFECE" filter="url(#f1)" height="48" style="stroke: #A80036; stroke-width: 1.5;" width="99" x="669.75" y="164.9531"/><ellipse cx="684.75" cy="180.9531" fill="#ADD1B2" rx="11" ry="11" style="stroke: #A80036; stroke-width: 1.0;"/><path d="M687.7188,186.5938 Q687.1406,186.8906 686.5,187.0391 Q685.8594,187.1875 685.1563,187.1875 Q682.6563,187.1875 681.3359,185.5391 Q680.0156,183.8906 680.0156,180.7656 Q680.0156,177.6406 681.3359,175.9844 Q682.6563,174.3281 685.1563,174.3281 Q685.8594,174.3281 686.5078,174.4844 Q687.1563,174.6406 687.7188,174.9375 L687.7188,177.6563 Q687.0938,177.0781 686.5,176.8047 Q685.9063,176.5313 685.2813,176.5313 Q683.9375,176.5313 683.25,177.6016 Q682.5625,178.6719 682.5625,180.7656 Q682.5625,182.8594 683.25,183.9297 Q683.9375,185 685.2813,185 Q685.9063,185 686.5,184.7266 Q687.0938,184.4531 687.7188,183.875 L687.7188,186.5938 Z "/><text fill="#000000" font-family="sans-serif" font-size="12" lengthAdjust="spacingAndGlyphs" textLength="67" x="698.75" y="185.1074">HttpServer</text><line style="stroke: #A80036; stroke-width: 1.5;" x1="670.75" x2="767.75" y1="196.9531" y2="196.9531"/><line style="stroke: #A80036; stroke-width: 1.5;" x1="670.75" x2="767.75" y1="204.9531" y2="204.9531"/><rect fill="#FEFECE" filter="url(#f1)" height="48" style="stroke: #A80036; stroke-width: 1.5;" width="103" x="338.75" y="242.9531"/><ellipse cx="353.75" cy="258.9531" fill="#ADD1B2" rx="11" ry="11" style="stroke: #A80036; stroke-width: 1.0;"/><path d="M356.7188,264.5938 Q356.1406,264.8906 355.5,265.0391 Q354.8594,265.1875 354.1563,265.1875 Q351.6563,265.1875 350.3359,263.5391 Q349.0156,261.8906 349.0156,258.7656 Q349.0156,255.6406 350.3359,253.9844 Q351.6563,252.3281 354.1563,252.3281 Q354.8594,252.3281 355.5078,252.4844 Q356.1563,252.6406 356.7188,252.9375 L356.7188,255.6563 Q356.0938,255.0781 355.5,254.8047 Q354.9063,254.5313 354.2813,254.5313 Q352.9375,254.5313 352.25,255.6016 Q351.5625,256.6719 351.5625,258.7656 Q351.5625,260.8594 352.25,261.9297 Q352.9375,263 354.2813,263 Q354.9063,263 355.5,262.7266 Q356.0938,262.4531 356.7188,261.875 L356.7188,264.5938 Z "/><text fill="#000000" font-family="sans-serif" font-size="12" lengthAdjust="spacingAndGlyphs" textLength="71" x="367.75" y="263.1074">SsdpServer</text><line style="stroke: #A80036; stroke-width: 1.5;" x1="339.75" x2="440.75" y1="274.9531" y2="274.9531"/><line style="stroke: #A80036; stroke-width: 1.5;" x1="339.75" x2="440.75" y1="282.9531" y2="282.9531"/><rect fill="#FEFECE" filter="url(#f1)" height="48" style="stroke: #A80036; stroke-width: 1.5;" width="97" x="598.75" y="320.9531"/><ellipse cx="613.75" cy="336.9531" fill="#ADD1B2" rx="11" ry="11" style="stroke: #A80036; stroke-width: 1.0;"/><path d="M616.7188,342.5938 Q616.1406,342.8906 615.5,343.0391 Q614.8594,343.1875 614.1563,343.1875 Q611.6563,343.1875 610.3359,341.5391 Q609.0156,339.8906 609.0156,336.7656 Q609.0156,333.6406 610.3359,331.9844 Q611.6563,330.3281 614.1563,330.3281 Q614.8594,330.3281 615.5078,330.4844 Q616.1563,330.6406 616.7188,330.9375 L616.7188,333.6563 Q616.0938,333.0781 615.5,332.8047 Q614.9063,332.5313 614.2813,332.5313 Q612.9375,332.5313 612.25,333.6016 Q611.5625,334.6719 611.5625,336.7656 Q611.5625,338.8594 612.25,339.9297 Q612.9375,341 614.2813,341 Q614.9063,341 615.5,340.7266 Q616.0938,340.4531 616.7188,339.875 L616.7188,342.5938 Z "/><text fill="#000000" font-family="sans-serif" font-size="12" lengthAdjust="spacingAndGlyphs" textLength="65" x="627.75" y="341.1074">Properties</text><line style="stroke: #A80036; stroke-width: 1.5;" x1="599.75" x2="694.75" y1="352.9531" y2="352.9531"/><line style="stroke: #A80036; stroke-width: 1.5;" x1="599.75" x2="694.75" y1="360.9531" y2="360.9531"/><rect fill="#FEFECE" filter="url(#f1)" height="60.8047" style="stroke: #A80036; stroke-width: 1.5;" width="111" x="578.75" y="522.4531"/><ellipse cx="593.75" cy="538.4531" fill="#ADD1B2" rx="11" ry="11" style="stroke: #A80036; stroke-width: 1.0;"/><path d="M596.7188,544.0938 Q596.1406,544.3906 595.5,544.5391 Q594.8594,544.6875 594.1563,544.6875 Q591.6563,544.6875 590.3359,543.0391 Q589.0156,541.3906 589.0156,538.2656 Q589.0156,535.1406 590.3359,533.4844 Q591.6563,531.8281 594.1563,531.8281 Q594.8594,531.8281 595.5078,531.9844 Q596.1563,532.1406 596.7188,532.4375 L596.7188,535.1563 Q596.0938,534.5781 595.5,534.3047 Q594.9063,534.0313 594.2813,534.0313 Q592.9375,534.0313 592.25,535.1016 Q591.5625,536.1719 591.5625,538.2656 Q591.5625,540.3594 592.25,541.4297 Q592.9375,542.5 594.2813,542.5 Q594.9063,542.5 595.5,542.2266 Q596.0938,541.9531 596.7188,541.375 L596.7188,544.0938 Z "/><text fill="#000000" font-family="sans-serif" font-size="12" lengthAdjust="spacingAndGlyphs" textLength="79" x="607.75" y="542.6074">InterfaceAttr</text><line style="stroke: #A80036; stroke-width: 1.5;" x1="579.75" x2="688.75" y1="554.4531" y2="554.4531"/><text fill="#000000" font-family="sans-serif" font-size="11" lengthAdjust="spacingAndGlyphs" textLength="50" x="584.75" y="568.6636">Eth0 etc.</text><line style="stroke: #A80036; stroke-width: 1.5;" x1="579.75" x2="688.75" y1="575.2578" y2="575.2578"/><rect fill="#FEFECE" filter="url(#f1)" height="73.6094" style="stroke: #A80036; stroke-width: 1.5;" width="159" x="569.75" y="693.9531"/><ellipse cx="584.75" cy="709.9531" fill="#ADD1B2" rx="11" ry="11" style="stroke: #A80036; stroke-width: 1.0;"/><path d="M587.7188,715.5938 Q587.1406,715.8906 586.5,716.0391 Q585.8594,716.1875 585.1563,716.1875 Q582.6563,716.1875 581.3359,714.5391 Q580.0156,712.8906 580.0156,709.7656 Q580.0156,706.6406 581.3359,704.9844 Q582.6563,703.3281 585.1563,703.3281 Q585.8594,703.3281 586.5078,703.4844 Q587.1563,703.6406 587.7188,703.9375 L587.7188,706.6563 Q587.0938,706.0781 586.5,705.8047 Q585.9063,705.5313 585.2813,705.5313 Q583.9375,705.5313 583.25,706.6016 Q582.5625,707.6719 582.5625,709.7656 Q582.5625,711.8594 583.25,712.9297 Q583.9375,714 585.2813,714 Q585.9063,714 586.5,713.7266 Q587.0938,713.4531 587.7188,712.875 L587.7188,715.5938 Z "/><text fill="#000000" font-family="sans-serif" font-size="12" lengthAdjust="spacingAndGlyphs" textLength="127" x="598.75" y="714.1074">socket::HttpcSocket</text><line style="stroke: #A80036; stroke-width: 1.5;" x1="570.75" x2="727.75" y1="725.9531" y2="725.9531"/><line style="stroke: #A80036; stroke-width: 1.5;" x1="570.75" x2="727.75" y1="733.9531" y2="733.9531"/><text fill="#000000" font-family="sans-serif" font-size="11" lengthAdjust="spacingAndGlyphs" textLength="120" x="575.75" y="748.1636">recvHttpcMessage(..)</text><text fill="#000000" font-family="sans-serif" font-size="11" lengthAdjust="spacingAndGlyphs" textLength="147" x="575.75" y="760.9683">recvfromHttpcMessage(..)</text><rect fill="#FEFECE" filter="url(#f1)" height="86.4141" style="stroke: #A80036; stroke-width: 1.5;" width="161" x="878.75" y="810.9531"/><ellipse cx="894.2" cy="826.9531" fill="#ADD1B2" rx="11" ry="11" style="stroke: #A80036; stroke-width: 1.0;"/><path d="M897.1688,832.5938 Q896.5906,832.8906 895.95,833.0391 Q895.3094,833.1875 894.6063,833.1875 Q892.1063,833.1875 890.7859,831.5391 Q889.4656,829.8906 889.4656,826.7656 Q889.4656,823.6406 890.7859,821.9844 Q892.1063,820.3281 894.6063,820.3281 Q895.3094,820.3281 895.9578,820.4844 Q896.6063,820.6406 897.1688,820.9375 L897.1688,823.6563 Q896.5438,823.0781 895.95,822.8047 Q895.3563,822.5313 894.7313,822.5313 Q893.3875,822.5313 892.7,823.6016 Q892.0125,824.6719 892.0125,826.7656 Q892.0125,828.8594 892.7,829.9297 Q893.3875,831 894.7313,831 Q895.3563,831 895.95,830.7266 Q896.5438,830.4531 897.1688,829.875 L897.1688,832.5938 Z "/><text fill="#000000" font-family="sans-serif" font-size="12" lengthAdjust="spacingAndGlyphs" textLength="128" x="908.3" y="831.1074">socket::SocketClient</text><line style="stroke: #A80036; stroke-width: 1.5;" x1="879.75" x2="1038.75" y1="842.9531" y2="842.9531"/><text fill="#000000" font-family="sans-serif" font-size="11" lengthAdjust="spacingAndGlyphs" textLength="94" x="884.75" y="857.1636">std::string _msg</text><text fill="#000000" font-family="sans-serif" font-size="11" lengthAdjust="spacingAndGlyphs" textLength="149" x="884.75" y="869.9683">std::string _protocolString</text><text fill="#000000" font-family="sans-serif" font-size="11" lengthAdjust="spacingAndGlyphs" textLength="125" x="884.75" y="882.7729">std::string _sessionID</text><line style="stroke: #A80036; stroke-width: 1.5;" x1="879.75" x2="1038.75" y1="889.3672" y2="889.3672"/><rect fill="#FEFECE" filter="url(#f1)" height="73.6094" style="stroke: #A80036; stroke-width: 1.5;" width="148" x="649" y="1116.9531"/><ellipse cx="664" cy="1132.9531" fill="#ADD1B2" rx="11" ry="11" style="stroke: #A80036; stroke-width: 1.0;"/><path d="M666.9688,1138.5938 Q666.3906,1138.8906 665.75,1139.0391 Q665.1094,1139.1875 664.4063,1139.1875 Q661.9063,1139.1875 660.5859,1137.5391 Q659.2656,1135.8906 659.2656,1132.7656 Q659.2656,1129.6406 660.5859,1127.9844 Q661.9063,1126.3281 664.4063,1126.3281 Q665.1094,1126.3281 665.7578,1126.4844 Q666.4063,1126.6406 666.9688,1126.9375 L666.9688,1129.6563 Q666.3438,1129.0781 665.75,1128.8047 Q665.1563,1128.5313 664.5313,1128.5313 Q663.1875,1128.5313 662.5,1129.6016 Q661.8125,1130.6719 661.8125,1132.7656 Q661.8125,1134.8594 662.5,1135.9297 Q663.1875,1137 664.5313,1137 Q665.1563,1137 665.75,1136.7266 Q666.3438,1136.4531 666.9688,1135.875 L666.9688,1138.5938 Z "/><text fill="#000000" font-family="sans-serif" font-size="12" lengthAdjust="spacingAndGlyphs" textLength="116" x="678" y="1137.1074">socket::SocketAttr</text><line style="stroke: #A80036; stroke-width: 1.5;" x1="650" x2="796" y1="1148.9531" y2="1148.9531"/><text fill="#000000" font-family="sans-serif" font-size="11" lengthAdjust="spacingAndGlyphs" textLength="17" x="655" y="1163.1636">_fd</text><text fill="#000000" font-family="sans-serif" font-size="11" lengthAdjust="spacingAndGlyphs" textLength="111" x="655" y="1175.9683">std::string _ip_addr</text><line style="stroke: #A80036; stroke-width: 1.5;" x1="650" x2="796" y1="1182.5625" y2="1182.5625"/><rect fill="#FEFECE" filter="url(#f1)" height="99.2188" style="stroke: #A80036; stroke-width: 1.5;" width="161" x="724.75" y="503.4531"/><ellipse cx="746.05" cy="519.4531" fill="#ADD1B2" rx="11" ry="11" style="stroke: #A80036; stroke-width: 1.0;"/><path d="M749.0188,525.0938 Q748.4406,525.3906 747.8,525.5391 Q747.1594,525.6875 746.4563,525.6875 Q743.9563,525.6875 742.6359,524.0391 Q741.3156,522.3906 741.3156,519.2656 Q741.3156,516.1406 742.6359,514.4844 Q743.9563,512.8281 746.4563,512.8281 Q747.1594,512.8281 747.8078,512.9844 Q748.4563,513.1406 749.0188,513.4375 L749.0188,516.1563 Q748.3938,515.5781 747.8,515.3047 Q747.2063,515.0313 746.5813,515.0313 Q745.2375,515.0313 744.55,516.1016 Q743.8625,517.1719 743.8625,519.2656 Q743.8625,521.3594 744.55,522.4297 Q745.2375,523.5 746.5813,523.5 Q747.2063,523.5 747.8,523.2266 Q748.3938,522.9531 749.0188,522.375 L749.0188,525.0938 Z "/><text fill="#000000" font-family="sans-serif" font-size="12" lengthAdjust="spacingAndGlyphs" textLength="115" x="761.45" y="523.6074">socket::TcpSocket</text><line style="stroke: #A80036; stroke-width: 1.5;" x1="725.75" x2="884.75" y1="535.4531" y2="535.4531"/><text fill="#000000" font-family="sans-serif" font-size="11" lengthAdjust="spacingAndGlyphs" textLength="149" x="730.75" y="549.6636">std::string _protocolString</text><line style="stroke: #A80036; stroke-width: 1.5;" x1="725.75" x2="884.75" y1="556.2578" y2="556.2578"/><text fill="#000000" font-family="sans-serif" font-size="11" lengthAdjust="spacingAndGlyphs" textLength="36" x="730.75" y="570.4683">poll(..)</text><text fill="#000000" font-family="sans-serif" font-size="11" lengthAdjust="spacingAndGlyphs" textLength="62" x="730.75" y="583.2729">process(..)</text><text fill="#000000" font-family="sans-serif" font-size="11" lengthAdjust="spacingAndGlyphs" textLength="109" x="730.75" y="596.0776">closeConnection(..)</text><rect fill="#FEFECE" filter="url(#f1)" height="73.6094" style="stroke: #A80036; stroke-width: 1.5;" width="173" x="275.75" y="398.9531"/><ellipse cx="301.1" cy="414.9531" fill="#ADD1B2" rx="11" ry="11" style="stroke: #A80036; stroke-width: 1.0;"/><path d="M304.0688,420.5938 Q303.4906,420.8906 302.85,421.0391 Q302.2094,421.1875 301.5063,421.1875 Q299.0063,421.1875 297.6859,419.5391 Q296.3656,417.8906 296.3656,414.7656 Q296.3656,411.6406 297.6859,409.9844 Q299.0063,408.3281 301.5063,408.3281 Q302.2094,408.3281 302.8578,408.4844 Q303.5063,408.6406 304.0688,408.9375 L304.0688,411.6563 Q303.4438,411.0781 302.85,410.8047 Q302.2563,410.5313 301.6313,410.5313 Q300.2875,410.5313 299.6,411.6016 Q298.9125,412.6719 298.9125,414.7656 Q298.9125,416.8594 299.6,417.9297 Q300.2875,419 301.6313,419 Q302.2563,419 302.85,418.7266 Q303.4438,418.4531 304.0688,417.875 L304.0688,420.5938 Z "/><text fill="#000000" font-family="sans-serif" font-size="12" lengthAdjust="spacingAndGlyphs" textLength="118" x="317.4" y="419.1074">socket::UdpSocket</text><line style="stroke: #A80036; stroke-width: 1.5;" x1="276.75" x2="447.75" y1="430.9531" y2="430.9531"/><line style="stroke: #A80036; stroke-width: 1.5;" x1="276.75" x2="447.75" y1="438.9531" y2="438.9531"/><text fill="#000000" font-family="sans-serif" font-size="11" lengthAdjust="spacingAndGlyphs" textLength="103" x="281.75" y="453.1636">init_udp_socket(..)</text><text fill="#000000" font-family="sans-serif" font-size="11" lengthAdjust="spacingAndGlyphs" textLength="161" x="281.75" y="465.9683">init_mutlicast_udp_socket(..)</text><rect fill="#FEFECE" filter="url(#f1)" height="48" style="stroke: #A80036; stroke-width: 1.5;" width="106" x="731.5" y="320.9531"/><ellipse cx="746.5" cy="336.9531" fill="#ADD1B2" rx="11" ry="11" style="stroke: #A80036; stroke-width: 1.0;"/><path d="M749.4688,342.5938 Q748.8906,342.8906 748.25,343.0391 Q747.6094,343.1875 746.9063,343.1875 Q744.4063,343.1875 743.0859,341.5391 Q741.7656,339.8906 741.7656,336.7656 Q741.7656,333.6406 743.0859,331.9844 Q744.4063,330.3281 746.9063,330.3281 Q747.6094,330.3281 748.2578,330.4844 Q748.9063,330.6406 749.4688,330.9375 L749.4688,333.6563 Q748.8438,333.0781 748.25,332.8047 Q747.6563,332.5313 747.0313,332.5313 Q745.6875,332.5313 745,333.6016 Q744.3125,334.6719 744.3125,336.7656 Q744.3125,338.8594 745,339.9297 Q745.6875,341 747.0313,341 Q747.6563,341 748.25,340.7266 Q748.8438,340.4531 749.4688,339.875 L749.4688,342.5938 Z "/><text fill="#000000" font-family="sans-serif" font-size="12" lengthAdjust="spacingAndGlyphs" textLength="74" x="760.5" y="341.1074">HttpcServer</text><line style="stroke: #A80036; stroke-width: 1.5;" x1="732.5" x2="836.5" y1="352.9531" y2="352.9531"/><line style="stroke: #A80036; stroke-width: 1.5;" x1="732.5" x2="836.5" y1="360.9531" y2="360.9531"/><rect fill="#FEFECE" filter="url(#f1)" height="99.2188" style="stroke: #A80036; stroke-width: 1.5;" width="98" x="437.5" y="681.4531"/><ellipse cx="461.95" cy="697.4531" fill="#ADD1B2" rx="11" ry="11" style="stroke: #A80036; stroke-width: 1.0;"/><path d="M464.9188,703.0938 Q464.3406,703.3906 463.7,703.5391 Q463.0594,703.6875 462.3563,703.6875 Q459.8563,703.6875 458.5359,702.0391 Q457.2156,700.3906 457.2156,697.2656 Q457.2156,694.1406 458.5359,692.4844 Q459.8563,690.8281 462.3563,690.8281 Q463.0594,690.8281 463.7078,690.9844 Q464.3563,691.1406 464.9188,691.4375 L464.9188,694.1563 Q464.2938,693.5781 463.7,693.3047 Q463.1063,693.0313 462.4813,693.0313 Q461.1375,693.0313 460.45,694.1016 Q459.7625,695.1719 459.7625,697.2656 Q459.7625,699.3594 460.45,700.4297 Q461.1375,701.5 462.4813,701.5 Q463.1063,701.5 463.7,701.2266 Q464.2938,700.9531 464.9188,700.375 L464.9188,703.0938 Z "/><text fill="#000000" font-family="sans-serif" font-size="12" lengthAdjust="spacingAndGlyphs" textLength="45" x="478.05" y="701.6074">Stream</text><line style="stroke: #A80036; stroke-width: 1.5;" x1="438.5" x2="534.5" y1="713.4531" y2="713.4531"/><text fill="#000000" font-family="sans-serif" font-size="11" lengthAdjust="spacingAndGlyphs" textLength="33" x="443.5" y="727.6636">Mutex</text><text fill="#000000" font-family="sans-serif" font-size="11" lengthAdjust="spacingAndGlyphs" textLength="73" x="443.5" y="740.4683">streamInUse</text><text fill="#000000" font-family="sans-serif" font-size="11" lengthAdjust="spacingAndGlyphs" textLength="45" x="443.5" y="753.2729">enabled</text><text fill="#000000" font-family="sans-serif" font-size="11" lengthAdjust="spacingAndGlyphs" textLength="86" x="443.5" y="766.0776">StreamingType</text><line style="stroke: #A80036; stroke-width: 1.5;" x1="438.5" x2="534.5" y1="772.6719" y2="772.6719"/><rect fill="#FEFECE" filter="url(#f1)" height="48" style="stroke: #A80036; stroke-width: 1.5;" width="133" x="306.75" y="1129.9531"/><ellipse cx="321.75" cy="1145.9531" fill="#ADD1B2" rx="11" ry="11" style="stroke: #A80036; stroke-width: 1.0;"/><path d="M324.7188,1151.5938 Q324.1406,1151.8906 323.5,1152.0391 Q322.8594,1152.1875 322.1563,1152.1875 Q319.6563,1152.1875 318.3359,1150.5391 Q317.0156,1148.8906 317.0156,1145.7656 Q317.0156,1142.6406 318.3359,1140.9844 Q319.6563,1139.3281 322.1563,1139.3281 Q322.8594,1139.3281 323.5078,1139.4844 Q324.1563,1139.6406 324.7188,1139.9375 L324.7188,1142.6563 Q324.0938,1142.0781 323.5,1141.8047 Q322.9063,1141.5313 322.2813,1141.5313 Q320.9375,1141.5313 320.25,1142.6016 Q319.5625,1143.6719 319.5625,1145.7656 Q319.5625,1147.8594 320.25,1148.9297 Q320.9375,1150 322.2813,1150 Q322.9063,1150 323.5,1149.7266 Q324.0938,1149.4531 324.7188,1148.875 L324.7188,1151.5938 Z "/><text fill="#000000" font-family="sans-serif" font-size="12" lengthAdjust="spacingAndGlyphs" textLength="101" x="335.75" y="1150.1074">StreamInterface</text><line style="stroke: #A80036; stroke-width: 1.5;" x1="307.75" x2="438.75" y1="1161.9531" y2="1161.9531"/><line style="stroke: #A80036; stroke-width: 1.5;" x1="307.75" x2="438.75" y1="1169.9531" y2="1169.9531"/><rect fill="#FEFECE" filter="url(#f1)" height="112.0234" style="stroke: #A80036; stroke-width: 1.5;" width="113" x="549.75" y="926.9531"/><ellipse cx="565.2" cy="942.9531" fill="#ADD1B2" rx="11" ry="11" style="stroke: #A80036; stroke-width: 1.0;"/><path d="M568.1688,948.5938 Q567.5906,948.8906 566.95,949.0391 Q566.3094,949.1875 565.6063,949.1875 Q563.1063,949.1875 561.7859,947.5391 Q560.4656,945.8906 560.4656,942.7656 Q560.4656,939.6406 561.7859,937.9844 Q563.1063,936.3281 565.6063,936.3281 Q566.3094,936.3281 566.9578,936.4844 Q567.6063,936.6406 568.1688,936.9375 L568.1688,939.6563 Q567.5438,939.0781 566.95,938.8047 Q566.3563,938.5313 565.7313,938.5313 Q564.3875,938.5313 563.7,939.6016 Q563.0125,940.6719 563.0125,942.7656 Q563.0125,944.8594 563.7,945.9297 Q564.3875,947 565.7313,947 Q566.3563,947 566.95,946.7266 Q567.5438,946.4531 568.1688,945.875 L568.1688,948.5938 Z "/><text fill="#000000" font-family="sans-serif" font-size="12" lengthAdjust="spacingAndGlyphs" textLength="80" x="579.3" y="947.1074">StreamClient</text><line style="stroke: #A80036; stroke-width: 1.5;" x1="550.75" x2="661.75" y1="958.9531" y2="958.9531"/><text fill="#000000" font-family="sans-serif" font-size="11" lengthAdjust="spacingAndGlyphs" textLength="33" x="555.75" y="973.1636">Mutex</text><text fill="#000000" font-family="sans-serif" font-size="11" lengthAdjust="spacingAndGlyphs" textLength="101" x="555.75" y="985.9683">const int *httpcFD</text><text fill="#000000" font-family="sans-serif" font-size="11" lengthAdjust="spacingAndGlyphs" textLength="54" x="555.75" y="998.7729">watchdog</text><text fill="#000000" font-family="sans-serif" font-size="11" lengthAdjust="spacingAndGlyphs" textLength="52" x="555.75" y="1011.5776">canClose</text><text fill="#000000" font-family="sans-serif" font-size="11" lengthAdjust="spacingAndGlyphs" textLength="27" x="555.75" y="1024.3823">cseq</text><line style="stroke: #A80036; stroke-width: 1.5;" x1="550.75" x2="661.75" y1="1030.9766" y2="1030.9766"/><rect fill="#FEFECE" filter="url(#f1)" height="48" style="stroke: #A80036; stroke-width: 1.5;" width="113" x="981.75" y="958.9531"/><ellipse cx="996.75" cy="974.9531" fill="#ADD1B2" rx="11" ry="11" style="stroke: #A80036; stroke-width: 1.0;"/><path d="M999.7188,980.5938 Q999.1406,980.8906 998.5,981.0391 Q997.8594,981.1875 997.1563,981.1875 Q994.6563,981.1875 993.3359,979.5391 Q992.0156,977.8906 992.0156,974.7656 Q992.0156,971.6406 993.3359,969.9844 Q994.6563,968.3281 997.1563,968.3281 Q997.8594,968.3281 998.5078,968.4844 Q999.1563,968.6406 999.7188,968.9375 L999.7188,971.6563 Q999.0938,971.0781 998.5,970.8047 Q997.9063,970.5313 997.2813,970.5313 Q995.9375,970.5313 995.25,971.6016 Q994.5625,972.6719 994.5625,974.7656 Q994.5625,976.8594 995.25,977.9297 Q995.9375,979 997.2813,979 Q997.9063,979 998.5,978.7266 Q999.0938,978.4531 999.7188,977.875 L999.7188,980.5938 Z "/><text fill="#000000" font-family="sans-serif" font-size="12" lengthAdjust="spacingAndGlyphs" textLength="81" x="1010.75" y="979.1074">input::Device</text><line style="stroke: #A80036; stroke-width: 1.5;" x1="982.75" x2="1093.75" y1="990.9531" y2="990.9531"/><line style="stroke: #A80036; stroke-width: 1.5;" x1="982.75" x2="1093.75" y1="998.9531" y2="998.9531"/><rect fill="#FEFECE" filter="url(#f1)" height="48" style="stroke: #A80036; stroke-width: 1.5;" width="152" x="132" y="958.9531"/><ellipse cx="147" cy="974.9531" fill="#ADD1B2" rx="11" ry="11" style="stroke: #A80036; stroke-width: 1.0;"/><path d="M149.9688,980.5938 Q149.3906,980.8906 148.75,981.0391 Q148.1094,981.1875 147.4063,981.1875 Q144.9063,981.1875 143.5859,979.5391 Q142.2656,977.8906 142.2656,974.7656 Q142.2656,971.6406 143.5859,969.9844 Q144.9063,968.3281 147.4063,968.3281 Q148.1094,968.3281 148.7578,968.4844 Q149.4063,968.6406 149.9688,968.9375 L149.9688,971.6563 Q149.3438,971.0781 148.75,970.8047 Q148.1563,970.5313 147.5313,970.5313 Q146.1875,970.5313 145.5,971.6016 Q144.8125,972.6719 144.8125,974.7656 Q144.8125,976.8594 145.5,977.9297 Q146.1875,979 147.5313,979 Q148.1563,979 148.75,978.7266 Q149.3438,978.4531 149.9688,977.875 L149.9688,980.5938 Z "/><text fill="#000000" font-family="sans-serif" font-size="12" lengthAdjust="spacingAndGlyphs" textLength="120" x="161" y="979.1074">StreamThreadBase</text><line style="stroke: #A80036; stroke-width: 1.5;" x1="133" x2="283" y1="990.9531" y2="990.9531"/><line style="stroke: #A80036; stroke-width: 1.5;" x1="133" x2="283" y1="998.9531" y2="998.9531"/><rect fill="#FEFECE" filter="url(#f1)" height="73.6094" style="stroke: #A80036; stroke-width: 1.5;" width="189" x="115.75" y="515.9531"/><ellipse cx="138.85" cy="531.9531" fill="#ADD1B2" rx="11" ry="11" style="stroke: #A80036; stroke-width: 1.0;"/><path d="M141.8188,537.5938 Q141.2406,537.8906 140.6,538.0391 Q139.9594,538.1875 139.2563,538.1875 Q136.7563,538.1875 135.4359,536.5391 Q134.1156,534.8906 134.1156,531.7656 Q134.1156,528.6406 135.4359,526.9844 Q136.7563,525.3281 139.2563,525.3281 Q139.9594,525.3281 140.6078,525.4844 Q141.2563,525.6406 141.8188,525.9375 L141.8188,528.6563 Q141.1938,528.0781 140.6,527.8047 Q140.0063,527.5313 139.3813,527.5313 Q138.0375,527.5313 137.35,528.6016 Q136.6625,529.6719 136.6625,531.7656 Q136.6625,533.8594 137.35,534.9297 Q138.0375,536 139.3813,536 Q140.0063,536 140.6,535.7266 Q141.1938,535.4531 141.8188,534.875 L141.8188,537.5938 Z "/><text fill="#000000" font-family="sans-serif" font-size="12" lengthAdjust="spacingAndGlyphs" textLength="139" x="154.65" y="536.1074">decrypt::dvbapi::Client</text><line style="stroke: #A80036; stroke-width: 1.5;" x1="116.75" x2="303.75" y1="547.9531" y2="547.9531"/><text fill="#000000" font-family="sans-serif" font-size="11" lengthAdjust="spacingAndGlyphs" textLength="33" x="121.75" y="562.1636">Mutex</text><line style="stroke: #A80036; stroke-width: 1.5;" x1="116.75" x2="303.75" y1="568.7578" y2="568.7578"/><text fill="#000000" font-family="sans-serif" font-size="11" lengthAdjust="spacingAndGlyphs" textLength="177" x="121.75" y="582.9683">getFrontendDecryptInterface(..)</text><rect fill="#FEFECE" filter="url(#f1)" height="48" style="stroke: #A80036; stroke-width: 1.5;" width="127" x="144.75" y="1129.9531"/><ellipse cx="159.75" cy="1145.9531" fill="#ADD1B2" rx="11" ry="11" style="stroke: #A80036; stroke-width: 1.0;"/><path d="M162.7188,1151.5938 Q162.1406,1151.8906 161.5,1152.0391 Q160.8594,1152.1875 160.1563,1152.1875 Q157.6563,1152.1875 156.3359,1150.5391 Q155.0156,1148.8906 155.0156,1145.7656 Q155.0156,1142.6406 156.3359,1140.9844 Q157.6563,1139.3281 160.1563,1139.3281 Q160.8594,1139.3281 161.5078,1139.4844 Q162.1563,1139.6406 162.7188,1139.9375 L162.7188,1142.6563 Q162.0938,1142.0781 161.5,1141.8047 Q160.9063,1141.5313 160.2813,1141.5313 Q158.9375,1141.5313 158.25,1142.6016 Q157.5625,1143.6719 157.5625,1145.7656 Q157.5625,1147.8594 158.25,1148.9297 Q158.9375,1150 160.2813,1150 Q160.9063,1150 161.5,1149.7266 Q162.0938,1149.4531 162.7188,1148.875 L162.7188,1151.5938 Z "/><text fill="#000000" font-family="sans-serif" font-size="12" lengthAdjust="spacingAndGlyphs" textLength="95" x="173.75" y="1150.1074">TSPacketBuffer</text><line style="stroke: #A80036; stroke-width: 1.5;" x1="145.75" x2="270.75" y1="1161.9531" y2="1161.9531"/><line style="stroke: #A80036; stroke-width: 1.5;" x1="145.75" x2="270.75" y1="1169.9531" y2="1169.9531"/><rect fill="#FEFECE" filter="url(#f1)" height="73.6094" style="stroke: #A80036; stroke-width: 1.5;" width="142" x="260" y="693.9531"/><ellipse cx="275" cy="709.9531" fill="#ADD1B2" rx="11" ry="11" style="stroke: #A80036; stroke-width: 1.0;"/><path d="M277.9688,715.5938 Q277.3906,715.8906 276.75,716.0391 Q276.1094,716.1875 275.4063,716.1875 Q272.9063,716.1875 271.5859,714.5391 Q270.2656,712.8906 270.2656,709.7656 Q270.2656,706.6406 271.5859,704.9844 Q272.9063,703.3281 275.4063,703.3281 Q276.1094,703.3281 276.7578,703.4844 Q277.4063,703.6406 277.9688,703.9375 L277.9688,706.6563 Q277.3438,706.0781 276.75,705.8047 Q276.1563,705.5313 275.5313,705.5313 Q274.1875,705.5313 273.5,706.6016 Q272.8125,707.6719 272.8125,709.7656 Q272.8125,711.8594 273.5,712.9297 Q274.1875,714 275.5313,714 Q276.1563,714 276.75,713.7266 Q277.3438,713.4531 277.9688,712.875 L277.9688,715.5938 Z "/><text fill="#000000" font-family="sans-serif" font-size="12" lengthAdjust="spacingAndGlyphs" textLength="110" x="289" y="714.1074">RtpStreamThread</text><line style="stroke: #A80036; stroke-width: 1.5;" x1="261" x2="401" y1="725.9531" y2="725.9531"/><text fill="#000000" font-family="sans-serif" font-size="11" lengthAdjust="spacingAndGlyphs" textLength="54" x="266" y="740.1636">socket_fd</text><text fill="#000000" font-family="sans-serif" font-size="11" lengthAdjust="spacingAndGlyphs" textLength="27" x="266" y="752.9683">cseq</text><line style="stroke: #A80036; stroke-width: 1.5;" x1="261" x2="401" y1="759.5625" y2="759.5625"/><rect fill="#FEFECE" filter="url(#f1)" height="60.8047" style="stroke: #A80036; stroke-width: 1.5;" width="104" x="320" y="952.4531"/><ellipse cx="335" cy="968.4531" fill="#ADD1B2" rx="11" ry="11" style="stroke: #A80036; stroke-width: 1.0;"/><path d="M337.9688,974.0938 Q337.3906,974.3906 336.75,974.5391 Q336.1094,974.6875 335.4063,974.6875 Q332.9063,974.6875 331.5859,973.0391 Q330.2656,971.3906 330.2656,968.2656 Q330.2656,965.1406 331.5859,963.4844 Q332.9063,961.8281 335.4063,961.8281 Q336.1094,961.8281 336.7578,961.9844 Q337.4063,962.1406 337.9688,962.4375 L337.9688,965.1563 Q337.3438,964.5781 336.75,964.3047 Q336.1563,964.0313 335.5313,964.0313 Q334.1875,964.0313 333.5,965.1016 Q332.8125,966.1719 332.8125,968.2656 Q332.8125,970.3594 333.5,971.4297 Q334.1875,972.5 335.5313,972.5 Q336.1563,972.5 336.75,972.2266 Q337.3438,971.9531 337.9688,971.375 L337.9688,974.0938 Z "/><text fill="#000000" font-family="sans-serif" font-size="12" lengthAdjust="spacingAndGlyphs" textLength="72" x="349" y="972.6074">RtcpThread</text><line style="stroke: #A80036; stroke-width: 1.5;" x1="321" x2="423" y1="984.4531" y2="984.4531"/><text fill="#000000" font-family="sans-serif" font-size="11" lengthAdjust="spacingAndGlyphs" textLength="54" x="326" y="998.6636">socket_fd</text><line style="stroke: #A80036; stroke-width: 1.5;" x1="321" x2="423" y1="1005.2578" y2="1005.2578"/><rect fill="#FEFECE" filter="url(#f1)" height="48" style="stroke: #A80036; stroke-width: 1.5;" width="148" x="6" y="706.9531"/><ellipse cx="21" cy="722.9531" fill="#ADD1B2" rx="11" ry="11" style="stroke: #A80036; stroke-width: 1.0;"/><path d="M23.9688,728.5938 Q23.3906,728.8906 22.75,729.0391 Q22.1094,729.1875 21.4063,729.1875 Q18.9063,729.1875 17.5859,727.5391 Q16.2656,725.8906 16.2656,722.7656 Q16.2656,719.6406 17.5859,717.9844 Q18.9063,716.3281 21.4063,716.3281 Q22.1094,716.3281 22.7578,716.4844 Q23.4063,716.6406 23.9688,716.9375 L23.9688,719.6563 Q23.3438,719.0781 22.75,718.8047 Q22.1563,718.5313 21.5313,718.5313 Q20.1875,718.5313 19.5,719.6016 Q18.8125,720.6719 18.8125,722.7656 Q18.8125,724.8594 19.5,725.9297 Q20.1875,727 21.5313,727 Q22.1563,727 22.75,726.7266 Q23.3438,726.4531 23.9688,725.875 L23.9688,728.5938 Z "/><text fill="#000000" font-family="sans-serif" font-size="12" lengthAdjust="spacingAndGlyphs" textLength="116" x="35" y="727.1074">HttpStreamThread</text><line style="stroke: #A80036; stroke-width: 1.5;" x1="7" x2="153" y1="738.9531" y2="738.9531"/><line style="stroke: #A80036; stroke-width: 1.5;" x1="7" x2="153" y1="746.9531" y2="746.9531"/><rect fill="#FEFECE" filter="url(#f1)" height="48" style="stroke: #A80036; stroke-width: 1.5;" width="158" x="984.5" y="706.9531"/><ellipse cx="999.5" cy="722.9531" fill="#ADD1B2" rx="11" ry="11" style="stroke: #A80036; stroke-width: 1.0;"/><path d="M1002.4688,728.5938 Q1001.8906,728.8906 1001.25,729.0391 Q1000.6094,729.1875 999.9063,729.1875 Q997.4063,729.1875 996.0859,727.5391 Q994.7656,725.8906 994.7656,722.7656 Q994.7656,719.6406 996.0859,717.9844 Q997.4063,716.3281 999.9063,716.3281 Q1000.6094,716.3281 1001.2578,716.4844 Q1001.9063,716.6406 1002.4688,716.9375 L1002.4688,719.6563 Q1001.8438,719.0781 1001.25,718.8047 Q1000.6563,718.5313 1000.0313,718.5313 Q998.6875,718.5313 998,719.6016 Q997.3125,720.6719 997.3125,722.7656 Q997.3125,724.8594 998,725.9297 Q998.6875,727 1000.0313,727 Q1000.6563,727 1001.25,726.7266 Q1001.8438,726.4531 1002.4688,725.875 L1002.4688,728.5938 Z "/><text fill="#000000" font-family="sans-serif" font-size="12" lengthAdjust="spacingAndGlyphs" textLength="126" x="1013.5" y="727.1074">input::file::TSReader</text><line style="stroke: #A80036; stroke-width: 1.5;" x1="985.5" x2="1141.5" y1="738.9531" y2="738.9531"/><line style="stroke: #A80036; stroke-width: 1.5;" x1="985.5" x2="1141.5" y1="746.9531" y2="746.9531"/><rect fill="#FEFECE" filter="url(#f1)" height="48" style="stroke: #A80036; stroke-width: 1.5;" width="159" x="958.75" y="1129.9531"/><ellipse cx="973.75" cy="1145.9531" fill="#ADD1B2" rx="11" ry="11" style="stroke: #A80036; stroke-width: 1.0;"/><path d="M976.7188,1151.5938 Q976.1406,1151.8906 975.5,1152.0391 Q974.8594,1152.1875 974.1563,1152.1875 Q971.6563,1152.1875 970.3359,1150.5391 Q969.0156,1148.8906 969.0156,1145.7656 Q969.0156,1142.6406 970.3359,1140.9844 Q971.6563,1139.3281 974.1563,1139.3281 Q974.8594,1139.3281 975.5078,1139.4844 Q976.1563,1139.6406 976.7188,1139.9375 L976.7188,1142.6563 Q976.0938,1142.0781 975.5,1141.8047 Q974.9063,1141.5313 974.2813,1141.5313 Q972.9375,1141.5313 972.25,1142.6016 Q971.5625,1143.6719 971.5625,1145.7656 Q971.5625,1147.8594 972.25,1148.9297 Q972.9375,1150 974.2813,1150 Q974.9063,1150 975.5,1149.7266 Q976.0938,1149.4531 976.7188,1148.875 L976.7188,1151.5938 Z "/><text fill="#000000" font-family="sans-serif" font-size="12" lengthAdjust="spacingAndGlyphs" textLength="127" x="987.75" y="1150.1074">input::dvb::Frontend</text><line style="stroke: #A80036; stroke-width: 1.5;" x1="959.75" x2="1116.75" y1="1161.9531" y2="1161.9531"/><line style="stroke: #A80036; stroke-width: 1.5;" x1="959.75" x2="1116.75" y1="1169.9531" y2="1169.9531"/><rect fill="#FEFECE" filter="url(#f1)" height="48" style="stroke: #A80036; stroke-width: 1.5;" width="193" x="708.75" y="1268.9531"/><ellipse cx="723.75" cy="1284.9531" fill="#ADD1B2" rx="11" ry="11" style="stroke: #A80036; stroke-width: 1.0;"/><path d="M726.7188,1290.5938 Q726.1406,1290.8906 725.5,1291.0391 Q724.8594,1291.1875 724.1563,1291.1875 Q721.6563,1291.1875 720.3359,1289.5391 Q719.0156,1287.8906 719.0156,1284.7656 Q719.0156,1281.6406 720.3359,1279.9844 Q721.6563,1278.3281 724.1563,1278.3281 Q724.8594,1278.3281 725.5078,1278.4844 Q726.1563,1278.6406 726.7188,1278.9375 L726.7188,1281.6563 Q726.0938,1281.0781 725.5,1280.8047 Q724.9063,1280.5313 724.2813,1280.5313 Q722.9375,1280.5313 722.25,1281.6016 Q721.5625,1282.6719 721.5625,1284.7656 Q721.5625,1286.8594 722.25,1287.9297 Q722.9375,1289 724.2813,1289 Q724.9063,1289 725.5,1288.7266 Q726.0938,1288.4531 726.7188,1287.875 L726.7188,1290.5938 Z "/><text fill="#000000" font-family="sans-serif" font-size="12" lengthAdjust="spacingAndGlyphs" textLength="161" x="737.75" y="1289.1074">FrontendDecryptInterface</text><line style="stroke: #A80036; stroke-width: 1.5;" x1="709.75" x2="900.75" y1="1300.9531" y2="1300.9531"/><line style="stroke: #A80036; stroke-width: 1.5;" x1="709.75" x2="900.75" y1="1308.9531" y2="1308.9531"/><rect fill="#FEFECE" filter="url(#f1)" height="48" style="stroke: #A80036; stroke-width: 1.5;" width="202" x="937" y="1268.9531"/><ellipse cx="952" cy="1284.9531" fill="#ADD1B2" rx="11" ry="11" style="stroke: #A80036; stroke-width: 1.0;"/><path d="M954.9688,1290.5938 Q954.3906,1290.8906 953.75,1291.0391 Q953.1094,1291.1875 952.4063,1291.1875 Q949.9063,1291.1875 948.5859,1289.5391 Q947.2656,1287.8906 947.2656,1284.7656 Q947.2656,1281.6406 948.5859,1279.9844 Q949.9063,1278.3281 952.4063,1278.3281 Q953.1094,1278.3281 953.7578,1278.4844 Q954.4063,1278.6406 954.9688,1278.9375 L954.9688,1281.6563 Q954.3438,1281.0781 953.75,1280.8047 Q953.1563,1280.5313 952.5313,1280.5313 Q951.1875,1280.5313 950.5,1281.6016 Q949.8125,1282.6719 949.8125,1284.7656 Q949.8125,1286.8594 950.5,1287.9297 Q951.1875,1289 952.5313,1289 Q953.1563,1289 953.75,1288.7266 Q954.3438,1288.4531 954.9688,1287.875 L954.9688,1290.5938 Z "/><text fill="#000000" font-family="sans-serif" font-size="12" lengthAdjust="spacingAndGlyphs" textLength="170" x="966" y="1289.1074">input::dvb::delivery::System</text><line style="stroke: #A80036; stroke-width: 1.5;" x1="938" x2="1138" y1="1300.9531" y2="1300.9531"/><line style="stroke: #A80036; stroke-width: 1.5;" x1="938" x2="1138" y1="1308.9531" y2="1308.9531"/><rect fill="#FEFECE" filter="url(#f1)" height="48" style="stroke: #A80036; stroke-width: 1.5;" width="189" x="1299.75" y="1268.9531"/><ellipse cx="1314.75" cy="1284.9531" fill="#ADD1B2" rx="11" ry="11" style="stroke: #A80036; stroke-width: 1.0;"/><path d="M1317.7188,1290.5938 Q1317.1406,1290.8906 1316.5,1291.0391 Q1315.8594,1291.1875 1315.1563,1291.1875 Q1312.6563,1291.1875 1311.3359,1289.5391 Q1310.0156,1287.8906 1310.0156,1284.7656 Q1310.0156,1281.6406 1311.3359,1279.9844 Q1312.6563,1278.3281 1315.1563,1278.3281 Q1315.8594,1278.3281 1316.5078,1278.4844 Q1317.1563,1278.6406 1317.7188,1278.9375 L1317.7188,1281.6563 Q1317.0938,1281.0781 1316.5,1280.8047 Q1315.9063,1280.5313 1315.2813,1280.5313 Q1313.9375,1280.5313 1313.25,1281.6016 Q1312.5625,1282.6719 1312.5625,1284.7656 Q1312.5625,1286.8594 1313.25,1287.9297 Q1313.9375,1289 1315.2813,1289 Q1315.9063,1289 1316.5,1288.7266 Q1317.0938,1288.4531 1317.7188,1287.875 L1317.7188,1290.5938 Z "/><text fill="#000000" font-family="sans-serif" font-size="12" lengthAdjust="spacingAndGlyphs" textLength="157" x="1328.75" y="1289.1074">input::dvb::FrontendData</text><line style="stroke: #A80036; stroke-width: 1.5;" x1="1300.75" x2="1487.75" y1="1300.9531" y2="1300.9531"/><line style="stroke: #A80036; stroke-width: 1.5;" x1="1300.75" x2="1487.75" y1="1308.9531" y2="1308.9531"/><rect fill="#FEFECE" filter="url(#f1)" height="48" style="stroke: #A80036; stroke-width: 1.5;" width="65" x="1005.75" y="1378.9531"/><ellipse cx="1020.75" cy="1394.9531" fill="#ADD1B2" rx="11" ry="11" style="stroke: #A80036; stroke-width: 1.0;"/><path d="M1023.7188,1400.5938 Q1023.1406,1400.8906 1022.5,1401.0391 Q1021.8594,1401.1875 1021.1563,1401.1875 Q1018.6563,1401.1875 1017.3359,1399.5391 Q1016.0156,1397.8906 1016.0156,1394.7656 Q1016.0156,1391.6406 1017.3359,1389.9844 Q1018.6563,1388.3281 1021.1563,1388.3281 Q1021.8594,1388.3281 1022.5078,1388.4844 Q1023.1563,1388.6406 1023.7188,1388.9375 L1023.7188,1391.6563 Q1023.0938,1391.0781 1022.5,1390.8047 Q1021.9063,1390.5313 1021.2813,1390.5313 Q1019.9375,1390.5313 1019.25,1391.6016 Q1018.5625,1392.6719 1018.5625,1394.7656 Q1018.5625,1396.8594 1019.25,1397.9297 Q1019.9375,1399 1021.2813,1399 Q1021.9063,1399 1022.5,1398.7266 Q1023.0938,1398.4531 1023.7188,1397.875 L1023.7188,1400.5938 Z "/><text fill="#000000" font-family="sans-serif" font-size="12" lengthAdjust="spacingAndGlyphs" textLength="33" x="1034.75" y="1399.1074">DVBS</text><line style="stroke: #A80036; stroke-width: 1.5;" x1="1006.75" x2="1069.75" y1="1410.9531" y2="1410.9531"/><line style="stroke: #A80036; stroke-width: 1.5;" x1="1006.75" x2="1069.75" y1="1418.9531" y2="1418.9531"/><rect fill="#FEFECE" filter="url(#f1)" height="48" style="stroke: #A80036; stroke-width: 1.5;" width="65" x="1105.75" y="1378.9531"/><ellipse cx="1120.75" cy="1394.9531" fill="#ADD1B2" rx="11" ry="11" style="stroke: #A80036; stroke-width: 1.0;"/><path d="M1123.7188,1400.5938 Q1123.1406,1400.8906 1122.5,1401.0391 Q1121.8594,1401.1875 1121.1563,1401.1875 Q1118.6563,1401.1875 1117.3359,1399.5391 Q1116.0156,1397.8906 1116.0156,1394.7656 Q1116.0156,1391.6406 1117.3359,1389.9844 Q1118.6563,1388.3281 1121.1563,1388.3281 Q1121.8594,1388.3281 1122.5078,1388.4844 Q1123.1563,1388.6406 1123.7188,1388.9375 L1123.7188,1391.6563 Q1123.0938,1391.0781 1122.5,1390.8047 Q1121.9063,1390.5313 1121.2813,1390.5313 Q1119.9375,1390.5313 1119.25,1391.6016 Q1118.5625,1392.6719 1118.5625,1394.7656 Q1118.5625,1396.8594 1119.25,1397.9297 Q1119.9375,1399 1121.2813,1399 Q1121.9063,1399 1122.5,1398.7266 Q1123.0938,1398.4531 1123.7188,1397.875 L1123.7188,1400.5938 Z "/><text fill="#000000" font-family="sans-serif" font-size="12" lengthAdjust="spacingAndGlyphs" textLength="33" x="1134.75" y="1399.1074">DVBC</text><line style="stroke: #A80036; stroke-width: 1.5;" x1="1106.75" x2="1169.75" y1="1410.9531" y2="1410.9531"/><line style="stroke: #A80036; stroke-width: 1.5;" x1="1106.75" x2="1169.75" y1="1418.9531" y2="1418.9531"/><rect fill="#FEFECE" filter="url(#f1)" height="48" style="stroke: #A80036; stroke-width: 1.5;" width="64" x="808" y="1378.9531"/><ellipse cx="823" cy="1394.9531" fill="#ADD1B2" rx="11" ry="11" style="stroke: #A80036; stroke-width: 1.0;"/><path d="M825.9688,1400.5938 Q825.3906,1400.8906 824.75,1401.0391 Q824.1094,1401.1875 823.4063,1401.1875 Q820.9063,1401.1875 819.5859,1399.5391 Q818.2656,1397.8906 818.2656,1394.7656 Q818.2656,1391.6406 819.5859,1389.9844 Q820.9063,1388.3281 823.4063,1388.3281 Q824.1094,1388.3281 824.7578,1388.4844 Q825.4063,1388.6406 825.9688,1388.9375 L825.9688,1391.6563 Q825.3438,1391.0781 824.75,1390.8047 Q824.1563,1390.5313 823.5313,1390.5313 Q822.1875,1390.5313 821.5,1391.6016 Q820.8125,1392.6719 820.8125,1394.7656 Q820.8125,1396.8594 821.5,1397.9297 Q822.1875,1399 823.5313,1399 Q824.1563,1399 824.75,1398.7266 Q825.3438,1398.4531 825.9688,1397.875 L825.9688,1400.5938 Z "/><text fill="#000000" font-family="sans-serif" font-size="12" lengthAdjust="spacingAndGlyphs" textLength="32" x="837" y="1399.1074">DVBT</text><line style="stroke: #A80036; stroke-width: 1.5;" x1="809" x2="871" y1="1410.9531" y2="1410.9531"/><line style="stroke: #A80036; stroke-width: 1.5;" x1="809" x2="871" y1="1418.9531" y2="1418.9531"/><rect fill="#FEFECE" filter="url(#f1)" height="48" style="stroke: #A80036; stroke-width: 1.5;" width="63" x="907.75" y="1378.9531"/><ellipse cx="922.75" cy="1394.9531" fill="#ADD1B2" rx="11" ry="11" style="stroke: #A80036; stroke-width: 1.0;"/><path d="M925.7188,1400.5938 Q925.1406,1400.8906 924.5,1401.0391 Q923.8594,1401.1875 923.1563,1401.1875 Q920.6563,1401.1875 919.3359,1399.5391 Q918.0156,1397.8906 918.0156,1394.7656 Q918.0156,1391.6406 919.3359,1389.9844 Q920.6563,1388.3281 923.1563,1388.3281 Q923.8594,1388.3281 924.5078,1388.4844 Q925.1563,1388.6406 925.7188,1388.9375 L925.7188,1391.6563 Q925.0938,1391.0781 924.5,1390.8047 Q923.9063,1390.5313 923.2813,1390.5313 Q921.9375,1390.5313 921.25,1391.6016 Q920.5625,1392.6719 920.5625,1394.7656 Q920.5625,1396.8594 921.25,1397.9297 Q921.9375,1399 923.2813,1399 Q923.9063,1399 924.5,1398.7266 Q925.0938,1398.4531 925.7188,1397.875 L925.7188,1400.5938 Z "/><text fill="#000000" font-family="sans-serif" font-size="12" lengthAdjust="spacingAndGlyphs" textLength="31" x="936.75" y="1399.1074">ATSC</text><line style="stroke: #A80036; stroke-width: 1.5;" x1="908.75" x2="969.75" y1="1410.9531" y2="1410.9531"/><line style="stroke: #A80036; stroke-width: 1.5;" x1="908.75" x2="969.75" y1="1418.9531" y2="1418.9531"/><rect fill="#FEFECE" filter="url(#f1)" height="48" style="stroke: #A80036; stroke-width: 1.5;" width="65" x="950.75" y="1504.9531"/><ellipse cx="965.75" cy="1520.9531" fill="#ADD1B2" rx="11" ry="11" style="stroke: #A80036; stroke-width: 1.0;"/><path d="M968.7188,1526.5938 Q968.1406,1526.8906 967.5,1527.0391 Q966.8594,1527.1875 966.1563,1527.1875 Q963.6563,1527.1875 962.3359,1525.5391 Q961.0156,1523.8906 961.0156,1520.7656 Q961.0156,1517.6406 962.3359,1515.9844 Q963.6563,1514.3281 966.1563,1514.3281 Q966.8594,1514.3281 967.5078,1514.4844 Q968.1563,1514.6406 968.7188,1514.9375 L968.7188,1517.6563 Q968.0938,1517.0781 967.5,1516.8047 Q966.9063,1516.5313 966.2813,1516.5313 Q964.9375,1516.5313 964.25,1517.6016 Q963.5625,1518.6719 963.5625,1520.7656 Q963.5625,1522.8594 964.25,1523.9297 Q964.9375,1525 966.2813,1525 Q966.9063,1525 967.5,1524.7266 Q968.0938,1524.4531 968.7188,1523.875 L968.7188,1526.5938 Z "/><text fill="#000000" font-family="sans-serif" font-size="12" lengthAdjust="spacingAndGlyphs" textLength="33" x="979.75" y="1525.1074">Lnb_t</text><line style="stroke: #A80036; stroke-width: 1.5;" x1="951.75" x2="1014.75" y1="1536.9531" y2="1536.9531"/><line style="stroke: #A80036; stroke-width: 1.5;" x1="951.75" x2="1014.75" y1="1544.9531" y2="1544.9531"/><rect fill="#FEFECE" filter="url(#f1)" height="48" style="stroke: #A80036; stroke-width: 1.5;" width="86" x="1051" y="1504.9531"/><ellipse cx="1066" cy="1520.9531" fill="#ADD1B2" rx="11" ry="11" style="stroke: #A80036; stroke-width: 1.0;"/><path d="M1068.9688,1526.5938 Q1068.3906,1526.8906 1067.75,1527.0391 Q1067.1094,1527.1875 1066.4063,1527.1875 Q1063.9063,1527.1875 1062.5859,1525.5391 Q1061.2656,1523.8906 1061.2656,1520.7656 Q1061.2656,1517.6406 1062.5859,1515.9844 Q1063.9063,1514.3281 1066.4063,1514.3281 Q1067.1094,1514.3281 1067.7578,1514.4844 Q1068.4063,1514.6406 1068.9688,1514.9375 L1068.9688,1517.6563 Q1068.3438,1517.0781 1067.75,1516.8047 Q1067.1563,1516.5313 1066.5313,1516.5313 Q1065.1875,1516.5313 1064.5,1517.6016 Q1063.8125,1518.6719 1063.8125,1520.7656 Q1063.8125,1522.8594 1064.5,1523.9297 Q1065.1875,1525 1066.5313,1525 Q1067.1563,1525 1067.75,1524.7266 Q1068.3438,1524.4531 1068.9688,1523.875 L1068.9688,1526.5938 Z "/><text fill="#000000" font-family="sans-serif" font-size="12" lengthAdjust="spacingAndGlyphs" textLength="54" x="1080" y="1525.1074">DiSEqc_t</text><line style="stroke: #A80036; stroke-width: 1.5;" x1="1052" x2="1136" y1="1536.9531" y2="1536.9531"/><line style="stroke: #A80036; stroke-width: 1.5;" x1="1052" x2="1136" y1="1544.9531" y2="1544.9531"/><rect fill="#FEFECE" filter="url(#f1)" height="48" style="stroke: #A80036; stroke-width: 1.5;" width="236" x="1396" y="1378.9531"/><ellipse cx="1411" cy="1394.9531" fill="#ADD1B2" rx="11" ry="11" style="stroke: #A80036; stroke-width: 1.0;"/><path d="M1413.9688,1400.5938 Q1413.3906,1400.8906 1412.75,1401.0391 Q1412.1094,1401.1875 1411.4063,1401.1875 Q1408.9063,1401.1875 1407.5859,1399.5391 Q1406.2656,1397.8906 1406.2656,1394.7656 Q1406.2656,1391.6406 1407.5859,1389.9844 Q1408.9063,1388.3281 1411.4063,1388.3281 Q1412.1094,1388.3281 1412.7578,1388.4844 Q1413.4063,1388.6406 1413.9688,1388.9375 L1413.9688,1391.6563 Q1413.3438,1391.0781 1412.75,1390.8047 Q1412.1563,1390.5313 1411.5313,1390.5313 Q1410.1875,1390.5313 1409.5,1391.6016 Q1408.8125,1392.6719 1408.8125,1394.7656 Q1408.8125,1396.8594 1409.5,1397.9297 Q1410.1875,1399 1411.5313,1399 Q1412.1563,1399 1412.75,1398.7266 Q1413.3438,1398.4531 1413.9688,1397.875 L1413.9688,1400.5938 Z "/><text fill="#000000" font-family="sans-serif" font-size="12" lengthAdjust="spacingAndGlyphs" textLength="204" x="1425" y="1399.1074">decrypt::dvbapi::ClientProperties</text><line style="stroke: #A80036; stroke-width: 1.5;" x1="1397" x2="1631" y1="1410.9531" y2="1410.9531"/><line style="stroke: #A80036; stroke-width: 1.5;" x1="1397" x2="1631" y1="1418.9531" y2="1418.9531"/><rect fill="#FEFECE" filter="url(#f1)" height="48" style="stroke: #A80036; stroke-width: 1.5;" width="116" x="1386.5" y="1504.9531"/><ellipse cx="1401.5" cy="1520.9531" fill="#ADD1B2" rx="11" ry="11" style="stroke: #A80036; stroke-width: 1.0;"/><path d="M1404.4688,1526.5938 Q1403.8906,1526.8906 1403.25,1527.0391 Q1402.6094,1527.1875 1401.9063,1527.1875 Q1399.4063,1527.1875 1398.0859,1525.5391 Q1396.7656,1523.8906 1396.7656,1520.7656 Q1396.7656,1517.6406 1398.0859,1515.9844 Q1399.4063,1514.3281 1401.9063,1514.3281 Q1402.6094,1514.3281 1403.2578,1514.4844 Q1403.9063,1514.6406 1404.4688,1514.9375 L1404.4688,1517.6563 Q1403.8438,1517.0781 1403.25,1516.8047 Q1402.6563,1516.5313 1402.0313,1516.5313 Q1400.6875,1516.5313 1400,1517.6016 Q1399.3125,1518.6719 1399.3125,1520.7656 Q1399.3125,1522.8594 1400,1523.9297 Q1400.6875,1525 1402.0313,1525 Q1402.6563,1525 1403.25,1524.7266 Q1403.8438,1524.4531 1404.4688,1523.875 L1404.4688,1526.5938 Z "/><text fill="#000000" font-family="sans-serif" font-size="12" lengthAdjust="spacingAndGlyphs" textLength="84" x="1415.5" y="1525.1074">dvbcsa_key_s</text><line style="stroke: #A80036; stroke-width: 1.5;" x1="1387.5" x2="1501.5" y1="1536.9531" y2="1536.9531"/><line style="stroke: #A80036; stroke-width: 1.5;" x1="1387.5" x2="1501.5" y1="1544.9531" y2="1544.9531"/><rect fill="#FEFECE" filter="url(#f1)" height="48" style="stroke: #A80036; stroke-width: 1.5;" width="111" x="1537.75" y="1504.9531"/><ellipse cx="1552.75" cy="1520.9531" fill="#ADD1B2" rx="11" ry="11" style="stroke: #A80036; stroke-width: 1.0;"/><path d="M1555.7188,1526.5938 Q1555.1406,1526.8906 1554.5,1527.0391 Q1553.8594,1527.1875 1553.1563,1527.1875 Q1550.6563,1527.1875 1549.3359,1525.5391 Q1548.0156,1523.8906 1548.0156,1520.7656 Q1548.0156,1517.6406 1549.3359,1515.9844 Q1550.6563,1514.3281 1553.1563,1514.3281 Q1553.8594,1514.3281 1554.5078,1514.4844 Q1555.1563,1514.6406 1555.7188,1514.9375 L1555.7188,1517.6563 Q1555.0938,1517.0781 1554.5,1516.8047 Q1553.9063,1516.5313 1553.2813,1516.5313 Q1551.9375,1516.5313 1551.25,1517.6016 Q1550.5625,1518.6719 1550.5625,1520.7656 Q1550.5625,1522.8594 1551.25,1523.9297 Q1551.9375,1525 1553.2813,1525 Q1553.9063,1525 1554.5,1524.7266 Q1555.0938,1524.4531 1555.7188,1523.875 L1555.7188,1526.5938 Z "/><text fill="#000000" font-family="sans-serif" font-size="12" lengthAdjust="spacingAndGlyphs" textLength="79" x="1566.75" y="1525.1074">TSTableData</text><line style="stroke: #A80036; stroke-width: 1.5;" x1="1538.75" x2="1647.75" y1="1536.9531" y2="1536.9531"/><line style="stroke: #A80036; stroke-width: 1.5;" x1="1538.75" x2="1647.75" y1="1544.9531" y2="1544.9531"/><rect fill="#FEFECE" filter="url(#f1)" height="48" style="stroke: #A80036; stroke-width: 1.5;" width="143" x="1667.75" y="1378.9531"/><ellipse cx="1682.75" cy="1394.9531" fill="#ADD1B2" rx="11" ry="11" style="stroke: #A80036; stroke-width: 1.0;"/><path d="M1685.7188,1400.5938 Q1685.1406,1400.8906 1684.5,1401.0391 Q1683.8594,1401.1875 1683.1563,1401.1875 Q1680.6563,1401.1875 1679.3359,1399.5391 Q1678.0156,1397.8906 1678.0156,1394.7656 Q1678.0156,1391.6406 1679.3359,1389.9844 Q1680.6563,1388.3281 1683.1563,1388.3281 Q1683.8594,1388.3281 1684.5078,1388.4844 Q1685.1563,1388.6406 1685.7188,1388.9375 L1685.7188,1391.6563 Q1685.0938,1391.0781 1684.5,1390.8047 Q1683.9063,1390.5313 1683.2813,1390.5313 Q1681.9375,1390.5313 1681.25,1391.6016 Q1680.5625,1392.6719 1680.5625,1394.7656 Q1680.5625,1396.8594 1681.25,1397.9297 Q1681.9375,1399 1683.2813,1399 Q1683.9063,1399 1684.5,1398.7266 Q1685.0938,1398.4531 1685.7188,1397.875 L1685.7188,1400.5938 Z "/><text fill="#000000" font-family="sans-serif" font-size="12" lengthAdjust="spacingAndGlyphs" textLength="111" x="1696.75" y="1399.1074">input::DeviceData</text><line style="stroke: #A80036; stroke-width: 1.5;" x1="1668.75" x2="1809.75" y1="1410.9531" y2="1410.9531"/><line style="stroke: #A80036; stroke-width: 1.5;" x1="1668.75" x2="1809.75" y1="1418.9531" y2="1418.9531"/><rect fill="#FEFECE" filter="url(#f1)" height="48" style="stroke: #A80036; stroke-width: 1.5;" width="155" x="1205.75" y="1378.9531"/><ellipse cx="1220.75" cy="1394.9531" fill="#ADD1B2" rx="11" ry="11" style="stroke: #A80036; stroke-width: 1.0;"/><path d="M1223.7188,1400.5938 Q1223.1406,1400.8906 1222.5,1401.0391 Q1221.8594,1401.1875 1221.1563,1401.1875 Q1218.6563,1401.1875 1217.3359,1399.5391 Q1216.0156,1397.8906 1216.0156,1394.7656 Q1216.0156,1391.6406 1217.3359,1389.9844 Q1218.6563,1388.3281 1221.1563,1388.3281 Q1221.8594,1388.3281 1222.5078,1388.4844 Q1223.1563,1388.6406 1223.7188,1388.9375 L1223.7188,1391.6563 Q1223.0938,1391.0781 1222.5,1390.8047 Q1221.9063,1390.5313 1221.2813,1390.5313 Q1219.9375,1390.5313 1219.25,1391.6016 Q1218.5625,1392.6719 1218.5625,1394.7656 Q1218.5625,1396.8594 1219.25,1397.9297 Q1219.9375,1399 1221.2813,1399 Q1221.9063,1399 1222.5,1398.7266 Q1223.0938,1398.4531 1223.7188,1397.875 L1223.7188,1400.5938 Z "/><text fill="#000000" font-family="sans-serif" font-size="12" lengthAdjust="spacingAndGlyphs" textLength="123" x="1234.75" y="1399.1074">input::dvb::PidTable</text><line style="stroke: #A80036; stroke-width: 1.5;" x1="1206.75" x2="1359.75" y1="1410.9531" y2="1410.9531"/><line style="stroke: #A80036; stroke-width: 1.5;" x1="1206.75" x2="1359.75" y1="1418.9531" y2="1418.9531"/><path d="M559.048,115.1931 C552.862,130.8431 546.54,148.4331 542,164.9531 C506.079,295.6831 486.727,457.0231 479.89,522.3831 " fill="none" style="stroke: #A80036; stroke-width: 1.0;"/><polygon fill="#A80036" points="563.943,103.1231,557.9813,107.18,559.4332,114.2434,565.3949,110.1866,563.943,103.1231" style="stroke: #A80036; stroke-width: 1.0;"/><path d="M633.031,90.3731 C682.395,112.1731 755.435,144.4231 803.85,165.8031 " fill="none" style="stroke: #A80036; stroke-width: 1.0;"/><polygon fill="#A80036" points="621.021,85.0631,624.8953,91.145,631.9995,89.9079,628.1252,83.826,621.021,85.0631" style="stroke: #A80036; stroke-width: 1.0;"/><path d="M631.311,111.6231 C652.101,129.7131 675.227,149.8531 692.507,164.8931 " fill="none" style="stroke: #A80036; stroke-width: 1.0;"/><polygon fill="#A80036" points="621.328,102.9331,623.2253,109.8902,630.3769,110.8146,628.4796,103.8576,621.328,102.9331" style="stroke: #A80036; stroke-width: 1.0;"/><path d="M526.585,83.8231 C500.144,94.4131 469.391,110.4131 448,132.9531 C418.176,164.3831 402.246,213.6131 395.003,242.5431 " fill="none" style="stroke: #A80036; stroke-width: 1.0;"/><polygon fill="#A80036" points="538.769,79.1831,531.7394,77.5754,527.5517,83.446,534.5813,85.0537,538.769,79.1831" style="stroke: #A80036; stroke-width: 1.0;"/><path d="M591.89,116.1131 C606.45,176.3031 630.511,275.7831 641.372,320.6831 " fill="none" style="stroke: #A80036; stroke-width: 1.0;"/><polygon fill="#A80036" points="588.759,103.1631,586.2821,109.9355,591.5809,114.8266,594.0578,108.0542,588.759,103.1631" style="stroke: #A80036; stroke-width: 1.0;"/><path d="M566.986,115.8931 C548.667,194.1231 522.217,350.9131 567,472.9531 C573.815,491.5231 587.143,508.7231 600.13,522.2931 " fill="none" style="stroke: #A80036; stroke-width: 1.0;"/><polygon fill="#A80036" points="570.068,103.1331,564.7746,108.03,567.2588,114.7997,572.5523,109.9028,570.068,103.1331" style="stroke: #A80036; stroke-width: 1.0;"/><path d="M937.117,897.2861 C910.612,946.1911 862.665,1027.5371 808,1086.9531 C802.673,1092.7431 796.799,1098.4141 790.702,1103.8481 " fill="none" style="stroke: #A80036; stroke-width: 1.0;"/><polygon fill="none" points="795.089,1109.3041,775.27,1116.8021,786.087,1098.5821,795.089,1109.3041" style="stroke: #A80036; stroke-width: 1.0;"/><path d="M761.959,602.5121 C740.949,626.2161 715.672,654.7341 694.36,678.7771 " fill="none" style="stroke: #A80036; stroke-width: 1.0;"/><polygon fill="none" points="699.518,683.5121,681.013,693.8361,689.041,674.2251,699.518,683.5121" style="stroke: #A80036; stroke-width: 1.0;"/><path d="M799.661,615.8261 C790.538,715.5321 769.889,917.7011 739,1086.9531 C737.222,1096.6961 734.888,1107.1511 732.555,1116.8021 " fill="none" style="stroke: #A80036; stroke-width: 1.0;"/><polygon fill="#A80036" points="800.846,602.7401,796.3216,608.3553,799.7647,614.6913,804.2891,609.0762,800.846,602.7401" style="stroke: #A80036; stroke-width: 1.0;"/><text fill="#000000" font-family="sans-serif" font-size="13" lengthAdjust="spacingAndGlyphs" textLength="47" x="780" y="858.02">_server</text><path d="M836.067,614.2721 C866.072,672.5291 910.743,759.2601 937.166,810.5611 " fill="none" style="stroke: #A80036; stroke-width: 1.0;"/><polygon fill="#A80036" points="830.086,602.6581,829.2774,609.8238,835.5809,613.3261,836.3894,606.1605,830.086,602.6581" style="stroke: #A80036; stroke-width: 1.0;"/><text fill="#000000" font-family="sans-serif" font-size="13" lengthAdjust="spacingAndGlyphs" textLength="59" x="854" y="646.02">_client[..]</text><path d="M360.468,473.2631 C360.73,509.2731 366.119,564.5111 393,602.9531 C437.878,667.1321 479.416,649.1931 551,680.9531 C554.108,682.3321 557.26,683.7571 560.434,685.2161 " fill="none" style="stroke: #A80036; stroke-width: 1.0;"/><polygon fill="none" points="563.611,678.9741,578.712,693.8391,557.637,691.6361,563.611,678.9741" style="stroke: #A80036; stroke-width: 1.0;"/><path d="M386.107,291.1731 C382.328,313.7131 376.446,348.7931 371.438,378.6631 " fill="none" style="stroke: #A80036; stroke-width: 1.0;"/><polygon fill="none" points="378.279,380.1931,368.068,398.7631,364.472,377.8831,378.279,380.1931" style="stroke: #A80036; stroke-width: 1.0;"/><path d="M843.52,213.0131 C832.798,236.5931 815.906,273.7631 802.852,302.4731 " fill="none" style="stroke: #A80036; stroke-width: 1.0;"/><polygon fill="none" points="809.2,305.4331,794.551,320.7431,796.455,299.6331,809.2,305.4331" style="stroke: #A80036; stroke-width: 1.0;"/><path d="M728.731,213.0131 C738.64,236.4831 754.222,273.4031 766.319,302.0631 " fill="none" style="stroke: #A80036; stroke-width: 1.0;"/><polygon fill="none" points="772.874,299.5931,774.202,320.7431,759.976,305.0331,772.874,299.5931" style="stroke: #A80036; stroke-width: 1.0;"/><path d="M702.534,225.1731 C688.829,254.4831 669.707,295.3831 657.853,320.7431 " fill="none" style="stroke: #A80036; stroke-width: 1.0; stroke-dasharray: 7.0,7.0;"/><polygon fill="#A80036" points="708.221,213.0131,702.0542,216.7508,703.1325,223.8808,709.2993,220.1431,708.221,213.0131" style="stroke: #A80036; stroke-width: 1.0;"/><path d="M786.368,369.1831 C789.166,396.6331 793.949,443.5431 797.968,482.9731 " fill="none" style="stroke: #A80036; stroke-width: 1.0;"/><polygon fill="none" points="804.95,482.4431,800.015,503.0531,791.023,483.8631,804.95,482.4431" style="stroke: #A80036; stroke-width: 1.0;"/><path d="M718.861,366.8331 C716.547,367.5531 714.254,368.2631 712,368.9531 C666.824,382.8131 649.767,373.4331 610,398.9531 C559.796,431.1731 517.767,487.8031 495.097,522.3931 " fill="none" style="stroke: #A80036; stroke-width: 1.0; stroke-dasharray: 7.0,7.0;"/><polygon fill="#A80036" points="731.352,362.9231,724.4313,360.8973,719.8995,366.5065,726.8202,368.5323,731.352,362.9231" style="stroke: #A80036; stroke-width: 1.0;"/><text fill="#000000" font-family="sans-serif" font-size="13" lengthAdjust="spacingAndGlyphs" textLength="109" x="611" y="440.02">_streamManager</text><path d="M773.85,381.9031 C765.109,408.7331 750.623,445.3831 730,472.9531 C715.909,491.7931 696.414,508.9131 678.671,522.3631 " fill="none" style="stroke: #A80036; stroke-width: 1.0; stroke-dasharray: 7.0,7.0;"/><polygon fill="#A80036" points="777.79,369.2331,772.1899,373.7761,774.2295,380.6927,779.8296,376.1498,777.79,369.2331" style="stroke: #A80036; stroke-width: 1.0;"/><path d="M484.698,780.6871 C481.744,842.4481 472.136,951.4021 441,1038.9531 C431.636,1065.2831 415.885,1092.2491 401.899,1113.3391 " fill="none" style="stroke: #A80036; stroke-width: 1.0;"/><polygon fill="none" points="407.622,1117.3701,390.507,1129.8631,396.096,1109.4241,407.622,1117.3701" style="stroke: #A80036; stroke-width: 1.0;"/><path d="M515.048,792.4701 C534.689,833.3881 560.423,887.0001 579.504,926.7521 " fill="none" style="stroke: #A80036; stroke-width: 1.0;"/><polygon fill="#A80036" points="509.422,780.7491,508.4124,787.8892,514.6149,791.5674,515.6245,784.4273,509.422,780.7491" style="stroke: #A80036; stroke-width: 1.0;"/><text fill="#000000" font-family="sans-serif" font-size="13" lengthAdjust="spacingAndGlyphs" textLength="59" x="569" y="858.02">_client[..]</text><path d="M546.539,778.6261 C548.351,779.4601 550.172,780.2391 552,780.9531 C668.985,826.6641 729.49,739.8151 833,810.9531 C868.384,835.2711 846.837,866.3991 877,896.9531 C906.201,926.5321 947.884,948.1511 981.52,962.1831 " fill="none" style="stroke: #A80036; stroke-width: 1.0;"/><polygon fill="#A80036" points="534.788,772.4061,538.2198,778.7483,545.394,778.0197,541.9622,771.6776,534.788,772.4061" style="stroke: #A80036; stroke-width: 1.0;"/><path d="M427.563,784.5051 C367.738,838.3041 277.508,919.4461 233.693,958.8481 " fill="none" style="stroke: #A80036; stroke-width: 1.0;"/><polygon fill="#A80036" points="437.258,775.7861,430.1219,776.8236,428.335,783.8098,435.4711,782.7723,437.258,775.7861" style="stroke: #A80036; stroke-width: 1.0;"/><path d="M479.192,596.8241 C480.498,622.3511 482.158,654.8231 483.512,681.3071 " fill="none" style="stroke: #A80036; stroke-width: 1.0;"/><polygon fill="#A80036" points="478.527,583.8091,474.8381,590.0053,479.1389,595.7935,482.8277,589.5974,478.527,583.8091" style="stroke: #A80036; stroke-width: 1.0;"/><text fill="#000000" font-family="sans-serif" font-size="13" lengthAdjust="spacingAndGlyphs" textLength="71" x="487" y="646.02">_stream[..]</text><path d="M398.022,576.0751 C366.811,581.3741 335.6,582.1231 304.389,578.3211 " fill="none" style="stroke: #A80036; stroke-width: 1.0;"/><polygon fill="#A80036" points="410.922,573.6251,404.2813,570.8142,399.1325,575.863,405.7732,578.6739,410.922,573.6251" style="stroke: #A80036; stroke-width: 1.0;"/><path d="M304.389,527.5831 C339.9,523.2631 375.411,524.8231 410.922,532.2831 " fill="none" style="stroke: #A80036; stroke-width: 1.0; stroke-dasharray: 7.0,7.0;"/><path d="M669.371,1049.1291 C674.582,1055.6231 679.549,1062.2841 684,1068.9531 C693.908,1083.7971 702.556,1101.5611 709.174,1116.9221 " fill="none" style="stroke: #A80036; stroke-width: 1.0;"/><polygon fill="#A80036" points="661.018,1039.0871,661.7796,1046.2579,668.6916,1048.3129,667.9301,1041.1421,661.018,1039.0871" style="stroke: #A80036; stroke-width: 1.0;"/><text fill="#000000" font-family="sans-serif" font-size="13" lengthAdjust="spacingAndGlyphs" textLength="25" x="700" y="1082.02">_rtp</text><path d="M541.312,1038.2061 C529.961,1054.0081 524.886,1071.2441 536,1086.9531 C561.452,1122.9271 608.202,1139.4271 648.589,1146.9341 " fill="none" style="stroke: #A80036; stroke-width: 1.0;"/><polygon fill="#A80036" points="549.57,1028.0591,542.6803,1030.1879,541.9954,1037.3664,548.8852,1035.2376,549.57,1028.0591" style="stroke: #A80036; stroke-width: 1.0;"/><text fill="#000000" font-family="sans-serif" font-size="13" lengthAdjust="spacingAndGlyphs" textLength="32" x="541" y="1082.02">_rtcp</text><path d="M603.037,1052.2621 C604.93,1064.4711 608.578,1076.5881 615,1086.9531 C623.333,1100.4021 635.522,1111.5071 648.738,1120.5221 " fill="none" style="stroke: #A80036; stroke-width: 1.0; stroke-dasharray: 7.0,7.0;"/><polygon fill="#A80036" points="601.623,1039.0571,598.2847,1045.449,602.9008,1050.9889,606.2392,1044.5971,601.623,1039.0571" style="stroke: #A80036; stroke-width: 1.0;"/><text fill="#000000" font-family="sans-serif" font-size="13" lengthAdjust="spacingAndGlyphs" textLength="50" x="620" y="1082.02">httpcFD</text><path d="M208.169,945.7151 C208.547,864.9131 209.454,670.7691 209.831,590.0751 " fill="none" style="stroke: #A80036; stroke-width: 1.0; stroke-dasharray: 7.0,7.0;"/><polygon fill="#A80036" points="208.108,958.7761,212.1356,952.7947,208.1634,946.7763,204.1357,952.7577,208.108,958.7761" style="stroke: #A80036; stroke-width: 1.0;"/><path d="M208,1020.3131 C208,1053.5101 208,1101.5831 208,1129.8181 " fill="none" style="stroke: #A80036; stroke-width: 1.0;"/><polygon fill="#A80036" points="208,1007.0971,204,1013.0971,208,1019.0971,212,1013.0971,208,1007.0971" style="stroke: #A80036; stroke-width: 1.0;"/><text fill="#000000" font-family="sans-serif" font-size="13" lengthAdjust="spacingAndGlyphs" textLength="75" x="213" y="1082.02">_tsBuffer[..]</text><path d="M245.582,1015.8731 C263.223,1031.3701 284.227,1050.5761 302,1068.9531 C320.983,1088.5811 340.912,1112.4911 354.807,1129.7751 " fill="none" style="stroke: #A80036; stroke-width: 1.0; stroke-dasharray: 7.0,7.0;"/><polygon fill="#A80036" points="235.634,1007.2121,237.5328,1014.1688,244.6846,1015.0917,242.7858,1008.135,235.634,1007.2121" style="stroke: #A80036; stroke-width: 1.0;"/><path d="M313.246,768.0381 C290.676,813.9131 251.807,892.9141 228.149,941.0001 " fill="none" style="stroke: #A80036; stroke-width: 1.0;"/><polygon fill="none" points="234.429,944.0921,219.319,958.9471,221.867,937.9111,234.429,944.0921" style="stroke: #A80036; stroke-width: 1.0;"/><path d="M339.042,780.9891 C347.388,831.8811 360.173,909.8361 367.111,952.1411 " fill="none" style="stroke: #A80036; stroke-width: 1.0;"/><polygon fill="#A80036" points="336.918,768.0381,333.942,774.6065,338.8604,779.8799,341.8365,773.3115,336.918,768.0381" style="stroke: #A80036; stroke-width: 1.0;"/><path d="M372.255,1027.0551 C372.449,1059.8031 372.708,1103.5681 372.864,1129.9311 " fill="none" style="stroke: #A80036; stroke-width: 1.0; stroke-dasharray: 7.0,7.0;"/><polygon fill="#A80036" points="372.176,1013.7781,368.2117,1019.8018,372.2472,1025.7779,376.2115,1019.7543,372.176,1013.7781" style="stroke: #A80036; stroke-width: 1.0;"/><path d="M91.8125,755.0241 C113.482,797.3481 159.851,887.9121 187.003,940.9431 " fill="none" style="stroke: #A80036; stroke-width: 1.0;"/><polygon fill="none" points="193.332,937.9451,196.216,958.9371,180.87,944.3251,193.332,937.9451" style="stroke: #A80036; stroke-width: 1.0;"/><path d="M1060.69,755.0241 C1056.52,796.7901 1047.64,885.5311 1042.31,938.8251 " fill="none" style="stroke: #A80036; stroke-width: 1.0;"/><polygon fill="none" points="1049.26,939.7331,1040.3,958.9371,1035.33,938.3401,1049.26,939.7331" style="stroke: #A80036; stroke-width: 1.0;"/><path d="M1038,1027.1721 C1038,1059.8601 1038,1103.4741 1038,1129.8181 " fill="none" style="stroke: #A80036; stroke-width: 1.0;"/><polygon fill="none" points="1031,1027.0971,1038,1007.0971,1045,1027.0971,1031,1027.0971" style="stroke: #A80036; stroke-width: 1.0;"/><path d="M998.738,1178.0381 C961.259,1200.0751 904.37,1233.5251 861.921,1258.4841 " fill="none" style="stroke: #A80036; stroke-width: 1.0;"/><polygon fill="none" points="865.211,1264.6701,844.423,1268.7731,858.115,1252.6021,865.211,1264.6701" style="stroke: #A80036; stroke-width: 1.0;"/><path d="M1038,1191.3141 C1038,1215.8131 1038,1247.4041 1038,1268.5991 " fill="none" style="stroke: #A80036; stroke-width: 1.0;"/><polygon fill="#A80036" points="1038,1178.1931,1034,1184.1931,1038,1190.1931,1042,1184.1931,1038,1178.1931" style="stroke: #A80036; stroke-width: 1.0;"/><text fill="#000000" font-family="sans-serif" font-size="13" lengthAdjust="spacingAndGlyphs" textLength="123" x="1043" y="1234.02">_deliverySystem[..]</text><path d="M1110.33,1182.7891 C1176.21,1208.1421 1272.37,1245.1461 1334.06,1268.8881 " fill="none" style="stroke: #A80036; stroke-width: 1.0;"/><polygon fill="#A80036" points="1097.99,1178.0381,1102.1581,1183.9226,1109.193,1182.3384,1105.0249,1176.4539,1097.99,1178.0381" style="stroke: #A80036; stroke-width: 1.0;"/><path d="M1038,1337.3371 C1038,1351.5241 1038,1366.7281 1038,1378.8231 " fill="none" style="stroke: #A80036; stroke-width: 1.0;"/><polygon fill="none" points="1031,1337.1221,1038,1317.1221,1045,1337.1221,1031,1337.1221" style="stroke: #A80036; stroke-width: 1.0;"/><path d="M1073.13,1331.8891 C1087.61,1347.5361 1103.94,1365.1631 1116.58,1378.8231 " fill="none" style="stroke: #A80036; stroke-width: 1.0;"/><polygon fill="none" points="1067.9,1336.5531,1059.45,1317.1221,1078.18,1327.0411,1067.9,1336.5531" style="stroke: #A80036; stroke-width: 1.0;"/><path d="M977.671,1326.8601 C942.978,1345.7831 900.768,1368.8071 872.305,1384.3321 " fill="none" style="stroke: #A80036; stroke-width: 1.0;"/><polygon fill="none" points="974.614,1320.5541,995.524,1317.1221,981.318,1332.8441,974.614,1320.5541" style="stroke: #A80036; stroke-width: 1.0;"/><path d="M1003.225,1331.8891 C988.882,1347.5361 972.724,1365.1631 960.203,1378.8231 " fill="none" style="stroke: #A80036; stroke-width: 1.0;"/><polygon fill="none" points="998.087,1327.1351,1016.76,1317.1221,1008.41,1336.5951,998.087,1327.1351" style="stroke: #A80036; stroke-width: 1.0;"/><path d="M1022.47,1438.9761 C1013.15,1459.9844 1001.553,1486.1256 993.348,1504.6228 " fill="none" style="stroke: #A80036; stroke-width: 1.0;"/><polygon fill="#A80036" points="1027.78,1426.9861,1021.6913,1430.8498,1022.916,1437.9562,1029.0047,1434.0925,1027.78,1426.9861" style="stroke: #A80036; stroke-width: 1.0;"/><path d="M1053.82,1438.9761 C1063.3,1459.9844 1075.11,1486.1256 1083.46,1504.6228 " fill="none" style="stroke: #A80036; stroke-width: 1.0;"/><polygon fill="#A80036" points="1048.4,1426.9861,1047.2248,1434.1008,1053.3403,1437.922,1054.5154,1430.8073,1048.4,1426.9861" style="stroke: #A80036; stroke-width: 1.0;"/><path d="M1484.4,1437.1921 C1479.56,1443.5061 1474.86,1450.2441 1471,1456.9531 C1462.31,1472.0381 1455.41,1490.4434 1450.75,1504.7343 " fill="none" style="stroke: #A80036; stroke-width: 1.0;"/><polygon fill="#A80036" points="1492.59,1427.0461,1485.7107,1429.2084,1485.0608,1436.3901,1491.94,1434.2279,1492.59,1427.0461" style="stroke: #A80036; stroke-width: 1.0;"/><path d="M1505.32,1440.1841 C1504.34,1451.8841 1505.32,1464.5167 1511,1474.9531 C1517.65,1487.1612 1528.45,1496.9864 1540.06,1504.7025 " fill="none" style="stroke: #A80036; stroke-width: 1.0;"/><polygon fill="#A80036" points="1507.22,1427.0661,1502.4016,1432.4311,1505.5006,1438.9423,1510.319,1433.5774,1507.22,1427.0661" style="stroke: #A80036; stroke-width: 1.0;"/><text fill="#000000" font-family="sans-serif" font-size="13" lengthAdjust="spacingAndGlyphs" textLength="28" x="1516" y="1470.02">_pat</text><path d="M1540.77,1437.9331 C1545.35,1444.1491 1549.93,1450.6621 1554,1456.9531 C1564.01,1472.4197 1573.99,1490.649 1581.35,1504.7635 " fill="none" style="stroke: #A80036; stroke-width: 1.0;"/><polygon fill="#A80036" points="1532.67,1427.1741,1533.0842,1434.3733,1539.889,1436.7599,1539.4747,1429.5607,1532.67,1427.1741" style="stroke: #A80036; stroke-width: 1.0;"/><text fill="#000000" font-family="sans-serif" font-size="13" lengthAdjust="spacingAndGlyphs" textLength="33" x="1569" y="1470.02">_pmt</text><path d="M1467.59,1316.9891 C1520.43,1333.5311 1591.97,1355.9281 1648.34,1373.5731 " fill="none" style="stroke: #A80036; stroke-width: 1.0;"/><polygon fill="none" points="1650.6,1366.9441,1667.59,1379.5991,1646.41,1380.3051,1650.6,1366.9441" style="stroke: #A80036; stroke-width: 1.0;"/><path d="M1419.74,1317.1221 C1435.32,1331.1441 1455.54,1349.3381 1473.25,1365.2791 " fill="none" style="stroke: #A80036; stroke-width: 1.0;"/><polygon fill="none" points="1478.12,1360.2401,1488.3,1378.8231,1468.75,1370.6461,1478.12,1360.2401" style="stroke: #A80036; stroke-width: 1.0;"/><path d="M1360.45,1326.5971 C1343.13,1343.4451 1322.42,1363.5981 1306.77,1378.8231 " fill="none" style="stroke: #A80036; stroke-width: 1.0;"/><polygon fill="#A80036" points="1370.19,1317.1221,1363.0996,1318.4361,1361.5855,1325.4865,1368.6759,1324.1725,1370.19,1317.1221" style="stroke: #A80036; stroke-width: 1.0;"/></g></svg>