<?xml version="1.0" encoding="UTF-8" standalone="yes"?><svg xmlns="http://www.w3.org/2000/svg" xmlns:xlink="http://www.w3.org/1999/xlink" height="1641px" style="width:1616px;height:1641px;" version="1.1" viewBox="0 0 1616 1641" width="1616px"><defs><filter height="300%" id="f1" width="300%" x="-1" y="-1"><feGaussianBlur result="blurOut" stdDeviation="2.0"/><feColorMatrix in="blurOut" result="blurOut2" type="matrix" values="0 0 0 0 0 0 0 0 0 0 0 0 0 0 0 0 0 0 .4 0"/><feOffset dx="4.0" dy="4.0" in="blurOut2" result="blurOut3"/><feBlend in="SourceGraphic" in2="blurOut3" mode="normal"/></filter></defs><g><text fill="#000000" font-family="sans-serif" font-size="18" lengthAdjust="spacingAndGlyphs" textLength="45" x="790" y="16.708">SatPI</text><rect fill="#FEFECE" filter="url(#f1)" height="73.6094" style="stroke: #A80036; stroke-width: 1.5;" width="82" x="820" y="28.9531"/><ellipse cx="843.1" cy="44.9531" fill="#ADD1B2" rx="11" ry="11" style="stroke: #A80036; stroke-width: 1.0;"/><path d="M846.0688,50.5938 Q845.4906,50.8906 844.85,51.0391 Q844.2094,51.1875 843.5063,51.1875 Q841.0063,51.1875 839.6859,49.5391 Q838.3656,47.8906 838.3656,44.7656 Q838.3656,41.6406 839.6859,39.9844 Q841.0063,38.3281 843.5063,38.3281 Q844.2094,38.3281 844.8578,38.4844 Q845.5063,38.6406 846.0688,38.9375 L846.0688,41.6563 Q845.4438,41.0781 844.85,40.8047 Q844.2563,40.5313 843.6313,40.5313 Q842.2875,40.5313 841.6,41.6016 Q840.9125,42.6719 840.9125,44.7656 Q840.9125,46.8594 841.6,47.9297 Q842.2875,49 843.6313,49 Q844.2563,49 844.85,48.7266 Q845.4438,48.4531 846.0688,47.875 L846.0688,50.5938 Z "/><text fill="#000000" font-family="sans-serif" font-size="12" lengthAdjust="spacingAndGlyphs" textLength="32" x="858.9" y="49.1074">SatPI</text><line style="stroke: #A80036; stroke-width: 1.5;" x1="821" x2="901" y1="60.9531" y2="60.9531"/><text fill="#000000" font-family="sans-serif" font-size="11" lengthAdjust="spacingAndGlyphs" textLength="59" x="826" y="75.1636">Properties</text><text fill="#000000" font-family="sans-serif" font-size="11" lengthAdjust="spacingAndGlyphs" textLength="70" x="826" y="87.9683">InterfaceAttr</text><line style="stroke: #A80036; stroke-width: 1.5;" x1="821" x2="901" y1="94.5625" y2="94.5625"/><rect fill="#FEFECE" filter="url(#f1)" height="60.8047" style="stroke: #A80036; stroke-width: 1.5;" width="132" x="513" y="522.4531"/><ellipse cx="528" cy="538.4531" fill="#ADD1B2" rx="11" ry="11" style="stroke: #A80036; stroke-width: 1.0;"/><path d="M530.9688,544.0938 Q530.3906,544.3906 529.75,544.5391 Q529.1094,544.6875 528.4063,544.6875 Q525.9063,544.6875 524.5859,543.0391 Q523.2656,541.3906 523.2656,538.2656 Q523.2656,535.1406 524.5859,533.4844 Q525.9063,531.8281 528.4063,531.8281 Q529.1094,531.8281 529.7578,531.9844 Q530.4063,532.1406 530.9688,532.4375 L530.9688,535.1563 Q530.3438,534.5781 529.75,534.3047 Q529.1563,534.0313 528.5313,534.0313 Q527.1875,534.0313 526.5,535.1016 Q525.8125,536.1719 525.8125,538.2656 Q525.8125,540.3594 526.5,541.4297 Q527.1875,542.5 528.5313,542.5 Q529.1563,542.5 529.75,542.2266 Q530.3438,541.9531 530.9688,541.375 L530.9688,544.0938 Z "/><text fill="#000000" font-family="sans-serif" font-size="12" lengthAdjust="spacingAndGlyphs" textLength="100" x="542" y="542.6074">StreamManager</text><line style="stroke: #A80036; stroke-width: 1.5;" x1="514" x2="644" y1="554.4531" y2="554.4531"/><text fill="#000000" font-family="sans-serif" font-size="11" lengthAdjust="spacingAndGlyphs" textLength="33" x="519" y="568.6636">Mutex</text><line style="stroke: #A80036; stroke-width: 1.5;" x1="514" x2="644" y1="575.2578" y2="575.2578"/><rect fill="#FEFECE" filter="url(#f1)" height="48" style="stroke: #A80036; stroke-width: 1.5;" width="100" x="609" y="164.9531"/><ellipse cx="624" cy="180.9531" fill="#ADD1B2" rx="11" ry="11" style="stroke: #A80036; stroke-width: 1.0;"/><path d="M626.9688,186.5938 Q626.3906,186.8906 625.75,187.0391 Q625.1094,187.1875 624.4063,187.1875 Q621.9063,187.1875 620.5859,185.5391 Q619.2656,183.8906 619.2656,180.7656 Q619.2656,177.6406 620.5859,175.9844 Q621.9063,174.3281 624.4063,174.3281 Q625.1094,174.3281 625.7578,174.4844 Q626.4063,174.6406 626.9688,174.9375 L626.9688,177.6563 Q626.3438,177.0781 625.75,176.8047 Q625.1563,176.5313 624.5313,176.5313 Q623.1875,176.5313 622.5,177.6016 Q621.8125,178.6719 621.8125,180.7656 Q621.8125,182.8594 622.5,183.9297 Q623.1875,185 624.5313,185 Q625.1563,185 625.75,184.7266 Q626.3438,184.4531 626.9688,183.875 L626.9688,186.5938 Z "/><text fill="#000000" font-family="sans-serif" font-size="12" lengthAdjust="spacingAndGlyphs" textLength="68" x="638" y="185.1074">RtspServer</text><line style="stroke: #A80036; stroke-width: 1.5;" x1="610" x2="708" y1="196.9531" y2="196.9531"/><line style="stroke: #A80036; stroke-width: 1.5;" x1="610" x2="708" y1="204.9531" y2="204.9531"/><rect fill="#FEFECE" filter="url(#f1)" height="48" style="stroke: #A80036; stroke-width: 1.5;" width="99" x="744.75" y="164.9531"/><ellipse cx="759.75" cy="180.9531" fill="#ADD1B2" rx="11" ry="11" style="stroke: #A80036; stroke-width: 1.0;"/><path d="M762.7188,186.5938 Q762.1406,186.8906 761.5,187.0391 Q760.8594,187.1875 760.1563,187.1875 Q757.6563,187.1875 756.3359,185.5391 Q755.0156,183.8906 755.0156,180.7656 Q755.0156,177.6406 756.3359,175.9844 Q757.6563,174.3281 760.1563,174.3281 Q760.8594,174.3281 761.5078,174.4844 Q762.1563,174.6406 762.7188,174.9375 L762.7188,177.6563 Q762.0938,177.0781 761.5,176.8047 Q760.9063,176.5313 760.2813,176.5313 Q758.9375,176.5313 758.25,177.6016 Q757.5625,178.6719 757.5625,180.7656 Q757.5625,182.8594 758.25,183.9297 Q758.9375,185 760.2813,185 Q760.9063,185 761.5,184.7266 Q762.0938,184.4531 762.7188,183.875 L762.7188,186.5938 Z "/><text fill="#000000" font-family="sans-serif" font-size="12" lengthAdjust="spacingAndGlyphs" textLength="67" x="773.75" y="185.1074">HttpServer</text><line style="stroke: #A80036; stroke-width: 1.5;" x1="745.75" x2="842.75" y1="196.9531" y2="196.9531"/><line style="stroke: #A80036; stroke-width: 1.5;" x1="745.75" x2="842.75" y1="204.9531" y2="204.9531"/><rect fill="#FEFECE" filter="url(#f1)" height="48" style="stroke: #A80036; stroke-width: 1.5;" width="103" x="1000.75" y="242.9531"/><ellipse cx="1015.75" cy="258.9531" fill="#ADD1B2" rx="11" ry="11" style="stroke: #A80036; stroke-width: 1.0;"/><path d="M1018.7188,264.5938 Q1018.1406,264.8906 1017.5,265.0391 Q1016.8594,265.1875 1016.1563,265.1875 Q1013.6563,265.1875 1012.3359,263.5391 Q1011.0156,261.8906 1011.0156,258.7656 Q1011.0156,255.6406 1012.3359,253.9844 Q1013.6563,252.3281 1016.1563,252.3281 Q1016.8594,252.3281 1017.5078,252.4844 Q1018.1563,252.6406 1018.7188,252.9375 L1018.7188,255.6563 Q1018.0938,255.0781 1017.5,254.8047 Q1016.9063,254.5313 1016.2813,254.5313 Q1014.9375,254.5313 1014.25,255.6016 Q1013.5625,256.6719 1013.5625,258.7656 Q1013.5625,260.8594 1014.25,261.9297 Q1014.9375,263 1016.2813,263 Q1016.9063,263 1017.5,262.7266 Q1018.0938,262.4531 1018.7188,261.875 L1018.7188,264.5938 Z "/><text fill="#000000" font-family="sans-serif" font-size="12" lengthAdjust="spacingAndGlyphs" textLength="71" x="1029.75" y="263.1074">SsdpServer</text><line style="stroke: #A80036; stroke-width: 1.5;" x1="1001.75" x2="1102.75" y1="274.9531" y2="274.9531"/><line style="stroke: #A80036; stroke-width: 1.5;" x1="1001.75" x2="1102.75" y1="282.9531" y2="282.9531"/><rect fill="#FEFECE" filter="url(#f1)" height="48" style="stroke: #A80036; stroke-width: 1.5;" width="97" x="817.75" y="320.9531"/><ellipse cx="832.75" cy="336.9531" fill="#ADD1B2" rx="11" ry="11" style="stroke: #A80036; stroke-width: 1.0;"/><path d="M835.7188,342.5938 Q835.1406,342.8906 834.5,343.0391 Q833.8594,343.1875 833.1563,343.1875 Q830.6563,343.1875 829.3359,341.5391 Q828.0156,339.8906 828.0156,336.7656 Q828.0156,333.6406 829.3359,331.9844 Q830.6563,330.3281 833.1563,330.3281 Q833.8594,330.3281 834.5078,330.4844 Q835.1563,330.6406 835.7188,330.9375 L835.7188,333.6563 Q835.0938,333.0781 834.5,332.8047 Q833.9063,332.5313 833.2813,332.5313 Q831.9375,332.5313 831.25,333.6016 Q830.5625,334.6719 830.5625,336.7656 Q830.5625,338.8594 831.25,339.9297 Q831.9375,341 833.2813,341 Q833.9063,341 834.5,340.7266 Q835.0938,340.4531 835.7188,339.875 L835.7188,342.5938 Z "/><text fill="#000000" font-family="sans-serif" font-size="12" lengthAdjust="spacingAndGlyphs" textLength="65" x="846.75" y="341.1074">Properties</text><line style="stroke: #A80036; stroke-width: 1.5;" x1="818.75" x2="913.75" y1="352.9531" y2="352.9531"/><line style="stroke: #A80036; stroke-width: 1.5;" x1="818.75" x2="913.75" y1="360.9531" y2="360.9531"/><rect fill="#FEFECE" filter="url(#f1)" height="60.8047" style="stroke: #A80036; stroke-width: 1.5;" width="111" x="897.75" y="522.4531"/><ellipse cx="912.75" cy="538.4531" fill="#ADD1B2" rx="11" ry="11" style="stroke: #A80036; stroke-width: 1.0;"/><path d="M915.7188,544.0938 Q915.1406,544.3906 914.5,544.5391 Q913.8594,544.6875 913.1563,544.6875 Q910.6563,544.6875 909.3359,543.0391 Q908.0156,541.3906 908.0156,538.2656 Q908.0156,535.1406 909.3359,533.4844 Q910.6563,531.8281 913.1563,531.8281 Q913.8594,531.8281 914.5078,531.9844 Q915.1563,532.1406 915.7188,532.4375 L915.7188,535.1563 Q915.0938,534.5781 914.5,534.3047 Q913.9063,534.0313 913.2813,534.0313 Q911.9375,534.0313 911.25,535.1016 Q910.5625,536.1719 910.5625,538.2656 Q910.5625,540.3594 911.25,541.4297 Q911.9375,542.5 913.2813,542.5 Q913.9063,542.5 914.5,542.2266 Q915.0938,541.9531 915.7188,541.375 L915.7188,544.0938 Z "/><text fill="#000000" font-family="sans-serif" font-size="12" lengthAdjust="spacingAndGlyphs" textLength="79" x="926.75" y="542.6074">InterfaceAttr</text><line style="stroke: #A80036; stroke-width: 1.5;" x1="898.75" x2="1007.75" y1="554.4531" y2="554.4531"/><text fill="#000000" font-family="sans-serif" font-size="11" lengthAdjust="spacingAndGlyphs" textLength="50" x="903.75" y="568.6636">Eth0 etc.</text><line style="stroke: #A80036; stroke-width: 1.5;" x1="898.75" x2="1007.75" y1="575.2578" y2="575.2578"/><rect fill="#FEFECE" filter="url(#f1)" height="73.6094" style="stroke: #A80036; stroke-width: 1.5;" width="159" x="937.75" y="693.9531"/><ellipse cx="952.75" cy="709.9531" fill="#ADD1B2" rx="11" ry="11" style="stroke: #A80036; stroke-width: 1.0;"/><path d="M955.7188,715.5938 Q955.1406,715.8906 954.5,716.0391 Q953.8594,716.1875 953.1563,716.1875 Q950.6563,716.1875 949.3359,714.5391 Q948.0156,712.8906 948.0156,709.7656 Q948.0156,706.6406 949.3359,704.9844 Q950.6563,703.3281 953.1563,703.3281 Q953.8594,703.3281 954.5078,703.4844 Q955.1563,703.6406 955.7188,703.9375 L955.7188,706.6563 Q955.0938,706.0781 954.5,705.8047 Q953.9063,705.5313 953.2813,705.5313 Q951.9375,705.5313 951.25,706.6016 Q950.5625,707.6719 950.5625,709.7656 Q950.5625,711.8594 951.25,712.9297 Q951.9375,714 953.2813,714 Q953.9063,714 954.5,713.7266 Q955.0938,713.4531 955.7188,712.875 L955.7188,715.5938 Z "/><text fill="#000000" font-family="sans-serif" font-size="12" lengthAdjust="spacingAndGlyphs" textLength="127" x="966.75" y="714.1074">socket::HttpcSocket</text><line style="stroke: #A80036; stroke-width: 1.5;" x1="938.75" x2="1095.75" y1="725.9531" y2="725.9531"/><line style="stroke: #A80036; stroke-width: 1.5;" x1="938.75" x2="1095.75" y1="733.9531" y2="733.9531"/><text fill="#000000" font-family="sans-serif" font-size="11" lengthAdjust="spacingAndGlyphs" textLength="120" x="943.75" y="748.1636">recvHttpcMessage(..)</text><text fill="#000000" font-family="sans-serif" font-size="11" lengthAdjust="spacingAndGlyphs" textLength="147" x="943.75" y="760.9683">recvfromHttpcMessage(..)</text><rect fill="#FEFECE" filter="url(#f1)" height="86.4141" style="stroke: #A80036; stroke-width: 1.5;" width="161" x="669.75" y="1048.9531"/><ellipse cx="685.2" cy="1064.9531" fill="#ADD1B2" rx="11" ry="11" style="stroke: #A80036; stroke-width: 1.0;"/><path d="M688.1688,1070.5938 Q687.5906,1070.8906 686.95,1071.0391 Q686.3094,1071.1875 685.6063,1071.1875 Q683.1063,1071.1875 681.7859,1069.5391 Q680.4656,1067.8906 680.4656,1064.7656 Q680.4656,1061.6406 681.7859,1059.9844 Q683.1063,1058.3281 685.6063,1058.3281 Q686.3094,1058.3281 686.9578,1058.4844 Q687.6063,1058.6406 688.1688,1058.9375 L688.1688,1061.6563 Q687.5438,1061.0781 686.95,1060.8047 Q686.3563,1060.5313 685.7313,1060.5313 Q684.3875,1060.5313 683.7,1061.6016 Q683.0125,1062.6719 683.0125,1064.7656 Q683.0125,1066.8594 683.7,1067.9297 Q684.3875,1069 685.7313,1069 Q686.3563,1069 686.95,1068.7266 Q687.5438,1068.4531 688.1688,1067.875 L688.1688,1070.5938 Z "/><text fill="#000000" font-family="sans-serif" font-size="12" lengthAdjust="spacingAndGlyphs" textLength="128" x="699.3" y="1069.1074">socket::SocketClient</text><line style="stroke: #A80036; stroke-width: 1.5;" x1="670.75" x2="829.75" y1="1080.9531" y2="1080.9531"/><text fill="#000000" font-family="sans-serif" font-size="11" lengthAdjust="spacingAndGlyphs" textLength="94" x="675.75" y="1095.1636">std::string _msg</text><text fill="#000000" font-family="sans-serif" font-size="11" lengthAdjust="spacingAndGlyphs" textLength="149" x="675.75" y="1107.9683">std::string _protocolString</text><text fill="#000000" font-family="sans-serif" font-size="11" lengthAdjust="spacingAndGlyphs" textLength="125" x="675.75" y="1120.7729">std::string _sessionID</text><line style="stroke: #A80036; stroke-width: 1.5;" x1="670.75" x2="829.75" y1="1127.3672" y2="1127.3672"/><rect fill="#FEFECE" filter="url(#f1)" height="73.6094" style="stroke: #A80036; stroke-width: 1.5;" width="148" x="567" y="1212.9531"/><ellipse cx="582" cy="1228.9531" fill="#ADD1B2" rx="11" ry="11" style="stroke: #A80036; stroke-width: 1.0;"/><path d="M584.9688,1234.5938 Q584.3906,1234.8906 583.75,1235.0391 Q583.1094,1235.1875 582.4063,1235.1875 Q579.9063,1235.1875 578.5859,1233.5391 Q577.2656,1231.8906 577.2656,1228.7656 Q577.2656,1225.6406 578.5859,1223.9844 Q579.9063,1222.3281 582.4063,1222.3281 Q583.1094,1222.3281 583.7578,1222.4844 Q584.4063,1222.6406 584.9688,1222.9375 L584.9688,1225.6563 Q584.3438,1225.0781 583.75,1224.8047 Q583.1563,1224.5313 582.5313,1224.5313 Q581.1875,1224.5313 580.5,1225.6016 Q579.8125,1226.6719 579.8125,1228.7656 Q579.8125,1230.8594 580.5,1231.9297 Q581.1875,1233 582.5313,1233 Q583.1563,1233 583.75,1232.7266 Q584.3438,1232.4531 584.9688,1231.875 L584.9688,1234.5938 Z "/><text fill="#000000" font-family="sans-serif" font-size="12" lengthAdjust="spacingAndGlyphs" textLength="116" x="596" y="1233.1074">socket::SocketAttr</text><line style="stroke: #A80036; stroke-width: 1.5;" x1="568" x2="714" y1="1244.9531" y2="1244.9531"/><text fill="#000000" font-family="sans-serif" font-size="11" lengthAdjust="spacingAndGlyphs" textLength="17" x="573" y="1259.1636">_fd</text><text fill="#000000" font-family="sans-serif" font-size="11" lengthAdjust="spacingAndGlyphs" textLength="111" x="573" y="1271.9683">std::string _ip_addr</text><line style="stroke: #A80036; stroke-width: 1.5;" x1="568" x2="714" y1="1278.5625" y2="1278.5625"/><rect fill="#FEFECE" filter="url(#f1)" height="99.2188" style="stroke: #A80036; stroke-width: 1.5;" width="161" x="685.75" y="503.4531"/><ellipse cx="707.05" cy="519.4531" fill="#ADD1B2" rx="11" ry="11" style="stroke: #A80036; stroke-width: 1.0;"/><path d="M710.0188,525.0938 Q709.4406,525.3906 708.8,525.5391 Q708.1594,525.6875 707.4563,525.6875 Q704.9563,525.6875 703.6359,524.0391 Q702.3156,522.3906 702.3156,519.2656 Q702.3156,516.1406 703.6359,514.4844 Q704.9563,512.8281 707.4563,512.8281 Q708.1594,512.8281 708.8078,512.9844 Q709.4563,513.1406 710.0188,513.4375 L710.0188,516.1563 Q709.3938,515.5781 708.8,515.3047 Q708.2063,515.0313 707.5813,515.0313 Q706.2375,515.0313 705.55,516.1016 Q704.8625,517.1719 704.8625,519.2656 Q704.8625,521.3594 705.55,522.4297 Q706.2375,523.5 707.5813,523.5 Q708.2063,523.5 708.8,523.2266 Q709.3938,522.9531 710.0188,522.375 L710.0188,525.0938 Z "/><text fill="#000000" font-family="sans-serif" font-size="12" lengthAdjust="spacingAndGlyphs" textLength="115" x="722.45" y="523.6074">socket::TcpSocket</text><line style="stroke: #A80036; stroke-width: 1.5;" x1="686.75" x2="845.75" y1="535.4531" y2="535.4531"/><text fill="#000000" font-family="sans-serif" font-size="11" lengthAdjust="spacingAndGlyphs" textLength="149" x="691.75" y="549.6636">std::string _protocolString</text><line style="stroke: #A80036; stroke-width: 1.5;" x1="686.75" x2="845.75" y1="556.2578" y2="556.2578"/><text fill="#000000" font-family="sans-serif" font-size="11" lengthAdjust="spacingAndGlyphs" textLength="36" x="691.75" y="570.4683">poll(..)</text><text fill="#000000" font-family="sans-serif" font-size="11" lengthAdjust="spacingAndGlyphs" textLength="62" x="691.75" y="583.2729">process(..)</text><text fill="#000000" font-family="sans-serif" font-size="11" lengthAdjust="spacingAndGlyphs" textLength="109" x="691.75" y="596.0776">closeConnection(..)</text><rect fill="#FEFECE" filter="url(#f1)" height="73.6094" style="stroke: #A80036; stroke-width: 1.5;" width="173" x="991.75" y="398.9531"/><ellipse cx="1017.1" cy="414.9531" fill="#ADD1B2" rx="11" ry="11" style="stroke: #A80036; stroke-width: 1.0;"/><path d="M1020.0688,420.5938 Q1019.4906,420.8906 1018.85,421.0391 Q1018.2094,421.1875 1017.5063,421.1875 Q1015.0063,421.1875 1013.6859,419.5391 Q1012.3656,417.8906 1012.3656,414.7656 Q1012.3656,411.6406 1013.6859,409.9844 Q1015.0063,408.3281 1017.5063,408.3281 Q1018.2094,408.3281 1018.8578,408.4844 Q1019.5063,408.6406 1020.0688,408.9375 L1020.0688,411.6563 Q1019.4438,411.0781 1018.85,410.8047 Q1018.2563,410.5313 1017.6313,410.5313 Q1016.2875,410.5313 1015.6,411.6016 Q1014.9125,412.6719 1014.9125,414.7656 Q1014.9125,416.8594 1015.6,417.9297 Q1016.2875,419 1017.6313,419 Q1018.2563,419 1018.85,418.7266 Q1019.4438,418.4531 1020.0688,417.875 L1020.0688,420.5938 Z "/><text fill="#000000" font-family="sans-serif" font-size="12" lengthAdjust="spacingAndGlyphs" textLength="118" x="1033.4" y="419.1074">socket::UdpSocket</text><line style="stroke: #A80036; stroke-width: 1.5;" x1="992.75" x2="1163.75" y1="430.9531" y2="430.9531"/><line style="stroke: #A80036; stroke-width: 1.5;" x1="992.75" x2="1163.75" y1="438.9531" y2="438.9531"/><text fill="#000000" font-family="sans-serif" font-size="11" lengthAdjust="spacingAndGlyphs" textLength="103" x="997.75" y="453.1636">init_udp_socket(..)</text><text fill="#000000" font-family="sans-serif" font-size="11" lengthAdjust="spacingAndGlyphs" textLength="161" x="997.75" y="465.9683">init_mutlicast_udp_socket(..)</text><rect fill="#FEFECE" filter="url(#f1)" height="48" style="stroke: #A80036; stroke-width: 1.5;" width="106" x="676.5" y="320.9531"/><ellipse cx="691.5" cy="336.9531" fill="#ADD1B2" rx="11" ry="11" style="stroke: #A80036; stroke-width: 1.0;"/><path d="M694.4688,342.5938 Q693.8906,342.8906 693.25,343.0391 Q692.6094,343.1875 691.9063,343.1875 Q689.4063,343.1875 688.0859,341.5391 Q686.7656,339.8906 686.7656,336.7656 Q686.7656,333.6406 688.0859,331.9844 Q689.4063,330.3281 691.9063,330.3281 Q692.6094,330.3281 693.2578,330.4844 Q693.9063,330.6406 694.4688,330.9375 L694.4688,333.6563 Q693.8438,333.0781 693.25,332.8047 Q692.6563,332.5313 692.0313,332.5313 Q690.6875,332.5313 690,333.6016 Q689.3125,334.6719 689.3125,336.7656 Q689.3125,338.8594 690,339.9297 Q690.6875,341 692.0313,341 Q692.6563,341 693.25,340.7266 Q693.8438,340.4531 694.4688,339.875 L694.4688,342.5938 Z "/><text fill="#000000" font-family="sans-serif" font-size="12" lengthAdjust="spacingAndGlyphs" textLength="74" x="705.5" y="341.1074">HttpcServer</text><line style="stroke: #A80036; stroke-width: 1.5;" x1="677.5" x2="781.5" y1="352.9531" y2="352.9531"/><line style="stroke: #A80036; stroke-width: 1.5;" x1="677.5" x2="781.5" y1="360.9531" y2="360.9531"/><rect fill="#FEFECE" filter="url(#f1)" height="99.2188" style="stroke: #A80036; stroke-width: 1.5;" width="98" x="530.5" y="681.4531"/><ellipse cx="554.95" cy="697.4531" fill="#ADD1B2" rx="11" ry="11" style="stroke: #A80036; stroke-width: 1.0;"/><path d="M557.9188,703.0938 Q557.3406,703.3906 556.7,703.5391 Q556.0594,703.6875 555.3563,703.6875 Q552.8563,703.6875 551.5359,702.0391 Q550.2156,700.3906 550.2156,697.2656 Q550.2156,694.1406 551.5359,692.4844 Q552.8563,690.8281 555.3563,690.8281 Q556.0594,690.8281 556.7078,690.9844 Q557.3563,691.1406 557.9188,691.4375 L557.9188,694.1563 Q557.2938,693.5781 556.7,693.3047 Q556.1063,693.0313 555.4813,693.0313 Q554.1375,693.0313 553.45,694.1016 Q552.7625,695.1719 552.7625,697.2656 Q552.7625,699.3594 553.45,700.4297 Q554.1375,701.5 555.4813,701.5 Q556.1063,701.5 556.7,701.2266 Q557.2938,700.9531 557.9188,700.375 L557.9188,703.0938 Z "/><text fill="#000000" font-family="sans-serif" font-size="12" lengthAdjust="spacingAndGlyphs" textLength="45" x="571.05" y="701.6074">Stream</text><line style="stroke: #A80036; stroke-width: 1.5;" x1="531.5" x2="627.5" y1="713.4531" y2="713.4531"/><text fill="#000000" font-family="sans-serif" font-size="11" lengthAdjust="spacingAndGlyphs" textLength="33" x="536.5" y="727.6636">Mutex</text><text fill="#000000" font-family="sans-serif" font-size="11" lengthAdjust="spacingAndGlyphs" textLength="73" x="536.5" y="740.4683">streamInUse</text><text fill="#000000" font-family="sans-serif" font-size="11" lengthAdjust="spacingAndGlyphs" textLength="45" x="536.5" y="753.2729">enabled</text><text fill="#000000" font-family="sans-serif" font-size="11" lengthAdjust="spacingAndGlyphs" textLength="86" x="536.5" y="766.0776">StreamingType</text><line style="stroke: #A80036; stroke-width: 1.5;" x1="531.5" x2="627.5" y1="772.6719" y2="772.6719"/><rect fill="#FEFECE" filter="url(#f1)" height="48" style="stroke: #A80036; stroke-width: 1.5;" width="133" x="275.75" y="1067.9531"/><ellipse cx="290.75" cy="1083.9531" fill="#ADD1B2" rx="11" ry="11" style="stroke: #A80036; stroke-width: 1.0;"/><path d="M293.7188,1089.5938 Q293.1406,1089.8906 292.5,1090.0391 Q291.8594,1090.1875 291.1563,1090.1875 Q288.6563,1090.1875 287.3359,1088.5391 Q286.0156,1086.8906 286.0156,1083.7656 Q286.0156,1080.6406 287.3359,1078.9844 Q288.6563,1077.3281 291.1563,1077.3281 Q291.8594,1077.3281 292.5078,1077.4844 Q293.1563,1077.6406 293.7188,1077.9375 L293.7188,1080.6563 Q293.0938,1080.0781 292.5,1079.8047 Q291.9063,1079.5313 291.2813,1079.5313 Q289.9375,1079.5313 289.25,1080.6016 Q288.5625,1081.6719 288.5625,1083.7656 Q288.5625,1085.8594 289.25,1086.9297 Q289.9375,1088 291.2813,1088 Q291.9063,1088 292.5,1087.7266 Q293.0938,1087.4531 293.7188,1086.875 L293.7188,1089.5938 Z "/><text fill="#000000" font-family="sans-serif" font-size="12" lengthAdjust="spacingAndGlyphs" textLength="101" x="304.75" y="1088.1074">StreamInterface</text><line style="stroke: #A80036; stroke-width: 1.5;" x1="276.75" x2="407.75" y1="1099.9531" y2="1099.9531"/><line style="stroke: #A80036; stroke-width: 1.5;" x1="276.75" x2="407.75" y1="1107.9531" y2="1107.9531"/><rect fill="#FEFECE" filter="url(#f1)" height="112.0234" style="stroke: #A80036; stroke-width: 1.5;" width="126" x="522" y="858.9531"/><ellipse cx="543.3" cy="874.9531" fill="#ADD1B2" rx="11" ry="11" style="stroke: #A80036; stroke-width: 1.0;"/><path d="M546.2688,880.5938 Q545.6906,880.8906 545.05,881.0391 Q544.4094,881.1875 543.7063,881.1875 Q541.2063,881.1875 539.8859,879.5391 Q538.5656,877.8906 538.5656,874.7656 Q538.5656,871.6406 539.8859,869.9844 Q541.2063,868.3281 543.7063,868.3281 Q544.4094,868.3281 545.0578,868.4844 Q545.7063,868.6406 546.2688,868.9375 L546.2688,871.6563 Q545.6438,871.0781 545.05,870.8047 Q544.4563,870.5313 543.8313,870.5313 Q542.4875,870.5313 541.8,871.6016 Q541.1125,872.6719 541.1125,874.7656 Q541.1125,876.8594 541.8,877.9297 Q542.4875,879 543.8313,879 Q544.4563,879 545.05,878.7266 Q545.6438,878.4531 546.2688,877.875 L546.2688,880.5938 Z "/><text fill="#000000" font-family="sans-serif" font-size="12" lengthAdjust="spacingAndGlyphs" textLength="80" x="558.7" y="879.1074">StreamClient</text><line style="stroke: #A80036; stroke-width: 1.5;" x1="523" x2="647" y1="890.9531" y2="890.9531"/><text fill="#000000" font-family="sans-serif" font-size="11" lengthAdjust="spacingAndGlyphs" textLength="33" x="528" y="905.1636">Mutex</text><text fill="#000000" font-family="sans-serif" font-size="11" lengthAdjust="spacingAndGlyphs" textLength="114" x="528" y="917.9683">SocketClient *_httpc</text><text fill="#000000" font-family="sans-serif" font-size="11" lengthAdjust="spacingAndGlyphs" textLength="54" x="528" y="930.7729">watchdog</text><text fill="#000000" font-family="sans-serif" font-size="11" lengthAdjust="spacingAndGlyphs" textLength="52" x="528" y="943.5776">canClose</text><text fill="#000000" font-family="sans-serif" font-size="11" lengthAdjust="spacingAndGlyphs" textLength="27" x="528" y="956.3823">cseq</text><line style="stroke: #A80036; stroke-width: 1.5;" x1="523" x2="647" y1="962.9766" y2="962.9766"/><rect fill="#FEFECE" filter="url(#f1)" height="48" style="stroke: #A80036; stroke-width: 1.5;" width="113" x="1117.75" y="890.9531"/><ellipse cx="1132.75" cy="906.9531" fill="#ADD1B2" rx="11" ry="11" style="stroke: #A80036; stroke-width: 1.0;"/><path d="M1135.7188,912.5938 Q1135.1406,912.8906 1134.5,913.0391 Q1133.8594,913.1875 1133.1563,913.1875 Q1130.6563,913.1875 1129.3359,911.5391 Q1128.0156,909.8906 1128.0156,906.7656 Q1128.0156,903.6406 1129.3359,901.9844 Q1130.6563,900.3281 1133.1563,900.3281 Q1133.8594,900.3281 1134.5078,900.4844 Q1135.1563,900.6406 1135.7188,900.9375 L1135.7188,903.6563 Q1135.0938,903.0781 1134.5,902.8047 Q1133.9063,902.5313 1133.2813,902.5313 Q1131.9375,902.5313 1131.25,903.6016 Q1130.5625,904.6719 1130.5625,906.7656 Q1130.5625,908.8594 1131.25,909.9297 Q1131.9375,911 1133.2813,911 Q1133.9063,911 1134.5,910.7266 Q1135.0938,910.4531 1135.7188,909.875 L1135.7188,912.5938 Z "/><text fill="#000000" font-family="sans-serif" font-size="12" lengthAdjust="spacingAndGlyphs" textLength="81" x="1146.75" y="911.1074">input::Device</text><line style="stroke: #A80036; stroke-width: 1.5;" x1="1118.75" x2="1229.75" y1="922.9531" y2="922.9531"/><line style="stroke: #A80036; stroke-width: 1.5;" x1="1118.75" x2="1229.75" y1="930.9531" y2="930.9531"/><rect fill="#FEFECE" filter="url(#f1)" height="48" style="stroke: #A80036; stroke-width: 1.5;" width="202" x="189" y="890.9531"/><ellipse cx="204" cy="906.9531" fill="#ADD1B2" rx="11" ry="11" style="stroke: #A80036; stroke-width: 1.0;"/><path d="M206.9688,912.5938 Q206.3906,912.8906 205.75,913.0391 Q205.1094,913.1875 204.4063,913.1875 Q201.9063,913.1875 200.5859,911.5391 Q199.2656,909.8906 199.2656,906.7656 Q199.2656,903.6406 200.5859,901.9844 Q201.9063,900.3281 204.4063,900.3281 Q205.1094,900.3281 205.7578,900.4844 Q206.4063,900.6406 206.9688,900.9375 L206.9688,903.6563 Q206.3438,903.0781 205.75,902.8047 Q205.1563,902.5313 204.5313,902.5313 Q203.1875,902.5313 202.5,903.6016 Q201.8125,904.6719 201.8125,906.7656 Q201.8125,908.8594 202.5,909.9297 Q203.1875,911 204.5313,911 Q205.1563,911 205.75,910.7266 Q206.3438,910.4531 206.9688,909.875 L206.9688,912.5938 Z "/><text fill="#000000" font-family="sans-serif" font-size="12" lengthAdjust="spacingAndGlyphs" textLength="170" x="218" y="911.1074">output::StreamThreadBase</text><line style="stroke: #A80036; stroke-width: 1.5;" x1="190" x2="390" y1="922.9531" y2="922.9531"/><line style="stroke: #A80036; stroke-width: 1.5;" x1="190" x2="390" y1="930.9531" y2="930.9531"/><rect fill="#FEFECE" filter="url(#f1)" height="73.6094" style="stroke: #A80036; stroke-width: 1.5;" width="189" x="156.75" y="515.9531"/><ellipse cx="179.85" cy="531.9531" fill="#ADD1B2" rx="11" ry="11" style="stroke: #A80036; stroke-width: 1.0;"/><path d="M182.8188,537.5938 Q182.2406,537.8906 181.6,538.0391 Q180.9594,538.1875 180.2563,538.1875 Q177.7563,538.1875 176.4359,536.5391 Q175.1156,534.8906 175.1156,531.7656 Q175.1156,528.6406 176.4359,526.9844 Q177.7563,525.3281 180.2563,525.3281 Q180.9594,525.3281 181.6078,525.4844 Q182.2563,525.6406 182.8188,525.9375 L182.8188,528.6563 Q182.1938,528.0781 181.6,527.8047 Q181.0063,527.5313 180.3813,527.5313 Q179.0375,527.5313 178.35,528.6016 Q177.6625,529.6719 177.6625,531.7656 Q177.6625,533.8594 178.35,534.9297 Q179.0375,536 180.3813,536 Q181.0063,536 181.6,535.7266 Q182.1938,535.4531 182.8188,534.875 L182.8188,537.5938 Z "/><text fill="#000000" font-family="sans-serif" font-size="12" lengthAdjust="spacingAndGlyphs" textLength="139" x="195.65" y="536.1074">decrypt::dvbapi::Client</text><line style="stroke: #A80036; stroke-width: 1.5;" x1="157.75" x2="344.75" y1="547.9531" y2="547.9531"/><text fill="#000000" font-family="sans-serif" font-size="11" lengthAdjust="spacingAndGlyphs" textLength="33" x="162.75" y="562.1636">Mutex</text><line style="stroke: #A80036; stroke-width: 1.5;" x1="157.75" x2="344.75" y1="568.7578" y2="568.7578"/><text fill="#000000" font-family="sans-serif" font-size="11" lengthAdjust="spacingAndGlyphs" textLength="177" x="162.75" y="582.9683">getFrontendDecryptInterface(..)</text><rect fill="#FEFECE" filter="url(#f1)" height="48" style="stroke: #A80036; stroke-width: 1.5;" width="127" x="113.75" y="1067.9531"/><ellipse cx="128.75" cy="1083.9531" fill="#ADD1B2" rx="11" ry="11" style="stroke: #A80036; stroke-width: 1.0;"/><path d="M131.7188,1089.5938 Q131.1406,1089.8906 130.5,1090.0391 Q129.8594,1090.1875 129.1563,1090.1875 Q126.6563,1090.1875 125.3359,1088.5391 Q124.0156,1086.8906 124.0156,1083.7656 Q124.0156,1080.6406 125.3359,1078.9844 Q126.6563,1077.3281 129.1563,1077.3281 Q129.8594,1077.3281 130.5078,1077.4844 Q131.1563,1077.6406 131.7188,1077.9375 L131.7188,1080.6563 Q131.0938,1080.0781 130.5,1079.8047 Q129.9063,1079.5313 129.2813,1079.5313 Q127.9375,1079.5313 127.25,1080.6016 Q126.5625,1081.6719 126.5625,1083.7656 Q126.5625,1085.8594 127.25,1086.9297 Q127.9375,1088 129.2813,1088 Q129.9063,1088 130.5,1087.7266 Q131.0938,1087.4531 131.7188,1086.875 L131.7188,1089.5938 Z "/><text fill="#000000" font-family="sans-serif" font-size="12" lengthAdjust="spacingAndGlyphs" textLength="95" x="142.75" y="1088.1074">TSPacketBuffer</text><line style="stroke: #A80036; stroke-width: 1.5;" x1="114.75" x2="239.75" y1="1099.9531" y2="1099.9531"/><line style="stroke: #A80036; stroke-width: 1.5;" x1="114.75" x2="239.75" y1="1107.9531" y2="1107.9531"/><rect fill="#FEFECE" filter="url(#f1)" height="60.8047" style="stroke: #A80036; stroke-width: 1.5;" width="192" x="6" y="700.4531"/><ellipse cx="21" cy="716.4531" fill="#ADD1B2" rx="11" ry="11" style="stroke: #A80036; stroke-width: 1.0;"/><path d="M23.9688,722.0938 Q23.3906,722.3906 22.75,722.5391 Q22.1094,722.6875 21.4063,722.6875 Q18.9063,722.6875 17.5859,721.0391 Q16.2656,719.3906 16.2656,716.2656 Q16.2656,713.1406 17.5859,711.4844 Q18.9063,709.8281 21.4063,709.8281 Q22.1094,709.8281 22.7578,709.9844 Q23.4063,710.1406 23.9688,710.4375 L23.9688,713.1563 Q23.3438,712.5781 22.75,712.3047 Q22.1563,712.0313 21.5313,712.0313 Q20.1875,712.0313 19.5,713.1016 Q18.8125,714.1719 18.8125,716.2656 Q18.8125,718.3594 19.5,719.4297 Q20.1875,720.5 21.5313,720.5 Q22.1563,720.5 22.75,720.2266 Q23.3438,719.9531 23.9688,719.375 L23.9688,722.0938 Z "/><text fill="#000000" font-family="sans-serif" font-size="12" lengthAdjust="spacingAndGlyphs" textLength="160" x="35" y="720.6074">output::StreamThreadRtp</text><line style="stroke: #A80036; stroke-width: 1.5;" x1="7" x2="197" y1="732.4531" y2="732.4531"/><text fill="#000000" font-family="sans-serif" font-size="11" lengthAdjust="spacingAndGlyphs" textLength="27" x="12" y="746.6636">cseq</text><line style="stroke: #A80036; stroke-width: 1.5;" x1="7" x2="197" y1="753.2578" y2="753.2578"/><rect fill="#FEFECE" filter="url(#f1)" height="48" style="stroke: #A80036; stroke-width: 1.5;" width="104" x="50" y="890.9531"/><ellipse cx="65" cy="906.9531" fill="#ADD1B2" rx="11" ry="11" style="stroke: #A80036; stroke-width: 1.0;"/><path d="M67.9688,912.5938 Q67.3906,912.8906 66.75,913.0391 Q66.1094,913.1875 65.4063,913.1875 Q62.9063,913.1875 61.5859,911.5391 Q60.2656,909.8906 60.2656,906.7656 Q60.2656,903.6406 61.5859,901.9844 Q62.9063,900.3281 65.4063,900.3281 Q66.1094,900.3281 66.7578,900.4844 Q67.4063,900.6406 67.9688,900.9375 L67.9688,903.6563 Q67.3438,903.0781 66.75,902.8047 Q66.1563,902.5313 65.5313,902.5313 Q64.1875,902.5313 63.5,903.6016 Q62.8125,904.6719 62.8125,906.7656 Q62.8125,908.8594 63.5,909.9297 Q64.1875,911 65.5313,911 Q66.1563,911 66.75,910.7266 Q67.3438,910.4531 67.9688,909.875 L67.9688,912.5938 Z "/><text fill="#000000" font-family="sans-serif" font-size="12" lengthAdjust="spacingAndGlyphs" textLength="72" x="79" y="911.1074">RtcpThread</text><line style="stroke: #A80036; stroke-width: 1.5;" x1="51" x2="153" y1="922.9531" y2="922.9531"/><line style="stroke: #A80036; stroke-width: 1.5;" x1="51" x2="153" y1="930.9531" y2="930.9531"/><rect fill="#FEFECE" filter="url(#f1)" height="48" style="stroke: #A80036; stroke-width: 1.5;" width="148" x="304" y="706.9531"/><ellipse cx="319" cy="722.9531" fill="#ADD1B2" rx="11" ry="11" style="stroke: #A80036; stroke-width: 1.0;"/><path d="M321.9688,728.5938 Q321.3906,728.8906 320.75,729.0391 Q320.1094,729.1875 319.4063,729.1875 Q316.9063,729.1875 315.5859,727.5391 Q314.2656,725.8906 314.2656,722.7656 Q314.2656,719.6406 315.5859,717.9844 Q316.9063,716.3281 319.4063,716.3281 Q320.1094,716.3281 320.7578,716.4844 Q321.4063,716.6406 321.9688,716.9375 L321.9688,719.6563 Q321.3438,719.0781 320.75,718.8047 Q320.1563,718.5313 319.5313,718.5313 Q318.1875,718.5313 317.5,719.6016 Q316.8125,720.6719 316.8125,722.7656 Q316.8125,724.8594 317.5,725.9297 Q318.1875,727 319.5313,727 Q320.1563,727 320.75,726.7266 Q321.3438,726.4531 321.9688,725.875 L321.9688,728.5938 Z "/><text fill="#000000" font-family="sans-serif" font-size="12" lengthAdjust="spacingAndGlyphs" textLength="116" x="333" y="727.1074">StreamThreadHttp</text><line style="stroke: #A80036; stroke-width: 1.5;" x1="305" x2="451" y1="738.9531" y2="738.9531"/><line style="stroke: #A80036; stroke-width: 1.5;" x1="305" x2="451" y1="746.9531" y2="746.9531"/><rect fill="#FEFECE" filter="url(#f1)" height="48" style="stroke: #A80036; stroke-width: 1.5;" width="158" x="1131.5" y="706.9531"/><ellipse cx="1146.5" cy="722.9531" fill="#ADD1B2" rx="11" ry="11" style="stroke: #A80036; stroke-width: 1.0;"/><path d="M1149.4688,728.5938 Q1148.8906,728.8906 1148.25,729.0391 Q1147.6094,729.1875 1146.9063,729.1875 Q1144.4063,729.1875 1143.0859,727.5391 Q1141.7656,725.8906 1141.7656,722.7656 Q1141.7656,719.6406 1143.0859,717.9844 Q1144.4063,716.3281 1146.9063,716.3281 Q1147.6094,716.3281 1148.2578,716.4844 Q1148.9063,716.6406 1149.4688,716.9375 L1149.4688,719.6563 Q1148.8438,719.0781 1148.25,718.8047 Q1147.6563,718.5313 1147.0313,718.5313 Q1145.6875,718.5313 1145,719.6016 Q1144.3125,720.6719 1144.3125,722.7656 Q1144.3125,724.8594 1145,725.9297 Q1145.6875,727 1147.0313,727 Q1147.6563,727 1148.25,726.7266 Q1148.8438,726.4531 1149.4688,725.875 L1149.4688,728.5938 Z "/><text fill="#000000" font-family="sans-serif" font-size="12" lengthAdjust="spacingAndGlyphs" textLength="126" x="1160.5" y="727.1074">input::file::TSReader</text><line style="stroke: #A80036; stroke-width: 1.5;" x1="1132.5" x2="1288.5" y1="738.9531" y2="738.9531"/><line style="stroke: #A80036; stroke-width: 1.5;" x1="1132.5" x2="1288.5" y1="746.9531" y2="746.9531"/><rect fill="#FEFECE" filter="url(#f1)" height="48" style="stroke: #A80036; stroke-width: 1.5;" width="159" x="1094.75" y="1067.9531"/><ellipse cx="1109.75" cy="1083.9531" fill="#ADD1B2" rx="11" ry="11" style="stroke: #A80036; stroke-width: 1.0;"/><path d="M1112.7188,1089.5938 Q1112.1406,1089.8906 1111.5,1090.0391 Q1110.8594,1090.1875 1110.1563,1090.1875 Q1107.6563,1090.1875 1106.3359,1088.5391 Q1105.0156,1086.8906 1105.0156,1083.7656 Q1105.0156,1080.6406 1106.3359,1078.9844 Q1107.6563,1077.3281 1110.1563,1077.3281 Q1110.8594,1077.3281 1111.5078,1077.4844 Q1112.1563,1077.6406 1112.7188,1077.9375 L1112.7188,1080.6563 Q1112.0938,1080.0781 1111.5,1079.8047 Q1110.9063,1079.5313 1110.2813,1079.5313 Q1108.9375,1079.5313 1108.25,1080.6016 Q1107.5625,1081.6719 1107.5625,1083.7656 Q1107.5625,1085.8594 1108.25,1086.9297 Q1108.9375,1088 1110.2813,1088 Q1110.9063,1088 1111.5,1087.7266 Q1112.0938,1087.4531 1112.7188,1086.875 L1112.7188,1089.5938 Z "/><text fill="#000000" font-family="sans-serif" font-size="12" lengthAdjust="spacingAndGlyphs" textLength="127" x="1123.75" y="1088.1074">input::dvb::Frontend</text><line style="stroke: #A80036; stroke-width: 1.5;" x1="1095.75" x2="1252.75" y1="1099.9531" y2="1099.9531"/><line style="stroke: #A80036; stroke-width: 1.5;" x1="1095.75" x2="1252.75" y1="1107.9531" y2="1107.9531"/><rect fill="#FEFECE" filter="url(#f1)" height="48" style="stroke: #A80036; stroke-width: 1.5;" width="193" x="1077.75" y="1225.9531"/><ellipse cx="1092.75" cy="1241.9531" fill="#ADD1B2" rx="11" ry="11" style="stroke: #A80036; stroke-width: 1.0;"/><path d="M1095.7188,1247.5938 Q1095.1406,1247.8906 1094.5,1248.0391 Q1093.8594,1248.1875 1093.1563,1248.1875 Q1090.6563,1248.1875 1089.3359,1246.5391 Q1088.0156,1244.8906 1088.0156,1241.7656 Q1088.0156,1238.6406 1089.3359,1236.9844 Q1090.6563,1235.3281 1093.1563,1235.3281 Q1093.8594,1235.3281 1094.5078,1235.4844 Q1095.1563,1235.6406 1095.7188,1235.9375 L1095.7188,1238.6563 Q1095.0938,1238.0781 1094.5,1237.8047 Q1093.9063,1237.5313 1093.2813,1237.5313 Q1091.9375,1237.5313 1091.25,1238.6016 Q1090.5625,1239.6719 1090.5625,1241.7656 Q1090.5625,1243.8594 1091.25,1244.9297 Q1091.9375,1246 1093.2813,1246 Q1093.9063,1246 1094.5,1245.7266 Q1095.0938,1245.4531 1095.7188,1244.875 L1095.7188,1247.5938 Z "/><text fill="#000000" font-family="sans-serif" font-size="12" lengthAdjust="spacingAndGlyphs" textLength="161" x="1106.75" y="1246.1074">FrontendDecryptInterface</text><line style="stroke: #A80036; stroke-width: 1.5;" x1="1078.75" x2="1269.75" y1="1257.9531" y2="1257.9531"/><line style="stroke: #A80036; stroke-width: 1.5;" x1="1078.75" x2="1269.75" y1="1265.9531" y2="1265.9531"/><rect fill="#FEFECE" filter="url(#f1)" height="48" style="stroke: #A80036; stroke-width: 1.5;" width="202" x="840" y="1225.9531"/><ellipse cx="855" cy="1241.9531" fill="#ADD1B2" rx="11" ry="11" style="stroke: #A80036; stroke-width: 1.0;"/><path d="M857.9688,1247.5938 Q857.3906,1247.8906 856.75,1248.0391 Q856.1094,1248.1875 855.4063,1248.1875 Q852.9063,1248.1875 851.5859,1246.5391 Q850.2656,1244.8906 850.2656,1241.7656 Q850.2656,1238.6406 851.5859,1236.9844 Q852.9063,1235.3281 855.4063,1235.3281 Q856.1094,1235.3281 856.7578,1235.4844 Q857.4063,1235.6406 857.9688,1235.9375 L857.9688,1238.6563 Q857.3438,1238.0781 856.75,1237.8047 Q856.1563,1237.5313 855.5313,1237.5313 Q854.1875,1237.5313 853.5,1238.6016 Q852.8125,1239.6719 852.8125,1241.7656 Q852.8125,1243.8594 853.5,1244.9297 Q854.1875,1246 855.5313,1246 Q856.1563,1246 856.75,1245.7266 Q857.3438,1245.4531 857.9688,1244.875 L857.9688,1247.5938 Z "/><text fill="#000000" font-family="sans-serif" font-size="12" lengthAdjust="spacingAndGlyphs" textLength="170" x="869" y="1246.1074">input::dvb::delivery::System</text><line style="stroke: #A80036; stroke-width: 1.5;" x1="841" x2="1041" y1="1257.9531" y2="1257.9531"/><line style="stroke: #A80036; stroke-width: 1.5;" x1="841" x2="1041" y1="1265.9531" y2="1265.9531"/><rect fill="#FEFECE" filter="url(#f1)" height="48" style="stroke: #A80036; stroke-width: 1.5;" width="189" x="1305.75" y="1225.9531"/><ellipse cx="1320.75" cy="1241.9531" fill="#ADD1B2" rx="11" ry="11" style="stroke: #A80036; stroke-width: 1.0;"/><path d="M1323.7188,1247.5938 Q1323.1406,1247.8906 1322.5,1248.0391 Q1321.8594,1248.1875 1321.1563,1248.1875 Q1318.6563,1248.1875 1317.3359,1246.5391 Q1316.0156,1244.8906 1316.0156,1241.7656 Q1316.0156,1238.6406 1317.3359,1236.9844 Q1318.6563,1235.3281 1321.1563,1235.3281 Q1321.8594,1235.3281 1322.5078,1235.4844 Q1323.1563,1235.6406 1323.7188,1235.9375 L1323.7188,1238.6563 Q1323.0938,1238.0781 1322.5,1237.8047 Q1321.9063,1237.5313 1321.2813,1237.5313 Q1319.9375,1237.5313 1319.25,1238.6016 Q1318.5625,1239.6719 1318.5625,1241.7656 Q1318.5625,1243.8594 1319.25,1244.9297 Q1319.9375,1246 1321.2813,1246 Q1321.9063,1246 1322.5,1245.7266 Q1323.0938,1245.4531 1323.7188,1244.875 L1323.7188,1247.5938 Z "/><text fill="#000000" font-family="sans-serif" font-size="12" lengthAdjust="spacingAndGlyphs" textLength="157" x="1334.75" y="1246.1074">input::dvb::FrontendData</text><line style="stroke: #A80036; stroke-width: 1.5;" x1="1306.75" x2="1493.75" y1="1257.9531" y2="1257.9531"/><line style="stroke: #A80036; stroke-width: 1.5;" x1="1306.75" x2="1493.75" y1="1265.9531" y2="1265.9531"/><rect fill="#FEFECE" filter="url(#f1)" height="48" style="stroke: #A80036; stroke-width: 1.5;" width="65" x="951.75" y="1348.9531"/><ellipse cx="966.75" cy="1364.9531" fill="#ADD1B2" rx="11" ry="11" style="stroke: #A80036; stroke-width: 1.0;"/><path d="M969.7188,1370.5938 Q969.1406,1370.8906 968.5,1371.0391 Q967.8594,1371.1875 967.1563,1371.1875 Q964.6563,1371.1875 963.3359,1369.5391 Q962.0156,1367.8906 962.0156,1364.7656 Q962.0156,1361.6406 963.3359,1359.9844 Q964.6563,1358.3281 967.1563,1358.3281 Q967.8594,1358.3281 968.5078,1358.4844 Q969.1563,1358.6406 969.7188,1358.9375 L969.7188,1361.6563 Q969.0938,1361.0781 968.5,1360.8047 Q967.9063,1360.5313 967.2813,1360.5313 Q965.9375,1360.5313 965.25,1361.6016 Q964.5625,1362.6719 964.5625,1364.7656 Q964.5625,1366.8594 965.25,1367.9297 Q965.9375,1369 967.2813,1369 Q967.9063,1369 968.5,1368.7266 Q969.0938,1368.4531 969.7188,1367.875 L969.7188,1370.5938 Z "/><text fill="#000000" font-family="sans-serif" font-size="12" lengthAdjust="spacingAndGlyphs" textLength="33" x="980.75" y="1369.1074">DVBS</text><line style="stroke: #A80036; stroke-width: 1.5;" x1="952.75" x2="1015.75" y1="1380.9531" y2="1380.9531"/><line style="stroke: #A80036; stroke-width: 1.5;" x1="952.75" x2="1015.75" y1="1388.9531" y2="1388.9531"/><rect fill="#FEFECE" filter="url(#f1)" height="48" style="stroke: #A80036; stroke-width: 1.5;" width="65" x="1051.75" y="1348.9531"/><ellipse cx="1066.75" cy="1364.9531" fill="#ADD1B2" rx="11" ry="11" style="stroke: #A80036; stroke-width: 1.0;"/><path d="M1069.7188,1370.5938 Q1069.1406,1370.8906 1068.5,1371.0391 Q1067.8594,1371.1875 1067.1563,1371.1875 Q1064.6563,1371.1875 1063.3359,1369.5391 Q1062.0156,1367.8906 1062.0156,1364.7656 Q1062.0156,1361.6406 1063.3359,1359.9844 Q1064.6563,1358.3281 1067.1563,1358.3281 Q1067.8594,1358.3281 1068.5078,1358.4844 Q1069.1563,1358.6406 1069.7188,1358.9375 L1069.7188,1361.6563 Q1069.0938,1361.0781 1068.5,1360.8047 Q1067.9063,1360.5313 1067.2813,1360.5313 Q1065.9375,1360.5313 1065.25,1361.6016 Q1064.5625,1362.6719 1064.5625,1364.7656 Q1064.5625,1366.8594 1065.25,1367.9297 Q1065.9375,1369 1067.2813,1369 Q1067.9063,1369 1068.5,1368.7266 Q1069.0938,1368.4531 1069.7188,1367.875 L1069.7188,1370.5938 Z "/><text fill="#000000" font-family="sans-serif" font-size="12" lengthAdjust="spacingAndGlyphs" textLength="33" x="1080.75" y="1369.1074">DVBC</text><line style="stroke: #A80036; stroke-width: 1.5;" x1="1052.75" x2="1115.75" y1="1380.9531" y2="1380.9531"/><line style="stroke: #A80036; stroke-width: 1.5;" x1="1052.75" x2="1115.75" y1="1388.9531" y2="1388.9531"/><rect fill="#FEFECE" filter="url(#f1)" height="48" style="stroke: #A80036; stroke-width: 1.5;" width="64" x="754" y="1348.9531"/><ellipse cx="769" cy="1364.9531" fill="#ADD1B2" rx="11" ry="11" style="stroke: #A80036; stroke-width: 1.0;"/><path d="M771.9688,1370.5938 Q771.3906,1370.8906 770.75,1371.0391 Q770.1094,1371.1875 769.4063,1371.1875 Q766.9063,1371.1875 765.5859,1369.5391 Q764.2656,1367.8906 764.2656,1364.7656 Q764.2656,1361.6406 765.5859,1359.9844 Q766.9063,1358.3281 769.4063,1358.3281 Q770.1094,1358.3281 770.7578,1358.4844 Q771.4063,1358.6406 771.9688,1358.9375 L771.9688,1361.6563 Q771.3438,1361.0781 770.75,1360.8047 Q770.1563,1360.5313 769.5313,1360.5313 Q768.1875,1360.5313 767.5,1361.6016 Q766.8125,1362.6719 766.8125,1364.7656 Q766.8125,1366.8594 767.5,1367.9297 Q768.1875,1369 769.5313,1369 Q770.1563,1369 770.75,1368.7266 Q771.3438,1368.4531 771.9688,1367.875 L771.9688,1370.5938 Z "/><text fill="#000000" font-family="sans-serif" font-size="12" lengthAdjust="spacingAndGlyphs" textLength="32" x="783" y="1369.1074">DVBT</text><line style="stroke: #A80036; stroke-width: 1.5;" x1="755" x2="817" y1="1380.9531" y2="1380.9531"/><line style="stroke: #A80036; stroke-width: 1.5;" x1="755" x2="817" y1="1388.9531" y2="1388.9531"/><rect fill="#FEFECE" filter="url(#f1)" height="48" style="stroke: #A80036; stroke-width: 1.5;" width="63" x="853.75" y="1348.9531"/><ellipse cx="868.75" cy="1364.9531" fill="#ADD1B2" rx="11" ry="11" style="stroke: #A80036; stroke-width: 1.0;"/><path d="M871.7188,1370.5938 Q871.1406,1370.8906 870.5,1371.0391 Q869.8594,1371.1875 869.1563,1371.1875 Q866.6563,1371.1875 865.3359,1369.5391 Q864.0156,1367.8906 864.0156,1364.7656 Q864.0156,1361.6406 865.3359,1359.9844 Q866.6563,1358.3281 869.1563,1358.3281 Q869.8594,1358.3281 870.5078,1358.4844 Q871.1563,1358.6406 871.7188,1358.9375 L871.7188,1361.6563 Q871.0938,1361.0781 870.5,1360.8047 Q869.9063,1360.5313 869.2813,1360.5313 Q867.9375,1360.5313 867.25,1361.6016 Q866.5625,1362.6719 866.5625,1364.7656 Q866.5625,1366.8594 867.25,1367.9297 Q867.9375,1369 869.2813,1369 Q869.9063,1369 870.5,1368.7266 Q871.0938,1368.4531 871.7188,1367.875 L871.7188,1370.5938 Z "/><text fill="#000000" font-family="sans-serif" font-size="12" lengthAdjust="spacingAndGlyphs" textLength="31" x="882.75" y="1369.1074">ATSC</text><line style="stroke: #A80036; stroke-width: 1.5;" x1="854.75" x2="915.75" y1="1380.9531" y2="1380.9531"/><line style="stroke: #A80036; stroke-width: 1.5;" x1="854.75" x2="915.75" y1="1388.9531" y2="1388.9531"/><rect fill="#FEFECE" filter="url(#f1)" height="48" style="stroke: #A80036; stroke-width: 1.5;" width="86" x="941" y="1474.9531"/><ellipse cx="956" cy="1490.9531" fill="#ADD1B2" rx="11" ry="11" style="stroke: #A80036; stroke-width: 1.0;"/><path d="M958.9688,1496.5938 Q958.3906,1496.8906 957.75,1497.0391 Q957.1094,1497.1875 956.4063,1497.1875 Q953.9063,1497.1875 952.5859,1495.5391 Q951.2656,1493.8906 951.2656,1490.7656 Q951.2656,1487.6406 952.5859,1485.9844 Q953.9063,1484.3281 956.4063,1484.3281 Q957.1094,1484.3281 957.7578,1484.4844 Q958.4063,1484.6406 958.9688,1484.9375 L958.9688,1487.6563 Q958.3438,1487.0781 957.75,1486.8047 Q957.1563,1486.5313 956.5313,1486.5313 Q955.1875,1486.5313 954.5,1487.6016 Q953.8125,1488.6719 953.8125,1490.7656 Q953.8125,1492.8594 954.5,1493.9297 Q955.1875,1495 956.5313,1495 Q957.1563,1495 957.75,1494.7266 Q958.3438,1494.4531 958.9688,1493.875 L958.9688,1496.5938 Z "/><text fill="#000000" font-family="sans-serif" font-size="12" lengthAdjust="spacingAndGlyphs" textLength="54" x="970" y="1495.1074">DiSEqc_t</text><line style="stroke: #A80036; stroke-width: 1.5;" x1="942" x2="1026" y1="1506.9531" y2="1506.9531"/><line style="stroke: #A80036; stroke-width: 1.5;" x1="942" x2="1026" y1="1514.9531" y2="1514.9531"/><rect fill="#FEFECE" filter="url(#f1)" height="48" style="stroke: #A80036; stroke-width: 1.5;" width="65" x="951.75" y="1584.9531"/><ellipse cx="966.75" cy="1600.9531" fill="#ADD1B2" rx="11" ry="11" style="stroke: #A80036; stroke-width: 1.0;"/><path d="M969.7188,1606.5938 Q969.1406,1606.8906 968.5,1607.0391 Q967.8594,1607.1875 967.1563,1607.1875 Q964.6563,1607.1875 963.3359,1605.5391 Q962.0156,1603.8906 962.0156,1600.7656 Q962.0156,1597.6406 963.3359,1595.9844 Q964.6563,1594.3281 967.1563,1594.3281 Q967.8594,1594.3281 968.5078,1594.4844 Q969.1563,1594.6406 969.7188,1594.9375 L969.7188,1597.6563 Q969.0938,1597.0781 968.5,1596.8047 Q967.9063,1596.5313 967.2813,1596.5313 Q965.9375,1596.5313 965.25,1597.6016 Q964.5625,1598.6719 964.5625,1600.7656 Q964.5625,1602.8594 965.25,1603.9297 Q965.9375,1605 967.2813,1605 Q967.9063,1605 968.5,1604.7266 Q969.0938,1604.4531 969.7188,1603.875 L969.7188,1606.5938 Z "/><text fill="#000000" font-family="sans-serif" font-size="12" lengthAdjust="spacingAndGlyphs" textLength="33" x="980.75" y="1605.1074">Lnb_t</text><line style="stroke: #A80036; stroke-width: 1.5;" x1="952.75" x2="1015.75" y1="1616.9531" y2="1616.9531"/><line style="stroke: #A80036; stroke-width: 1.5;" x1="952.75" x2="1015.75" y1="1624.9531" y2="1624.9531"/><rect fill="#FEFECE" filter="url(#f1)" height="48" style="stroke: #A80036; stroke-width: 1.5;" width="236" x="1181" y="1348.9531"/><ellipse cx="1196" cy="1364.9531" fill="#ADD1B2" rx="11" ry="11" style="stroke: #A80036; stroke-width: 1.0;"/><path d="M1198.9688,1370.5938 Q1198.3906,1370.8906 1197.75,1371.0391 Q1197.1094,1371.1875 1196.4063,1371.1875 Q1193.9063,1371.1875 1192.5859,1369.5391 Q1191.2656,1367.8906 1191.2656,1364.7656 Q1191.2656,1361.6406 1192.5859,1359.9844 Q1193.9063,1358.3281 1196.4063,1358.3281 Q1197.1094,1358.3281 1197.7578,1358.4844 Q1198.4063,1358.6406 1198.9688,1358.9375 L1198.9688,1361.6563 Q1198.3438,1361.0781 1197.75,1360.8047 Q1197.1563,1360.5313 1196.5313,1360.5313 Q1195.1875,1360.5313 1194.5,1361.6016 Q1193.8125,1362.6719 1193.8125,1364.7656 Q1193.8125,1366.8594 1194.5,1367.9297 Q1195.1875,1369 1196.5313,1369 Q1197.1563,1369 1197.75,1368.7266 Q1198.3438,1368.4531 1198.9688,1367.875 L1198.9688,1370.5938 Z "/><text fill="#000000" font-family="sans-serif" font-size="12" lengthAdjust="spacingAndGlyphs" textLength="204" x="1210" y="1369.1074">decrypt::dvbapi::ClientProperties</text><line style="stroke: #A80036; stroke-width: 1.5;" x1="1182" x2="1416" y1="1380.9531" y2="1380.9531"/><line style="stroke: #A80036; stroke-width: 1.5;" x1="1182" x2="1416" y1="1388.9531" y2="1388.9531"/><rect fill="#FEFECE" filter="url(#f1)" height="48" style="stroke: #A80036; stroke-width: 1.5;" width="116" x="1311.5" y="1474.9531"/><ellipse cx="1326.5" cy="1490.9531" fill="#ADD1B2" rx="11" ry="11" style="stroke: #A80036; stroke-width: 1.0;"/><path d="M1329.4688,1496.5938 Q1328.8906,1496.8906 1328.25,1497.0391 Q1327.6094,1497.1875 1326.9063,1497.1875 Q1324.4063,1497.1875 1323.0859,1495.5391 Q1321.7656,1493.8906 1321.7656,1490.7656 Q1321.7656,1487.6406 1323.0859,1485.9844 Q1324.4063,1484.3281 1326.9063,1484.3281 Q1327.6094,1484.3281 1328.2578,1484.4844 Q1328.9063,1484.6406 1329.4688,1484.9375 L1329.4688,1487.6563 Q1328.8438,1487.0781 1328.25,1486.8047 Q1327.6563,1486.5313 1327.0313,1486.5313 Q1325.6875,1486.5313 1325,1487.6016 Q1324.3125,1488.6719 1324.3125,1490.7656 Q1324.3125,1492.8594 1325,1493.9297 Q1325.6875,1495 1327.0313,1495 Q1327.6563,1495 1328.25,1494.7266 Q1328.8438,1494.4531 1329.4688,1493.875 L1329.4688,1496.5938 Z "/><text fill="#000000" font-family="sans-serif" font-size="12" lengthAdjust="spacingAndGlyphs" textLength="84" x="1340.5" y="1495.1074">dvbcsa_key_s</text><line style="stroke: #A80036; stroke-width: 1.5;" x1="1312.5" x2="1426.5" y1="1506.9531" y2="1506.9531"/><line style="stroke: #A80036; stroke-width: 1.5;" x1="1312.5" x2="1426.5" y1="1514.9531" y2="1514.9531"/><rect fill="#FEFECE" filter="url(#f1)" height="48" style="stroke: #A80036; stroke-width: 1.5;" width="111" x="1164.75" y="1474.9531"/><ellipse cx="1179.75" cy="1490.9531" fill="#ADD1B2" rx="11" ry="11" style="stroke: #A80036; stroke-width: 1.0;"/><path d="M1182.7188,1496.5938 Q1182.1406,1496.8906 1181.5,1497.0391 Q1180.8594,1497.1875 1180.1563,1497.1875 Q1177.6563,1497.1875 1176.3359,1495.5391 Q1175.0156,1493.8906 1175.0156,1490.7656 Q1175.0156,1487.6406 1176.3359,1485.9844 Q1177.6563,1484.3281 1180.1563,1484.3281 Q1180.8594,1484.3281 1181.5078,1484.4844 Q1182.1563,1484.6406 1182.7188,1484.9375 L1182.7188,1487.6563 Q1182.0938,1487.0781 1181.5,1486.8047 Q1180.9063,1486.5313 1180.2813,1486.5313 Q1178.9375,1486.5313 1178.25,1487.6016 Q1177.5625,1488.6719 1177.5625,1490.7656 Q1177.5625,1492.8594 1178.25,1493.9297 Q1178.9375,1495 1180.2813,1495 Q1180.9063,1495 1181.5,1494.7266 Q1182.0938,1494.4531 1182.7188,1493.875 L1182.7188,1496.5938 Z "/><text fill="#000000" font-family="sans-serif" font-size="12" lengthAdjust="spacingAndGlyphs" textLength="79" x="1193.75" y="1495.1074">TSTableData</text><line style="stroke: #A80036; stroke-width: 1.5;" x1="1165.75" x2="1274.75" y1="1506.9531" y2="1506.9531"/><line style="stroke: #A80036; stroke-width: 1.5;" x1="1165.75" x2="1274.75" y1="1514.9531" y2="1514.9531"/><rect fill="#FEFECE" filter="url(#f1)" height="48" style="stroke: #A80036; stroke-width: 1.5;" width="143" x="1328.75" y="1067.9531"/><ellipse cx="1343.75" cy="1083.9531" fill="#ADD1B2" rx="11" ry="11" style="stroke: #A80036; stroke-width: 1.0;"/><path d="M1346.7188,1089.5938 Q1346.1406,1089.8906 1345.5,1090.0391 Q1344.8594,1090.1875 1344.1563,1090.1875 Q1341.6563,1090.1875 1340.3359,1088.5391 Q1339.0156,1086.8906 1339.0156,1083.7656 Q1339.0156,1080.6406 1340.3359,1078.9844 Q1341.6563,1077.3281 1344.1563,1077.3281 Q1344.8594,1077.3281 1345.5078,1077.4844 Q1346.1563,1077.6406 1346.7188,1077.9375 L1346.7188,1080.6563 Q1346.0938,1080.0781 1345.5,1079.8047 Q1344.9063,1079.5313 1344.2813,1079.5313 Q1342.9375,1079.5313 1342.25,1080.6016 Q1341.5625,1081.6719 1341.5625,1083.7656 Q1341.5625,1085.8594 1342.25,1086.9297 Q1342.9375,1088 1344.2813,1088 Q1344.9063,1088 1345.5,1087.7266 Q1346.0938,1087.4531 1346.7188,1086.875 L1346.7188,1089.5938 Z "/><text fill="#000000" font-family="sans-serif" font-size="12" lengthAdjust="spacingAndGlyphs" textLength="111" x="1357.75" y="1088.1074">input::DeviceData</text><line style="stroke: #A80036; stroke-width: 1.5;" x1="1329.75" x2="1470.75" y1="1099.9531" y2="1099.9531"/><line style="stroke: #A80036; stroke-width: 1.5;" x1="1329.75" x2="1470.75" y1="1107.9531" y2="1107.9531"/><rect fill="#FEFECE" filter="url(#f1)" height="48" style="stroke: #A80036; stroke-width: 1.5;" width="155" x="1452.75" y="1348.9531"/><ellipse cx="1467.75" cy="1364.9531" fill="#ADD1B2" rx="11" ry="11" style="stroke: #A80036; stroke-width: 1.0;"/><path d="M1470.7188,1370.5938 Q1470.1406,1370.8906 1469.5,1371.0391 Q1468.8594,1371.1875 1468.1563,1371.1875 Q1465.6563,1371.1875 1464.3359,1369.5391 Q1463.0156,1367.8906 1463.0156,1364.7656 Q1463.0156,1361.6406 1464.3359,1359.9844 Q1465.6563,1358.3281 1468.1563,1358.3281 Q1468.8594,1358.3281 1469.5078,1358.4844 Q1470.1563,1358.6406 1470.7188,1358.9375 L1470.7188,1361.6563 Q1470.0938,1361.0781 1469.5,1360.8047 Q1468.9063,1360.5313 1468.2813,1360.5313 Q1466.9375,1360.5313 1466.25,1361.6016 Q1465.5625,1362.6719 1465.5625,1364.7656 Q1465.5625,1366.8594 1466.25,1367.9297 Q1466.9375,1369 1468.2813,1369 Q1468.9063,1369 1469.5,1368.7266 Q1470.0938,1368.4531 1470.7188,1367.875 L1470.7188,1370.5938 Z "/><text fill="#000000" font-family="sans-serif" font-size="12" lengthAdjust="spacingAndGlyphs" textLength="123" x="1481.75" y="1369.1074">input::dvb::PidTable</text><line style="stroke: #A80036; stroke-width: 1.5;" x1="1453.75" x2="1606.75" y1="1380.9531" y2="1380.9531"/><line style="stroke: #A80036; stroke-width: 1.5;" x1="1453.75" x2="1606.75" y1="1388.9531" y2="1388.9531"/><path d="M806.637,69.6731 C743.407,76.0531 641.287,96.9731 591,164.9531 C510.145,274.2531 549.557,452.4031 569.672,522.3931 " fill="none" style="stroke: #A80036; stroke-width: 1.0;"/><polygon fill="#A80036" points="819.892,68.4931,813.5607,65.0413,807.9393,69.5579,814.2706,73.0097,819.892,68.4931" style="stroke: #A80036; stroke-width: 1.0;"/><path d="M808.285,98.5331 C773.594,119.3131 728.965,146.0431 697.573,164.8431 " fill="none" style="stroke: #A80036; stroke-width: 1.0;"/><polygon fill="#A80036" points="819.635,91.7331,812.4322,91.3881,809.3433,97.9042,816.5462,98.2492,819.635,91.7331" style="stroke: #A80036; stroke-width: 1.0;"/><path d="M834.492,114.8231 C825.001,131.9631 814.727,150.5231 806.902,164.6531 " fill="none" style="stroke: #A80036; stroke-width: 1.0;"/><polygon fill="#A80036" points="840.898,103.2531,834.4916,106.5634,835.0832,113.7502,841.4896,110.4399,840.898,103.2531" style="stroke: #A80036; stroke-width: 1.0;"/><path d="M914.534,83.6231 C941.239,94.1931 972.368,110.2231 994,132.9531 C1023.87,164.3331 1039.78,213.5831 1047.01,242.5331 " fill="none" style="stroke: #A80036; stroke-width: 1.0;"/><polygon fill="#A80036" points="902.234,79.0031,906.4463,84.856,913.4691,83.2189,909.2568,77.366,902.234,79.0031" style="stroke: #A80036; stroke-width: 1.0;"/><path d="M861.894,116.4931 C862.981,176.7231 864.771,275.8731 865.58,320.6831 " fill="none" style="stroke: #A80036; stroke-width: 1.0;"/><polygon fill="#A80036" points="861.654,103.1631,857.7601,109.2325,861.865,115.1613,865.7589,109.0919,861.654,103.1631" style="stroke: #A80036; stroke-width: 1.0;"/><path d="M882.803,115.6031 C885.051,121.3931 887.175,127.2631 889,132.9531 C934.306,274.1431 947.941,452.6531 951.693,522.2631 " fill="none" style="stroke: #A80036; stroke-width: 1.0;"/><polygon fill="#A80036" points="877.754,103.1631,876.3096,110.2281,882.2756,114.2787,883.72,107.2137,877.754,103.1631" style="stroke: #A80036; stroke-width: 1.0;"/><path d="M720.503,1135.1691 C707.386,1153.9431 691.801,1176.2471 677.92,1196.1131 " fill="none" style="stroke: #A80036; stroke-width: 1.0;"/><polygon fill="none" points="683.458,1200.4081,666.265,1212.7941,671.982,1192.3901,683.458,1200.4081" style="stroke: #A80036; stroke-width: 1.0;"/><path d="M846.494,593.7831 C867.754,605.4531 890.261,618.8831 910,632.9531 C929.485,646.8371 949.31,663.8481 966.515,679.7251 " fill="none" style="stroke: #A80036; stroke-width: 1.0;"/><polygon fill="none" points="971.447,674.7541,981.189,693.5711,961.838,684.9361,971.447,674.7541" style="stroke: #A80036; stroke-width: 1.0;"/><path d="M830.205,612.4531 C857.872,644.0571 884,685.6381 884,729.9531 C884,729.9531 884,729.9531 884,1092.9531 C884,1174.1681 786.69,1215.0661 715.228,1234.1501 " fill="none" style="stroke: #A80036; stroke-width: 1.0;"/><polygon fill="#A80036" points="821.2,602.5531,822.2763,609.6835,829.2721,611.4324,828.1958,604.3021,821.2,602.5531" style="stroke: #A80036; stroke-width: 1.0;"/><text fill="#000000" font-family="sans-serif" font-size="13" lengthAdjust="spacingAndGlyphs" textLength="47" x="885" y="919.02">_server</text><path d="M764.159,615.7331 C760.869,726.1481 754.063,954.5771 751.254,1048.8501 " fill="none" style="stroke: #A80036; stroke-width: 1.0;"/><polygon fill="#A80036" points="764.552,602.5531,760.3757,608.4318,764.196,614.5478,768.3722,608.6692,764.552,602.5531" style="stroke: #A80036; stroke-width: 1.0;"/><text fill="#000000" font-family="sans-serif" font-size="13" lengthAdjust="spacingAndGlyphs" textLength="59" x="760" y="824.02">_client[..]</text><path d="M1070.46,473.1731 C1059.99,523.4631 1040.95,614.9131 1028.65,674.0111 " fill="none" style="stroke: #A80036; stroke-width: 1.0;"/><polygon fill="none" points="1035.45,675.6611,1024.52,693.8141,1021.75,672.8071,1035.45,675.6611" style="stroke: #A80036; stroke-width: 1.0;"/><path d="M1055.62,291.1731 C1059.12,313.7131 1064.59,348.7931 1069.24,378.6631 " fill="none" style="stroke: #A80036; stroke-width: 1.0;"/><polygon fill="none" points="1076.21,377.9231,1072.37,398.7631,1062.37,380.0731,1076.21,377.9231" style="stroke: #A80036; stroke-width: 1.0;"/><path d="M669.48,213.0131 C680.202,236.5931 697.094,273.7631 710.148,302.4731 " fill="none" style="stroke: #A80036; stroke-width: 1.0;"/><polygon fill="none" points="716.545,299.6331,718.449,320.7431,703.8,305.4331,716.545,299.6331" style="stroke: #A80036; stroke-width: 1.0;"/><path d="M784.269,213.0131 C774.36,236.4831 758.778,273.4031 746.681,302.0631 " fill="none" style="stroke: #A80036; stroke-width: 1.0;"/><polygon fill="none" points="753.024,305.0331,738.798,320.7431,740.126,299.5931,753.024,305.0331" style="stroke: #A80036; stroke-width: 1.0;"/><path d="M810.466,225.1731 C824.171,254.4831 843.293,295.3831 855.147,320.7431 " fill="none" style="stroke: #A80036; stroke-width: 1.0; stroke-dasharray: 7.0,7.0;"/><polygon fill="#A80036" points="804.779,213.0131,803.7007,220.1431,809.8675,223.8808,810.9458,216.7508,804.779,213.0131" style="stroke: #A80036; stroke-width: 1.0;"/><path d="M733.172,369.1831 C738.113,396.6931 746.567,443.7631 753.658,483.2431 " fill="none" style="stroke: #A80036; stroke-width: 1.0;"/><polygon fill="none" points="760.571,482.1331,757.217,503.0531,746.791,484.6031,760.571,482.1331" style="stroke: #A80036; stroke-width: 1.0;"/><path d="M664.211,365.9431 C647.45,373.8631 630.817,384.6031 619,398.9531 C589.859,434.3531 581.715,488.6731 579.576,522.1731 " fill="none" style="stroke: #A80036; stroke-width: 1.0; stroke-dasharray: 7.0,7.0;"/><polygon fill="#A80036" points="676.371,360.6631,669.2746,359.3819,665.3626,365.4396,672.4589,366.7208,676.371,360.6631" style="stroke: #A80036; stroke-width: 1.0;"/><text fill="#000000" font-family="sans-serif" font-size="13" lengthAdjust="spacingAndGlyphs" textLength="109" x="620" y="440.02">_streamManager</text><path d="M763.98,378.1231 C806.862,417.5631 878.955,483.8531 920.616,522.1731 " fill="none" style="stroke: #A80036; stroke-width: 1.0; stroke-dasharray: 7.0,7.0;"/><polygon fill="#A80036" points="754.26,369.1831,755.9696,376.1886,763.0938,377.3049,761.3842,370.2994,754.26,369.1831" style="stroke: #A80036; stroke-width: 1.0;"/><path d="M546.79,780.7431 C499.475,852.4151 412.071,984.8121 368.348,1051.0411 " fill="none" style="stroke: #A80036; stroke-width: 1.0;"/><polygon fill="none" points="374.105,1055.0271,357.244,1067.8611,362.421,1047.3141,374.105,1055.0271" style="stroke: #A80036; stroke-width: 1.0;"/><path d="M581.041,793.8611 C581.737,814.9691 582.51,838.4111 583.186,858.9401 " fill="none" style="stroke: #A80036; stroke-width: 1.0;"/><polygon fill="#A80036" points="580.608,780.7261,576.808,786.8547,581.0036,792.7196,584.8036,786.591,580.608,780.7261" style="stroke: #A80036; stroke-width: 1.0;"/><text fill="#000000" font-family="sans-serif" font-size="13" lengthAdjust="spacingAndGlyphs" textLength="59" x="588" y="824.02">_client[..]</text><path d="M640.139,750.6541 C755.969,786.0851 1005.805,862.5051 1117.75,896.7461 " fill="none" style="stroke: #A80036; stroke-width: 1.0;"/><polygon fill="#A80036" points="627.691,746.8471,632.2584,752.4273,639.1661,750.3574,634.5986,744.7772,627.691,746.8471" style="stroke: #A80036; stroke-width: 1.0;"/><path d="M518.257,760.0081 C489.344,774.1371 454.686,792.2231 425,810.9531 C385.732,835.7291 343.683,869.0061 317.138,890.9451 " fill="none" style="stroke: #A80036; stroke-width: 1.0;"/><polygon fill="#A80036" points="530.265,754.2041,523.1222,753.2138,519.4608,759.4262,526.6036,760.4166,530.265,754.2041" style="stroke: #A80036; stroke-width: 1.0;"/><path d="M579,596.8231 C579,622.3531 579,654.8231 579,681.3071 " fill="none" style="stroke: #A80036; stroke-width: 1.0;"/><polygon fill="#A80036" points="579,583.8131,575,589.8131,579,595.8131,583,589.8131,579,583.8131" style="stroke: #A80036; stroke-width: 1.0;"/><text fill="#000000" font-family="sans-serif" font-size="13" lengthAdjust="spacingAndGlyphs" textLength="71" x="584" y="646.02">_stream[..]</text><path d="M499.793,573.2831 C448.36,582.2831 396.926,583.0931 345.492,575.7231 " fill="none" style="stroke: #A80036; stroke-width: 1.0;"/><polygon fill="#A80036" points="512.87,570.8231,506.2335,568.0023,501.0772,573.0433,507.7137,575.8642,512.87,570.8231" style="stroke: #A80036; stroke-width: 1.0;"/><path d="M345.492,530.1831 C401.285,522.1831 457.077,523.8231 512.87,535.0831 " fill="none" style="stroke: #A80036; stroke-width: 1.0; stroke-dasharray: 7.0,7.0;"/><path d="M537.435,982.2131 C511.934,1026.3061 489.879,1085.0731 512,1134.9531 C526.177,1166.9191 554.34,1193.4781 580.745,1212.8961 " fill="none" style="stroke: #A80036; stroke-width: 1.0;"/><polygon fill="#A80036" points="544.146,971.0471,537.627,974.1298,537.9653,981.333,544.4842,978.2503,544.146,971.0471" style="stroke: #A80036; stroke-width: 1.0;"/><text fill="#000000" font-family="sans-serif" font-size="13" lengthAdjust="spacingAndGlyphs" textLength="25" x="517" y="1096.02">_rtp</text><path d="M589.577,984.2391 C593.202,1027.6631 599.306,1084.9291 609,1134.9531 C614.123,1161.3901 622.382,1190.6221 629.227,1212.8661 " fill="none" style="stroke: #A80036; stroke-width: 1.0;"/><polygon fill="#A80036" points="588.53,971.2301,585.0242,977.5317,589.4927,983.1914,592.9985,976.8899,588.53,971.2301" style="stroke: #A80036; stroke-width: 1.0;"/><text fill="#000000" font-family="sans-serif" font-size="13" lengthAdjust="spacingAndGlyphs" textLength="32" x="614" y="1096.02">_rtcp</text><path d="M640.4,981.1081 C651.653,993.8401 663.552,1006.9561 675,1018.9531 C684.47,1028.8771 694.927,1039.2551 704.951,1048.9421 " fill="none" style="stroke: #A80036; stroke-width: 1.0; stroke-dasharray: 7.0,7.0;"/><polygon fill="#A80036" points="631.536,971.0081,632.4879,978.1561,639.4521,980.0267,638.5003,972.8787,631.536,971.0081" style="stroke: #A80036; stroke-width: 1.0;"/><text fill="#000000" font-family="sans-serif" font-size="13" lengthAdjust="spacingAndGlyphs" textLength="40" x="680" y="1014.02">_httpc</text><path d="M286.049,877.4791 C278.559,808.3471 262.381,659.0121 254.918,590.1231 " fill="none" style="stroke: #A80036; stroke-width: 1.0; stroke-dasharray: 7.0,7.0;"/><polygon fill="#A80036" points="287.467,890.5721,290.7976,884.1762,286.1747,878.6419,282.8441,885.0378,287.467,890.5721" style="stroke: #A80036; stroke-width: 1.0;"/><path d="M260.803,949.0771 C248.091,964.3161 233.503,982.9751 222,1000.9531 C208.16,1022.5841 195.376,1049.0491 187,1067.6631 " fill="none" style="stroke: #A80036; stroke-width: 1.0;"/><polygon fill="#A80036" points="269.244,939.1231,262.3125,941.1117,261.4822,948.2749,268.4137,946.2863,269.244,939.1231" style="stroke: #A80036; stroke-width: 1.0;"/><text fill="#000000" font-family="sans-serif" font-size="13" lengthAdjust="spacingAndGlyphs" textLength="75" x="227" y="1014.02">_tsBuffer[..]</text><path d="M300.729,952.0591 C311.059,986.8241 326.371,1038.3561 335.149,1067.8971 " fill="none" style="stroke: #A80036; stroke-width: 1.0; stroke-dasharray: 7.0,7.0;"/><polygon fill="#A80036" points="296.905,939.1921,294.7797,946.0829,300.323,950.695,302.4483,943.8042,296.905,939.1921" style="stroke: #A80036; stroke-width: 1.0;"/><path d="M132.624,761.6001 C165.071,793.0111 216.376,842.6791 251.53,876.7101 " fill="none" style="stroke: #A80036; stroke-width: 1.0;"/><polygon fill="none" points="256.461,871.7411,265.961,890.6821,246.723,881.8001,256.461,871.7411" style="stroke: #A80036; stroke-width: 1.0;"/><path d="M102,774.7061 C102,810.9311 102,861.5061 102,890.6821 " fill="none" style="stroke: #A80036; stroke-width: 1.0;"/><polygon fill="#A80036" points="102,761.6001,98,767.6001,102,773.6001,106,767.6001,102,761.6001" style="stroke: #A80036; stroke-width: 1.0;"/><path d="M130.25,949.0001 C149.805,970.6041 177.223,998.5021 205,1018.9531 C220.471,1030.3431 261.406,1051.4741 294.529,1067.9101 " fill="none" style="stroke: #A80036; stroke-width: 1.0; stroke-dasharray: 7.0,7.0;"/><polygon fill="#A80036" points="121.58,939.2641,122.5825,946.4052,129.5599,948.2263,128.5574,941.0853,121.58,939.2641" style="stroke: #A80036; stroke-width: 1.0;"/><path d="M366.855,755.0031 C352.578,784.5291 327.581,836.2281 309.979,872.6321 " fill="none" style="stroke: #A80036; stroke-width: 1.0;"/><polygon fill="none" points="316.202,875.8441,301.193,890.8031,303.598,869.7501,316.202,875.8441" style="stroke: #A80036; stroke-width: 1.0;"/><path d="M1205.44,755.0031 C1199.68,784.1201 1189.66,834.8001 1182.47,871.1101 " fill="none" style="stroke: #A80036; stroke-width: 1.0;"/><polygon fill="none" points="1189.33,872.5411,1178.58,890.8031,1175.59,869.8251,1189.33,872.5411" style="stroke: #A80036; stroke-width: 1.0;"/><path d="M1174,959.1921 C1174,993.5681 1174,1040.3171 1174,1067.8971 " fill="none" style="stroke: #A80036; stroke-width: 1.0;"/><polygon fill="none" points="1167,959.1921,1174,939.1921,1181,959.1921,1167,959.1921" style="stroke: #A80036; stroke-width: 1.0;"/><path d="M1174,1115.9711 C1174,1139.4751 1174,1176.5291 1174,1205.5611 " fill="none" style="stroke: #A80036; stroke-width: 1.0;"/><polygon fill="none" points="1181,1205.8401,1174,1225.8401,1167,1205.8401,1181,1205.8401" style="stroke: #A80036; stroke-width: 1.0;"/><path d="M1108.22,1121.6141 C1083.46,1133.5941 1055.6,1148.5501 1032,1164.9531 C1006.22,1182.8671 980.25,1207.6701 962.688,1225.6771 " fill="none" style="stroke: #A80036; stroke-width: 1.0;"/><polygon fill="#A80036" points="1120.09,1115.9801,1112.9547,1114.9375,1109.2479,1121.1229,1116.3832,1122.1656,1120.09,1115.9801" style="stroke: #A80036; stroke-width: 1.0;"/><text fill="#000000" font-family="sans-serif" font-size="13" lengthAdjust="spacingAndGlyphs" textLength="123" x="1037" y="1178.02">_deliverySystem[..]</text><path d="M1218.18,1123.4461 C1261.67,1153.4711 1327.15,1198.6661 1366.52,1225.8401 " fill="none" style="stroke: #A80036; stroke-width: 1.0;"/><polygon fill="#A80036" points="1207.35,1115.9711,1210.0152,1122.6716,1217.2254,1122.7885,1214.5602,1116.088,1207.35,1115.9711" style="stroke: #A80036; stroke-width: 1.0;"/><path d="M955.992,1293.1391 C962.6,1311.7351 970.114,1332.8801 975.695,1348.5831 " fill="none" style="stroke: #A80036; stroke-width: 1.0;"/><polygon fill="none" points="949.29,1295.1861,949.189,1273.9971,962.482,1290.4981,949.29,1295.1861" style="stroke: #A80036; stroke-width: 1.0;"/><path d="M983.58,1286.9821 C1007.14,1306.9171 1035.74,1331.1161 1056.38,1348.5831 " fill="none" style="stroke: #A80036; stroke-width: 1.0;"/><polygon fill="none" points="978.98,1292.2601,968.234,1273.9971,988.023,1281.5721,978.98,1292.2601" style="stroke: #A80036; stroke-width: 1.0;"/><path d="M895.528,1286.4501 C869.763,1306.5641 838.266,1331.1521 815.673,1348.7891 " fill="none" style="stroke: #A80036; stroke-width: 1.0;"/><polygon fill="none" points="891.408,1280.7861,911.481,1273.9971,900.023,1291.8221,891.408,1280.7861" style="stroke: #A80036; stroke-width: 1.0;"/><path d="M921.889,1292.2461 C913.184,1311.0551 903.2,1332.6281 895.816,1348.5831 " fill="none" style="stroke: #A80036; stroke-width: 1.0;"/><polygon fill="none" points="915.582,1289.2071,930.335,1273.9971,928.287,1295.0871,915.582,1289.2071" style="stroke: #A80036; stroke-width: 1.0;"/><path d="M984,1410.1651 C984,1430.9631 984,1456.4731 984,1474.6231 " fill="none" style="stroke: #A80036; stroke-width: 1.0;"/><polygon fill="#A80036" points="984,1396.9861,980,1402.9861,984,1408.9861,988,1402.9861,984,1396.9861" style="stroke: #A80036; stroke-width: 1.0;"/><path d="M984,1536.428 C984,1552.4308 984,1570.7366 984,1584.8227 " fill="none" style="stroke: #A80036; stroke-width: 1.0;"/><polygon fill="#A80036" points="984,1523.1221,980,1529.1221,984,1535.1221,988,1529.1221,984,1523.1221" style="stroke: #A80036; stroke-width: 1.0;"/><path d="M1332.84,1407.0061 C1338.09,1413.2741 1343.06,1420.0441 1347,1426.9531 C1355.5,1441.8631 1361.11,1460.4441 1364.53,1474.8581 " fill="none" style="stroke: #A80036; stroke-width: 1.0;"/><polygon fill="#A80036" points="1323.9,1396.9961,1324.9184,1404.1349,1331.8998,1405.9405,1330.8814,1398.8017,1323.9,1396.9961" style="stroke: #A80036; stroke-width: 1.0;"/><path d="M1235.51,1405.0641 C1228.1,1411.2931 1221.57,1418.5601 1217,1426.9531 C1209.1,1441.4731 1210.29,1460.2461 1213.22,1474.8401 " fill="none" style="stroke: #A80036; stroke-width: 1.0;"/><polygon fill="#A80036" points="1246.06,1397.2041,1238.8589,1397.5834,1236.4393,1404.3765,1243.6404,1403.9972,1246.06,1397.2041" style="stroke: #A80036; stroke-width: 1.0;"/><text fill="#000000" font-family="sans-serif" font-size="13" lengthAdjust="spacingAndGlyphs" textLength="28" x="1222" y="1440.02">_pat</text><path d="M1281.18,1408.7621 C1274.84,1420.4731 1267.43,1433.4741 1260,1444.9531 C1253.49,1455.0181 1245.66,1465.6521 1238.67,1474.7321 " fill="none" style="stroke: #A80036; stroke-width: 1.0;"/><polygon fill="#A80036" points="1287.35,1397.1431,1281.004,1400.5678,1281.7245,1407.7428,1288.0705,1404.3181,1287.35,1397.1431" style="stroke: #A80036; stroke-width: 1.0;"/><text fill="#000000" font-family="sans-serif" font-size="13" lengthAdjust="spacingAndGlyphs" textLength="33" x="1276" y="1440.02">_pmt</text><path d="M1400,1136.2291 C1400,1165.2391 1400,1202.3011 1400,1225.8401 " fill="none" style="stroke: #A80036; stroke-width: 1.0;"/><polygon fill="none" points="1393,1135.9711,1400,1115.9711,1407,1135.9711,1393,1135.9711" style="stroke: #A80036; stroke-width: 1.0;"/><path d="M1380.76,1273.9971 C1366.81,1290.7111 1347.61,1313.7121 1331.33,1333.2261 " fill="none" style="stroke: #A80036; stroke-width: 1.0;"/><polygon fill="none" points="1336.7,1337.7141,1318.51,1348.5831,1325.95,1328.7431,1336.7,1337.7141" style="stroke: #A80036; stroke-width: 1.0;"/><path d="M1434.45,1283.0181 C1456.59,1303.6291 1484.86,1329.9401 1504.89,1348.5831 " fill="none" style="stroke: #A80036; stroke-width: 1.0;"/><polygon fill="#A80036" points="1424.76,1273.9971,1426.4266,1281.013,1433.5438,1282.173,1431.8772,1275.1571,1424.76,1273.9971" style="stroke: #A80036; stroke-width: 1.0;"/></g></svg>