<?xml version="1.0" encoding="UTF-8" standalone="yes"?><svg xmlns="http://www.w3.org/2000/svg" xmlns:xlink="http://www.w3.org/1999/xlink" height="2271px" style="width:1671px;height:2271px;" version="1.1" viewBox="0 0 1671 2271" width="1671px"><defs><filter height="300%" id="f1" width="300%" x="-1" y="-1"><feGaussianBlur result="blurOut" stdDeviation="2.0"/><feColorMatrix in="blurOut" result="blurOut2" type="matrix" values="0 0 0 0 0 0 0 0 0 0 0 0 0 0 0 0 0 0 .4 0"/><feOffset dx="4.0" dy="4.0" in="blurOut2" result="blurOut3"/><feBlend in="SourceGraphic" in2="blurOut3" mode="normal"/></filter></defs><g><text fill="#000000" font-family="sans-serif" font-size="18" lengthAdjust="spacingAndGlyphs" textLength="45" x="824.75" y="16.708">SatPI</text><rect fill="#FFCCCC" filter="url(#f1)" height="73.6094" style="stroke: #A80036; stroke-width: 1.5;" width="82" x="1015.25" y="28.9531"/><rect fill="#FFCCCC" height="32" style="stroke: #A80036; stroke-width: 1.5;" width="82" x="1015.25" y="28.9531"/><ellipse cx="1038.35" cy="44.9531" fill="#ADD1B2" rx="11" ry="11" style="stroke: #A80036; stroke-width: 1.0;"/><path d="M1041.3188,50.5938 Q1040.7406,50.8906 1040.1,51.0391 Q1039.4594,51.1875 1038.7563,51.1875 Q1036.2563,51.1875 1034.9359,49.5391 Q1033.6156,47.8906 1033.6156,44.7656 Q1033.6156,41.6406 1034.9359,39.9844 Q1036.2563,38.3281 1038.7563,38.3281 Q1039.4594,38.3281 1040.1078,38.4844 Q1040.7563,38.6406 1041.3188,38.9375 L1041.3188,41.6563 Q1040.6938,41.0781 1040.1,40.8047 Q1039.5063,40.5313 1038.8813,40.5313 Q1037.5375,40.5313 1036.85,41.6016 Q1036.1625,42.6719 1036.1625,44.7656 Q1036.1625,46.8594 1036.85,47.9297 Q1037.5375,49 1038.8813,49 Q1039.5063,49 1040.1,48.7266 Q1040.6938,48.4531 1041.3188,47.875 L1041.3188,50.5938 Z "/><text fill="#000000" font-family="sans-serif" font-size="12" lengthAdjust="spacingAndGlyphs" textLength="32" x="1054.15" y="49.1074">SatPI</text><line style="stroke: #A80036; stroke-width: 1.5;" x1="1016.25" x2="1096.25" y1="60.9531" y2="60.9531"/><text fill="#000000" font-family="sans-serif" font-size="11" lengthAdjust="spacingAndGlyphs" textLength="59" x="1021.25" y="75.1636">Properties</text><text fill="#000000" font-family="sans-serif" font-size="11" lengthAdjust="spacingAndGlyphs" textLength="70" x="1021.25" y="87.9683">InterfaceAttr</text><line style="stroke: #A80036; stroke-width: 1.5;" x1="1016.25" x2="1096.25" y1="94.5625" y2="94.5625"/><rect fill="#AAAAFF" filter="url(#f1)" height="60.8047" style="stroke: #A80036; stroke-width: 1.5;" width="132" x="1327.25" y="638.4531"/><rect fill="#AAAAFF" height="32" style="stroke: #A80036; stroke-width: 1.5;" width="132" x="1327.25" y="638.4531"/><ellipse cx="1342.25" cy="654.4531" fill="#ADD1B2" rx="11" ry="11" style="stroke: #A80036; stroke-width: 1.0;"/><path d="M1345.2188,660.0938 Q1344.6406,660.3906 1344,660.5391 Q1343.3594,660.6875 1342.6563,660.6875 Q1340.1563,660.6875 1338.8359,659.0391 Q1337.5156,657.3906 1337.5156,654.2656 Q1337.5156,651.1406 1338.8359,649.4844 Q1340.1563,647.8281 1342.6563,647.8281 Q1343.3594,647.8281 1344.0078,647.9844 Q1344.6563,648.1406 1345.2188,648.4375 L1345.2188,651.1563 Q1344.5938,650.5781 1344,650.3047 Q1343.4063,650.0313 1342.7813,650.0313 Q1341.4375,650.0313 1340.75,651.1016 Q1340.0625,652.1719 1340.0625,654.2656 Q1340.0625,656.3594 1340.75,657.4297 Q1341.4375,658.5 1342.7813,658.5 Q1343.4063,658.5 1344,658.2266 Q1344.5938,657.9531 1345.2188,657.375 L1345.2188,660.0938 Z "/><text fill="#000000" font-family="sans-serif" font-size="12" lengthAdjust="spacingAndGlyphs" textLength="100" x="1356.25" y="658.6074">StreamManager</text><line style="stroke: #A80036; stroke-width: 1.5;" x1="1328.25" x2="1458.25" y1="670.4531" y2="670.4531"/><text fill="#000000" font-family="sans-serif" font-size="11" lengthAdjust="spacingAndGlyphs" textLength="33" x="1333.25" y="684.6636">Mutex</text><line style="stroke: #A80036; stroke-width: 1.5;" x1="1328.25" x2="1458.25" y1="691.2578" y2="691.2578"/><rect fill="#FEFECE" filter="url(#f1)" height="124.8281" style="stroke: #A80036; stroke-width: 1.5;" width="173" x="885" y="165.4531"/><ellipse cx="933.25" cy="181.4531" fill="#ADD1B2" rx="11" ry="11" style="stroke: #A80036; stroke-width: 1.0;"/><path d="M936.2188,187.0938 Q935.6406,187.3906 935,187.5391 Q934.3594,187.6875 933.6563,187.6875 Q931.1563,187.6875 929.8359,186.0391 Q928.5156,184.3906 928.5156,181.2656 Q928.5156,178.1406 929.8359,176.4844 Q931.1563,174.8281 933.6563,174.8281 Q934.3594,174.8281 935.0078,174.9844 Q935.6563,175.1406 936.2188,175.4375 L936.2188,178.1563 Q935.5938,177.5781 935,177.3047 Q934.4063,177.0313 933.7813,177.0313 Q932.4375,177.0313 931.75,178.1016 Q931.0625,179.1719 931.0625,181.2656 Q931.0625,183.3594 931.75,184.4297 Q932.4375,185.5 933.7813,185.5 Q934.4063,185.5 935,185.2266 Q935.5938,184.9531 936.2188,184.375 L936.2188,187.0938 Z "/><text fill="#000000" font-family="sans-serif" font-size="12" lengthAdjust="spacingAndGlyphs" textLength="68" x="953.75" y="185.6074">RtspServer</text><line style="stroke: #A80036; stroke-width: 1.5;" x1="886" x2="1057" y1="197.4531" y2="197.4531"/><line style="stroke: #A80036; stroke-width: 1.5;" x1="886" x2="1057" y1="205.4531" y2="205.4531"/><text fill="#000000" font-family="sans-serif" font-size="11" lengthAdjust="spacingAndGlyphs" textLength="161" x="891" y="219.6636">threadEntry() -&gt; calls poll(..)</text><text fill="#000000" font-family="sans-serif" font-size="11" lengthAdjust="spacingAndGlyphs" textLength="92" x="891" y="232.4683">methodSetup(..)</text><text fill="#000000" font-family="sans-serif" font-size="11" lengthAdjust="spacingAndGlyphs" textLength="82" x="891" y="245.2729">methodPlay(..)</text><text fill="#000000" font-family="sans-serif" font-size="11" lengthAdjust="spacingAndGlyphs" textLength="103" x="891" y="258.0776">methodOptions(..)</text><text fill="#000000" font-family="sans-serif" font-size="11" lengthAdjust="spacingAndGlyphs" textLength="109" x="891" y="270.8823">methodDescribe(..)</text><text fill="#000000" font-family="sans-serif" font-size="11" lengthAdjust="spacingAndGlyphs" textLength="115" x="891" y="283.687">methodTeardown(..)</text><rect fill="#FEFECE" filter="url(#f1)" height="86.4141" style="stroke: #A80036; stroke-width: 1.5;" width="173" x="1098" y="184.9531"/><ellipse cx="1146.75" cy="200.9531" fill="#ADD1B2" rx="11" ry="11" style="stroke: #A80036; stroke-width: 1.0;"/><path d="M1149.7188,206.5938 Q1149.1406,206.8906 1148.5,207.0391 Q1147.8594,207.1875 1147.1563,207.1875 Q1144.6563,207.1875 1143.3359,205.5391 Q1142.0156,203.8906 1142.0156,200.7656 Q1142.0156,197.6406 1143.3359,195.9844 Q1144.6563,194.3281 1147.1563,194.3281 Q1147.8594,194.3281 1148.5078,194.4844 Q1149.1563,194.6406 1149.7188,194.9375 L1149.7188,197.6563 Q1149.0938,197.0781 1148.5,196.8047 Q1147.9063,196.5313 1147.2813,196.5313 Q1145.9375,196.5313 1145.25,197.6016 Q1144.5625,198.6719 1144.5625,200.7656 Q1144.5625,202.8594 1145.25,203.9297 Q1145.9375,205 1147.2813,205 Q1147.9063,205 1148.5,204.7266 Q1149.0938,204.4531 1149.7188,203.875 L1149.7188,206.5938 Z "/><text fill="#000000" font-family="sans-serif" font-size="12" lengthAdjust="spacingAndGlyphs" textLength="67" x="1167.25" y="205.1074">HttpServer</text><line style="stroke: #A80036; stroke-width: 1.5;" x1="1099" x2="1270" y1="216.9531" y2="216.9531"/><line style="stroke: #A80036; stroke-width: 1.5;" x1="1099" x2="1270" y1="224.9531" y2="224.9531"/><text fill="#000000" font-family="sans-serif" font-size="11" lengthAdjust="spacingAndGlyphs" textLength="161" x="1104" y="239.1636">threadEntry() -&gt; calls poll(..)</text><text fill="#000000" font-family="sans-serif" font-size="11" lengthAdjust="spacingAndGlyphs" textLength="84" x="1104" y="251.9683">methodPost(..)</text><text fill="#000000" font-family="sans-serif" font-size="11" lengthAdjust="spacingAndGlyphs" textLength="79" x="1104" y="264.7729">methodGet(..)</text><rect fill="#FEFECE" filter="url(#f1)" height="48" style="stroke: #A80036; stroke-width: 1.5;" width="103" x="678" y="320.9531"/><ellipse cx="693" cy="336.9531" fill="#ADD1B2" rx="11" ry="11" style="stroke: #A80036; stroke-width: 1.0;"/><path d="M695.9688,342.5938 Q695.3906,342.8906 694.75,343.0391 Q694.1094,343.1875 693.4063,343.1875 Q690.9063,343.1875 689.5859,341.5391 Q688.2656,339.8906 688.2656,336.7656 Q688.2656,333.6406 689.5859,331.9844 Q690.9063,330.3281 693.4063,330.3281 Q694.1094,330.3281 694.7578,330.4844 Q695.4063,330.6406 695.9688,330.9375 L695.9688,333.6563 Q695.3438,333.0781 694.75,332.8047 Q694.1563,332.5313 693.5313,332.5313 Q692.1875,332.5313 691.5,333.6016 Q690.8125,334.6719 690.8125,336.7656 Q690.8125,338.8594 691.5,339.9297 Q692.1875,341 693.5313,341 Q694.1563,341 694.75,340.7266 Q695.3438,340.4531 695.9688,339.875 L695.9688,342.5938 Z "/><text fill="#000000" font-family="sans-serif" font-size="12" lengthAdjust="spacingAndGlyphs" textLength="71" x="707" y="341.1074">SsdpServer</text><line style="stroke: #A80036; stroke-width: 1.5;" x1="679" x2="780" y1="352.9531" y2="352.9531"/><line style="stroke: #A80036; stroke-width: 1.5;" x1="679" x2="780" y1="360.9531" y2="360.9531"/><rect fill="#FEFECE" filter="url(#f1)" height="48" style="stroke: #A80036; stroke-width: 1.5;" width="97" x="1209" y="417.9531"/><ellipse cx="1224" cy="433.9531" fill="#ADD1B2" rx="11" ry="11" style="stroke: #A80036; stroke-width: 1.0;"/><path d="M1226.9688,439.5938 Q1226.3906,439.8906 1225.75,440.0391 Q1225.1094,440.1875 1224.4063,440.1875 Q1221.9063,440.1875 1220.5859,438.5391 Q1219.2656,436.8906 1219.2656,433.7656 Q1219.2656,430.6406 1220.5859,428.9844 Q1221.9063,427.3281 1224.4063,427.3281 Q1225.1094,427.3281 1225.7578,427.4844 Q1226.4063,427.6406 1226.9688,427.9375 L1226.9688,430.6563 Q1226.3438,430.0781 1225.75,429.8047 Q1225.1563,429.5313 1224.5313,429.5313 Q1223.1875,429.5313 1222.5,430.6016 Q1221.8125,431.6719 1221.8125,433.7656 Q1221.8125,435.8594 1222.5,436.9297 Q1223.1875,438 1224.5313,438 Q1225.1563,438 1225.75,437.7266 Q1226.3438,437.4531 1226.9688,436.875 L1226.9688,439.5938 Z "/><text fill="#000000" font-family="sans-serif" font-size="12" lengthAdjust="spacingAndGlyphs" textLength="65" x="1238" y="438.1074">Properties</text><line style="stroke: #A80036; stroke-width: 1.5;" x1="1210" x2="1305" y1="449.9531" y2="449.9531"/><line style="stroke: #A80036; stroke-width: 1.5;" x1="1210" x2="1305" y1="457.9531" y2="457.9531"/><rect fill="#FEFECE" filter="url(#f1)" height="60.8047" style="stroke: #A80036; stroke-width: 1.5;" width="111" x="772" y="638.4531"/><ellipse cx="787" cy="654.4531" fill="#ADD1B2" rx="11" ry="11" style="stroke: #A80036; stroke-width: 1.0;"/><path d="M789.9688,660.0938 Q789.3906,660.3906 788.75,660.5391 Q788.1094,660.6875 787.4063,660.6875 Q784.9063,660.6875 783.5859,659.0391 Q782.2656,657.3906 782.2656,654.2656 Q782.2656,651.1406 783.5859,649.4844 Q784.9063,647.8281 787.4063,647.8281 Q788.1094,647.8281 788.7578,647.9844 Q789.4063,648.1406 789.9688,648.4375 L789.9688,651.1563 Q789.3438,650.5781 788.75,650.3047 Q788.1563,650.0313 787.5313,650.0313 Q786.1875,650.0313 785.5,651.1016 Q784.8125,652.1719 784.8125,654.2656 Q784.8125,656.3594 785.5,657.4297 Q786.1875,658.5 787.5313,658.5 Q788.1563,658.5 788.75,658.2266 Q789.3438,657.9531 789.9688,657.375 L789.9688,660.0938 Z "/><text fill="#000000" font-family="sans-serif" font-size="12" lengthAdjust="spacingAndGlyphs" textLength="79" x="801" y="658.6074">InterfaceAttr</text><line style="stroke: #A80036; stroke-width: 1.5;" x1="773" x2="882" y1="670.4531" y2="670.4531"/><text fill="#000000" font-family="sans-serif" font-size="11" lengthAdjust="spacingAndGlyphs" textLength="50" x="778" y="684.6636">Eth0 etc.</text><line style="stroke: #A80036; stroke-width: 1.5;" x1="773" x2="882" y1="691.2578" y2="691.2578"/><rect fill="#FEFECE" filter="url(#f1)" height="73.6094" style="stroke: #A80036; stroke-width: 1.5;" width="159" x="678" y="809.9531"/><ellipse cx="693" cy="825.9531" fill="#ADD1B2" rx="11" ry="11" style="stroke: #A80036; stroke-width: 1.0;"/><path d="M695.9688,831.5938 Q695.3906,831.8906 694.75,832.0391 Q694.1094,832.1875 693.4063,832.1875 Q690.9063,832.1875 689.5859,830.5391 Q688.2656,828.8906 688.2656,825.7656 Q688.2656,822.6406 689.5859,820.9844 Q690.9063,819.3281 693.4063,819.3281 Q694.1094,819.3281 694.7578,819.4844 Q695.4063,819.6406 695.9688,819.9375 L695.9688,822.6563 Q695.3438,822.0781 694.75,821.8047 Q694.1563,821.5313 693.5313,821.5313 Q692.1875,821.5313 691.5,822.6016 Q690.8125,823.6719 690.8125,825.7656 Q690.8125,827.8594 691.5,828.9297 Q692.1875,830 693.5313,830 Q694.1563,830 694.75,829.7266 Q695.3438,829.4531 695.9688,828.875 L695.9688,831.5938 Z "/><text fill="#000000" font-family="sans-serif" font-size="12" lengthAdjust="spacingAndGlyphs" textLength="127" x="707" y="830.1074">socket::HttpcSocket</text><line style="stroke: #A80036; stroke-width: 1.5;" x1="679" x2="836" y1="841.9531" y2="841.9531"/><line style="stroke: #A80036; stroke-width: 1.5;" x1="679" x2="836" y1="849.9531" y2="849.9531"/><text fill="#000000" font-family="sans-serif" font-size="11" lengthAdjust="spacingAndGlyphs" textLength="120" x="684" y="864.1636">recvHttpcMessage(..)</text><text fill="#000000" font-family="sans-serif" font-size="11" lengthAdjust="spacingAndGlyphs" textLength="147" x="684" y="876.9683">recvfromHttpcMessage(..)</text><rect fill="#FEFECE" filter="url(#f1)" height="86.4141" style="stroke: #A80036; stroke-width: 1.5;" width="161" x="1048" y="1164.9531"/><ellipse cx="1063.45" cy="1180.9531" fill="#ADD1B2" rx="11" ry="11" style="stroke: #A80036; stroke-width: 1.0;"/><path d="M1066.4188,1186.5938 Q1065.8406,1186.8906 1065.2,1187.0391 Q1064.5594,1187.1875 1063.8563,1187.1875 Q1061.3563,1187.1875 1060.0359,1185.5391 Q1058.7156,1183.8906 1058.7156,1180.7656 Q1058.7156,1177.6406 1060.0359,1175.9844 Q1061.3563,1174.3281 1063.8563,1174.3281 Q1064.5594,1174.3281 1065.2078,1174.4844 Q1065.8563,1174.6406 1066.4188,1174.9375 L1066.4188,1177.6563 Q1065.7938,1177.0781 1065.2,1176.8047 Q1064.6063,1176.5313 1063.9813,1176.5313 Q1062.6375,1176.5313 1061.95,1177.6016 Q1061.2625,1178.6719 1061.2625,1180.7656 Q1061.2625,1182.8594 1061.95,1183.9297 Q1062.6375,1185 1063.9813,1185 Q1064.6063,1185 1065.2,1184.7266 Q1065.7938,1184.4531 1066.4188,1183.875 L1066.4188,1186.5938 Z "/><text fill="#000000" font-family="sans-serif" font-size="12" lengthAdjust="spacingAndGlyphs" textLength="128" x="1077.55" y="1185.1074">socket::SocketClient</text><line style="stroke: #A80036; stroke-width: 1.5;" x1="1049" x2="1208" y1="1196.9531" y2="1196.9531"/><text fill="#000000" font-family="sans-serif" font-size="11" lengthAdjust="spacingAndGlyphs" textLength="94" x="1054" y="1211.1636">std::string _msg</text><text fill="#000000" font-family="sans-serif" font-size="11" lengthAdjust="spacingAndGlyphs" textLength="149" x="1054" y="1223.9683">std::string _protocolString</text><text fill="#000000" font-family="sans-serif" font-size="11" lengthAdjust="spacingAndGlyphs" textLength="125" x="1054" y="1236.7729">std::string _sessionID</text><line style="stroke: #A80036; stroke-width: 1.5;" x1="1049" x2="1208" y1="1243.3672" y2="1243.3672"/><rect fill="#FEFECE" filter="url(#f1)" height="73.6094" style="stroke: #A80036; stroke-width: 1.5;" width="148" x="1291.25" y="1312.9531"/><ellipse cx="1306.25" cy="1328.9531" fill="#ADD1B2" rx="11" ry="11" style="stroke: #A80036; stroke-width: 1.0;"/><path d="M1309.2188,1334.5938 Q1308.6406,1334.8906 1308,1335.0391 Q1307.3594,1335.1875 1306.6563,1335.1875 Q1304.1563,1335.1875 1302.8359,1333.5391 Q1301.5156,1331.8906 1301.5156,1328.7656 Q1301.5156,1325.6406 1302.8359,1323.9844 Q1304.1563,1322.3281 1306.6563,1322.3281 Q1307.3594,1322.3281 1308.0078,1322.4844 Q1308.6563,1322.6406 1309.2188,1322.9375 L1309.2188,1325.6563 Q1308.5938,1325.0781 1308,1324.8047 Q1307.4063,1324.5313 1306.7813,1324.5313 Q1305.4375,1324.5313 1304.75,1325.6016 Q1304.0625,1326.6719 1304.0625,1328.7656 Q1304.0625,1330.8594 1304.75,1331.9297 Q1305.4375,1333 1306.7813,1333 Q1307.4063,1333 1308,1332.7266 Q1308.5938,1332.4531 1309.2188,1331.875 L1309.2188,1334.5938 Z "/><text fill="#000000" font-family="sans-serif" font-size="12" lengthAdjust="spacingAndGlyphs" textLength="116" x="1320.25" y="1333.1074">socket::SocketAttr</text><line style="stroke: #A80036; stroke-width: 1.5;" x1="1292.25" x2="1438.25" y1="1344.9531" y2="1344.9531"/><text fill="#000000" font-family="sans-serif" font-size="11" lengthAdjust="spacingAndGlyphs" textLength="17" x="1297.25" y="1359.1636">_fd</text><text fill="#000000" font-family="sans-serif" font-size="11" lengthAdjust="spacingAndGlyphs" textLength="111" x="1297.25" y="1371.9683">std::string _ip_addr</text><line style="stroke: #A80036; stroke-width: 1.5;" x1="1292.25" x2="1438.25" y1="1378.5625" y2="1378.5625"/><rect fill="#FEFECE" filter="url(#f1)" height="99.2188" style="stroke: #A80036; stroke-width: 1.5;" width="219" x="923" y="619.4531"/><ellipse cx="970.75" cy="635.4531" fill="#ADD1B2" rx="11" ry="11" style="stroke: #A80036; stroke-width: 1.0;"/><path d="M973.7188,641.0938 Q973.1406,641.3906 972.5,641.5391 Q971.8594,641.6875 971.1563,641.6875 Q968.6563,641.6875 967.3359,640.0391 Q966.0156,638.3906 966.0156,635.2656 Q966.0156,632.1406 967.3359,630.4844 Q968.6563,628.8281 971.1563,628.8281 Q971.8594,628.8281 972.5078,628.9844 Q973.1563,629.1406 973.7188,629.4375 L973.7188,632.1563 Q973.0938,631.5781 972.5,631.3047 Q971.9063,631.0313 971.2813,631.0313 Q969.9375,631.0313 969.25,632.1016 Q968.5625,633.1719 968.5625,635.2656 Q968.5625,637.3594 969.25,638.4297 Q969.9375,639.5 971.2813,639.5 Q971.9063,639.5 972.5,639.2266 Q973.0938,638.9531 973.7188,638.375 L973.7188,641.0938 Z "/><text fill="#000000" font-family="sans-serif" font-size="12" lengthAdjust="spacingAndGlyphs" textLength="115" x="991.25" y="639.6074">socket::TcpSocket</text><line style="stroke: #A80036; stroke-width: 1.5;" x1="924" x2="1141" y1="651.4531" y2="651.4531"/><text fill="#000000" font-family="sans-serif" font-size="11" lengthAdjust="spacingAndGlyphs" textLength="149" x="929" y="665.6636">std::string _protocolString</text><line style="stroke: #A80036; stroke-width: 1.5;" x1="924" x2="1141" y1="672.2578" y2="672.2578"/><text fill="#000000" font-family="sans-serif" font-size="11" lengthAdjust="spacingAndGlyphs" textLength="207" x="929" y="686.4683">poll(..) -&gt; calls recvHttpcMessage(..)</text><text fill="#000000" font-family="sans-serif" font-size="11" lengthAdjust="spacingAndGlyphs" textLength="109" x="965" y="699.2729">-&gt; calls process(..)</text><text fill="#000000" font-family="sans-serif" font-size="11" lengthAdjust="spacingAndGlyphs" textLength="156" x="965" y="712.0776">-&gt; calls closeConnection(..)</text><rect fill="#FEFECE" filter="url(#f1)" height="73.6094" style="stroke: #A80036; stroke-width: 1.5;" width="173" x="624" y="514.9531"/><ellipse cx="649.35" cy="530.9531" fill="#ADD1B2" rx="11" ry="11" style="stroke: #A80036; stroke-width: 1.0;"/><path d="M652.3188,536.5938 Q651.7406,536.8906 651.1,537.0391 Q650.4594,537.1875 649.7563,537.1875 Q647.2563,537.1875 645.9359,535.5391 Q644.6156,533.8906 644.6156,530.7656 Q644.6156,527.6406 645.9359,525.9844 Q647.2563,524.3281 649.7563,524.3281 Q650.4594,524.3281 651.1078,524.4844 Q651.7563,524.6406 652.3188,524.9375 L652.3188,527.6563 Q651.6938,527.0781 651.1,526.8047 Q650.5063,526.5313 649.8813,526.5313 Q648.5375,526.5313 647.85,527.6016 Q647.1625,528.6719 647.1625,530.7656 Q647.1625,532.8594 647.85,533.9297 Q648.5375,535 649.8813,535 Q650.5063,535 651.1,534.7266 Q651.6938,534.4531 652.3188,533.875 L652.3188,536.5938 Z "/><text fill="#000000" font-family="sans-serif" font-size="12" lengthAdjust="spacingAndGlyphs" textLength="118" x="665.65" y="535.1074">socket::UdpSocket</text><line style="stroke: #A80036; stroke-width: 1.5;" x1="625" x2="796" y1="546.9531" y2="546.9531"/><line style="stroke: #A80036; stroke-width: 1.5;" x1="625" x2="796" y1="554.9531" y2="554.9531"/><text fill="#000000" font-family="sans-serif" font-size="11" lengthAdjust="spacingAndGlyphs" textLength="103" x="630" y="569.1636">init_udp_socket(..)</text><text fill="#000000" font-family="sans-serif" font-size="11" lengthAdjust="spacingAndGlyphs" textLength="161" x="630" y="581.9683">init_mutlicast_udp_socket(..)</text><rect fill="#FEFECE" filter="url(#f1)" height="86.4141" style="stroke: #A80036; stroke-width: 1.5;" width="179" x="943" y="398.9531"/><ellipse cx="991.25" cy="414.9531" fill="#ADD1B2" rx="11" ry="11" style="stroke: #A80036; stroke-width: 1.0;"/><path d="M994.2188,420.5938 Q993.6406,420.8906 993,421.0391 Q992.3594,421.1875 991.6563,421.1875 Q989.1563,421.1875 987.8359,419.5391 Q986.5156,417.8906 986.5156,414.7656 Q986.5156,411.6406 987.8359,409.9844 Q989.1563,408.3281 991.6563,408.3281 Q992.3594,408.3281 993.0078,408.4844 Q993.6563,408.6406 994.2188,408.9375 L994.2188,411.6563 Q993.5938,411.0781 993,410.8047 Q992.4063,410.5313 991.7813,410.5313 Q990.4375,410.5313 989.75,411.6016 Q989.0625,412.6719 989.0625,414.7656 Q989.0625,416.8594 989.75,417.9297 Q990.4375,419 991.7813,419 Q992.4063,419 993,418.7266 Q993.5938,418.4531 994.2188,417.875 L994.2188,420.5938 Z "/><text fill="#000000" font-family="sans-serif" font-size="12" lengthAdjust="spacingAndGlyphs" textLength="74" x="1011.75" y="419.1074">HttpcServer</text><line style="stroke: #A80036; stroke-width: 1.5;" x1="944" x2="1121" y1="430.9531" y2="430.9531"/><line style="stroke: #A80036; stroke-width: 1.5;" x1="944" x2="1121" y1="438.9531" y2="438.9531"/><text fill="#000000" font-family="sans-serif" font-size="11" lengthAdjust="spacingAndGlyphs" textLength="62" x="949" y="453.1636">process(..)</text><text fill="#000000" font-family="sans-serif" font-size="11" lengthAdjust="spacingAndGlyphs" textLength="109" x="949" y="465.9683">closeConnection(..)</text><text fill="#000000" font-family="sans-serif" font-size="11" lengthAdjust="spacingAndGlyphs" textLength="167" x="949" y="478.7729">processStreamingRequest(..)</text><rect fill="#FEFECE" filter="url(#f1)" height="48" style="stroke: #A80036; stroke-width: 1.5;" width="104" x="821.25" y="1183.9531"/><ellipse cx="836.25" cy="1199.9531" fill="#ADD1B2" rx="11" ry="11" style="stroke: #A80036; stroke-width: 1.0;"/><path d="M839.2188,1205.5938 Q838.6406,1205.8906 838,1206.0391 Q837.3594,1206.1875 836.6563,1206.1875 Q834.1563,1206.1875 832.8359,1204.5391 Q831.5156,1202.8906 831.5156,1199.7656 Q831.5156,1196.6406 832.8359,1194.9844 Q834.1563,1193.3281 836.6563,1193.3281 Q837.3594,1193.3281 838.0078,1193.4844 Q838.6563,1193.6406 839.2188,1193.9375 L839.2188,1196.6563 Q838.5938,1196.0781 838,1195.8047 Q837.4063,1195.5313 836.7813,1195.5313 Q835.4375,1195.5313 834.75,1196.6016 Q834.0625,1197.6719 834.0625,1199.7656 Q834.0625,1201.8594 834.75,1202.9297 Q835.4375,1204 836.7813,1204 Q837.4063,1204 838,1203.7266 Q838.5938,1203.4531 839.2188,1202.875 L839.2188,1205.5938 Z "/><text fill="#000000" font-family="sans-serif" font-size="12" lengthAdjust="spacingAndGlyphs" textLength="72" x="850.25" y="1204.1074">RtcpThread</text><line style="stroke: #A80036; stroke-width: 1.5;" x1="822.25" x2="924.25" y1="1215.9531" y2="1215.9531"/><line style="stroke: #A80036; stroke-width: 1.5;" x1="822.25" x2="924.25" y1="1223.9531" y2="1223.9531"/><rect fill="#AAAAFF" filter="url(#f1)" height="48" style="stroke: #A80036; stroke-width: 1.5;" width="133" x="773" y="1006.9531"/><rect fill="#AAAAFF" height="32" style="stroke: #A80036; stroke-width: 1.5;" width="133" x="773" y="1006.9531"/><ellipse cx="788" cy="1022.9531" fill="#ADD1B2" rx="11" ry="11" style="stroke: #A80036; stroke-width: 1.0;"/><path d="M790.9688,1028.5938 Q790.3906,1028.8906 789.75,1029.0391 Q789.1094,1029.1875 788.4063,1029.1875 Q785.9063,1029.1875 784.5859,1027.5391 Q783.2656,1025.8906 783.2656,1022.7656 Q783.2656,1019.6406 784.5859,1017.9844 Q785.9063,1016.3281 788.4063,1016.3281 Q789.1094,1016.3281 789.7578,1016.4844 Q790.4063,1016.6406 790.9688,1016.9375 L790.9688,1019.6563 Q790.3438,1019.0781 789.75,1018.8047 Q789.1563,1018.5313 788.5313,1018.5313 Q787.1875,1018.5313 786.5,1019.6016 Q785.8125,1020.6719 785.8125,1022.7656 Q785.8125,1024.8594 786.5,1025.9297 Q787.1875,1027 788.5313,1027 Q789.1563,1027 789.75,1026.7266 Q790.3438,1026.4531 790.9688,1025.875 L790.9688,1028.5938 Z "/><text fill="#000000" font-family="sans-serif" font-size="12" lengthAdjust="spacingAndGlyphs" textLength="101" x="802" y="1027.1074">StreamInterface</text><line style="stroke: #A80036; stroke-width: 1.5;" x1="774" x2="905" y1="1038.9531" y2="1038.9531"/><line style="stroke: #A80036; stroke-width: 1.5;" x1="774" x2="905" y1="1046.9531" y2="1046.9531"/><rect fill="#AAAAFF" filter="url(#f1)" height="99.2188" style="stroke: #A80036; stroke-width: 1.5;" width="98" x="1240.75" y="797.4531"/><rect fill="#AAAAFF" height="32" style="stroke: #A80036; stroke-width: 1.5;" width="98" x="1240.75" y="797.4531"/><ellipse cx="1265.2" cy="813.4531" fill="#ADD1B2" rx="11" ry="11" style="stroke: #A80036; stroke-width: 1.0;"/><path d="M1268.1688,819.0938 Q1267.5906,819.3906 1266.95,819.5391 Q1266.3094,819.6875 1265.6063,819.6875 Q1263.1063,819.6875 1261.7859,818.0391 Q1260.4656,816.3906 1260.4656,813.2656 Q1260.4656,810.1406 1261.7859,808.4844 Q1263.1063,806.8281 1265.6063,806.8281 Q1266.3094,806.8281 1266.9578,806.9844 Q1267.6063,807.1406 1268.1688,807.4375 L1268.1688,810.1563 Q1267.5438,809.5781 1266.95,809.3047 Q1266.3563,809.0313 1265.7313,809.0313 Q1264.3875,809.0313 1263.7,810.1016 Q1263.0125,811.1719 1263.0125,813.2656 Q1263.0125,815.3594 1263.7,816.4297 Q1264.3875,817.5 1265.7313,817.5 Q1266.3563,817.5 1266.95,817.2266 Q1267.5438,816.9531 1268.1688,816.375 L1268.1688,819.0938 Z "/><text fill="#000000" font-family="sans-serif" font-size="12" lengthAdjust="spacingAndGlyphs" textLength="45" x="1281.3" y="817.6074">Stream</text><line style="stroke: #A80036; stroke-width: 1.5;" x1="1241.75" x2="1337.75" y1="829.4531" y2="829.4531"/><text fill="#000000" font-family="sans-serif" font-size="11" lengthAdjust="spacingAndGlyphs" textLength="33" x="1246.75" y="843.6636">Mutex</text><text fill="#000000" font-family="sans-serif" font-size="11" lengthAdjust="spacingAndGlyphs" textLength="73" x="1246.75" y="856.4683">streamInUse</text><text fill="#000000" font-family="sans-serif" font-size="11" lengthAdjust="spacingAndGlyphs" textLength="45" x="1246.75" y="869.2729">enabled</text><text fill="#000000" font-family="sans-serif" font-size="11" lengthAdjust="spacingAndGlyphs" textLength="86" x="1246.75" y="882.0776">StreamingType</text><line style="stroke: #A80036; stroke-width: 1.5;" x1="1241.75" x2="1337.75" y1="888.6719" y2="888.6719"/><rect fill="#AAAAFF" filter="url(#f1)" height="112.0234" style="stroke: #A80036; stroke-width: 1.5;" width="126" x="1226.25" y="974.9531"/><rect fill="#AAAAFF" height="32" style="stroke: #A80036; stroke-width: 1.5;" width="126" x="1226.25" y="974.9531"/><ellipse cx="1247.55" cy="990.9531" fill="#ADD1B2" rx="11" ry="11" style="stroke: #A80036; stroke-width: 1.0;"/><path d="M1250.5188,996.5938 Q1249.9406,996.8906 1249.3,997.0391 Q1248.6594,997.1875 1247.9563,997.1875 Q1245.4563,997.1875 1244.1359,995.5391 Q1242.8156,993.8906 1242.8156,990.7656 Q1242.8156,987.6406 1244.1359,985.9844 Q1245.4563,984.3281 1247.9563,984.3281 Q1248.6594,984.3281 1249.3078,984.4844 Q1249.9563,984.6406 1250.5188,984.9375 L1250.5188,987.6563 Q1249.8938,987.0781 1249.3,986.8047 Q1248.7063,986.5313 1248.0813,986.5313 Q1246.7375,986.5313 1246.05,987.6016 Q1245.3625,988.6719 1245.3625,990.7656 Q1245.3625,992.8594 1246.05,993.9297 Q1246.7375,995 1248.0813,995 Q1248.7063,995 1249.3,994.7266 Q1249.8938,994.4531 1250.5188,993.875 L1250.5188,996.5938 Z "/><text fill="#000000" font-family="sans-serif" font-size="12" lengthAdjust="spacingAndGlyphs" textLength="80" x="1262.95" y="995.1074">StreamClient</text><line style="stroke: #A80036; stroke-width: 1.5;" x1="1227.25" x2="1351.25" y1="1006.9531" y2="1006.9531"/><text fill="#000000" font-family="sans-serif" font-size="11" lengthAdjust="spacingAndGlyphs" textLength="33" x="1232.25" y="1021.1636">Mutex</text><text fill="#000000" font-family="sans-serif" font-size="11" lengthAdjust="spacingAndGlyphs" textLength="114" x="1232.25" y="1033.9683">SocketClient *_httpc</text><text fill="#000000" font-family="sans-serif" font-size="11" lengthAdjust="spacingAndGlyphs" textLength="54" x="1232.25" y="1046.7729">watchdog</text><text fill="#000000" font-family="sans-serif" font-size="11" lengthAdjust="spacingAndGlyphs" textLength="52" x="1232.25" y="1059.5776">canClose</text><text fill="#000000" font-family="sans-serif" font-size="11" lengthAdjust="spacingAndGlyphs" textLength="27" x="1232.25" y="1072.3823">cseq</text><line style="stroke: #A80036; stroke-width: 1.5;" x1="1227.25" x2="1351.25" y1="1078.9766" y2="1078.9766"/><rect fill="#AACCAA" filter="url(#f1)" height="48" style="stroke: #A80036; stroke-width: 1.5;" width="113" x="473" y="1325.9531"/><rect fill="#AACCAA" height="32" style="stroke: #A80036; stroke-width: 1.5;" width="113" x="473" y="1325.9531"/><ellipse cx="488" cy="1341.9531" fill="#ADD1B2" rx="11" ry="11" style="stroke: #A80036; stroke-width: 1.0;"/><path d="M490.9688,1347.5938 Q490.3906,1347.8906 489.75,1348.0391 Q489.1094,1348.1875 488.4063,1348.1875 Q485.9063,1348.1875 484.5859,1346.5391 Q483.2656,1344.8906 483.2656,1341.7656 Q483.2656,1338.6406 484.5859,1336.9844 Q485.9063,1335.3281 488.4063,1335.3281 Q489.1094,1335.3281 489.7578,1335.4844 Q490.4063,1335.6406 490.9688,1335.9375 L490.9688,1338.6563 Q490.3438,1338.0781 489.75,1337.8047 Q489.1563,1337.5313 488.5313,1337.5313 Q487.1875,1337.5313 486.5,1338.6016 Q485.8125,1339.6719 485.8125,1341.7656 Q485.8125,1343.8594 486.5,1344.9297 Q487.1875,1346 488.5313,1346 Q489.1563,1346 489.75,1345.7266 Q490.3438,1345.4531 490.9688,1344.875 L490.9688,1347.5938 Z "/><text fill="#000000" font-family="sans-serif" font-size="12" lengthAdjust="spacingAndGlyphs" textLength="81" x="502" y="1346.1074">input::Device</text><line style="stroke: #A80036; stroke-width: 1.5;" x1="474" x2="585" y1="1357.9531" y2="1357.9531"/><line style="stroke: #A80036; stroke-width: 1.5;" x1="474" x2="585" y1="1365.9531" y2="1365.9531"/><rect fill="#CCFFFF" filter="url(#f1)" height="48" style="stroke: #A80036; stroke-width: 1.5;" width="202" x="1105.25" y="1448.9531"/><rect fill="#CCFFFF" height="32" style="stroke: #A80036; stroke-width: 1.5;" width="202" x="1105.25" y="1448.9531"/><ellipse cx="1120.25" cy="1464.9531" fill="#ADD1B2" rx="11" ry="11" style="stroke: #A80036; stroke-width: 1.0;"/><path d="M1123.2188,1470.5938 Q1122.6406,1470.8906 1122,1471.0391 Q1121.3594,1471.1875 1120.6563,1471.1875 Q1118.1563,1471.1875 1116.8359,1469.5391 Q1115.5156,1467.8906 1115.5156,1464.7656 Q1115.5156,1461.6406 1116.8359,1459.9844 Q1118.1563,1458.3281 1120.6563,1458.3281 Q1121.3594,1458.3281 1122.0078,1458.4844 Q1122.6563,1458.6406 1123.2188,1458.9375 L1123.2188,1461.6563 Q1122.5938,1461.0781 1122,1460.8047 Q1121.4063,1460.5313 1120.7813,1460.5313 Q1119.4375,1460.5313 1118.75,1461.6016 Q1118.0625,1462.6719 1118.0625,1464.7656 Q1118.0625,1466.8594 1118.75,1467.9297 Q1119.4375,1469 1120.7813,1469 Q1121.4063,1469 1122,1468.7266 Q1122.5938,1468.4531 1123.2188,1467.875 L1123.2188,1470.5938 Z "/><text fill="#000000" font-family="sans-serif" font-size="12" lengthAdjust="spacingAndGlyphs" textLength="170" x="1134.25" y="1469.1074">output::StreamThreadBase</text><line style="stroke: #A80036; stroke-width: 1.5;" x1="1106.25" x2="1306.25" y1="1480.9531" y2="1480.9531"/><line style="stroke: #A80036; stroke-width: 1.5;" x1="1106.25" x2="1306.25" y1="1488.9531" y2="1488.9531"/><rect fill="#FFBB11" filter="url(#f1)" height="73.6094" style="stroke: #A80036; stroke-width: 1.5;" width="353" x="1281" y="1574.9531"/><rect fill="#FFBB11" height="32" style="stroke: #A80036; stroke-width: 1.5;" width="353" x="1281" y="1574.9531"/><ellipse cx="1383.75" cy="1590.9531" fill="#ADD1B2" rx="11" ry="11" style="stroke: #A80036; stroke-width: 1.0;"/><path d="M1386.7188,1596.5938 Q1386.1406,1596.8906 1385.5,1597.0391 Q1384.8594,1597.1875 1384.1563,1597.1875 Q1381.6563,1597.1875 1380.3359,1595.5391 Q1379.0156,1593.8906 1379.0156,1590.7656 Q1379.0156,1587.6406 1380.3359,1585.9844 Q1381.6563,1584.3281 1384.1563,1584.3281 Q1384.8594,1584.3281 1385.5078,1584.4844 Q1386.1563,1584.6406 1386.7188,1584.9375 L1386.7188,1587.6563 Q1386.0938,1587.0781 1385.5,1586.8047 Q1384.9063,1586.5313 1384.2813,1586.5313 Q1382.9375,1586.5313 1382.25,1587.6016 Q1381.5625,1588.6719 1381.5625,1590.7656 Q1381.5625,1592.8594 1382.25,1593.9297 Q1382.9375,1595 1384.2813,1595 Q1384.9063,1595 1385.5,1594.7266 Q1386.0938,1594.4531 1386.7188,1593.875 L1386.7188,1596.5938 Z "/><text fill="#000000" font-family="sans-serif" font-size="12" lengthAdjust="spacingAndGlyphs" textLength="139" x="1404.25" y="1595.1074">decrypt::dvbapi::Client</text><line style="stroke: #A80036; stroke-width: 1.5;" x1="1282" x2="1633" y1="1606.9531" y2="1606.9531"/><text fill="#000000" font-family="sans-serif" font-size="11" lengthAdjust="spacingAndGlyphs" textLength="33" x="1287" y="1621.1636">Mutex</text><line style="stroke: #A80036; stroke-width: 1.5;" x1="1282" x2="1633" y1="1627.7578" y2="1627.7578"/><text fill="#000000" font-family="sans-serif" font-size="11" lengthAdjust="spacingAndGlyphs" textLength="341" x="1287" y="1641.9683">callback getFrontendDecryptInterface(..) via StreamManager</text><rect fill="#FFBB11" filter="url(#f1)" height="48" style="stroke: #A80036; stroke-width: 1.5;" width="236" x="155.25" y="1962.9531"/><rect fill="#FFBB11" height="32" style="stroke: #A80036; stroke-width: 1.5;" width="236" x="155.25" y="1962.9531"/><ellipse cx="170.25" cy="1978.9531" fill="#ADD1B2" rx="11" ry="11" style="stroke: #A80036; stroke-width: 1.0;"/><path d="M173.2188,1984.5938 Q172.6406,1984.8906 172,1985.0391 Q171.3594,1985.1875 170.6563,1985.1875 Q168.1563,1985.1875 166.8359,1983.5391 Q165.5156,1981.8906 165.5156,1978.7656 Q165.5156,1975.6406 166.8359,1973.9844 Q168.1563,1972.3281 170.6563,1972.3281 Q171.3594,1972.3281 172.0078,1972.4844 Q172.6563,1972.6406 173.2188,1972.9375 L173.2188,1975.6563 Q172.5938,1975.0781 172,1974.8047 Q171.4063,1974.5313 170.7813,1974.5313 Q169.4375,1974.5313 168.75,1975.6016 Q168.0625,1976.6719 168.0625,1978.7656 Q168.0625,1980.8594 168.75,1981.9297 Q169.4375,1983 170.7813,1983 Q171.4063,1983 172,1982.7266 Q172.5938,1982.4531 173.2188,1981.875 L173.2188,1984.5938 Z "/><text fill="#000000" font-family="sans-serif" font-size="12" lengthAdjust="spacingAndGlyphs" textLength="204" x="184.25" y="1983.1074">decrypt::dvbapi::ClientProperties</text><line style="stroke: #A80036; stroke-width: 1.5;" x1="156.25" x2="390.25" y1="1994.9531" y2="1994.9531"/><line style="stroke: #A80036; stroke-width: 1.5;" x1="156.25" x2="390.25" y1="2002.9531" y2="2002.9531"/><rect fill="#FFBB11" filter="url(#f1)" height="48" style="stroke: #A80036; stroke-width: 1.5;" width="60" x="389.75" y="2088.9531"/><rect fill="#FFBB11" height="32" style="stroke: #A80036; stroke-width: 1.5;" width="60" x="389.75" y="2088.9531"/><ellipse cx="404.75" cy="2104.9531" fill="#ADD1B2" rx="11" ry="11" style="stroke: #A80036; stroke-width: 1.0;"/><path d="M407.7188,2110.5938 Q407.1406,2110.8906 406.5,2111.0391 Q405.8594,2111.1875 405.1563,2111.1875 Q402.6563,2111.1875 401.3359,2109.5391 Q400.0156,2107.8906 400.0156,2104.7656 Q400.0156,2101.6406 401.3359,2099.9844 Q402.6563,2098.3281 405.1563,2098.3281 Q405.8594,2098.3281 406.5078,2098.4844 Q407.1563,2098.6406 407.7188,2098.9375 L407.7188,2101.6563 Q407.0938,2101.0781 406.5,2100.8047 Q405.9063,2100.5313 405.2813,2100.5313 Q403.9375,2100.5313 403.25,2101.6016 Q402.5625,2102.6719 402.5625,2104.7656 Q402.5625,2106.8594 403.25,2107.9297 Q403.9375,2109 405.2813,2109 Q405.9063,2109 406.5,2108.7266 Q407.0938,2108.4531 407.7188,2107.875 L407.7188,2110.5938 Z "/><text fill="#000000" font-family="sans-serif" font-size="12" lengthAdjust="spacingAndGlyphs" textLength="28" x="418.75" y="2109.1074">Keys</text><line style="stroke: #A80036; stroke-width: 1.5;" x1="390.75" x2="448.75" y1="2120.9531" y2="2120.9531"/><line style="stroke: #A80036; stroke-width: 1.5;" x1="390.75" x2="448.75" y1="2128.9531" y2="2128.9531"/><rect fill="#FFBB11" filter="url(#f1)" height="48" style="stroke: #A80036; stroke-width: 1.5;" width="63" x="490" y="2088.9531"/><rect fill="#FFBB11" height="32" style="stroke: #A80036; stroke-width: 1.5;" width="63" x="490" y="2088.9531"/><ellipse cx="505" cy="2104.9531" fill="#ADD1B2" rx="11" ry="11" style="stroke: #A80036; stroke-width: 1.0;"/><path d="M507.9688,2110.5938 Q507.3906,2110.8906 506.75,2111.0391 Q506.1094,2111.1875 505.4063,2111.1875 Q502.9063,2111.1875 501.5859,2109.5391 Q500.2656,2107.8906 500.2656,2104.7656 Q500.2656,2101.6406 501.5859,2099.9844 Q502.9063,2098.3281 505.4063,2098.3281 Q506.1094,2098.3281 506.7578,2098.4844 Q507.4063,2098.6406 507.9688,2098.9375 L507.9688,2101.6563 Q507.3438,2101.0781 506.75,2100.8047 Q506.1563,2100.5313 505.5313,2100.5313 Q504.1875,2100.5313 503.5,2101.6016 Q502.8125,2102.6719 502.8125,2104.7656 Q502.8125,2106.8594 503.5,2107.9297 Q504.1875,2109 505.5313,2109 Q506.1563,2109 506.75,2108.7266 Q507.3438,2108.4531 507.9688,2107.875 L507.9688,2110.5938 Z "/><text fill="#000000" font-family="sans-serif" font-size="12" lengthAdjust="spacingAndGlyphs" textLength="31" x="519" y="2109.1074">Filter</text><line style="stroke: #A80036; stroke-width: 1.5;" x1="491" x2="552" y1="2120.9531" y2="2120.9531"/><line style="stroke: #A80036; stroke-width: 1.5;" x1="491" x2="552" y1="2128.9531" y2="2128.9531"/><rect fill="#11FF11" filter="url(#f1)" height="48" style="stroke: #A80036; stroke-width: 1.5;" width="167" x="1074" y="1587.9531"/><rect fill="#11FF11" height="32" style="stroke: #A80036; stroke-width: 1.5;" width="167" x="1074" y="1587.9531"/><ellipse cx="1089" cy="1603.9531" fill="#ADD1B2" rx="11" ry="11" style="stroke: #A80036; stroke-width: 1.0;"/><path d="M1091.9688,1609.5938 Q1091.3906,1609.8906 1090.75,1610.0391 Q1090.1094,1610.1875 1089.4063,1610.1875 Q1086.9063,1610.1875 1085.5859,1608.5391 Q1084.2656,1606.8906 1084.2656,1603.7656 Q1084.2656,1600.6406 1085.5859,1598.9844 Q1086.9063,1597.3281 1089.4063,1597.3281 Q1090.1094,1597.3281 1090.7578,1597.4844 Q1091.4063,1597.6406 1091.9688,1597.9375 L1091.9688,1600.6563 Q1091.3438,1600.0781 1090.75,1599.8047 Q1090.1563,1599.5313 1089.5313,1599.5313 Q1088.1875,1599.5313 1087.5,1600.6016 Q1086.8125,1601.6719 1086.8125,1603.7656 Q1086.8125,1605.8594 1087.5,1606.9297 Q1088.1875,1608 1089.5313,1608 Q1090.1563,1608 1090.75,1607.7266 Q1091.3438,1607.4531 1091.9688,1606.875 L1091.9688,1609.5938 Z "/><text fill="#000000" font-family="sans-serif" font-size="12" lengthAdjust="spacingAndGlyphs" textLength="135" x="1103" y="1608.1074">mpegts::PacketBuffer</text><line style="stroke: #A80036; stroke-width: 1.5;" x1="1075" x2="1240" y1="1619.9531" y2="1619.9531"/><line style="stroke: #A80036; stroke-width: 1.5;" x1="1075" x2="1240" y1="1627.9531" y2="1627.9531"/><rect fill="#11FF11" filter="url(#f1)" height="48" style="stroke: #A80036; stroke-width: 1.5;" width="151" x="6" y="2088.9531"/><rect fill="#11FF11" height="32" style="stroke: #A80036; stroke-width: 1.5;" width="151" x="6" y="2088.9531"/><ellipse cx="21" cy="2104.9531" fill="#ADD1B2" rx="11" ry="11" style="stroke: #A80036; stroke-width: 1.0;"/><path d="M23.9688,2110.5938 Q23.3906,2110.8906 22.75,2111.0391 Q22.1094,2111.1875 21.4063,2111.1875 Q18.9063,2111.1875 17.5859,2109.5391 Q16.2656,2107.8906 16.2656,2104.7656 Q16.2656,2101.6406 17.5859,2099.9844 Q18.9063,2098.3281 21.4063,2098.3281 Q22.1094,2098.3281 22.7578,2098.4844 Q23.4063,2098.6406 23.9688,2098.9375 L23.9688,2101.6563 Q23.3438,2101.0781 22.75,2100.8047 Q22.1563,2100.5313 21.5313,2100.5313 Q20.1875,2100.5313 19.5,2101.6016 Q18.8125,2102.6719 18.8125,2104.7656 Q18.8125,2106.8594 19.5,2107.9297 Q20.1875,2109 21.5313,2109 Q22.1563,2109 22.75,2108.7266 Q23.3438,2108.4531 23.9688,2107.875 L23.9688,2110.5938 Z "/><text fill="#000000" font-family="sans-serif" font-size="12" lengthAdjust="spacingAndGlyphs" textLength="119" x="35" y="2109.1074">mpegts::TableData</text><line style="stroke: #A80036; stroke-width: 1.5;" x1="7" x2="156" y1="2120.9531" y2="2120.9531"/><line style="stroke: #A80036; stroke-width: 1.5;" x1="7" x2="156" y1="2128.9531" y2="2128.9531"/><rect fill="#11FF11" filter="url(#f1)" height="48" style="stroke: #A80036; stroke-width: 1.5;" width="140" x="72.25" y="1587.9531"/><rect fill="#11FF11" height="32" style="stroke: #A80036; stroke-width: 1.5;" width="140" x="72.25" y="1587.9531"/><ellipse cx="87.25" cy="1603.9531" fill="#ADD1B2" rx="11" ry="11" style="stroke: #A80036; stroke-width: 1.0;"/><path d="M90.2188,1609.5938 Q89.6406,1609.8906 89,1610.0391 Q88.3594,1610.1875 87.6563,1610.1875 Q85.1563,1610.1875 83.8359,1608.5391 Q82.5156,1606.8906 82.5156,1603.7656 Q82.5156,1600.6406 83.8359,1598.9844 Q85.1563,1597.3281 87.6563,1597.3281 Q88.3594,1597.3281 89.0078,1597.4844 Q89.6563,1597.6406 90.2188,1597.9375 L90.2188,1600.6563 Q89.5938,1600.0781 89,1599.8047 Q88.4063,1599.5313 87.7813,1599.5313 Q86.4375,1599.5313 85.75,1600.6016 Q85.0625,1601.6719 85.0625,1603.7656 Q85.0625,1605.8594 85.75,1606.9297 Q86.4375,1608 87.7813,1608 Q88.4063,1608 89,1607.7266 Q89.5938,1607.4531 90.2188,1606.875 L90.2188,1609.5938 Z "/><text fill="#000000" font-family="sans-serif" font-size="12" lengthAdjust="spacingAndGlyphs" textLength="108" x="101.25" y="1608.1074">mpegts::PidTable</text><line style="stroke: #A80036; stroke-width: 1.5;" x1="73.25" x2="211.25" y1="1619.9531" y2="1619.9531"/><line style="stroke: #A80036; stroke-width: 1.5;" x1="73.25" x2="211.25" y1="1627.9531" y2="1627.9531"/><rect fill="#CCFFFF" filter="url(#f1)" height="60.8047" style="stroke: #A80036; stroke-width: 1.5;" width="192" x="821.25" y="1319.4531"/><rect fill="#CCFFFF" height="32" style="stroke: #A80036; stroke-width: 1.5;" width="192" x="821.25" y="1319.4531"/><ellipse cx="836.25" cy="1335.4531" fill="#ADD1B2" rx="11" ry="11" style="stroke: #A80036; stroke-width: 1.0;"/><path d="M839.2188,1341.0938 Q838.6406,1341.3906 838,1341.5391 Q837.3594,1341.6875 836.6563,1341.6875 Q834.1563,1341.6875 832.8359,1340.0391 Q831.5156,1338.3906 831.5156,1335.2656 Q831.5156,1332.1406 832.8359,1330.4844 Q834.1563,1328.8281 836.6563,1328.8281 Q837.3594,1328.8281 838.0078,1328.9844 Q838.6563,1329.1406 839.2188,1329.4375 L839.2188,1332.1563 Q838.5938,1331.5781 838,1331.3047 Q837.4063,1331.0313 836.7813,1331.0313 Q835.4375,1331.0313 834.75,1332.1016 Q834.0625,1333.1719 834.0625,1335.2656 Q834.0625,1337.3594 834.75,1338.4297 Q835.4375,1339.5 836.7813,1339.5 Q837.4063,1339.5 838,1339.2266 Q838.5938,1338.9531 839.2188,1338.375 L839.2188,1341.0938 Z "/><text fill="#000000" font-family="sans-serif" font-size="12" lengthAdjust="spacingAndGlyphs" textLength="160" x="850.25" y="1339.6074">output::StreamThreadRtp</text><line style="stroke: #A80036; stroke-width: 1.5;" x1="822.25" x2="1012.25" y1="1351.4531" y2="1351.4531"/><text fill="#000000" font-family="sans-serif" font-size="11" lengthAdjust="spacingAndGlyphs" textLength="27" x="827.25" y="1365.6636">cseq</text><line style="stroke: #A80036; stroke-width: 1.5;" x1="822.25" x2="1012.25" y1="1372.2578" y2="1372.2578"/><rect fill="#CCFFFF" filter="url(#f1)" height="48" style="stroke: #A80036; stroke-width: 1.5;" width="198" x="1053.25" y="1325.9531"/><rect fill="#CCFFFF" height="32" style="stroke: #A80036; stroke-width: 1.5;" width="198" x="1053.25" y="1325.9531"/><ellipse cx="1068.25" cy="1341.9531" fill="#ADD1B2" rx="11" ry="11" style="stroke: #A80036; stroke-width: 1.0;"/><path d="M1071.2188,1347.5938 Q1070.6406,1347.8906 1070,1348.0391 Q1069.3594,1348.1875 1068.6563,1348.1875 Q1066.1563,1348.1875 1064.8359,1346.5391 Q1063.5156,1344.8906 1063.5156,1341.7656 Q1063.5156,1338.6406 1064.8359,1336.9844 Q1066.1563,1335.3281 1068.6563,1335.3281 Q1069.3594,1335.3281 1070.0078,1335.4844 Q1070.6563,1335.6406 1071.2188,1335.9375 L1071.2188,1338.6563 Q1070.5938,1338.0781 1070,1337.8047 Q1069.4063,1337.5313 1068.7813,1337.5313 Q1067.4375,1337.5313 1066.75,1338.6016 Q1066.0625,1339.6719 1066.0625,1341.7656 Q1066.0625,1343.8594 1066.75,1344.9297 Q1067.4375,1346 1068.7813,1346 Q1069.4063,1346 1070,1345.7266 Q1070.5938,1345.4531 1071.2188,1344.875 L1071.2188,1347.5938 Z "/><text fill="#000000" font-family="sans-serif" font-size="12" lengthAdjust="spacingAndGlyphs" textLength="166" x="1082.25" y="1346.1074">output::StreamThreadHttp</text><line style="stroke: #A80036; stroke-width: 1.5;" x1="1054.25" x2="1250.25" y1="1357.9531" y2="1357.9531"/><line style="stroke: #A80036; stroke-width: 1.5;" x1="1054.25" x2="1250.25" y1="1365.9531" y2="1365.9531"/><rect fill="#55CCFF" filter="url(#f1)" height="48" style="stroke: #A80036; stroke-width: 1.5;" width="182" x="514.25" y="1448.9531"/><rect fill="#55CCFF" height="32" style="stroke: #A80036; stroke-width: 1.5;" width="182" x="514.25" y="1448.9531"/><ellipse cx="529.25" cy="1464.9531" fill="#ADD1B2" rx="11" ry="11" style="stroke: #A80036; stroke-width: 1.0;"/><path d="M532.2188,1470.5938 Q531.6406,1470.8906 531,1471.0391 Q530.3594,1471.1875 529.6563,1471.1875 Q527.1563,1471.1875 525.8359,1469.5391 Q524.5156,1467.8906 524.5156,1464.7656 Q524.5156,1461.6406 525.8359,1459.9844 Q527.1563,1458.3281 529.6563,1458.3281 Q530.3594,1458.3281 531.0078,1458.4844 Q531.6563,1458.6406 532.2188,1458.9375 L532.2188,1461.6563 Q531.5938,1461.0781 531,1460.8047 Q530.4063,1460.5313 529.7813,1460.5313 Q528.4375,1460.5313 527.75,1461.6016 Q527.0625,1462.6719 527.0625,1464.7656 Q527.0625,1466.8594 527.75,1467.9297 Q528.4375,1469 529.7813,1469 Q530.4063,1469 531,1468.7266 Q531.5938,1468.4531 532.2188,1467.875 L532.2188,1470.5938 Z "/><text fill="#000000" font-family="sans-serif" font-size="12" lengthAdjust="spacingAndGlyphs" textLength="150" x="543.25" y="1469.1074">input::stream::Streamer</text><line style="stroke: #A80036; stroke-width: 1.5;" x1="515.25" x2="695.25" y1="1480.9531" y2="1480.9531"/><line style="stroke: #A80036; stroke-width: 1.5;" x1="515.25" x2="695.25" y1="1488.9531" y2="1488.9531"/><rect fill="#FFCCAA" filter="url(#f1)" height="48" style="stroke: #A80036; stroke-width: 1.5;" width="263" x="515" y="1587.9531"/><rect fill="#FFCCAA" height="32" style="stroke: #A80036; stroke-width: 1.5;" width="263" x="515" y="1587.9531"/><ellipse cx="530" cy="1603.9531" fill="#ADD1B2" rx="11" ry="11" style="stroke: #A80036; stroke-width: 1.0;"/><path d="M532.9688,1609.5938 Q532.3906,1609.8906 531.75,1610.0391 Q531.1094,1610.1875 530.4063,1610.1875 Q527.9063,1610.1875 526.5859,1608.5391 Q525.2656,1606.8906 525.2656,1603.7656 Q525.2656,1600.6406 526.5859,1598.9844 Q527.9063,1597.3281 530.4063,1597.3281 Q531.1094,1597.3281 531.7578,1597.4844 Q532.4063,1597.6406 532.9688,1597.9375 L532.9688,1600.6563 Q532.3438,1600.0781 531.75,1599.8047 Q531.1563,1599.5313 530.5313,1599.5313 Q529.1875,1599.5313 528.5,1600.6016 Q527.8125,1601.6719 527.8125,1603.7656 Q527.8125,1605.8594 528.5,1606.9297 Q529.1875,1608 530.5313,1608 Q531.1563,1608 531.75,1607.7266 Q532.3438,1607.4531 532.9688,1606.875 L532.9688,1609.5938 Z "/><text fill="#000000" font-family="sans-serif" font-size="12" lengthAdjust="spacingAndGlyphs" textLength="231" x="544" y="1608.1074">input::dvb::FrontendDecryptInterface</text><line style="stroke: #A80036; stroke-width: 1.5;" x1="516" x2="777" y1="1619.9531" y2="1619.9531"/><line style="stroke: #A80036; stroke-width: 1.5;" x1="516" x2="777" y1="1627.9531" y2="1627.9531"/><rect fill="#99CC11" filter="url(#f1)" height="48" style="stroke: #A80036; stroke-width: 1.5;" width="158" x="234.75" y="1448.9531"/><rect fill="#99CC11" height="32" style="stroke: #A80036; stroke-width: 1.5;" width="158" x="234.75" y="1448.9531"/><ellipse cx="249.75" cy="1464.9531" fill="#ADD1B2" rx="11" ry="11" style="stroke: #A80036; stroke-width: 1.0;"/><path d="M252.7188,1470.5938 Q252.1406,1470.8906 251.5,1471.0391 Q250.8594,1471.1875 250.1563,1471.1875 Q247.6563,1471.1875 246.3359,1469.5391 Q245.0156,1467.8906 245.0156,1464.7656 Q245.0156,1461.6406 246.3359,1459.9844 Q247.6563,1458.3281 250.1563,1458.3281 Q250.8594,1458.3281 251.5078,1458.4844 Q252.1563,1458.6406 252.7188,1458.9375 L252.7188,1461.6563 Q252.0938,1461.0781 251.5,1460.8047 Q250.9063,1460.5313 250.2813,1460.5313 Q248.9375,1460.5313 248.25,1461.6016 Q247.5625,1462.6719 247.5625,1464.7656 Q247.5625,1466.8594 248.25,1467.9297 Q248.9375,1469 250.2813,1469 Q250.9063,1469 251.5,1468.7266 Q252.0938,1468.4531 252.7188,1467.875 L252.7188,1470.5938 Z "/><text fill="#000000" font-family="sans-serif" font-size="12" lengthAdjust="spacingAndGlyphs" textLength="126" x="263.75" y="1469.1074">input::file::TSReader</text><line style="stroke: #A80036; stroke-width: 1.5;" x1="235.75" x2="391.75" y1="1480.9531" y2="1480.9531"/><line style="stroke: #A80036; stroke-width: 1.5;" x1="235.75" x2="391.75" y1="1488.9531" y2="1488.9531"/><rect fill="#99CC11" filter="url(#f1)" height="48" style="stroke: #A80036; stroke-width: 1.5;" width="122" x="252.25" y="1587.9531"/><rect fill="#99CC11" height="32" style="stroke: #A80036; stroke-width: 1.5;" width="122" x="252.25" y="1587.9531"/><ellipse cx="267.25" cy="1603.9531" fill="#ADD1B2" rx="11" ry="11" style="stroke: #A80036; stroke-width: 1.0;"/><path d="M270.2188,1609.5938 Q269.6406,1609.8906 269,1610.0391 Q268.3594,1610.1875 267.6563,1610.1875 Q265.1563,1610.1875 263.8359,1608.5391 Q262.5156,1606.8906 262.5156,1603.7656 Q262.5156,1600.6406 263.8359,1598.9844 Q265.1563,1597.3281 267.6563,1597.3281 Q268.3594,1597.3281 269.0078,1597.4844 Q269.6563,1597.6406 270.2188,1597.9375 L270.2188,1600.6563 Q269.5938,1600.0781 269,1599.8047 Q268.4063,1599.5313 267.7813,1599.5313 Q266.4375,1599.5313 265.75,1600.6016 Q265.0625,1601.6719 265.0625,1603.7656 Q265.0625,1605.8594 265.75,1606.9297 Q266.4375,1608 267.7813,1608 Q268.4063,1608 269,1607.7266 Q269.5938,1607.4531 270.2188,1606.875 L270.2188,1609.5938 Z "/><text fill="#000000" font-family="sans-serif" font-size="12" lengthAdjust="spacingAndGlyphs" textLength="90" x="281.25" y="1608.1074">TSReaderData</text><line style="stroke: #A80036; stroke-width: 1.5;" x1="253.25" x2="373.25" y1="1619.9531" y2="1619.9531"/><line style="stroke: #A80036; stroke-width: 1.5;" x1="253.25" x2="373.25" y1="1627.9531" y2="1627.9531"/><rect fill="#AACCAA" filter="url(#f1)" height="48" style="stroke: #A80036; stroke-width: 1.5;" width="143" x="202" y="1710.9531"/><rect fill="#AACCAA" height="32" style="stroke: #A80036; stroke-width: 1.5;" width="143" x="202" y="1710.9531"/><ellipse cx="217" cy="1726.9531" fill="#ADD1B2" rx="11" ry="11" style="stroke: #A80036; stroke-width: 1.0;"/><path d="M219.9688,1732.5938 Q219.3906,1732.8906 218.75,1733.0391 Q218.1094,1733.1875 217.4063,1733.1875 Q214.9063,1733.1875 213.5859,1731.5391 Q212.2656,1729.8906 212.2656,1726.7656 Q212.2656,1723.6406 213.5859,1721.9844 Q214.9063,1720.3281 217.4063,1720.3281 Q218.1094,1720.3281 218.7578,1720.4844 Q219.4063,1720.6406 219.9688,1720.9375 L219.9688,1723.6563 Q219.3438,1723.0781 218.75,1722.8047 Q218.1563,1722.5313 217.5313,1722.5313 Q216.1875,1722.5313 215.5,1723.6016 Q214.8125,1724.6719 214.8125,1726.7656 Q214.8125,1728.8594 215.5,1729.9297 Q216.1875,1731 217.5313,1731 Q218.1563,1731 218.75,1730.7266 Q219.3438,1730.4531 219.9688,1729.875 L219.9688,1732.5938 Z "/><text fill="#000000" font-family="sans-serif" font-size="12" lengthAdjust="spacingAndGlyphs" textLength="111" x="231" y="1731.1074">input::DeviceData</text><line style="stroke: #A80036; stroke-width: 1.5;" x1="203" x2="344" y1="1742.9531" y2="1742.9531"/><line style="stroke: #A80036; stroke-width: 1.5;" x1="203" x2="344" y1="1750.9531" y2="1750.9531"/><rect fill="#FFCCAA" filter="url(#f1)" height="48" style="stroke: #A80036; stroke-width: 1.5;" width="159" x="400" y="1710.9531"/><rect fill="#FFCCAA" height="32" style="stroke: #A80036; stroke-width: 1.5;" width="159" x="400" y="1710.9531"/><ellipse cx="415" cy="1726.9531" fill="#ADD1B2" rx="11" ry="11" style="stroke: #A80036; stroke-width: 1.0;"/><path d="M417.9688,1732.5938 Q417.3906,1732.8906 416.75,1733.0391 Q416.1094,1733.1875 415.4063,1733.1875 Q412.9063,1733.1875 411.5859,1731.5391 Q410.2656,1729.8906 410.2656,1726.7656 Q410.2656,1723.6406 411.5859,1721.9844 Q412.9063,1720.3281 415.4063,1720.3281 Q416.1094,1720.3281 416.7578,1720.4844 Q417.4063,1720.6406 417.9688,1720.9375 L417.9688,1723.6563 Q417.3438,1723.0781 416.75,1722.8047 Q416.1563,1722.5313 415.5313,1722.5313 Q414.1875,1722.5313 413.5,1723.6016 Q412.8125,1724.6719 412.8125,1726.7656 Q412.8125,1728.8594 413.5,1729.9297 Q414.1875,1731 415.5313,1731 Q416.1563,1731 416.75,1730.7266 Q417.3438,1730.4531 417.9688,1729.875 L417.9688,1732.5938 Z "/><text fill="#000000" font-family="sans-serif" font-size="12" lengthAdjust="spacingAndGlyphs" textLength="127" x="429" y="1731.1074">input::dvb::Frontend</text><line style="stroke: #A80036; stroke-width: 1.5;" x1="401" x2="558" y1="1742.9531" y2="1742.9531"/><line style="stroke: #A80036; stroke-width: 1.5;" x1="401" x2="558" y1="1750.9531" y2="1750.9531"/><rect fill="#AACCAA" filter="url(#f1)" height="48" style="stroke: #A80036; stroke-width: 1.5;" width="142" x="408.25" y="1836.9531"/><rect fill="#AACCAA" height="32" style="stroke: #A80036; stroke-width: 1.5;" width="142" x="408.25" y="1836.9531"/><ellipse cx="423.25" cy="1852.9531" fill="#ADD1B2" rx="11" ry="11" style="stroke: #A80036; stroke-width: 1.0;"/><path d="M426.2188,1858.5938 Q425.6406,1858.8906 425,1859.0391 Q424.3594,1859.1875 423.6563,1859.1875 Q421.1563,1859.1875 419.8359,1857.5391 Q418.5156,1855.8906 418.5156,1852.7656 Q418.5156,1849.6406 419.8359,1847.9844 Q421.1563,1846.3281 423.6563,1846.3281 Q424.3594,1846.3281 425.0078,1846.4844 Q425.6563,1846.6406 426.2188,1846.9375 L426.2188,1849.6563 Q425.5938,1849.0781 425,1848.8047 Q424.4063,1848.5313 423.7813,1848.5313 Q422.4375,1848.5313 421.75,1849.6016 Q421.0625,1850.6719 421.0625,1852.7656 Q421.0625,1854.8594 421.75,1855.9297 Q422.4375,1857 423.7813,1857 Q424.4063,1857 425,1856.7266 Q425.5938,1856.4531 426.2188,1855.875 L426.2188,1858.5938 Z "/><text fill="#000000" font-family="sans-serif" font-size="12" lengthAdjust="spacingAndGlyphs" textLength="110" x="437.25" y="1857.1074">input::Translation</text><line style="stroke: #A80036; stroke-width: 1.5;" x1="409.25" x2="549.25" y1="1868.9531" y2="1868.9531"/><line style="stroke: #A80036; stroke-width: 1.5;" x1="409.25" x2="549.25" y1="1876.9531" y2="1876.9531"/><rect fill="#FFCCAA" filter="url(#f1)" height="48" style="stroke: #A80036; stroke-width: 1.5;" width="189" x="179" y="1836.9531"/><rect fill="#FFCCAA" height="32" style="stroke: #A80036; stroke-width: 1.5;" width="189" x="179" y="1836.9531"/><ellipse cx="194" cy="1852.9531" fill="#ADD1B2" rx="11" ry="11" style="stroke: #A80036; stroke-width: 1.0;"/><path d="M196.9688,1858.5938 Q196.3906,1858.8906 195.75,1859.0391 Q195.1094,1859.1875 194.4063,1859.1875 Q191.9063,1859.1875 190.5859,1857.5391 Q189.2656,1855.8906 189.2656,1852.7656 Q189.2656,1849.6406 190.5859,1847.9844 Q191.9063,1846.3281 194.4063,1846.3281 Q195.1094,1846.3281 195.7578,1846.4844 Q196.4063,1846.6406 196.9688,1846.9375 L196.9688,1849.6563 Q196.3438,1849.0781 195.75,1848.8047 Q195.1563,1848.5313 194.5313,1848.5313 Q193.1875,1848.5313 192.5,1849.6016 Q191.8125,1850.6719 191.8125,1852.7656 Q191.8125,1854.8594 192.5,1855.9297 Q193.1875,1857 194.5313,1857 Q195.1563,1857 195.75,1856.7266 Q196.3438,1856.4531 196.9688,1855.875 L196.9688,1858.5938 Z "/><text fill="#000000" font-family="sans-serif" font-size="12" lengthAdjust="spacingAndGlyphs" textLength="157" x="208" y="1857.1074">input::dvb::FrontendData</text><line style="stroke: #A80036; stroke-width: 1.5;" x1="180" x2="367" y1="1868.9531" y2="1868.9531"/><line style="stroke: #A80036; stroke-width: 1.5;" x1="180" x2="367" y1="1876.9531" y2="1876.9531"/><rect fill="#AACCCC" filter="url(#f1)" height="48" style="stroke: #A80036; stroke-width: 1.5;" width="202" x="590.25" y="1836.9531"/><rect fill="#AACCCC" height="32" style="stroke: #A80036; stroke-width: 1.5;" width="202" x="590.25" y="1836.9531"/><ellipse cx="605.25" cy="1852.9531" fill="#ADD1B2" rx="11" ry="11" style="stroke: #A80036; stroke-width: 1.0;"/><path d="M608.2188,1858.5938 Q607.6406,1858.8906 607,1859.0391 Q606.3594,1859.1875 605.6563,1859.1875 Q603.1563,1859.1875 601.8359,1857.5391 Q600.5156,1855.8906 600.5156,1852.7656 Q600.5156,1849.6406 601.8359,1847.9844 Q603.1563,1846.3281 605.6563,1846.3281 Q606.3594,1846.3281 607.0078,1846.4844 Q607.6563,1846.6406 608.2188,1846.9375 L608.2188,1849.6563 Q607.5938,1849.0781 607,1848.8047 Q606.4063,1848.5313 605.7813,1848.5313 Q604.4375,1848.5313 603.75,1849.6016 Q603.0625,1850.6719 603.0625,1852.7656 Q603.0625,1854.8594 603.75,1855.9297 Q604.4375,1857 605.7813,1857 Q606.4063,1857 607,1856.7266 Q607.5938,1856.4531 608.2188,1855.875 L608.2188,1858.5938 Z "/><text fill="#000000" font-family="sans-serif" font-size="12" lengthAdjust="spacingAndGlyphs" textLength="170" x="619.25" y="1857.1074">input::dvb::delivery::System</text><line style="stroke: #A80036; stroke-width: 1.5;" x1="591.25" x2="791.25" y1="1868.9531" y2="1868.9531"/><line style="stroke: #A80036; stroke-width: 1.5;" x1="591.25" x2="791.25" y1="1876.9531" y2="1876.9531"/><rect fill="#AACCCC" filter="url(#f1)" height="48" style="stroke: #A80036; stroke-width: 1.5;" width="65" x="725" y="1962.9531"/><rect fill="#AACCCC" height="32" style="stroke: #A80036; stroke-width: 1.5;" width="65" x="725" y="1962.9531"/><ellipse cx="740" cy="1978.9531" fill="#ADD1B2" rx="11" ry="11" style="stroke: #A80036; stroke-width: 1.0;"/><path d="M742.9688,1984.5938 Q742.3906,1984.8906 741.75,1985.0391 Q741.1094,1985.1875 740.4063,1985.1875 Q737.9063,1985.1875 736.5859,1983.5391 Q735.2656,1981.8906 735.2656,1978.7656 Q735.2656,1975.6406 736.5859,1973.9844 Q737.9063,1972.3281 740.4063,1972.3281 Q741.1094,1972.3281 741.7578,1972.4844 Q742.4063,1972.6406 742.9688,1972.9375 L742.9688,1975.6563 Q742.3438,1975.0781 741.75,1974.8047 Q741.1563,1974.5313 740.5313,1974.5313 Q739.1875,1974.5313 738.5,1975.6016 Q737.8125,1976.6719 737.8125,1978.7656 Q737.8125,1980.8594 738.5,1981.9297 Q739.1875,1983 740.5313,1983 Q741.1563,1983 741.75,1982.7266 Q742.3438,1982.4531 742.9688,1981.875 L742.9688,1984.5938 Z "/><text fill="#000000" font-family="sans-serif" font-size="12" lengthAdjust="spacingAndGlyphs" textLength="33" x="754" y="1983.1074">DVBS</text><line style="stroke: #A80036; stroke-width: 1.5;" x1="726" x2="789" y1="1994.9531" y2="1994.9531"/><line style="stroke: #A80036; stroke-width: 1.5;" x1="726" x2="789" y1="2002.9531" y2="2002.9531"/><rect fill="#AACCCC" filter="url(#f1)" height="48" style="stroke: #A80036; stroke-width: 1.5;" width="65" x="830" y="1962.9531"/><rect fill="#AACCCC" height="32" style="stroke: #A80036; stroke-width: 1.5;" width="65" x="830" y="1962.9531"/><ellipse cx="845" cy="1978.9531" fill="#ADD1B2" rx="11" ry="11" style="stroke: #A80036; stroke-width: 1.0;"/><path d="M847.9688,1984.5938 Q847.3906,1984.8906 846.75,1985.0391 Q846.1094,1985.1875 845.4063,1985.1875 Q842.9063,1985.1875 841.5859,1983.5391 Q840.2656,1981.8906 840.2656,1978.7656 Q840.2656,1975.6406 841.5859,1973.9844 Q842.9063,1972.3281 845.4063,1972.3281 Q846.1094,1972.3281 846.7578,1972.4844 Q847.4063,1972.6406 847.9688,1972.9375 L847.9688,1975.6563 Q847.3438,1975.0781 846.75,1974.8047 Q846.1563,1974.5313 845.5313,1974.5313 Q844.1875,1974.5313 843.5,1975.6016 Q842.8125,1976.6719 842.8125,1978.7656 Q842.8125,1980.8594 843.5,1981.9297 Q844.1875,1983 845.5313,1983 Q846.1563,1983 846.75,1982.7266 Q847.3438,1982.4531 847.9688,1981.875 L847.9688,1984.5938 Z "/><text fill="#000000" font-family="sans-serif" font-size="12" lengthAdjust="spacingAndGlyphs" textLength="33" x="859" y="1983.1074">DVBC</text><line style="stroke: #A80036; stroke-width: 1.5;" x1="831" x2="894" y1="1994.9531" y2="1994.9531"/><line style="stroke: #A80036; stroke-width: 1.5;" x1="831" x2="894" y1="2002.9531" y2="2002.9531"/><rect fill="#AACCCC" filter="url(#f1)" height="48" style="stroke: #A80036; stroke-width: 1.5;" width="64" x="517.25" y="1962.9531"/><rect fill="#AACCCC" height="32" style="stroke: #A80036; stroke-width: 1.5;" width="64" x="517.25" y="1962.9531"/><ellipse cx="532.25" cy="1978.9531" fill="#ADD1B2" rx="11" ry="11" style="stroke: #A80036; stroke-width: 1.0;"/><path d="M535.2188,1984.5938 Q534.6406,1984.8906 534,1985.0391 Q533.3594,1985.1875 532.6563,1985.1875 Q530.1563,1985.1875 528.8359,1983.5391 Q527.5156,1981.8906 527.5156,1978.7656 Q527.5156,1975.6406 528.8359,1973.9844 Q530.1563,1972.3281 532.6563,1972.3281 Q533.3594,1972.3281 534.0078,1972.4844 Q534.6563,1972.6406 535.2188,1972.9375 L535.2188,1975.6563 Q534.5938,1975.0781 534,1974.8047 Q533.4063,1974.5313 532.7813,1974.5313 Q531.4375,1974.5313 530.75,1975.6016 Q530.0625,1976.6719 530.0625,1978.7656 Q530.0625,1980.8594 530.75,1981.9297 Q531.4375,1983 532.7813,1983 Q533.4063,1983 534,1982.7266 Q534.5938,1982.4531 535.2188,1981.875 L535.2188,1984.5938 Z "/><text fill="#000000" font-family="sans-serif" font-size="12" lengthAdjust="spacingAndGlyphs" textLength="32" x="546.25" y="1983.1074">DVBT</text><line style="stroke: #A80036; stroke-width: 1.5;" x1="518.25" x2="580.25" y1="1994.9531" y2="1994.9531"/><line style="stroke: #A80036; stroke-width: 1.5;" x1="518.25" x2="580.25" y1="2002.9531" y2="2002.9531"/><rect fill="#AACCCC" filter="url(#f1)" height="48" style="stroke: #A80036; stroke-width: 1.5;" width="63" x="622" y="1962.9531"/><rect fill="#AACCCC" height="32" style="stroke: #A80036; stroke-width: 1.5;" width="63" x="622" y="1962.9531"/><ellipse cx="637" cy="1978.9531" fill="#ADD1B2" rx="11" ry="11" style="stroke: #A80036; stroke-width: 1.0;"/><path d="M639.9688,1984.5938 Q639.3906,1984.8906 638.75,1985.0391 Q638.1094,1985.1875 637.4063,1985.1875 Q634.9063,1985.1875 633.5859,1983.5391 Q632.2656,1981.8906 632.2656,1978.7656 Q632.2656,1975.6406 633.5859,1973.9844 Q634.9063,1972.3281 637.4063,1972.3281 Q638.1094,1972.3281 638.7578,1972.4844 Q639.4063,1972.6406 639.9688,1972.9375 L639.9688,1975.6563 Q639.3438,1975.0781 638.75,1974.8047 Q638.1563,1974.5313 637.5313,1974.5313 Q636.1875,1974.5313 635.5,1975.6016 Q634.8125,1976.6719 634.8125,1978.7656 Q634.8125,1980.8594 635.5,1981.9297 Q636.1875,1983 637.5313,1983 Q638.1563,1983 638.75,1982.7266 Q639.3438,1982.4531 639.9688,1981.875 L639.9688,1984.5938 Z "/><text fill="#000000" font-family="sans-serif" font-size="12" lengthAdjust="spacingAndGlyphs" textLength="31" x="651" y="1983.1074">ATSC</text><line style="stroke: #A80036; stroke-width: 1.5;" x1="623" x2="684" y1="1994.9531" y2="1994.9531"/><line style="stroke: #A80036; stroke-width: 1.5;" x1="623" x2="684" y1="2002.9531" y2="2002.9531"/><rect fill="#AACCCC" filter="url(#f1)" height="48" style="stroke: #A80036; stroke-width: 1.5;" width="115" x="450" y="2214.9531"/><rect fill="#AACCCC" height="32" style="stroke: #A80036; stroke-width: 1.5;" width="115" x="450" y="2214.9531"/><ellipse cx="465" cy="2230.9531" fill="#ADD1B2" rx="11" ry="11" style="stroke: #A80036; stroke-width: 1.0;"/><path d="M467.9688,2236.5938 Q467.3906,2236.8906 466.75,2237.0391 Q466.1094,2237.1875 465.4063,2237.1875 Q462.9063,2237.1875 461.5859,2235.5391 Q460.2656,2233.8906 460.2656,2230.7656 Q460.2656,2227.6406 461.5859,2225.9844 Q462.9063,2224.3281 465.4063,2224.3281 Q466.1094,2224.3281 466.7578,2224.4844 Q467.4063,2224.6406 467.9688,2224.9375 L467.9688,2227.6563 Q467.3438,2227.0781 466.75,2226.8047 Q466.1563,2226.5313 465.5313,2226.5313 Q464.1875,2226.5313 463.5,2227.6016 Q462.8125,2228.6719 462.8125,2230.7656 Q462.8125,2232.8594 463.5,2233.9297 Q464.1875,2235 465.5313,2235 Q466.1563,2235 466.75,2234.7266 Q467.3438,2234.4531 467.9688,2233.875 L467.9688,2236.5938 Z "/><text fill="#000000" font-family="sans-serif" font-size="12" lengthAdjust="spacingAndGlyphs" textLength="83" x="479" y="2235.1074">DiSEqcSwitch</text><line style="stroke: #A80036; stroke-width: 1.5;" x1="451" x2="564" y1="2246.9531" y2="2246.9531"/><line style="stroke: #A80036; stroke-width: 1.5;" x1="451" x2="564" y1="2254.9531" y2="2254.9531"/><rect fill="#AACCCC" filter="url(#f1)" height="48" style="stroke: #A80036; stroke-width: 1.5;" width="132" x="605.25" y="2214.9531"/><rect fill="#AACCCC" height="32" style="stroke: #A80036; stroke-width: 1.5;" width="132" x="605.25" y="2214.9531"/><ellipse cx="620.25" cy="2230.9531" fill="#ADD1B2" rx="11" ry="11" style="stroke: #A80036; stroke-width: 1.0;"/><path d="M623.2188,2236.5938 Q622.6406,2236.8906 622,2237.0391 Q621.3594,2237.1875 620.6563,2237.1875 Q618.1563,2237.1875 616.8359,2235.5391 Q615.5156,2233.8906 615.5156,2230.7656 Q615.5156,2227.6406 616.8359,2225.9844 Q618.1563,2224.3281 620.6563,2224.3281 Q621.3594,2224.3281 622.0078,2224.4844 Q622.6563,2224.6406 623.2188,2224.9375 L623.2188,2227.6563 Q622.5938,2227.0781 622,2226.8047 Q621.4063,2226.5313 620.7813,2226.5313 Q619.4375,2226.5313 618.75,2227.6016 Q618.0625,2228.6719 618.0625,2230.7656 Q618.0625,2232.8594 618.75,2233.9297 Q619.4375,2235 620.7813,2235 Q621.4063,2235 622,2234.7266 Q622.5938,2234.4531 623.2188,2233.875 L623.2188,2236.5938 Z "/><text fill="#000000" font-family="sans-serif" font-size="12" lengthAdjust="spacingAndGlyphs" textLength="100" x="634.25" y="2235.1074">DiSEqcEN50494</text><line style="stroke: #A80036; stroke-width: 1.5;" x1="606.25" x2="736.25" y1="2246.9531" y2="2246.9531"/><line style="stroke: #A80036; stroke-width: 1.5;" x1="606.25" x2="736.25" y1="2254.9531" y2="2254.9531"/><rect fill="#AACCCC" filter="url(#f1)" height="48" style="stroke: #A80036; stroke-width: 1.5;" width="132" x="777.25" y="2214.9531"/><rect fill="#AACCCC" height="32" style="stroke: #A80036; stroke-width: 1.5;" width="132" x="777.25" y="2214.9531"/><ellipse cx="792.25" cy="2230.9531" fill="#ADD1B2" rx="11" ry="11" style="stroke: #A80036; stroke-width: 1.0;"/><path d="M795.2188,2236.5938 Q794.6406,2236.8906 794,2237.0391 Q793.3594,2237.1875 792.6563,2237.1875 Q790.1563,2237.1875 788.8359,2235.5391 Q787.5156,2233.8906 787.5156,2230.7656 Q787.5156,2227.6406 788.8359,2225.9844 Q790.1563,2224.3281 792.6563,2224.3281 Q793.3594,2224.3281 794.0078,2224.4844 Q794.6563,2224.6406 795.2188,2224.9375 L795.2188,2227.6563 Q794.5938,2227.0781 794,2226.8047 Q793.4063,2226.5313 792.7813,2226.5313 Q791.4375,2226.5313 790.75,2227.6016 Q790.0625,2228.6719 790.0625,2230.7656 Q790.0625,2232.8594 790.75,2233.9297 Q791.4375,2235 792.7813,2235 Q793.4063,2235 794,2234.7266 Q794.5938,2234.4531 795.2188,2233.875 L795.2188,2236.5938 Z "/><text fill="#000000" font-family="sans-serif" font-size="12" lengthAdjust="spacingAndGlyphs" textLength="100" x="806.25" y="2235.1074">DiSEqcEN50607</text><line style="stroke: #A80036; stroke-width: 1.5;" x1="778.25" x2="908.25" y1="2246.9531" y2="2246.9531"/><line style="stroke: #A80036; stroke-width: 1.5;" x1="778.25" x2="908.25" y1="2254.9531" y2="2254.9531"/><rect fill="#AACCCC" filter="url(#f1)" height="48" style="stroke: #A80036; stroke-width: 1.5;" width="75" x="720" y="2088.9531"/><rect fill="#AACCCC" height="32" style="stroke: #A80036; stroke-width: 1.5;" width="75" x="720" y="2088.9531"/><ellipse cx="735" cy="2104.9531" fill="#ADD1B2" rx="11" ry="11" style="stroke: #A80036; stroke-width: 1.0;"/><path d="M737.9688,2110.5938 Q737.3906,2110.8906 736.75,2111.0391 Q736.1094,2111.1875 735.4063,2111.1875 Q732.9063,2111.1875 731.5859,2109.5391 Q730.2656,2107.8906 730.2656,2104.7656 Q730.2656,2101.6406 731.5859,2099.9844 Q732.9063,2098.3281 735.4063,2098.3281 Q736.1094,2098.3281 736.7578,2098.4844 Q737.4063,2098.6406 737.9688,2098.9375 L737.9688,2101.6563 Q737.3438,2101.0781 736.75,2100.8047 Q736.1563,2100.5313 735.5313,2100.5313 Q734.1875,2100.5313 733.5,2101.6016 Q732.8125,2102.6719 732.8125,2104.7656 Q732.8125,2106.8594 733.5,2107.9297 Q734.1875,2109 735.5313,2109 Q736.1563,2109 736.75,2108.7266 Q737.3438,2108.4531 737.9688,2107.875 L737.9688,2110.5938 Z "/><text fill="#000000" font-family="sans-serif" font-size="12" lengthAdjust="spacingAndGlyphs" textLength="43" x="749" y="2109.1074">DiSEqc</text><line style="stroke: #A80036; stroke-width: 1.5;" x1="721" x2="794" y1="2120.9531" y2="2120.9531"/><line style="stroke: #A80036; stroke-width: 1.5;" x1="721" x2="794" y1="2128.9531" y2="2128.9531"/><rect fill="#AACCCC" filter="url(#f1)" height="48" style="stroke: #A80036; stroke-width: 1.5;" width="54" x="949.25" y="2214.9531"/><rect fill="#AACCCC" height="32" style="stroke: #A80036; stroke-width: 1.5;" width="54" x="949.25" y="2214.9531"/><ellipse cx="964.25" cy="2230.9531" fill="#ADD1B2" rx="11" ry="11" style="stroke: #A80036; stroke-width: 1.0;"/><path d="M967.2188,2236.5938 Q966.6406,2236.8906 966,2237.0391 Q965.3594,2237.1875 964.6563,2237.1875 Q962.1563,2237.1875 960.8359,2235.5391 Q959.5156,2233.8906 959.5156,2230.7656 Q959.5156,2227.6406 960.8359,2225.9844 Q962.1563,2224.3281 964.6563,2224.3281 Q965.3594,2224.3281 966.0078,2224.4844 Q966.6563,2224.6406 967.2188,2224.9375 L967.2188,2227.6563 Q966.5938,2227.0781 966,2226.8047 Q965.4063,2226.5313 964.7813,2226.5313 Q963.4375,2226.5313 962.75,2227.6016 Q962.0625,2228.6719 962.0625,2230.7656 Q962.0625,2232.8594 962.75,2233.9297 Q963.4375,2235 964.7813,2235 Q965.4063,2235 966,2234.7266 Q966.5938,2234.4531 967.2188,2233.875 L967.2188,2236.5938 Z "/><text fill="#000000" font-family="sans-serif" font-size="12" lengthAdjust="spacingAndGlyphs" textLength="22" x="978.25" y="2235.1074">Lnb</text><line style="stroke: #A80036; stroke-width: 1.5;" x1="950.25" x2="1002.25" y1="2246.9531" y2="2246.9531"/><line style="stroke: #A80036; stroke-width: 1.5;" x1="950.25" x2="1002.25" y1="2254.9531" y2="2254.9531"/><rect fill="#FEFECE" filter="url(#f1)" height="48" style="stroke: #A80036; stroke-width: 1.5;" width="152" x="197.25" y="2088.9531"/><ellipse cx="212.25" cy="2104.9531" fill="#ADD1B2" rx="11" ry="11" style="stroke: #A80036; stroke-width: 1.0;"/><path d="M215.2188,2110.5938 Q214.6406,2110.8906 214,2111.0391 Q213.3594,2111.1875 212.6563,2111.1875 Q210.1563,2111.1875 208.8359,2109.5391 Q207.5156,2107.8906 207.5156,2104.7656 Q207.5156,2101.6406 208.8359,2099.9844 Q210.1563,2098.3281 212.6563,2098.3281 Q213.3594,2098.3281 214.0078,2098.4844 Q214.6563,2098.6406 215.2188,2098.9375 L215.2188,2101.6563 Q214.5938,2101.0781 214,2100.8047 Q213.4063,2100.5313 212.7813,2100.5313 Q211.4375,2100.5313 210.75,2101.6016 Q210.0625,2102.6719 210.0625,2104.7656 Q210.0625,2106.8594 210.75,2107.9297 Q211.4375,2109 212.7813,2109 Q213.4063,2109 214,2108.7266 Q214.5938,2108.4531 215.2188,2107.875 L215.2188,2110.5938 Z "/><text fill="#000000" font-family="sans-serif" font-size="12" lengthAdjust="spacingAndGlyphs" textLength="120" x="226.25" y="2109.1074">dvbcsa_bs_batch_s</text><line style="stroke: #A80036; stroke-width: 1.5;" x1="198.25" x2="348.25" y1="2120.9531" y2="2120.9531"/><line style="stroke: #A80036; stroke-width: 1.5;" x1="198.25" x2="348.25" y1="2128.9531" y2="2128.9531"/><path d="M1110.54,67.0031 C1177.93,70.4631 1289.34,88.2231 1333.25,164.9531 C1424.11,323.7231 1406.93,556.5531 1397.3,638.2831 " fill="none" style="stroke: #A80036; stroke-width: 1.0;"/><polygon fill="#A80036" points="1097.27,66.4731,1103.1072,70.7072,1109.2606,66.9475,1103.4234,62.7134,1097.27,66.4731" style="stroke: #A80036; stroke-width: 1.0;"/><path d="M1030.76,114.9331 C1022.34,130.7831 1012.85,148.6431 1003.97,165.3631 " fill="none" style="stroke: #A80036; stroke-width: 1.0;"/><polygon fill="#A80036" points="1036.96,103.2631,1030.613,106.686,1031.3314,113.8612,1037.6784,110.4384,1036.96,103.2631" style="stroke: #A80036; stroke-width: 1.0;"/><path d="M1093.57,113.6031 C1111.59,136.1231 1133.05,162.9531 1150.57,184.8431 " fill="none" style="stroke: #A80036; stroke-width: 1.0;"/><polygon fill="#A80036" points="1085.3,103.2631,1085.9198,110.4475,1092.7899,112.6387,1092.1701,105.4543,1085.3,103.2631" style="stroke: #A80036; stroke-width: 1.0;"/><path d="M1002.204,74.0831 C934.027,84.1231 822.067,104.4531 792.25,132.9531 C739.05,183.8031 730.236,277.4831 729.136,320.8331 " fill="none" style="stroke: #A80036; stroke-width: 1.0;"/><polygon fill="#A80036" points="1015.22,72.2131,1008.7115,69.1084,1003.3423,73.9222,1009.8509,77.0269,1015.22,72.2131" style="stroke: #A80036; stroke-width: 1.0;"/><path d="M1110.66,72.6831 C1166.43,81.7831 1250.47,105.1631 1290.25,164.9531 C1343.45,244.9031 1294,367.3331 1269.34,417.8931 " fill="none" style="stroke: #A80036; stroke-width: 1.0;"/><polygon fill="#A80036" points="1097.48,70.7131,1102.8203,75.5589,1109.3472,72.4932,1104.007,67.6474,1097.48,70.7131" style="stroke: #A80036; stroke-width: 1.0;"/><path d="M1002.105,78.9931 C957.131,92.0531 895.621,117.7031 864.25,164.9531 C763.142,317.2331 802.325,555.6231 820.233,638.4331 " fill="none" style="stroke: #A80036; stroke-width: 1.0;"/><polygon fill="#A80036" points="1014.89,75.4731,1008.0448,73.2052,1003.3186,78.6516,1010.1638,80.9195,1014.89,75.4731" style="stroke: #A80036; stroke-width: 1.0;"/><path d="M1199.36,1250.9531 C1226.89,1267.2221 1258.51,1285.9001 1286.71,1302.5591 " fill="none" style="stroke: #A80036; stroke-width: 1.0;"/><polygon fill="none" points="1290.55,1296.6991,1304.21,1312.8981,1283.43,1308.7531,1290.55,1296.6991" style="stroke: #A80036; stroke-width: 1.0;"/><path d="M956.377,718.5131 C917.135,743.6231 869.449,774.1431 830.581,799.0231 " fill="none" style="stroke: #A80036; stroke-width: 1.0;"/><polygon fill="none" points="834.302,804.9531,813.683,809.8331,826.756,793.1631,834.302,804.9531" style="stroke: #A80036; stroke-width: 1.0;"/><path d="M1008.09,731.0831 C996.99,764.4831 986.25,806.8831 986.25,845.9531 C986.25,845.9531 986.25,845.9531 986.25,1208.9531 C986.25,1308.0371 1052.14,1243.4231 1271.25,1312.9531 C1277.75,1315.0141 1284.44,1317.2831 1291.13,1319.6491 " fill="none" style="stroke: #A80036; stroke-width: 1.0;"/><polygon fill="#A80036" points="1012.34,718.7531,1006.6062,723.1261,1008.4375,730.1008,1014.1713,725.7278,1012.34,718.7531" style="stroke: #A80036; stroke-width: 1.0;"/><text fill="#000000" font-family="sans-serif" font-size="13" lengthAdjust="spacingAndGlyphs" textLength="47" x="987.25" y="1035.02">_server</text><path d="M1043.23,731.4031 C1062.95,841.6831 1103.85,1070.4831 1120.72,1164.8531 " fill="none" style="stroke: #A80036; stroke-width: 1.0;"/><polygon fill="#A80036" points="1040.94,718.5531,1038.057,725.1629,1043.0495,730.3663,1045.9325,723.7565,1040.94,718.5531" style="stroke: #A80036; stroke-width: 1.0;"/><text fill="#000000" font-family="sans-serif" font-size="13" lengthAdjust="spacingAndGlyphs" textLength="59" x="1083.25" y="940.02">_client[..]</text><path d="M716.06,589.1731 C724.128,639.4631 738.796,730.9131 748.276,790.0131 " fill="none" style="stroke: #A80036; stroke-width: 1.0;"/><polygon fill="none" points="755.197,788.9631,751.453,809.8131,741.374,791.1731,755.197,788.9631" style="stroke: #A80036; stroke-width: 1.0;"/><path d="M727.107,369.0731 C724.299,399.3731 719.281,453.5131 715.448,494.8631 " fill="none" style="stroke: #A80036; stroke-width: 1.0;"/><polygon fill="none" points="722.412,495.5831,713.596,514.8431,708.472,494.2831,722.412,495.5831" style="stroke: #A80036; stroke-width: 1.0;"/><path d="M988.976,290.5531 C997.015,318.4931 1006.5,351.4531 1014.54,379.3931 " fill="none" style="stroke: #A80036; stroke-width: 1.0;"/><polygon fill="none" points="1021.29,377.5431,1020.09,398.7031,1007.83,381.4131,1021.29,377.5431" style="stroke: #A80036; stroke-width: 1.0;"/><path d="M1154.04,271.0931 C1131.2,302.9531 1099.56,347.0731 1074.25,382.3731 " fill="none" style="stroke: #A80036; stroke-width: 1.0;"/><polygon fill="none" points="1079.75,386.7231,1062.4,398.8931,1068.37,378.5631,1079.75,386.7231" style="stroke: #A80036; stroke-width: 1.0;"/><path d="M1203.03,283.5031 C1218.03,327.0431 1238.29,385.8831 1249.31,417.8831 " fill="none" style="stroke: #A80036; stroke-width: 1.0; stroke-dasharray: 7.0,7.0;"/><polygon fill="#A80036" points="1198.76,271.0931,1196.9305,278.0683,1202.6654,282.4398,1204.4949,275.4647,1198.76,271.0931" style="stroke: #A80036; stroke-width: 1.0;"/><path d="M1032.25,485.0131 C1032.25,517.0231 1032.25,561.7731 1032.25,599.0031 " fill="none" style="stroke: #A80036; stroke-width: 1.0;"/><polygon fill="none" points="1039.25,599.0531,1032.25,619.0531,1025.25,599.0531,1039.25,599.0531" style="stroke: #A80036; stroke-width: 1.0;"/><path d="M1110.94,491.9931 C1182.54,536.6231 1285.92,601.0631 1345.68,638.3031 " fill="none" style="stroke: #A80036; stroke-width: 1.0; stroke-dasharray: 7.0,7.0;"/><polygon fill="#A80036" points="1099.73,485.0131,1102.7011,491.5837,1109.9089,491.3684,1106.9379,484.7978,1099.73,485.0131" style="stroke: #A80036; stroke-width: 1.0;"/><text fill="#000000" font-family="sans-serif" font-size="13" lengthAdjust="spacingAndGlyphs" textLength="109" x="1267.25" y="556.02">_streamManager</text><path d="M985.034,494.7731 C944.498,539.2631 887.5,601.8231 854.263,638.3031 " fill="none" style="stroke: #A80036; stroke-width: 1.0; stroke-dasharray: 7.0,7.0;"/><polygon fill="#A80036" points="993.932,485.0131,986.9341,486.7538,985.8494,493.8829,992.8473,492.1422,993.932,485.0131" style="stroke: #A80036; stroke-width: 1.0;"/><path d="M843.765,1055.1931 C849.522,1084.8231 859.536,1136.3631 866.277,1171.0631 " fill="none" style="stroke: #A80036; stroke-width: 1.0; stroke-dasharray: 7.0,7.0;"/><polygon fill="#A80036" points="868.771,1183.8931,871.5501,1177.239,866.4767,1172.1145,863.6976,1178.7686,868.771,1183.8931" style="stroke: #A80036; stroke-width: 1.0;"/><path d="M1252.69,896.4831 C1236.28,914.7231 1215.4,933.7431 1192.25,944.9531 C1089.15,994.8831 1045.13,939.3231 936.25,974.9531 C920.338,980.1631 904.106,988.1231 889.587,996.3931 " fill="none" style="stroke: #A80036; stroke-width: 1.0;"/><polygon fill="none" points="893.007,1002.5031,872.265,1006.8431,885.777,990.5131,893.007,1002.5031" style="stroke: #A80036; stroke-width: 1.0;"/><path d="M1289.25,909.8631 C1289.25,930.9731 1289.25,954.4131 1289.25,974.9431 " fill="none" style="stroke: #A80036; stroke-width: 1.0;"/><polygon fill="#A80036" points="1289.25,896.7231,1285.25,902.7231,1289.25,908.7231,1293.25,902.7231,1289.25,896.7231" style="stroke: #A80036; stroke-width: 1.0;"/><text fill="#000000" font-family="sans-serif" font-size="13" lengthAdjust="spacingAndGlyphs" textLength="59" x="1294.25" y="940.02">_client[..]</text><path d="M1229.93,895.1231 C1202.91,914.0031 1169.56,933.8631 1136.25,944.9531 C1055.04,972.0031 824.971,929.8131 752.25,974.9531 C617.051,1058.8831 553.416,1257.6531 535.067,1325.6631 " fill="none" style="stroke: #A80036; stroke-width: 1.0;"/><polygon fill="#A80036" points="1240.72,887.4031,1233.5127,887.6384,1230.9579,894.3817,1238.1651,894.1465,1240.72,887.4031" style="stroke: #A80036; stroke-width: 1.0;"/><path d="M1350,868.4231 C1415.11,894.6531 1509.25,946.9431 1509.25,1029.9531 C1509.25,1029.9531 1509.25,1029.9531 1509.25,1350.9531 C1509.25,1395.3471 1395.65,1430.7411 1307.57,1451.5121 " fill="none" style="stroke: #A80036; stroke-width: 1.0;"/><polygon fill="#A80036" points="1337.8,863.6731,1341.9349,869.581,1348.9786,868.0365,1344.8438,862.1286,1337.8,863.6731" style="stroke: #A80036; stroke-width: 1.0;"/><path d="M1368.95,711.0731 C1353.72,736.8531 1334.01,770.2131 1318,797.3031 " fill="none" style="stroke: #A80036; stroke-width: 1.0;"/><polygon fill="#A80036" points="1375.61,699.8131,1369.113,702.9418,1369.5021,710.1424,1375.9992,707.0137,1375.61,699.8131" style="stroke: #A80036; stroke-width: 1.0;"/><text fill="#000000" font-family="sans-serif" font-size="13" lengthAdjust="spacingAndGlyphs" textLength="71" x="1349.25" y="762.02">_stream[..]</text><path d="M1471.75,697.0531 C1533.87,724.0831 1610.25,772.2831 1610.25,845.9531 C1610.25,845.9531 1610.25,845.9531 1610.25,1473.9531 C1610.25,1518.3431 1574.06,1551.9601 1536.89,1574.7831 " fill="none" style="stroke: #A80036; stroke-width: 1.0;"/><polygon fill="#A80036" points="1459.54,691.9331,1463.5253,697.9429,1470.6056,696.5757,1466.6203,690.5659,1459.54,691.9331" style="stroke: #A80036; stroke-width: 1.0;"/><text fill="#000000" font-family="sans-serif" font-size="13" lengthAdjust="spacingAndGlyphs" textLength="55" x="1615.25" y="1212.02">_decrypt</text><path d="M1319.98,1099.3931 C1328.35,1120.0631 1336.63,1143.1231 1342.25,1164.9531 C1355.2,1215.3031 1360.97,1275.3561 1363.46,1312.8291 " fill="none" style="stroke: #A80036; stroke-width: 1.0;"/><polygon fill="#A80036" points="1314.93,1087.1931,1313.528,1094.2666,1319.5182,1098.2813,1320.9202,1091.2078,1314.93,1087.1931" style="stroke: #A80036; stroke-width: 1.0;"/><text fill="#000000" font-family="sans-serif" font-size="13" lengthAdjust="spacingAndGlyphs" textLength="25" x="1362.25" y="1212.02">_rtp</text><path d="M1278.1,1100.0631 C1273.53,1144.2631 1272.64,1202.4431 1289.25,1250.9531 C1297.13,1273.9711 1312.86,1295.7631 1327.98,1312.9261 " fill="none" style="stroke: #A80036; stroke-width: 1.0;"/><polygon fill="#A80036" points="1279.58,1087.1131,1274.9265,1092.6217,1278.2215,1099.036,1282.8751,1093.5274,1279.58,1087.1131" style="stroke: #A80036; stroke-width: 1.0;"/><text fill="#000000" font-family="sans-serif" font-size="13" lengthAdjust="spacingAndGlyphs" textLength="32" x="1295.25" y="1212.02">_rtcp</text><path d="M1225.81,1097.0931 C1219.5,1103.7631 1213.22,1110.4631 1207.25,1116.9531 C1193.03,1132.4031 1177.73,1149.6731 1164.42,1164.9231 " fill="none" style="stroke: #A80036; stroke-width: 1.0; stroke-dasharray: 7.0,7.0;"/><polygon fill="#A80036" points="1235.06,1087.3731,1228.025,1088.9572,1226.7815,1096.0603,1233.8165,1094.4762,1235.06,1087.3731" style="stroke: #A80036; stroke-width: 1.0;"/><text fill="#000000" font-family="sans-serif" font-size="13" lengthAdjust="spacingAndGlyphs" textLength="40" x="1212.25" y="1130.02">_httpc</text><path d="M1268.36,1502.6971 C1284.12,1510.3131 1300.92,1518.7161 1316.25,1526.9531 C1343.98,1541.8581 1374.05,1559.5461 1399.26,1574.8381 " fill="none" style="stroke: #A80036; stroke-width: 1.0; stroke-dasharray: 7.0,7.0;"/><polygon fill="#A80036" points="1256.55,1497.0421,1260.234,1503.2412,1267.3731,1502.2249,1263.6891,1496.0258,1256.55,1497.0421" style="stroke: #A80036; stroke-width: 1.0;"/><path d="M1218.15,1509.8141 C1220.18,1521.3131 1220.46,1533.9201 1216.25,1544.9531 C1210,1561.3211 1197.62,1576.2001 1185.8,1587.6691 " fill="none" style="stroke: #A80036; stroke-width: 1.0;"/><polygon fill="#A80036" points="1215.14,1496.9851,1212.6179,1503.7408,1217.8838,1508.6672,1220.406,1501.9116,1215.14,1496.9851" style="stroke: #A80036; stroke-width: 1.0;"/><text fill="#000000" font-family="sans-serif" font-size="13" lengthAdjust="spacingAndGlyphs" textLength="75" x="1225.25" y="1540.02">_tsBuffer[..]</text><path d="M1092.09,1463.7581 C985.421,1453.4431 837.331,1431.3931 801.25,1386.9531 C720.376,1287.3431 795.136,1116.7131 826.718,1055.0431 " fill="none" style="stroke: #A80036; stroke-width: 1.0; stroke-dasharray: 7.0,7.0;"/><polygon fill="#A80036" points="1105.21,1464.9881,1099.6049,1460.4513,1093.2612,1463.8803,1098.8663,1468.4171,1105.21,1464.9881" style="stroke: #A80036; stroke-width: 1.0;"/><path d="M880.516,1232.0731 C886.868,1252.2831 896.252,1282.1421 903.946,1306.6221 " fill="none" style="stroke: #A80036; stroke-width: 1.0;"/><polygon fill="#A80036" points="907.903,1319.2121,909.9205,1312.289,904.3058,1307.764,902.2884,1314.6871,907.903,1319.2121" style="stroke: #A80036; stroke-width: 1.0;"/><path d="M987.947,1380.5531 C1031.86,1398.9391 1088.2,1422.5291 1132.65,1441.1381 " fill="none" style="stroke: #A80036; stroke-width: 1.0;"/><polygon fill="none" points="1135.46,1434.7271,1151.21,1448.9081,1130.06,1447.6411,1135.46,1434.7271" style="stroke: #A80036; stroke-width: 1.0;"/><path d="M1162.53,1373.9971 C1169.62,1389.8751 1179.24,1411.4271 1187.65,1430.2741 " fill="none" style="stroke: #A80036; stroke-width: 1.0;"/><polygon fill="none" points="1194.06,1427.4661,1195.82,1448.5831,1181.28,1433.1721,1194.06,1427.4661" style="stroke: #A80036; stroke-width: 1.0;"/><path d="M554.442,1391.0621 C566.428,1410.1441 580.339,1432.2921 590.571,1448.5831 " fill="none" style="stroke: #A80036; stroke-width: 1.0;"/><polygon fill="none" points="548.434,1394.6571,543.724,1373.9971,560.289,1387.2101,548.434,1394.6571" style="stroke: #A80036; stroke-width: 1.0;"/><path d="M689.302,1587.7901 C722.961,1570.3531 771.552,1548.2991 817.25,1538.9531 C903.901,1521.2311 1127.75,1526.0431 1215.25,1538.9531 C1263.22,1546.0311 1314.87,1560.6001 1358.08,1574.8741 " fill="none" style="stroke: #A80036; stroke-width: 1.0; stroke-dasharray: 7.0,7.0;"/><text fill="#000000" font-family="sans-serif" font-size="13" lengthAdjust="spacingAndGlyphs" textLength="387" x="822.25" y="1540.02">callback getFrontendDecryptInterface(..) via StreamManager</text><path d="M470.453,1383.8901 C433.762,1404.4441 387.434,1430.3961 354.601,1448.7891 " fill="none" style="stroke: #A80036; stroke-width: 1.0;"/><polygon fill="none" points="467.244,1377.6641,488.114,1373.9971,474.086,1389.8791,467.244,1377.6641" style="stroke: #A80036; stroke-width: 1.0;"/><path d="M313.25,1510.3141 C313.25,1534.8131 313.25,1566.4041 313.25,1587.5991 " fill="none" style="stroke: #A80036; stroke-width: 1.0;"/><polygon fill="#A80036" points="313.25,1497.1931,309.25,1503.1931,313.25,1509.1931,317.25,1503.1931,313.25,1497.1931" style="stroke: #A80036; stroke-width: 1.0;"/><path d="M305.632,1635.9971 C300.466,1651.6241 293.483,1672.7481 287.324,1691.3791 " fill="none" style="stroke: #A80036; stroke-width: 1.0;"/><polygon fill="none" points="293.9,1693.7901,280.976,1710.5831,280.607,1689.3961,293.9,1693.7901" style="stroke: #A80036; stroke-width: 1.0;"/><path d="M511.253,1392.8751 C504.725,1409.9531 498.032,1430.0851 494.25,1448.9531 C475.068,1544.6591 476.526,1661.8381 478.216,1710.7671 " fill="none" style="stroke: #A80036; stroke-width: 1.0;"/><polygon fill="none" points="504.823,1390.1041,518.79,1374.1701,517.808,1395.3371,504.823,1390.1041" style="stroke: #A80036; stroke-width: 1.0;"/><path d="M598.049,1647.8771 C570.145,1668.0951 535.794,1692.9841 511.22,1710.7891 " fill="none" style="stroke: #A80036; stroke-width: 1.0;"/><polygon fill="none" points="594.143,1642.0631,614.445,1635.9971,602.357,1653.4001,594.143,1642.0631" style="stroke: #A80036; stroke-width: 1.0;"/><path d="M533.706,1765.4641 C547.339,1773.0041 561.886,1781.1791 575.25,1788.9531 C601.987,1804.5061 631.736,1822.7331 654.413,1836.8251 " fill="none" style="stroke: #A80036; stroke-width: 1.0;"/><polygon fill="#A80036" points="522.013,1759.0281,525.3405,1765.4256,532.5257,1764.8146,529.1982,1758.4171,522.013,1759.0281" style="stroke: #A80036; stroke-width: 1.0;"/><text fill="#000000" font-family="sans-serif" font-size="13" lengthAdjust="spacingAndGlyphs" textLength="123" x="609.25" y="1802.02">_deliverySystem[..]</text><path d="M429.682,1765.7901 C393.437,1787.6081 344.984,1816.7731 311.658,1836.8331 " fill="none" style="stroke: #A80036; stroke-width: 1.0;"/><polygon fill="#A80036" points="440.986,1758.9861,433.7826,1758.6536,430.7051,1765.175,437.9085,1765.5075,440.986,1758.9861" style="stroke: #A80036; stroke-width: 1.0;"/><path d="M479.25,1772.1651 C479.25,1792.9631 479.25,1818.4731 479.25,1836.6231 " fill="none" style="stroke: #A80036; stroke-width: 1.0;"/><polygon fill="#A80036" points="479.25,1758.9861,475.25,1764.9861,479.25,1770.9861,483.25,1764.9861,479.25,1758.9861" style="stroke: #A80036; stroke-width: 1.0;"/><text fill="#000000" font-family="sans-serif" font-size="13" lengthAdjust="spacingAndGlyphs" textLength="75" x="484.25" y="1802.02">_translation</text><path d="M712.944,1902.7121 C723.523,1922.5871 735.865,1945.7751 744.832,1962.6231 " fill="none" style="stroke: #A80036; stroke-width: 1.0;"/><polygon fill="none" points="706.727,1905.9301,703.509,1884.9861,719.086,1899.3521,706.727,1905.9301" style="stroke: #A80036; stroke-width: 1.0;"/><path d="M739.604,1897.0171 C768.675,1918.0981 804.859,1944.3361 830.367,1962.8331 " fill="none" style="stroke: #A80036; stroke-width: 1.0;"/><polygon fill="none" points="735.095,1902.3941,723.013,1884.9861,743.313,1891.0601,735.095,1902.3941" style="stroke: #A80036; stroke-width: 1.0;"/><path d="M649.781,1898.1651 C625.964,1918.9631 596.751,1944.4731 575.967,1962.6231 " fill="none" style="stroke: #A80036; stroke-width: 1.0;"/><polygon fill="none" points="645.205,1892.8681,664.874,1884.9861,654.413,1903.4141,645.205,1892.8681" style="stroke: #A80036; stroke-width: 1.0;"/><path d="M678.287,1904.2551 C672.304,1923.7781 665.429,1946.2101 660.4,1962.6231 " fill="none" style="stroke: #A80036; stroke-width: 1.0;"/><polygon fill="none" points="671.639,1902.0571,684.192,1884.9861,685.024,1906.1591,671.639,1902.0571" style="stroke: #A80036; stroke-width: 1.0;"/><path d="M701.651,2141.5301 C657.251,2163.5528 595.747,2194.0586 553.889,2214.8199 " fill="none" style="stroke: #A80036; stroke-width: 1.0;"/><polygon fill="none" points="698.795,2135.1331,719.822,2132.5171,705.016,2147.6751,698.795,2135.1331" style="stroke: #A80036; stroke-width: 1.0;"/><path d="M729.832,2153.4871 C715.862,2173.6283 699.356,2197.4282 687.431,2214.6228 " fill="none" style="stroke: #A80036; stroke-width: 1.0;"/><polygon fill="none" points="724.126,2149.4311,741.276,2136.9861,735.63,2157.4091,724.126,2149.4311" style="stroke: #A80036; stroke-width: 1.0;"/><path d="M784.668,2153.4871 C798.638,2173.6283 815.144,2197.4282 827.069,2214.6228 " fill="none" style="stroke: #A80036; stroke-width: 1.0;"/><polygon fill="none" points="778.87,2157.4091,773.224,2136.9861,790.374,2149.4311,778.87,2157.4091" style="stroke: #A80036; stroke-width: 1.0;"/><path d="M757.25,2024.1651 C757.25,2044.9631 757.25,2070.4731 757.25,2088.6231 " fill="none" style="stroke: #A80036; stroke-width: 1.0;"/><polygon fill="#A80036" points="757.25,2010.9861,753.25,2016.9861,757.25,2022.9861,761.25,2016.9861,757.25,2010.9861" style="stroke: #A80036; stroke-width: 1.0;"/><text fill="#000000" font-family="sans-serif" font-size="13" lengthAdjust="spacingAndGlyphs" textLength="48" x="762.25" y="2054.02">_diseqc</text><path d="M806.226,2141.6841 C850.311,2166.6454 913.481,2202.4127 949.107,2222.5845 " fill="none" style="stroke: #A80036; stroke-width: 1.0;"/><polygon fill="#A80036" points="794.897,2135.2691,798.1472,2141.7062,805.3392,2141.1818,802.089,2134.7448,794.897,2135.2691" style="stroke: #A80036; stroke-width: 1.0;"/><text fill="#000000" font-family="sans-serif" font-size="13" lengthAdjust="spacingAndGlyphs" textLength="97" x="885.25" y="2180.02">_lnb[MAX_LNB]</text><path d="M273.25,2024.1651 C273.25,2044.9631 273.25,2070.4731 273.25,2088.6231 " fill="none" style="stroke: #A80036; stroke-width: 1.0;"/><polygon fill="#A80036" points="273.25,2010.9861,269.25,2016.9861,273.25,2022.9861,277.25,2016.9861,273.25,2010.9861" style="stroke: #A80036; stroke-width: 1.0;"/><text fill="#000000" font-family="sans-serif" font-size="13" lengthAdjust="spacingAndGlyphs" textLength="43" x="278.25" y="2054.02">_batch</text><path d="M142.029,2013.7081 C116.406,2021.2951 94.8004,2030.4331 86.25,2040.9531 C75.5728,2054.0901 74.8916,2073.5001 76.5654,2088.7071 " fill="none" style="stroke: #A80036; stroke-width: 1.0;"/><polygon fill="#A80036" points="154.891,2010.1091,148.0351,2007.8739,143.3349,2013.3427,150.1908,2015.5779,154.891,2010.1091" style="stroke: #A80036; stroke-width: 1.0;"/><text fill="#000000" font-family="sans-serif" font-size="13" lengthAdjust="spacingAndGlyphs" textLength="28" x="91.25" y="2054.02">_pat</text><path d="M226.611,2018.0741 C192.878,2039.8601 147.975,2068.8601 117.048,2088.8331 " fill="none" style="stroke: #A80036; stroke-width: 1.0;"/><polygon fill="#A80036" points="237.586,2010.9861,230.3757,2010.8813,227.5057,2017.4967,234.716,2017.6015,237.586,2010.9861" style="stroke: #A80036; stroke-width: 1.0;"/><text fill="#000000" font-family="sans-serif" font-size="13" lengthAdjust="spacingAndGlyphs" textLength="33" x="194.25" y="2054.02">_pmt</text><path d="M331.141,2016.8981 C380.701,2041.6791 450.173,2076.4141 489.959,2096.3081 " fill="none" style="stroke: #A80036; stroke-width: 1.0;"/><polygon fill="#A80036" points="319.316,2010.9861,322.8934,2017.2473,330.0489,2016.3532,326.4715,2010.092,319.316,2010.9861" style="stroke: #A80036; stroke-width: 1.0;"/><path d="M311.484,2019.3841 C319.995,2026.4451 328.953,2033.9271 337.25,2040.9531 C355.932,2056.7731 376.786,2074.8351 392.788,2088.7821 " fill="none" style="stroke: #A80036; stroke-width: 1.0;"/><polygon fill="#A80036" points="301.399,2011.0391,303.4712,2017.9461,310.6439,2018.6898,308.5716,2011.7828,301.399,2011.0391" style="stroke: #A80036; stroke-width: 1.0;"/><path d="M273.25,1779.1871 C273.25,1798.4891 273.25,1820.4701 273.25,1836.6231 " fill="none" style="stroke: #A80036; stroke-width: 1.0;"/><polygon fill="none" points="266.25,1778.9861,273.25,1758.9861,280.25,1778.9861,266.25,1778.9861" style="stroke: #A80036; stroke-width: 1.0;"/><path d="M167.198,1635.9971 C187.284,1654.5491 215.756,1680.8481 238.143,1701.5261 " fill="none" style="stroke: #A80036; stroke-width: 1.0;"/><polygon fill="#A80036" points="247.948,1710.5831,246.2552,1703.5735,239.1337,1702.4401,240.8265,1709.4497,247.948,1710.5831" style="stroke: #A80036; stroke-width: 1.0;"/><path d="M273.25,1884.9861 C273.25,1901.0661 273.25,1923.0281 273.25,1942.3631 " fill="none" style="stroke: #A80036; stroke-width: 1.0;"/><polygon fill="none" points="280.25,1942.6231,273.25,1962.6231,266.25,1942.6231,280.25,1942.6231" style="stroke: #A80036; stroke-width: 1.0;"/><text fill="#000000" font-family="sans-serif" font-size="13" lengthAdjust="spacingAndGlyphs" textLength="135" x="278.25" y="1928.02">Only with LIBDVBCSA</text></g></svg>