<?xml version="1.0" encoding="UTF-8" standalone="yes"?><svg xmlns="http://www.w3.org/2000/svg" xmlns:xlink="http://www.w3.org/1999/xlink" height="1913px" style="width:1742px;height:1913px;" version="1.1" viewBox="0 0 1742 1913" width="1742px"><defs><filter height="300%" id="f1" width="300%" x="-1" y="-1"><feGaussianBlur result="blurOut" stdDeviation="2.0"/><feColorMatrix in="blurOut" result="blurOut2" type="matrix" values="0 0 0 0 0 0 0 0 0 0 0 0 0 0 0 0 0 0 .4 0"/><feOffset dx="4.0" dy="4.0" in="blurOut2" result="blurOut3"/><feBlend in="SourceGraphic" in2="blurOut3" mode="normal"/></filter></defs><g><text fill="#000000" font-family="sans-serif" font-size="18" lengthAdjust="spacingAndGlyphs" textLength="45" x="857.25" y="16.708">SatPI</text><rect fill="#FFCCCC" filter="url(#f1)" height="73.6094" style="stroke: #A80036; stroke-width: 1.5;" width="82" x="508.25" y="28.9531"/><rect fill="#FFCCCC" height="32" style="stroke: #A80036; stroke-width: 1.5;" width="82" x="508.25" y="28.9531"/><ellipse cx="531.35" cy="44.9531" fill="#ADD1B2" rx="11" ry="11" style="stroke: #A80036; stroke-width: 1.0;"/><path d="M534.3188,50.5938 Q533.7406,50.8906 533.1,51.0391 Q532.4594,51.1875 531.7563,51.1875 Q529.2563,51.1875 527.9359,49.5391 Q526.6156,47.8906 526.6156,44.7656 Q526.6156,41.6406 527.9359,39.9844 Q529.2563,38.3281 531.7563,38.3281 Q532.4594,38.3281 533.1078,38.4844 Q533.7563,38.6406 534.3188,38.9375 L534.3188,41.6563 Q533.6938,41.0781 533.1,40.8047 Q532.5063,40.5313 531.8813,40.5313 Q530.5375,40.5313 529.85,41.6016 Q529.1625,42.6719 529.1625,44.7656 Q529.1625,46.8594 529.85,47.9297 Q530.5375,49 531.8813,49 Q532.5063,49 533.1,48.7266 Q533.6938,48.4531 534.3188,47.875 L534.3188,50.5938 Z "/><text fill="#000000" font-family="sans-serif" font-size="12" lengthAdjust="spacingAndGlyphs" textLength="32" x="547.15" y="49.1074">SatPI</text><line style="stroke: #A80036; stroke-width: 1.5;" x1="509.25" x2="589.25" y1="60.9531" y2="60.9531"/><text fill="#000000" font-family="sans-serif" font-size="11" lengthAdjust="spacingAndGlyphs" textLength="59" x="514.25" y="75.1636">Properties</text><text fill="#000000" font-family="sans-serif" font-size="11" lengthAdjust="spacingAndGlyphs" textLength="70" x="514.25" y="87.9683">InterfaceAttr</text><line style="stroke: #A80036; stroke-width: 1.5;" x1="509.25" x2="589.25" y1="94.5625" y2="94.5625"/><rect fill="#AAAAFF" filter="url(#f1)" height="73.6094" style="stroke: #A80036; stroke-width: 1.5;" width="189" x="789" y="631.9531"/><rect fill="#AAAAFF" height="32" style="stroke: #A80036; stroke-width: 1.5;" width="189" x="789" y="631.9531"/><ellipse cx="829.65" cy="647.9531" fill="#ADD1B2" rx="11" ry="11" style="stroke: #A80036; stroke-width: 1.0;"/><path d="M832.6188,653.5938 Q832.0406,653.8906 831.4,654.0391 Q830.7594,654.1875 830.0563,654.1875 Q827.5563,654.1875 826.2359,652.5391 Q824.9156,650.8906 824.9156,647.7656 Q824.9156,644.6406 826.2359,642.9844 Q827.5563,641.3281 830.0563,641.3281 Q830.7594,641.3281 831.4078,641.4844 Q832.0563,641.6406 832.6188,641.9375 L832.6188,644.6563 Q831.9938,644.0781 831.4,643.8047 Q830.8063,643.5313 830.1813,643.5313 Q828.8375,643.5313 828.15,644.6016 Q827.4625,645.6719 827.4625,647.7656 Q827.4625,649.8594 828.15,650.9297 Q828.8375,652 830.1813,652 Q830.8063,652 831.4,651.7266 Q831.9938,651.4531 832.6188,650.875 L832.6188,653.5938 Z "/><text fill="#000000" font-family="sans-serif" font-size="12" lengthAdjust="spacingAndGlyphs" textLength="100" x="849.35" y="652.1074">StreamManager</text><line style="stroke: #A80036; stroke-width: 1.5;" x1="790" x2="977" y1="663.9531" y2="663.9531"/><text fill="#000000" font-family="sans-serif" font-size="11" lengthAdjust="spacingAndGlyphs" textLength="33" x="795" y="678.1636">Mutex</text><line style="stroke: #A80036; stroke-width: 1.5;" x1="790" x2="977" y1="684.7578" y2="684.7578"/><text fill="#000000" font-family="sans-serif" font-size="11" lengthAdjust="spacingAndGlyphs" textLength="177" x="795" y="698.9683">getFrontendDecryptInterface(..)</text><rect fill="#FEFECE" filter="url(#f1)" height="124.8281" style="stroke: #A80036; stroke-width: 1.5;" width="173" x="88" y="165.4531"/><ellipse cx="136.25" cy="181.4531" fill="#ADD1B2" rx="11" ry="11" style="stroke: #A80036; stroke-width: 1.0;"/><path d="M139.2188,187.0938 Q138.6406,187.3906 138,187.5391 Q137.3594,187.6875 136.6563,187.6875 Q134.1563,187.6875 132.8359,186.0391 Q131.5156,184.3906 131.5156,181.2656 Q131.5156,178.1406 132.8359,176.4844 Q134.1563,174.8281 136.6563,174.8281 Q137.3594,174.8281 138.0078,174.9844 Q138.6563,175.1406 139.2188,175.4375 L139.2188,178.1563 Q138.5938,177.5781 138,177.3047 Q137.4063,177.0313 136.7813,177.0313 Q135.4375,177.0313 134.75,178.1016 Q134.0625,179.1719 134.0625,181.2656 Q134.0625,183.3594 134.75,184.4297 Q135.4375,185.5 136.7813,185.5 Q137.4063,185.5 138,185.2266 Q138.5938,184.9531 139.2188,184.375 L139.2188,187.0938 Z "/><text fill="#000000" font-family="sans-serif" font-size="12" lengthAdjust="spacingAndGlyphs" textLength="68" x="156.75" y="185.6074">RtspServer</text><line style="stroke: #A80036; stroke-width: 1.5;" x1="89" x2="260" y1="197.4531" y2="197.4531"/><line style="stroke: #A80036; stroke-width: 1.5;" x1="89" x2="260" y1="205.4531" y2="205.4531"/><text fill="#000000" font-family="sans-serif" font-size="11" lengthAdjust="spacingAndGlyphs" textLength="161" x="94" y="219.6636">threadEntry() -&gt; calls poll(..)</text><text fill="#000000" font-family="sans-serif" font-size="11" lengthAdjust="spacingAndGlyphs" textLength="92" x="94" y="232.4683">methodSetup(..)</text><text fill="#000000" font-family="sans-serif" font-size="11" lengthAdjust="spacingAndGlyphs" textLength="82" x="94" y="245.2729">methodPlay(..)</text><text fill="#000000" font-family="sans-serif" font-size="11" lengthAdjust="spacingAndGlyphs" textLength="103" x="94" y="258.0776">methodOptions(..)</text><text fill="#000000" font-family="sans-serif" font-size="11" lengthAdjust="spacingAndGlyphs" textLength="109" x="94" y="270.8823">methodDescribe(..)</text><text fill="#000000" font-family="sans-serif" font-size="11" lengthAdjust="spacingAndGlyphs" textLength="115" x="94" y="283.687">methodTeardown(..)</text><rect fill="#FEFECE" filter="url(#f1)" height="86.4141" style="stroke: #A80036; stroke-width: 1.5;" width="173" x="369" y="184.9531"/><ellipse cx="417.75" cy="200.9531" fill="#ADD1B2" rx="11" ry="11" style="stroke: #A80036; stroke-width: 1.0;"/><path d="M420.7188,206.5938 Q420.1406,206.8906 419.5,207.0391 Q418.8594,207.1875 418.1563,207.1875 Q415.6563,207.1875 414.3359,205.5391 Q413.0156,203.8906 413.0156,200.7656 Q413.0156,197.6406 414.3359,195.9844 Q415.6563,194.3281 418.1563,194.3281 Q418.8594,194.3281 419.5078,194.4844 Q420.1563,194.6406 420.7188,194.9375 L420.7188,197.6563 Q420.0938,197.0781 419.5,196.8047 Q418.9063,196.5313 418.2813,196.5313 Q416.9375,196.5313 416.25,197.6016 Q415.5625,198.6719 415.5625,200.7656 Q415.5625,202.8594 416.25,203.9297 Q416.9375,205 418.2813,205 Q418.9063,205 419.5,204.7266 Q420.0938,204.4531 420.7188,203.875 L420.7188,206.5938 Z "/><text fill="#000000" font-family="sans-serif" font-size="12" lengthAdjust="spacingAndGlyphs" textLength="67" x="438.25" y="205.1074">HttpServer</text><line style="stroke: #A80036; stroke-width: 1.5;" x1="370" x2="541" y1="216.9531" y2="216.9531"/><line style="stroke: #A80036; stroke-width: 1.5;" x1="370" x2="541" y1="224.9531" y2="224.9531"/><text fill="#000000" font-family="sans-serif" font-size="11" lengthAdjust="spacingAndGlyphs" textLength="161" x="375" y="239.1636">threadEntry() -&gt; calls poll(..)</text><text fill="#000000" font-family="sans-serif" font-size="11" lengthAdjust="spacingAndGlyphs" textLength="84" x="375" y="251.9683">methodPost(..)</text><text fill="#000000" font-family="sans-serif" font-size="11" lengthAdjust="spacingAndGlyphs" textLength="79" x="375" y="264.7729">methodGet(..)</text><rect fill="#FEFECE" filter="url(#f1)" height="48" style="stroke: #A80036; stroke-width: 1.5;" width="103" x="619" y="320.9531"/><ellipse cx="634" cy="336.9531" fill="#ADD1B2" rx="11" ry="11" style="stroke: #A80036; stroke-width: 1.0;"/><path d="M636.9688,342.5938 Q636.3906,342.8906 635.75,343.0391 Q635.1094,343.1875 634.4063,343.1875 Q631.9063,343.1875 630.5859,341.5391 Q629.2656,339.8906 629.2656,336.7656 Q629.2656,333.6406 630.5859,331.9844 Q631.9063,330.3281 634.4063,330.3281 Q635.1094,330.3281 635.7578,330.4844 Q636.4063,330.6406 636.9688,330.9375 L636.9688,333.6563 Q636.3438,333.0781 635.75,332.8047 Q635.1563,332.5313 634.5313,332.5313 Q633.1875,332.5313 632.5,333.6016 Q631.8125,334.6719 631.8125,336.7656 Q631.8125,338.8594 632.5,339.9297 Q633.1875,341 634.5313,341 Q635.1563,341 635.75,340.7266 Q636.3438,340.4531 636.9688,339.875 L636.9688,342.5938 Z "/><text fill="#000000" font-family="sans-serif" font-size="12" lengthAdjust="spacingAndGlyphs" textLength="71" x="648" y="341.1074">SsdpServer</text><line style="stroke: #A80036; stroke-width: 1.5;" x1="620" x2="721" y1="352.9531" y2="352.9531"/><line style="stroke: #A80036; stroke-width: 1.5;" x1="620" x2="721" y1="360.9531" y2="360.9531"/><rect fill="#FEFECE" filter="url(#f1)" height="48" style="stroke: #A80036; stroke-width: 1.5;" width="97" x="425" y="417.9531"/><ellipse cx="440" cy="433.9531" fill="#ADD1B2" rx="11" ry="11" style="stroke: #A80036; stroke-width: 1.0;"/><path d="M442.9688,439.5938 Q442.3906,439.8906 441.75,440.0391 Q441.1094,440.1875 440.4063,440.1875 Q437.9063,440.1875 436.5859,438.5391 Q435.2656,436.8906 435.2656,433.7656 Q435.2656,430.6406 436.5859,428.9844 Q437.9063,427.3281 440.4063,427.3281 Q441.1094,427.3281 441.7578,427.4844 Q442.4063,427.6406 442.9688,427.9375 L442.9688,430.6563 Q442.3438,430.0781 441.75,429.8047 Q441.1563,429.5313 440.5313,429.5313 Q439.1875,429.5313 438.5,430.6016 Q437.8125,431.6719 437.8125,433.7656 Q437.8125,435.8594 438.5,436.9297 Q439.1875,438 440.5313,438 Q441.1563,438 441.75,437.7266 Q442.3438,437.4531 442.9688,436.875 L442.9688,439.5938 Z "/><text fill="#000000" font-family="sans-serif" font-size="12" lengthAdjust="spacingAndGlyphs" textLength="65" x="454" y="438.1074">Properties</text><line style="stroke: #A80036; stroke-width: 1.5;" x1="426" x2="521" y1="449.9531" y2="449.9531"/><line style="stroke: #A80036; stroke-width: 1.5;" x1="426" x2="521" y1="457.9531" y2="457.9531"/><rect fill="#FEFECE" filter="url(#f1)" height="60.8047" style="stroke: #A80036; stroke-width: 1.5;" width="111" x="260" y="638.4531"/><ellipse cx="275" cy="654.4531" fill="#ADD1B2" rx="11" ry="11" style="stroke: #A80036; stroke-width: 1.0;"/><path d="M277.9688,660.0938 Q277.3906,660.3906 276.75,660.5391 Q276.1094,660.6875 275.4063,660.6875 Q272.9063,660.6875 271.5859,659.0391 Q270.2656,657.3906 270.2656,654.2656 Q270.2656,651.1406 271.5859,649.4844 Q272.9063,647.8281 275.4063,647.8281 Q276.1094,647.8281 276.7578,647.9844 Q277.4063,648.1406 277.9688,648.4375 L277.9688,651.1563 Q277.3438,650.5781 276.75,650.3047 Q276.1563,650.0313 275.5313,650.0313 Q274.1875,650.0313 273.5,651.1016 Q272.8125,652.1719 272.8125,654.2656 Q272.8125,656.3594 273.5,657.4297 Q274.1875,658.5 275.5313,658.5 Q276.1563,658.5 276.75,658.2266 Q277.3438,657.9531 277.9688,657.375 L277.9688,660.0938 Z "/><text fill="#000000" font-family="sans-serif" font-size="12" lengthAdjust="spacingAndGlyphs" textLength="79" x="289" y="658.6074">InterfaceAttr</text><line style="stroke: #A80036; stroke-width: 1.5;" x1="261" x2="370" y1="670.4531" y2="670.4531"/><text fill="#000000" font-family="sans-serif" font-size="11" lengthAdjust="spacingAndGlyphs" textLength="50" x="266" y="684.6636">Eth0 etc.</text><line style="stroke: #A80036; stroke-width: 1.5;" x1="261" x2="370" y1="691.2578" y2="691.2578"/><rect fill="#FEFECE" filter="url(#f1)" height="73.6094" style="stroke: #A80036; stroke-width: 1.5;" width="159" x="261" y="809.9531"/><ellipse cx="276" cy="825.9531" fill="#ADD1B2" rx="11" ry="11" style="stroke: #A80036; stroke-width: 1.0;"/><path d="M278.9688,831.5938 Q278.3906,831.8906 277.75,832.0391 Q277.1094,832.1875 276.4063,832.1875 Q273.9063,832.1875 272.5859,830.5391 Q271.2656,828.8906 271.2656,825.7656 Q271.2656,822.6406 272.5859,820.9844 Q273.9063,819.3281 276.4063,819.3281 Q277.1094,819.3281 277.7578,819.4844 Q278.4063,819.6406 278.9688,819.9375 L278.9688,822.6563 Q278.3438,822.0781 277.75,821.8047 Q277.1563,821.5313 276.5313,821.5313 Q275.1875,821.5313 274.5,822.6016 Q273.8125,823.6719 273.8125,825.7656 Q273.8125,827.8594 274.5,828.9297 Q275.1875,830 276.5313,830 Q277.1563,830 277.75,829.7266 Q278.3438,829.4531 278.9688,828.875 L278.9688,831.5938 Z "/><text fill="#000000" font-family="sans-serif" font-size="12" lengthAdjust="spacingAndGlyphs" textLength="127" x="290" y="830.1074">socket::HttpcSocket</text><line style="stroke: #A80036; stroke-width: 1.5;" x1="262" x2="419" y1="841.9531" y2="841.9531"/><line style="stroke: #A80036; stroke-width: 1.5;" x1="262" x2="419" y1="849.9531" y2="849.9531"/><text fill="#000000" font-family="sans-serif" font-size="11" lengthAdjust="spacingAndGlyphs" textLength="120" x="267" y="864.1636">recvHttpcMessage(..)</text><text fill="#000000" font-family="sans-serif" font-size="11" lengthAdjust="spacingAndGlyphs" textLength="147" x="267" y="876.9683">recvfromHttpcMessage(..)</text><rect fill="#FEFECE" filter="url(#f1)" height="99.2188" style="stroke: #A80036; stroke-width: 1.5;" width="161" x="239" y="1165.4531"/><ellipse cx="254.45" cy="1181.4531" fill="#ADD1B2" rx="11" ry="11" style="stroke: #A80036; stroke-width: 1.0;"/><path d="M257.4188,1187.0938 Q256.8406,1187.3906 256.2,1187.5391 Q255.5594,1187.6875 254.8563,1187.6875 Q252.3563,1187.6875 251.0359,1186.0391 Q249.7156,1184.3906 249.7156,1181.2656 Q249.7156,1178.1406 251.0359,1176.4844 Q252.3563,1174.8281 254.8563,1174.8281 Q255.5594,1174.8281 256.2078,1174.9844 Q256.8563,1175.1406 257.4188,1175.4375 L257.4188,1178.1563 Q256.7938,1177.5781 256.2,1177.3047 Q255.6063,1177.0313 254.9813,1177.0313 Q253.6375,1177.0313 252.95,1178.1016 Q252.2625,1179.1719 252.2625,1181.2656 Q252.2625,1183.3594 252.95,1184.4297 Q253.6375,1185.5 254.9813,1185.5 Q255.6063,1185.5 256.2,1185.2266 Q256.7938,1184.9531 257.4188,1184.375 L257.4188,1187.0938 Z "/><text fill="#000000" font-family="sans-serif" font-size="12" lengthAdjust="spacingAndGlyphs" textLength="128" x="268.55" y="1185.6074">socket::SocketClient</text><line style="stroke: #A80036; stroke-width: 1.5;" x1="240" x2="399" y1="1197.4531" y2="1197.4531"/><text fill="#000000" font-family="sans-serif" font-size="11" lengthAdjust="spacingAndGlyphs" textLength="94" x="245" y="1211.6636">std::string _msg</text><text fill="#000000" font-family="sans-serif" font-size="11" lengthAdjust="spacingAndGlyphs" textLength="149" x="245" y="1224.4683">std::string _protocolString</text><text fill="#000000" font-family="sans-serif" font-size="11" lengthAdjust="spacingAndGlyphs" textLength="125" x="245" y="1237.2729">std::string _sessionID</text><text fill="#000000" font-family="sans-serif" font-size="11" lengthAdjust="spacingAndGlyphs" textLength="127" x="245" y="1250.0776">std::string _userAgent</text><line style="stroke: #A80036; stroke-width: 1.5;" x1="240" x2="399" y1="1256.6719" y2="1256.6719"/><rect fill="#FEFECE" filter="url(#f1)" height="73.6094" style="stroke: #A80036; stroke-width: 1.5;" width="148" x="136.25" y="1342.9531"/><ellipse cx="151.25" cy="1358.9531" fill="#ADD1B2" rx="11" ry="11" style="stroke: #A80036; stroke-width: 1.0;"/><path d="M154.2188,1364.5938 Q153.6406,1364.8906 153,1365.0391 Q152.3594,1365.1875 151.6563,1365.1875 Q149.1563,1365.1875 147.8359,1363.5391 Q146.5156,1361.8906 146.5156,1358.7656 Q146.5156,1355.6406 147.8359,1353.9844 Q149.1563,1352.3281 151.6563,1352.3281 Q152.3594,1352.3281 153.0078,1352.4844 Q153.6563,1352.6406 154.2188,1352.9375 L154.2188,1355.6563 Q153.5938,1355.0781 153,1354.8047 Q152.4063,1354.5313 151.7813,1354.5313 Q150.4375,1354.5313 149.75,1355.6016 Q149.0625,1356.6719 149.0625,1358.7656 Q149.0625,1360.8594 149.75,1361.9297 Q150.4375,1363 151.7813,1363 Q152.4063,1363 153,1362.7266 Q153.5938,1362.4531 154.2188,1361.875 L154.2188,1364.5938 Z "/><text fill="#000000" font-family="sans-serif" font-size="12" lengthAdjust="spacingAndGlyphs" textLength="116" x="165.25" y="1363.1074">socket::SocketAttr</text><line style="stroke: #A80036; stroke-width: 1.5;" x1="137.25" x2="283.25" y1="1374.9531" y2="1374.9531"/><text fill="#000000" font-family="sans-serif" font-size="11" lengthAdjust="spacingAndGlyphs" textLength="17" x="142.25" y="1389.1636">_fd</text><text fill="#000000" font-family="sans-serif" font-size="11" lengthAdjust="spacingAndGlyphs" textLength="111" x="142.25" y="1401.9683">std::string _ip_addr</text><line style="stroke: #A80036; stroke-width: 1.5;" x1="137.25" x2="283.25" y1="1408.5625" y2="1408.5625"/><rect fill="#FEFECE" filter="url(#f1)" height="99.2188" style="stroke: #A80036; stroke-width: 1.5;" width="219" x="6" y="619.4531"/><ellipse cx="53.75" cy="635.4531" fill="#ADD1B2" rx="11" ry="11" style="stroke: #A80036; stroke-width: 1.0;"/><path d="M56.7188,641.0938 Q56.1406,641.3906 55.5,641.5391 Q54.8594,641.6875 54.1563,641.6875 Q51.6563,641.6875 50.3359,640.0391 Q49.0156,638.3906 49.0156,635.2656 Q49.0156,632.1406 50.3359,630.4844 Q51.6563,628.8281 54.1563,628.8281 Q54.8594,628.8281 55.5078,628.9844 Q56.1563,629.1406 56.7188,629.4375 L56.7188,632.1563 Q56.0938,631.5781 55.5,631.3047 Q54.9063,631.0313 54.2813,631.0313 Q52.9375,631.0313 52.25,632.1016 Q51.5625,633.1719 51.5625,635.2656 Q51.5625,637.3594 52.25,638.4297 Q52.9375,639.5 54.2813,639.5 Q54.9063,639.5 55.5,639.2266 Q56.0938,638.9531 56.7188,638.375 L56.7188,641.0938 Z "/><text fill="#000000" font-family="sans-serif" font-size="12" lengthAdjust="spacingAndGlyphs" textLength="115" x="74.25" y="639.6074">socket::TcpSocket</text><line style="stroke: #A80036; stroke-width: 1.5;" x1="7" x2="224" y1="651.4531" y2="651.4531"/><text fill="#000000" font-family="sans-serif" font-size="11" lengthAdjust="spacingAndGlyphs" textLength="149" x="12" y="665.6636">std::string _protocolString</text><line style="stroke: #A80036; stroke-width: 1.5;" x1="7" x2="224" y1="672.2578" y2="672.2578"/><text fill="#000000" font-family="sans-serif" font-size="11" lengthAdjust="spacingAndGlyphs" textLength="207" x="12" y="686.4683">poll(..) -&gt; calls recvHttpcMessage(..)</text><text fill="#000000" font-family="sans-serif" font-size="11" lengthAdjust="spacingAndGlyphs" textLength="109" x="48" y="699.2729">-&gt; calls process(..)</text><text fill="#000000" font-family="sans-serif" font-size="11" lengthAdjust="spacingAndGlyphs" textLength="156" x="48" y="712.0776">-&gt; calls closeConnection(..)</text><rect fill="#FEFECE" filter="url(#f1)" height="73.6094" style="stroke: #A80036; stroke-width: 1.5;" width="173" x="339" y="514.9531"/><ellipse cx="364.35" cy="530.9531" fill="#ADD1B2" rx="11" ry="11" style="stroke: #A80036; stroke-width: 1.0;"/><path d="M367.3188,536.5938 Q366.7406,536.8906 366.1,537.0391 Q365.4594,537.1875 364.7563,537.1875 Q362.2563,537.1875 360.9359,535.5391 Q359.6156,533.8906 359.6156,530.7656 Q359.6156,527.6406 360.9359,525.9844 Q362.2563,524.3281 364.7563,524.3281 Q365.4594,524.3281 366.1078,524.4844 Q366.7563,524.6406 367.3188,524.9375 L367.3188,527.6563 Q366.6938,527.0781 366.1,526.8047 Q365.5063,526.5313 364.8813,526.5313 Q363.5375,526.5313 362.85,527.6016 Q362.1625,528.6719 362.1625,530.7656 Q362.1625,532.8594 362.85,533.9297 Q363.5375,535 364.8813,535 Q365.5063,535 366.1,534.7266 Q366.6938,534.4531 367.3188,533.875 L367.3188,536.5938 Z "/><text fill="#000000" font-family="sans-serif" font-size="12" lengthAdjust="spacingAndGlyphs" textLength="118" x="380.65" y="535.1074">socket::UdpSocket</text><line style="stroke: #A80036; stroke-width: 1.5;" x1="340" x2="511" y1="546.9531" y2="546.9531"/><line style="stroke: #A80036; stroke-width: 1.5;" x1="340" x2="511" y1="554.9531" y2="554.9531"/><text fill="#000000" font-family="sans-serif" font-size="11" lengthAdjust="spacingAndGlyphs" textLength="103" x="345" y="569.1636">init_udp_socket(..)</text><text fill="#000000" font-family="sans-serif" font-size="11" lengthAdjust="spacingAndGlyphs" textLength="161" x="345" y="581.9683">init_mutlicast_udp_socket(..)</text><rect fill="#FEFECE" filter="url(#f1)" height="86.4141" style="stroke: #A80036; stroke-width: 1.5;" width="179" x="83" y="398.9531"/><ellipse cx="131.25" cy="414.9531" fill="#ADD1B2" rx="11" ry="11" style="stroke: #A80036; stroke-width: 1.0;"/><path d="M134.2188,420.5938 Q133.6406,420.8906 133,421.0391 Q132.3594,421.1875 131.6563,421.1875 Q129.1563,421.1875 127.8359,419.5391 Q126.5156,417.8906 126.5156,414.7656 Q126.5156,411.6406 127.8359,409.9844 Q129.1563,408.3281 131.6563,408.3281 Q132.3594,408.3281 133.0078,408.4844 Q133.6563,408.6406 134.2188,408.9375 L134.2188,411.6563 Q133.5938,411.0781 133,410.8047 Q132.4063,410.5313 131.7813,410.5313 Q130.4375,410.5313 129.75,411.6016 Q129.0625,412.6719 129.0625,414.7656 Q129.0625,416.8594 129.75,417.9297 Q130.4375,419 131.7813,419 Q132.4063,419 133,418.7266 Q133.5938,418.4531 134.2188,417.875 L134.2188,420.5938 Z "/><text fill="#000000" font-family="sans-serif" font-size="12" lengthAdjust="spacingAndGlyphs" textLength="74" x="151.75" y="419.1074">HttpcServer</text><line style="stroke: #A80036; stroke-width: 1.5;" x1="84" x2="261" y1="430.9531" y2="430.9531"/><line style="stroke: #A80036; stroke-width: 1.5;" x1="84" x2="261" y1="438.9531" y2="438.9531"/><text fill="#000000" font-family="sans-serif" font-size="11" lengthAdjust="spacingAndGlyphs" textLength="62" x="89" y="453.1636">process(..)</text><text fill="#000000" font-family="sans-serif" font-size="11" lengthAdjust="spacingAndGlyphs" textLength="109" x="89" y="465.9683">closeConnection(..)</text><text fill="#000000" font-family="sans-serif" font-size="11" lengthAdjust="spacingAndGlyphs" textLength="167" x="89" y="478.7729">processStreamingRequest(..)</text><rect fill="#FEFECE" filter="url(#f1)" height="48" style="stroke: #A80036; stroke-width: 1.5;" width="104" x="1469.25" y="1190.9531"/><ellipse cx="1484.25" cy="1206.9531" fill="#ADD1B2" rx="11" ry="11" style="stroke: #A80036; stroke-width: 1.0;"/><path d="M1487.2188,1212.5938 Q1486.6406,1212.8906 1486,1213.0391 Q1485.3594,1213.1875 1484.6563,1213.1875 Q1482.1563,1213.1875 1480.8359,1211.5391 Q1479.5156,1209.8906 1479.5156,1206.7656 Q1479.5156,1203.6406 1480.8359,1201.9844 Q1482.1563,1200.3281 1484.6563,1200.3281 Q1485.3594,1200.3281 1486.0078,1200.4844 Q1486.6563,1200.6406 1487.2188,1200.9375 L1487.2188,1203.6563 Q1486.5938,1203.0781 1486,1202.8047 Q1485.4063,1202.5313 1484.7813,1202.5313 Q1483.4375,1202.5313 1482.75,1203.6016 Q1482.0625,1204.6719 1482.0625,1206.7656 Q1482.0625,1208.8594 1482.75,1209.9297 Q1483.4375,1211 1484.7813,1211 Q1485.4063,1211 1486,1210.7266 Q1486.5938,1210.4531 1487.2188,1209.875 L1487.2188,1212.5938 Z "/><text fill="#000000" font-family="sans-serif" font-size="12" lengthAdjust="spacingAndGlyphs" textLength="72" x="1498.25" y="1211.1074">RtcpThread</text><line style="stroke: #A80036; stroke-width: 1.5;" x1="1470.25" x2="1572.25" y1="1222.9531" y2="1222.9531"/><line style="stroke: #A80036; stroke-width: 1.5;" x1="1470.25" x2="1572.25" y1="1230.9531" y2="1230.9531"/><rect fill="#AAAAFF" filter="url(#f1)" height="86.4141" style="stroke: #A80036; stroke-width: 1.5;" width="144" x="1449.25" y="987.9531"/><rect fill="#AAAAFF" height="32" style="stroke: #A80036; stroke-width: 1.5;" width="144" x="1449.25" y="987.9531"/><ellipse cx="1469.2" cy="1003.9531" fill="#ADD1B2" rx="11" ry="11" style="stroke: #A80036; stroke-width: 1.0;"/><path d="M1472.1688,1009.5938 Q1471.5906,1009.8906 1470.95,1010.0391 Q1470.3094,1010.1875 1469.6063,1010.1875 Q1467.1063,1010.1875 1465.7859,1008.5391 Q1464.4656,1006.8906 1464.4656,1003.7656 Q1464.4656,1000.6406 1465.7859,998.9844 Q1467.1063,997.3281 1469.6063,997.3281 Q1470.3094,997.3281 1470.9578,997.4844 Q1471.6063,997.6406 1472.1688,997.9375 L1472.1688,1000.6563 Q1471.5438,1000.0781 1470.95,999.8047 Q1470.3563,999.5313 1469.7313,999.5313 Q1468.3875,999.5313 1467.7,1000.6016 Q1467.0125,1001.6719 1467.0125,1003.7656 Q1467.0125,1005.8594 1467.7,1006.9297 Q1468.3875,1008 1469.7313,1008 Q1470.3563,1008 1470.95,1007.7266 Q1471.5438,1007.4531 1472.1688,1006.875 L1472.1688,1009.5938 Z "/><text fill="#000000" font-family="sans-serif" font-size="12" lengthAdjust="spacingAndGlyphs" textLength="101" x="1484.3" y="1008.1074">StreamInterface</text><line style="stroke: #A80036; stroke-width: 1.5;" x1="1450.25" x2="1592.25" y1="1019.9531" y2="1019.9531"/><line style="stroke: #A80036; stroke-width: 1.5;" x1="1450.25" x2="1592.25" y1="1027.9531" y2="1027.9531"/><text fill="#000000" font-family="sans-serif" font-size="11" lengthAdjust="spacingAndGlyphs" textLength="115" x="1455.25" y="1042.1636">getInputDevice() = 0</text><text fill="#000000" font-family="sans-serif" font-size="11" lengthAdjust="spacingAndGlyphs" textLength="132" x="1455.25" y="1054.9683">getStreamClient(..) = 0</text><text fill="#000000" font-family="sans-serif" font-size="11" lengthAdjust="spacingAndGlyphs" textLength="130" x="1455.25" y="1067.7729">getDecryptDevice() = 0</text><rect fill="#AAAAFF" filter="url(#f1)" height="99.2188" style="stroke: #A80036; stroke-width: 1.5;" width="98" x="799.75" y="797.4531"/><rect fill="#AAAAFF" height="32" style="stroke: #A80036; stroke-width: 1.5;" width="98" x="799.75" y="797.4531"/><ellipse cx="824.2" cy="813.4531" fill="#ADD1B2" rx="11" ry="11" style="stroke: #A80036; stroke-width: 1.0;"/><path d="M827.1688,819.0938 Q826.5906,819.3906 825.95,819.5391 Q825.3094,819.6875 824.6063,819.6875 Q822.1063,819.6875 820.7859,818.0391 Q819.4656,816.3906 819.4656,813.2656 Q819.4656,810.1406 820.7859,808.4844 Q822.1063,806.8281 824.6063,806.8281 Q825.3094,806.8281 825.9578,806.9844 Q826.6063,807.1406 827.1688,807.4375 L827.1688,810.1563 Q826.5438,809.5781 825.95,809.3047 Q825.3563,809.0313 824.7313,809.0313 Q823.3875,809.0313 822.7,810.1016 Q822.0125,811.1719 822.0125,813.2656 Q822.0125,815.3594 822.7,816.4297 Q823.3875,817.5 824.7313,817.5 Q825.3563,817.5 825.95,817.2266 Q826.5438,816.9531 827.1688,816.375 L827.1688,819.0938 Z "/><text fill="#000000" font-family="sans-serif" font-size="12" lengthAdjust="spacingAndGlyphs" textLength="45" x="840.3" y="817.6074">Stream</text><line style="stroke: #A80036; stroke-width: 1.5;" x1="800.75" x2="896.75" y1="829.4531" y2="829.4531"/><text fill="#000000" font-family="sans-serif" font-size="11" lengthAdjust="spacingAndGlyphs" textLength="33" x="805.75" y="843.6636">Mutex</text><text fill="#000000" font-family="sans-serif" font-size="11" lengthAdjust="spacingAndGlyphs" textLength="73" x="805.75" y="856.4683">streamInUse</text><text fill="#000000" font-family="sans-serif" font-size="11" lengthAdjust="spacingAndGlyphs" textLength="45" x="805.75" y="869.2729">enabled</text><text fill="#000000" font-family="sans-serif" font-size="11" lengthAdjust="spacingAndGlyphs" textLength="86" x="805.75" y="882.0776">StreamingType</text><line style="stroke: #A80036; stroke-width: 1.5;" x1="800.75" x2="896.75" y1="888.6719" y2="888.6719"/><rect fill="#AAAAFF" filter="url(#f1)" height="112.0234" style="stroke: #A80036; stroke-width: 1.5;" width="126" x="370.25" y="974.9531"/><rect fill="#AAAAFF" height="32" style="stroke: #A80036; stroke-width: 1.5;" width="126" x="370.25" y="974.9531"/><ellipse cx="391.55" cy="990.9531" fill="#ADD1B2" rx="11" ry="11" style="stroke: #A80036; stroke-width: 1.0;"/><path d="M394.5188,996.5938 Q393.9406,996.8906 393.3,997.0391 Q392.6594,997.1875 391.9563,997.1875 Q389.4563,997.1875 388.1359,995.5391 Q386.8156,993.8906 386.8156,990.7656 Q386.8156,987.6406 388.1359,985.9844 Q389.4563,984.3281 391.9563,984.3281 Q392.6594,984.3281 393.3078,984.4844 Q393.9563,984.6406 394.5188,984.9375 L394.5188,987.6563 Q393.8938,987.0781 393.3,986.8047 Q392.7063,986.5313 392.0813,986.5313 Q390.7375,986.5313 390.05,987.6016 Q389.3625,988.6719 389.3625,990.7656 Q389.3625,992.8594 390.05,993.9297 Q390.7375,995 392.0813,995 Q392.7063,995 393.3,994.7266 Q393.8938,994.4531 394.5188,993.875 L394.5188,996.5938 Z "/><text fill="#000000" font-family="sans-serif" font-size="12" lengthAdjust="spacingAndGlyphs" textLength="80" x="406.95" y="995.1074">StreamClient</text><line style="stroke: #A80036; stroke-width: 1.5;" x1="371.25" x2="495.25" y1="1006.9531" y2="1006.9531"/><text fill="#000000" font-family="sans-serif" font-size="11" lengthAdjust="spacingAndGlyphs" textLength="33" x="376.25" y="1021.1636">Mutex</text><text fill="#000000" font-family="sans-serif" font-size="11" lengthAdjust="spacingAndGlyphs" textLength="114" x="376.25" y="1033.9683">SocketClient *_httpc</text><text fill="#000000" font-family="sans-serif" font-size="11" lengthAdjust="spacingAndGlyphs" textLength="54" x="376.25" y="1046.7729">watchdog</text><text fill="#000000" font-family="sans-serif" font-size="11" lengthAdjust="spacingAndGlyphs" textLength="52" x="376.25" y="1059.5776">canClose</text><text fill="#000000" font-family="sans-serif" font-size="11" lengthAdjust="spacingAndGlyphs" textLength="27" x="376.25" y="1072.3823">cseq</text><line style="stroke: #A80036; stroke-width: 1.5;" x1="371.25" x2="495.25" y1="1078.9766" y2="1078.9766"/><rect fill="#AACCAA" filter="url(#f1)" height="73.6094" style="stroke: #A80036; stroke-width: 1.5;" width="149" x="751" y="993.9531"/><rect fill="#AACCAA" height="32" style="stroke: #A80036; stroke-width: 1.5;" width="149" x="751" y="993.9531"/><ellipse cx="782.2" cy="1009.9531" fill="#ADD1B2" rx="11" ry="11" style="stroke: #A80036; stroke-width: 1.0;"/><path d="M785.1688,1015.5938 Q784.5906,1015.8906 783.95,1016.0391 Q783.3094,1016.1875 782.6063,1016.1875 Q780.1063,1016.1875 778.7859,1014.5391 Q777.4656,1012.8906 777.4656,1009.7656 Q777.4656,1006.6406 778.7859,1004.9844 Q780.1063,1003.3281 782.6063,1003.3281 Q783.3094,1003.3281 783.9578,1003.4844 Q784.6063,1003.6406 785.1688,1003.9375 L785.1688,1006.6563 Q784.5438,1006.0781 783.95,1005.8047 Q783.3563,1005.5313 782.7313,1005.5313 Q781.3875,1005.5313 780.7,1006.6016 Q780.0125,1007.6719 780.0125,1009.7656 Q780.0125,1011.8594 780.7,1012.9297 Q781.3875,1014 782.7313,1014 Q783.3563,1014 783.95,1013.7266 Q784.5438,1013.4531 785.1688,1012.875 L785.1688,1015.5938 Z "/><text fill="#000000" font-family="sans-serif" font-size="12" lengthAdjust="spacingAndGlyphs" textLength="81" x="799.8" y="1014.1074">input::Device</text><line style="stroke: #A80036; stroke-width: 1.5;" x1="752" x2="899" y1="1025.9531" y2="1025.9531"/><line style="stroke: #A80036; stroke-width: 1.5;" x1="752" x2="899" y1="1033.9531" y2="1033.9531"/><text fill="#000000" font-family="sans-serif" font-size="11" lengthAdjust="spacingAndGlyphs" textLength="118" x="757" y="1048.1636">isDataAvailable() = 0</text><text fill="#000000" font-family="sans-serif" font-size="11" lengthAdjust="spacingAndGlyphs" textLength="137" x="757" y="1060.9683">readFullTSPacket(..) = 0</text><rect fill="#CCFFFF" filter="url(#f1)" height="48" style="stroke: #A80036; stroke-width: 1.5;" width="202" x="1531.25" y="1478.9531"/><rect fill="#CCFFFF" height="32" style="stroke: #A80036; stroke-width: 1.5;" width="202" x="1531.25" y="1478.9531"/><ellipse cx="1546.25" cy="1494.9531" fill="#ADD1B2" rx="11" ry="11" style="stroke: #A80036; stroke-width: 1.0;"/><path d="M1549.2188,1500.5938 Q1548.6406,1500.8906 1548,1501.0391 Q1547.3594,1501.1875 1546.6563,1501.1875 Q1544.1563,1501.1875 1542.8359,1499.5391 Q1541.5156,1497.8906 1541.5156,1494.7656 Q1541.5156,1491.6406 1542.8359,1489.9844 Q1544.1563,1488.3281 1546.6563,1488.3281 Q1547.3594,1488.3281 1548.0078,1488.4844 Q1548.6563,1488.6406 1549.2188,1488.9375 L1549.2188,1491.6563 Q1548.5938,1491.0781 1548,1490.8047 Q1547.4063,1490.5313 1546.7813,1490.5313 Q1545.4375,1490.5313 1544.75,1491.6016 Q1544.0625,1492.6719 1544.0625,1494.7656 Q1544.0625,1496.8594 1544.75,1497.9297 Q1545.4375,1499 1546.7813,1499 Q1547.4063,1499 1548,1498.7266 Q1548.5938,1498.4531 1549.2188,1497.875 L1549.2188,1500.5938 Z "/><text fill="#000000" font-family="sans-serif" font-size="12" lengthAdjust="spacingAndGlyphs" textLength="170" x="1560.25" y="1499.1074">output::StreamThreadBase</text><line style="stroke: #A80036; stroke-width: 1.5;" x1="1532.25" x2="1732.25" y1="1510.9531" y2="1510.9531"/><line style="stroke: #A80036; stroke-width: 1.5;" x1="1532.25" x2="1732.25" y1="1518.9531" y2="1518.9531"/><rect fill="#FFBB11" filter="url(#f1)" height="60.8047" style="stroke: #A80036; stroke-width: 1.5;" width="171" x="660" y="411.4531"/><rect fill="#FFBB11" height="32" style="stroke: #A80036; stroke-width: 1.5;" width="171" x="660" y="411.4531"/><ellipse cx="675" cy="427.4531" fill="#ADD1B2" rx="11" ry="11" style="stroke: #A80036; stroke-width: 1.0;"/><path d="M677.9688,433.0938 Q677.3906,433.3906 676.75,433.5391 Q676.1094,433.6875 675.4063,433.6875 Q672.9063,433.6875 671.5859,432.0391 Q670.2656,430.3906 670.2656,427.2656 Q670.2656,424.1406 671.5859,422.4844 Q672.9063,420.8281 675.4063,420.8281 Q676.1094,420.8281 676.7578,420.9844 Q677.4063,421.1406 677.9688,421.4375 L677.9688,424.1563 Q677.3438,423.5781 676.75,423.3047 Q676.1563,423.0313 675.5313,423.0313 Q674.1875,423.0313 673.5,424.1016 Q672.8125,425.1719 672.8125,427.2656 Q672.8125,429.3594 673.5,430.4297 Q674.1875,431.5 675.5313,431.5 Q676.1563,431.5 676.75,431.2266 Q677.3438,430.9531 677.9688,430.375 L677.9688,433.0938 Z "/><text fill="#000000" font-family="sans-serif" font-size="12" lengthAdjust="spacingAndGlyphs" textLength="139" x="689" y="431.6074">decrypt::dvbapi::Client</text><line style="stroke: #A80036; stroke-width: 1.5;" x1="661" x2="830" y1="443.4531" y2="443.4531"/><text fill="#000000" font-family="sans-serif" font-size="11" lengthAdjust="spacingAndGlyphs" textLength="33" x="666" y="457.6636">Mutex</text><line style="stroke: #A80036; stroke-width: 1.5;" x1="661" x2="830" y1="464.2578" y2="464.2578"/><rect fill="#FFBB11" filter="url(#f1)" height="48" style="stroke: #A80036; stroke-width: 1.5;" width="236" x="127.25" y="1730.9531"/><rect fill="#FFBB11" height="32" style="stroke: #A80036; stroke-width: 1.5;" width="236" x="127.25" y="1730.9531"/><ellipse cx="142.25" cy="1746.9531" fill="#ADD1B2" rx="11" ry="11" style="stroke: #A80036; stroke-width: 1.0;"/><path d="M145.2188,1752.5938 Q144.6406,1752.8906 144,1753.0391 Q143.3594,1753.1875 142.6563,1753.1875 Q140.1563,1753.1875 138.8359,1751.5391 Q137.5156,1749.8906 137.5156,1746.7656 Q137.5156,1743.6406 138.8359,1741.9844 Q140.1563,1740.3281 142.6563,1740.3281 Q143.3594,1740.3281 144.0078,1740.4844 Q144.6563,1740.6406 145.2188,1740.9375 L145.2188,1743.6563 Q144.5938,1743.0781 144,1742.8047 Q143.4063,1742.5313 142.7813,1742.5313 Q141.4375,1742.5313 140.75,1743.6016 Q140.0625,1744.6719 140.0625,1746.7656 Q140.0625,1748.8594 140.75,1749.9297 Q141.4375,1751 142.7813,1751 Q143.4063,1751 144,1750.7266 Q144.5938,1750.4531 145.2188,1749.875 L145.2188,1752.5938 Z "/><text fill="#000000" font-family="sans-serif" font-size="12" lengthAdjust="spacingAndGlyphs" textLength="204" x="156.25" y="1751.1074">decrypt::dvbapi::ClientProperties</text><line style="stroke: #A80036; stroke-width: 1.5;" x1="128.25" x2="362.25" y1="1762.9531" y2="1762.9531"/><line style="stroke: #A80036; stroke-width: 1.5;" x1="128.25" x2="362.25" y1="1770.9531" y2="1770.9531"/><rect fill="#FFBB11" filter="url(#f1)" height="48" style="stroke: #A80036; stroke-width: 1.5;" width="60" x="118.75" y="1856.9531"/><rect fill="#FFBB11" height="32" style="stroke: #A80036; stroke-width: 1.5;" width="60" x="118.75" y="1856.9531"/><ellipse cx="133.75" cy="1872.9531" fill="#ADD1B2" rx="11" ry="11" style="stroke: #A80036; stroke-width: 1.0;"/><path d="M136.7188,1878.5938 Q136.1406,1878.8906 135.5,1879.0391 Q134.8594,1879.1875 134.1563,1879.1875 Q131.6563,1879.1875 130.3359,1877.5391 Q129.0156,1875.8906 129.0156,1872.7656 Q129.0156,1869.6406 130.3359,1867.9844 Q131.6563,1866.3281 134.1563,1866.3281 Q134.8594,1866.3281 135.5078,1866.4844 Q136.1563,1866.6406 136.7188,1866.9375 L136.7188,1869.6563 Q136.0938,1869.0781 135.5,1868.8047 Q134.9063,1868.5313 134.2813,1868.5313 Q132.9375,1868.5313 132.25,1869.6016 Q131.5625,1870.6719 131.5625,1872.7656 Q131.5625,1874.8594 132.25,1875.9297 Q132.9375,1877 134.2813,1877 Q134.9063,1877 135.5,1876.7266 Q136.0938,1876.4531 136.7188,1875.875 L136.7188,1878.5938 Z "/><text fill="#000000" font-family="sans-serif" font-size="12" lengthAdjust="spacingAndGlyphs" textLength="28" x="147.75" y="1877.1074">Keys</text><line style="stroke: #A80036; stroke-width: 1.5;" x1="119.75" x2="177.75" y1="1888.9531" y2="1888.9531"/><line style="stroke: #A80036; stroke-width: 1.5;" x1="119.75" x2="177.75" y1="1896.9531" y2="1896.9531"/><rect fill="#FFBB11" filter="url(#f1)" height="48" style="stroke: #A80036; stroke-width: 1.5;" width="63" x="214" y="1856.9531"/><rect fill="#FFBB11" height="32" style="stroke: #A80036; stroke-width: 1.5;" width="63" x="214" y="1856.9531"/><ellipse cx="229" cy="1872.9531" fill="#ADD1B2" rx="11" ry="11" style="stroke: #A80036; stroke-width: 1.0;"/><path d="M231.9688,1878.5938 Q231.3906,1878.8906 230.75,1879.0391 Q230.1094,1879.1875 229.4063,1879.1875 Q226.9063,1879.1875 225.5859,1877.5391 Q224.2656,1875.8906 224.2656,1872.7656 Q224.2656,1869.6406 225.5859,1867.9844 Q226.9063,1866.3281 229.4063,1866.3281 Q230.1094,1866.3281 230.7578,1866.4844 Q231.4063,1866.6406 231.9688,1866.9375 L231.9688,1869.6563 Q231.3438,1869.0781 230.75,1868.8047 Q230.1563,1868.5313 229.5313,1868.5313 Q228.1875,1868.5313 227.5,1869.6016 Q226.8125,1870.6719 226.8125,1872.7656 Q226.8125,1874.8594 227.5,1875.9297 Q228.1875,1877 229.5313,1877 Q230.1563,1877 230.75,1876.7266 Q231.3438,1876.4531 231.9688,1875.875 L231.9688,1878.5938 Z "/><text fill="#000000" font-family="sans-serif" font-size="12" lengthAdjust="spacingAndGlyphs" textLength="31" x="243" y="1877.1074">Filter</text><line style="stroke: #A80036; stroke-width: 1.5;" x1="215" x2="276" y1="1888.9531" y2="1888.9531"/><line style="stroke: #A80036; stroke-width: 1.5;" x1="215" x2="276" y1="1896.9531" y2="1896.9531"/><rect fill="#11FF11" filter="url(#f1)" height="48" style="stroke: #A80036; stroke-width: 1.5;" width="167" x="1549" y="1604.9531"/><rect fill="#11FF11" height="32" style="stroke: #A80036; stroke-width: 1.5;" width="167" x="1549" y="1604.9531"/><ellipse cx="1564" cy="1620.9531" fill="#ADD1B2" rx="11" ry="11" style="stroke: #A80036; stroke-width: 1.0;"/><path d="M1566.9688,1626.5938 Q1566.3906,1626.8906 1565.75,1627.0391 Q1565.1094,1627.1875 1564.4063,1627.1875 Q1561.9063,1627.1875 1560.5859,1625.5391 Q1559.2656,1623.8906 1559.2656,1620.7656 Q1559.2656,1617.6406 1560.5859,1615.9844 Q1561.9063,1614.3281 1564.4063,1614.3281 Q1565.1094,1614.3281 1565.7578,1614.4844 Q1566.4063,1614.6406 1566.9688,1614.9375 L1566.9688,1617.6563 Q1566.3438,1617.0781 1565.75,1616.8047 Q1565.1563,1616.5313 1564.5313,1616.5313 Q1563.1875,1616.5313 1562.5,1617.6016 Q1561.8125,1618.6719 1561.8125,1620.7656 Q1561.8125,1622.8594 1562.5,1623.9297 Q1563.1875,1625 1564.5313,1625 Q1565.1563,1625 1565.75,1624.7266 Q1566.3438,1624.4531 1566.9688,1623.875 L1566.9688,1626.5938 Z "/><text fill="#000000" font-family="sans-serif" font-size="12" lengthAdjust="spacingAndGlyphs" textLength="135" x="1578" y="1625.1074">mpegts::PacketBuffer</text><line style="stroke: #A80036; stroke-width: 1.5;" x1="1550" x2="1715" y1="1636.9531" y2="1636.9531"/><line style="stroke: #A80036; stroke-width: 1.5;" x1="1550" x2="1715" y1="1644.9531" y2="1644.9531"/><rect fill="#11FF11" filter="url(#f1)" height="48" style="stroke: #A80036; stroke-width: 1.5;" width="151" x="524" y="1856.9531"/><rect fill="#11FF11" height="32" style="stroke: #A80036; stroke-width: 1.5;" width="151" x="524" y="1856.9531"/><ellipse cx="539" cy="1872.9531" fill="#ADD1B2" rx="11" ry="11" style="stroke: #A80036; stroke-width: 1.0;"/><path d="M541.9688,1878.5938 Q541.3906,1878.8906 540.75,1879.0391 Q540.1094,1879.1875 539.4063,1879.1875 Q536.9063,1879.1875 535.5859,1877.5391 Q534.2656,1875.8906 534.2656,1872.7656 Q534.2656,1869.6406 535.5859,1867.9844 Q536.9063,1866.3281 539.4063,1866.3281 Q540.1094,1866.3281 540.7578,1866.4844 Q541.4063,1866.6406 541.9688,1866.9375 L541.9688,1869.6563 Q541.3438,1869.0781 540.75,1868.8047 Q540.1563,1868.5313 539.5313,1868.5313 Q538.1875,1868.5313 537.5,1869.6016 Q536.8125,1870.6719 536.8125,1872.7656 Q536.8125,1874.8594 537.5,1875.9297 Q538.1875,1877 539.5313,1877 Q540.1563,1877 540.75,1876.7266 Q541.3438,1876.4531 541.9688,1875.875 L541.9688,1878.5938 Z "/><text fill="#000000" font-family="sans-serif" font-size="12" lengthAdjust="spacingAndGlyphs" textLength="119" x="553" y="1877.1074">mpegts::TableData</text><line style="stroke: #A80036; stroke-width: 1.5;" x1="525" x2="674" y1="1888.9531" y2="1888.9531"/><line style="stroke: #A80036; stroke-width: 1.5;" x1="525" x2="674" y1="1896.9531" y2="1896.9531"/><rect fill="#11FF11" filter="url(#f1)" height="48" style="stroke: #A80036; stroke-width: 1.5;" width="140" x="375.25" y="1355.9531"/><rect fill="#11FF11" height="32" style="stroke: #A80036; stroke-width: 1.5;" width="140" x="375.25" y="1355.9531"/><ellipse cx="390.25" cy="1371.9531" fill="#ADD1B2" rx="11" ry="11" style="stroke: #A80036; stroke-width: 1.0;"/><path d="M393.2188,1377.5938 Q392.6406,1377.8906 392,1378.0391 Q391.3594,1378.1875 390.6563,1378.1875 Q388.1563,1378.1875 386.8359,1376.5391 Q385.5156,1374.8906 385.5156,1371.7656 Q385.5156,1368.6406 386.8359,1366.9844 Q388.1563,1365.3281 390.6563,1365.3281 Q391.3594,1365.3281 392.0078,1365.4844 Q392.6563,1365.6406 393.2188,1365.9375 L393.2188,1368.6563 Q392.5938,1368.0781 392,1367.8047 Q391.4063,1367.5313 390.7813,1367.5313 Q389.4375,1367.5313 388.75,1368.6016 Q388.0625,1369.6719 388.0625,1371.7656 Q388.0625,1373.8594 388.75,1374.9297 Q389.4375,1376 390.7813,1376 Q391.4063,1376 392,1375.7266 Q392.5938,1375.4531 393.2188,1374.875 L393.2188,1377.5938 Z "/><text fill="#000000" font-family="sans-serif" font-size="12" lengthAdjust="spacingAndGlyphs" textLength="108" x="404.25" y="1376.1074">mpegts::PidTable</text><line style="stroke: #A80036; stroke-width: 1.5;" x1="376.25" x2="514.25" y1="1387.9531" y2="1387.9531"/><line style="stroke: #A80036; stroke-width: 1.5;" x1="376.25" x2="514.25" y1="1395.9531" y2="1395.9531"/><rect fill="#11FF11" filter="url(#f1)" height="48" style="stroke: #A80036; stroke-width: 1.5;" width="110" x="398.25" y="1730.9531"/><rect fill="#11FF11" height="32" style="stroke: #A80036; stroke-width: 1.5;" width="110" x="398.25" y="1730.9531"/><ellipse cx="413.25" cy="1746.9531" fill="#ADD1B2" rx="11" ry="11" style="stroke: #A80036; stroke-width: 1.0;"/><path d="M416.2188,1752.5938 Q415.6406,1752.8906 415,1753.0391 Q414.3594,1753.1875 413.6563,1753.1875 Q411.1563,1753.1875 409.8359,1751.5391 Q408.5156,1749.8906 408.5156,1746.7656 Q408.5156,1743.6406 409.8359,1741.9844 Q411.1563,1740.3281 413.6563,1740.3281 Q414.3594,1740.3281 415.0078,1740.4844 Q415.6563,1740.6406 416.2188,1740.9375 L416.2188,1743.6563 Q415.5938,1743.0781 415,1742.8047 Q414.4063,1742.5313 413.7813,1742.5313 Q412.4375,1742.5313 411.75,1743.6016 Q411.0625,1744.6719 411.0625,1746.7656 Q411.0625,1748.8594 411.75,1749.9297 Q412.4375,1751 413.7813,1751 Q414.4063,1751 415,1750.7266 Q415.5938,1750.4531 416.2188,1749.875 L416.2188,1752.5938 Z "/><text fill="#000000" font-family="sans-serif" font-size="12" lengthAdjust="spacingAndGlyphs" textLength="78" x="427.25" y="1751.1074">mpegts::PAT</text><line style="stroke: #A80036; stroke-width: 1.5;" x1="399.25" x2="507.25" y1="1762.9531" y2="1762.9531"/><line style="stroke: #A80036; stroke-width: 1.5;" x1="399.25" x2="507.25" y1="1770.9531" y2="1770.9531"/><rect fill="#11FF11" filter="url(#f1)" height="48" style="stroke: #A80036; stroke-width: 1.5;" width="112" x="543.75" y="1730.9531"/><rect fill="#11FF11" height="32" style="stroke: #A80036; stroke-width: 1.5;" width="112" x="543.75" y="1730.9531"/><ellipse cx="558.75" cy="1746.9531" fill="#ADD1B2" rx="11" ry="11" style="stroke: #A80036; stroke-width: 1.0;"/><path d="M561.7188,1752.5938 Q561.1406,1752.8906 560.5,1753.0391 Q559.8594,1753.1875 559.1563,1753.1875 Q556.6563,1753.1875 555.3359,1751.5391 Q554.0156,1749.8906 554.0156,1746.7656 Q554.0156,1743.6406 555.3359,1741.9844 Q556.6563,1740.3281 559.1563,1740.3281 Q559.8594,1740.3281 560.5078,1740.4844 Q561.1563,1740.6406 561.7188,1740.9375 L561.7188,1743.6563 Q561.0938,1743.0781 560.5,1742.8047 Q559.9063,1742.5313 559.2813,1742.5313 Q557.9375,1742.5313 557.25,1743.6016 Q556.5625,1744.6719 556.5625,1746.7656 Q556.5625,1748.8594 557.25,1749.9297 Q557.9375,1751 559.2813,1751 Q559.9063,1751 560.5,1750.7266 Q561.0938,1750.4531 561.7188,1749.875 L561.7188,1752.5938 Z "/><text fill="#000000" font-family="sans-serif" font-size="12" lengthAdjust="spacingAndGlyphs" textLength="80" x="572.75" y="1751.1074">mpegts::PMT</text><line style="stroke: #A80036; stroke-width: 1.5;" x1="544.75" x2="654.75" y1="1762.9531" y2="1762.9531"/><line style="stroke: #A80036; stroke-width: 1.5;" x1="544.75" x2="654.75" y1="1770.9531" y2="1770.9531"/><rect fill="#11FF11" filter="url(#f1)" height="48" style="stroke: #A80036; stroke-width: 1.5;" width="111" x="691" y="1730.9531"/><rect fill="#11FF11" height="32" style="stroke: #A80036; stroke-width: 1.5;" width="111" x="691" y="1730.9531"/><ellipse cx="706" cy="1746.9531" fill="#ADD1B2" rx="11" ry="11" style="stroke: #A80036; stroke-width: 1.0;"/><path d="M708.9688,1752.5938 Q708.3906,1752.8906 707.75,1753.0391 Q707.1094,1753.1875 706.4063,1753.1875 Q703.9063,1753.1875 702.5859,1751.5391 Q701.2656,1749.8906 701.2656,1746.7656 Q701.2656,1743.6406 702.5859,1741.9844 Q703.9063,1740.3281 706.4063,1740.3281 Q707.1094,1740.3281 707.7578,1740.4844 Q708.4063,1740.6406 708.9688,1740.9375 L708.9688,1743.6563 Q708.3438,1743.0781 707.75,1742.8047 Q707.1563,1742.5313 706.5313,1742.5313 Q705.1875,1742.5313 704.5,1743.6016 Q703.8125,1744.6719 703.8125,1746.7656 Q703.8125,1748.8594 704.5,1749.9297 Q705.1875,1751 706.5313,1751 Q707.1563,1751 707.75,1750.7266 Q708.3438,1750.4531 708.9688,1749.875 L708.9688,1752.5938 Z "/><text fill="#000000" font-family="sans-serif" font-size="12" lengthAdjust="spacingAndGlyphs" textLength="79" x="720" y="1751.1074">mpegts::SDT</text><line style="stroke: #A80036; stroke-width: 1.5;" x1="692" x2="801" y1="1762.9531" y2="1762.9531"/><line style="stroke: #A80036; stroke-width: 1.5;" x1="692" x2="801" y1="1770.9531" y2="1770.9531"/><rect fill="#CCFFFF" filter="url(#f1)" height="60.8047" style="stroke: #A80036; stroke-width: 1.5;" width="192" x="1425.25" y="1349.4531"/><rect fill="#CCFFFF" height="32" style="stroke: #A80036; stroke-width: 1.5;" width="192" x="1425.25" y="1349.4531"/><ellipse cx="1440.25" cy="1365.4531" fill="#ADD1B2" rx="11" ry="11" style="stroke: #A80036; stroke-width: 1.0;"/><path d="M1443.2188,1371.0938 Q1442.6406,1371.3906 1442,1371.5391 Q1441.3594,1371.6875 1440.6563,1371.6875 Q1438.1563,1371.6875 1436.8359,1370.0391 Q1435.5156,1368.3906 1435.5156,1365.2656 Q1435.5156,1362.1406 1436.8359,1360.4844 Q1438.1563,1358.8281 1440.6563,1358.8281 Q1441.3594,1358.8281 1442.0078,1358.9844 Q1442.6563,1359.1406 1443.2188,1359.4375 L1443.2188,1362.1563 Q1442.5938,1361.5781 1442,1361.3047 Q1441.4063,1361.0313 1440.7813,1361.0313 Q1439.4375,1361.0313 1438.75,1362.1016 Q1438.0625,1363.1719 1438.0625,1365.2656 Q1438.0625,1367.3594 1438.75,1368.4297 Q1439.4375,1369.5 1440.7813,1369.5 Q1441.4063,1369.5 1442,1369.2266 Q1442.5938,1368.9531 1443.2188,1368.375 L1443.2188,1371.0938 Z "/><text fill="#000000" font-family="sans-serif" font-size="12" lengthAdjust="spacingAndGlyphs" textLength="160" x="1454.25" y="1369.6074">output::StreamThreadRtp</text><line style="stroke: #A80036; stroke-width: 1.5;" x1="1426.25" x2="1616.25" y1="1381.4531" y2="1381.4531"/><text fill="#000000" font-family="sans-serif" font-size="11" lengthAdjust="spacingAndGlyphs" textLength="27" x="1431.25" y="1395.6636">cseq</text><line style="stroke: #A80036; stroke-width: 1.5;" x1="1426.25" x2="1616.25" y1="1402.2578" y2="1402.2578"/><rect fill="#CCFFFF" filter="url(#f1)" height="48" style="stroke: #A80036; stroke-width: 1.5;" width="198" x="1192.25" y="1355.9531"/><rect fill="#CCFFFF" height="32" style="stroke: #A80036; stroke-width: 1.5;" width="198" x="1192.25" y="1355.9531"/><ellipse cx="1207.25" cy="1371.9531" fill="#ADD1B2" rx="11" ry="11" style="stroke: #A80036; stroke-width: 1.0;"/><path d="M1210.2188,1377.5938 Q1209.6406,1377.8906 1209,1378.0391 Q1208.3594,1378.1875 1207.6563,1378.1875 Q1205.1563,1378.1875 1203.8359,1376.5391 Q1202.5156,1374.8906 1202.5156,1371.7656 Q1202.5156,1368.6406 1203.8359,1366.9844 Q1205.1563,1365.3281 1207.6563,1365.3281 Q1208.3594,1365.3281 1209.0078,1365.4844 Q1209.6563,1365.6406 1210.2188,1365.9375 L1210.2188,1368.6563 Q1209.5938,1368.0781 1209,1367.8047 Q1208.4063,1367.5313 1207.7813,1367.5313 Q1206.4375,1367.5313 1205.75,1368.6016 Q1205.0625,1369.6719 1205.0625,1371.7656 Q1205.0625,1373.8594 1205.75,1374.9297 Q1206.4375,1376 1207.7813,1376 Q1208.4063,1376 1209,1375.7266 Q1209.5938,1375.4531 1210.2188,1374.875 L1210.2188,1377.5938 Z "/><text fill="#000000" font-family="sans-serif" font-size="12" lengthAdjust="spacingAndGlyphs" textLength="166" x="1221.25" y="1376.1074">output::StreamThreadHttp</text><line style="stroke: #A80036; stroke-width: 1.5;" x1="1193.25" x2="1389.25" y1="1387.9531" y2="1387.9531"/><line style="stroke: #A80036; stroke-width: 1.5;" x1="1193.25" x2="1389.25" y1="1395.9531" y2="1395.9531"/><rect fill="#55CCFF" filter="url(#f1)" height="48" style="stroke: #A80036; stroke-width: 1.5;" width="182" x="734.25" y="1190.9531"/><rect fill="#55CCFF" height="32" style="stroke: #A80036; stroke-width: 1.5;" width="182" x="734.25" y="1190.9531"/><ellipse cx="749.25" cy="1206.9531" fill="#ADD1B2" rx="11" ry="11" style="stroke: #A80036; stroke-width: 1.0;"/><path d="M752.2188,1212.5938 Q751.6406,1212.8906 751,1213.0391 Q750.3594,1213.1875 749.6563,1213.1875 Q747.1563,1213.1875 745.8359,1211.5391 Q744.5156,1209.8906 744.5156,1206.7656 Q744.5156,1203.6406 745.8359,1201.9844 Q747.1563,1200.3281 749.6563,1200.3281 Q750.3594,1200.3281 751.0078,1200.4844 Q751.6563,1200.6406 752.2188,1200.9375 L752.2188,1203.6563 Q751.5938,1203.0781 751,1202.8047 Q750.4063,1202.5313 749.7813,1202.5313 Q748.4375,1202.5313 747.75,1203.6016 Q747.0625,1204.6719 747.0625,1206.7656 Q747.0625,1208.8594 747.75,1209.9297 Q748.4375,1211 749.7813,1211 Q750.4063,1211 751,1210.7266 Q751.5938,1210.4531 752.2188,1209.875 L752.2188,1212.5938 Z "/><text fill="#000000" font-family="sans-serif" font-size="12" lengthAdjust="spacingAndGlyphs" textLength="150" x="763.25" y="1211.1074">input::stream::Streamer</text><line style="stroke: #A80036; stroke-width: 1.5;" x1="735.25" x2="915.25" y1="1222.9531" y2="1222.9531"/><line style="stroke: #A80036; stroke-width: 1.5;" x1="735.25" x2="915.25" y1="1230.9531" y2="1230.9531"/><rect fill="#99CC11" filter="url(#f1)" height="48" style="stroke: #A80036; stroke-width: 1.5;" width="158" x="541.75" y="1190.9531"/><rect fill="#99CC11" height="32" style="stroke: #A80036; stroke-width: 1.5;" width="158" x="541.75" y="1190.9531"/><ellipse cx="556.75" cy="1206.9531" fill="#ADD1B2" rx="11" ry="11" style="stroke: #A80036; stroke-width: 1.0;"/><path d="M559.7188,1212.5938 Q559.1406,1212.8906 558.5,1213.0391 Q557.8594,1213.1875 557.1563,1213.1875 Q554.6563,1213.1875 553.3359,1211.5391 Q552.0156,1209.8906 552.0156,1206.7656 Q552.0156,1203.6406 553.3359,1201.9844 Q554.6563,1200.3281 557.1563,1200.3281 Q557.8594,1200.3281 558.5078,1200.4844 Q559.1563,1200.6406 559.7188,1200.9375 L559.7188,1203.6563 Q559.0938,1203.0781 558.5,1202.8047 Q557.9063,1202.5313 557.2813,1202.5313 Q555.9375,1202.5313 555.25,1203.6016 Q554.5625,1204.6719 554.5625,1206.7656 Q554.5625,1208.8594 555.25,1209.9297 Q555.9375,1211 557.2813,1211 Q557.9063,1211 558.5,1210.7266 Q559.0938,1210.4531 559.7188,1209.875 L559.7188,1212.5938 Z "/><text fill="#000000" font-family="sans-serif" font-size="12" lengthAdjust="spacingAndGlyphs" textLength="126" x="570.75" y="1211.1074">input::file::TSReader</text><line style="stroke: #A80036; stroke-width: 1.5;" x1="542.75" x2="698.75" y1="1222.9531" y2="1222.9531"/><line style="stroke: #A80036; stroke-width: 1.5;" x1="542.75" x2="698.75" y1="1230.9531" y2="1230.9531"/><rect fill="#99CC11" filter="url(#f1)" height="48" style="stroke: #A80036; stroke-width: 1.5;" width="122" x="550.25" y="1355.9531"/><rect fill="#99CC11" height="32" style="stroke: #A80036; stroke-width: 1.5;" width="122" x="550.25" y="1355.9531"/><ellipse cx="565.25" cy="1371.9531" fill="#ADD1B2" rx="11" ry="11" style="stroke: #A80036; stroke-width: 1.0;"/><path d="M568.2188,1377.5938 Q567.6406,1377.8906 567,1378.0391 Q566.3594,1378.1875 565.6563,1378.1875 Q563.1563,1378.1875 561.8359,1376.5391 Q560.5156,1374.8906 560.5156,1371.7656 Q560.5156,1368.6406 561.8359,1366.9844 Q563.1563,1365.3281 565.6563,1365.3281 Q566.3594,1365.3281 567.0078,1365.4844 Q567.6563,1365.6406 568.2188,1365.9375 L568.2188,1368.6563 Q567.5938,1368.0781 567,1367.8047 Q566.4063,1367.5313 565.7813,1367.5313 Q564.4375,1367.5313 563.75,1368.6016 Q563.0625,1369.6719 563.0625,1371.7656 Q563.0625,1373.8594 563.75,1374.9297 Q564.4375,1376 565.7813,1376 Q566.4063,1376 567,1375.7266 Q567.5938,1375.4531 568.2188,1374.875 L568.2188,1377.5938 Z "/><text fill="#000000" font-family="sans-serif" font-size="12" lengthAdjust="spacingAndGlyphs" textLength="90" x="579.25" y="1376.1074">TSReaderData</text><line style="stroke: #A80036; stroke-width: 1.5;" x1="551.25" x2="671.25" y1="1387.9531" y2="1387.9531"/><line style="stroke: #A80036; stroke-width: 1.5;" x1="551.25" x2="671.25" y1="1395.9531" y2="1395.9531"/><rect fill="#AACCAA" filter="url(#f1)" height="48" style="stroke: #A80036; stroke-width: 1.5;" width="143" x="528" y="1478.9531"/><rect fill="#AACCAA" height="32" style="stroke: #A80036; stroke-width: 1.5;" width="143" x="528" y="1478.9531"/><ellipse cx="543" cy="1494.9531" fill="#ADD1B2" rx="11" ry="11" style="stroke: #A80036; stroke-width: 1.0;"/><path d="M545.9688,1500.5938 Q545.3906,1500.8906 544.75,1501.0391 Q544.1094,1501.1875 543.4063,1501.1875 Q540.9063,1501.1875 539.5859,1499.5391 Q538.2656,1497.8906 538.2656,1494.7656 Q538.2656,1491.6406 539.5859,1489.9844 Q540.9063,1488.3281 543.4063,1488.3281 Q544.1094,1488.3281 544.7578,1488.4844 Q545.4063,1488.6406 545.9688,1488.9375 L545.9688,1491.6563 Q545.3438,1491.0781 544.75,1490.8047 Q544.1563,1490.5313 543.5313,1490.5313 Q542.1875,1490.5313 541.5,1491.6016 Q540.8125,1492.6719 540.8125,1494.7656 Q540.8125,1496.8594 541.5,1497.9297 Q542.1875,1499 543.5313,1499 Q544.1563,1499 544.75,1498.7266 Q545.3438,1498.4531 545.9688,1497.875 L545.9688,1500.5938 Z "/><text fill="#000000" font-family="sans-serif" font-size="12" lengthAdjust="spacingAndGlyphs" textLength="111" x="557" y="1499.1074">input::DeviceData</text><line style="stroke: #A80036; stroke-width: 1.5;" x1="529" x2="670" y1="1510.9531" y2="1510.9531"/><line style="stroke: #A80036; stroke-width: 1.5;" x1="529" x2="670" y1="1518.9531" y2="1518.9531"/><rect fill="#FFCCAA" filter="url(#f1)" height="48" style="stroke: #A80036; stroke-width: 1.5;" width="159" x="952" y="1190.9531"/><rect fill="#FFCCAA" height="32" style="stroke: #A80036; stroke-width: 1.5;" width="159" x="952" y="1190.9531"/><ellipse cx="967" cy="1206.9531" fill="#ADD1B2" rx="11" ry="11" style="stroke: #A80036; stroke-width: 1.0;"/><path d="M969.9688,1212.5938 Q969.3906,1212.8906 968.75,1213.0391 Q968.1094,1213.1875 967.4063,1213.1875 Q964.9063,1213.1875 963.5859,1211.5391 Q962.2656,1209.8906 962.2656,1206.7656 Q962.2656,1203.6406 963.5859,1201.9844 Q964.9063,1200.3281 967.4063,1200.3281 Q968.1094,1200.3281 968.7578,1200.4844 Q969.4063,1200.6406 969.9688,1200.9375 L969.9688,1203.6563 Q969.3438,1203.0781 968.75,1202.8047 Q968.1563,1202.5313 967.5313,1202.5313 Q966.1875,1202.5313 965.5,1203.6016 Q964.8125,1204.6719 964.8125,1206.7656 Q964.8125,1208.8594 965.5,1209.9297 Q966.1875,1211 967.5313,1211 Q968.1563,1211 968.75,1210.7266 Q969.3438,1210.4531 969.9688,1209.875 L969.9688,1212.5938 Z "/><text fill="#000000" font-family="sans-serif" font-size="12" lengthAdjust="spacingAndGlyphs" textLength="127" x="981" y="1211.1074">input::dvb::Frontend</text><line style="stroke: #A80036; stroke-width: 1.5;" x1="953" x2="1110" y1="1222.9531" y2="1222.9531"/><line style="stroke: #A80036; stroke-width: 1.5;" x1="953" x2="1110" y1="1230.9531" y2="1230.9531"/><rect fill="#AACCAA" filter="url(#f1)" height="48" style="stroke: #A80036; stroke-width: 1.5;" width="142" x="778.25" y="1355.9531"/><rect fill="#AACCAA" height="32" style="stroke: #A80036; stroke-width: 1.5;" width="142" x="778.25" y="1355.9531"/><ellipse cx="793.25" cy="1371.9531" fill="#ADD1B2" rx="11" ry="11" style="stroke: #A80036; stroke-width: 1.0;"/><path d="M796.2188,1377.5938 Q795.6406,1377.8906 795,1378.0391 Q794.3594,1378.1875 793.6563,1378.1875 Q791.1563,1378.1875 789.8359,1376.5391 Q788.5156,1374.8906 788.5156,1371.7656 Q788.5156,1368.6406 789.8359,1366.9844 Q791.1563,1365.3281 793.6563,1365.3281 Q794.3594,1365.3281 795.0078,1365.4844 Q795.6563,1365.6406 796.2188,1365.9375 L796.2188,1368.6563 Q795.5938,1368.0781 795,1367.8047 Q794.4063,1367.5313 793.7813,1367.5313 Q792.4375,1367.5313 791.75,1368.6016 Q791.0625,1369.6719 791.0625,1371.7656 Q791.0625,1373.8594 791.75,1374.9297 Q792.4375,1376 793.7813,1376 Q794.4063,1376 795,1375.7266 Q795.5938,1375.4531 796.2188,1374.875 L796.2188,1377.5938 Z "/><text fill="#000000" font-family="sans-serif" font-size="12" lengthAdjust="spacingAndGlyphs" textLength="110" x="807.25" y="1376.1074">input::Translation</text><line style="stroke: #A80036; stroke-width: 1.5;" x1="779.25" x2="919.25" y1="1387.9531" y2="1387.9531"/><line style="stroke: #A80036; stroke-width: 1.5;" x1="779.25" x2="919.25" y1="1395.9531" y2="1395.9531"/><rect fill="#FFCCAA" filter="url(#f1)" height="48" style="stroke: #A80036; stroke-width: 1.5;" width="263" x="935" y="1006.9531"/><rect fill="#FFCCAA" height="32" style="stroke: #A80036; stroke-width: 1.5;" width="263" x="935" y="1006.9531"/><ellipse cx="950" cy="1022.9531" fill="#ADD1B2" rx="11" ry="11" style="stroke: #A80036; stroke-width: 1.0;"/><path d="M952.9688,1028.5938 Q952.3906,1028.8906 951.75,1029.0391 Q951.1094,1029.1875 950.4063,1029.1875 Q947.9063,1029.1875 946.5859,1027.5391 Q945.2656,1025.8906 945.2656,1022.7656 Q945.2656,1019.6406 946.5859,1017.9844 Q947.9063,1016.3281 950.4063,1016.3281 Q951.1094,1016.3281 951.7578,1016.4844 Q952.4063,1016.6406 952.9688,1016.9375 L952.9688,1019.6563 Q952.3438,1019.0781 951.75,1018.8047 Q951.1563,1018.5313 950.5313,1018.5313 Q949.1875,1018.5313 948.5,1019.6016 Q947.8125,1020.6719 947.8125,1022.7656 Q947.8125,1024.8594 948.5,1025.9297 Q949.1875,1027 950.5313,1027 Q951.1563,1027 951.75,1026.7266 Q952.3438,1026.4531 952.9688,1025.875 L952.9688,1028.5938 Z "/><text fill="#000000" font-family="sans-serif" font-size="12" lengthAdjust="spacingAndGlyphs" textLength="231" x="964" y="1027.1074">input::dvb::FrontendDecryptInterface</text><line style="stroke: #A80036; stroke-width: 1.5;" x1="936" x2="1197" y1="1038.9531" y2="1038.9531"/><line style="stroke: #A80036; stroke-width: 1.5;" x1="936" x2="1197" y1="1046.9531" y2="1046.9531"/><rect fill="#FFCCAA" filter="url(#f1)" height="48" style="stroke: #A80036; stroke-width: 1.5;" width="189" x="505" y="1604.9531"/><rect fill="#FFCCAA" height="32" style="stroke: #A80036; stroke-width: 1.5;" width="189" x="505" y="1604.9531"/><ellipse cx="520" cy="1620.9531" fill="#ADD1B2" rx="11" ry="11" style="stroke: #A80036; stroke-width: 1.0;"/><path d="M522.9688,1626.5938 Q522.3906,1626.8906 521.75,1627.0391 Q521.1094,1627.1875 520.4063,1627.1875 Q517.9063,1627.1875 516.5859,1625.5391 Q515.2656,1623.8906 515.2656,1620.7656 Q515.2656,1617.6406 516.5859,1615.9844 Q517.9063,1614.3281 520.4063,1614.3281 Q521.1094,1614.3281 521.7578,1614.4844 Q522.4063,1614.6406 522.9688,1614.9375 L522.9688,1617.6563 Q522.3438,1617.0781 521.75,1616.8047 Q521.1563,1616.5313 520.5313,1616.5313 Q519.1875,1616.5313 518.5,1617.6016 Q517.8125,1618.6719 517.8125,1620.7656 Q517.8125,1622.8594 518.5,1623.9297 Q519.1875,1625 520.5313,1625 Q521.1563,1625 521.75,1624.7266 Q522.3438,1624.4531 522.9688,1623.875 L522.9688,1626.5938 Z "/><text fill="#000000" font-family="sans-serif" font-size="12" lengthAdjust="spacingAndGlyphs" textLength="157" x="534" y="1625.1074">input::dvb::FrontendData</text><line style="stroke: #A80036; stroke-width: 1.5;" x1="506" x2="693" y1="1636.9531" y2="1636.9531"/><line style="stroke: #A80036; stroke-width: 1.5;" x1="506" x2="693" y1="1644.9531" y2="1644.9531"/><rect fill="#AACCCC" filter="url(#f1)" height="48" style="stroke: #A80036; stroke-width: 1.5;" width="202" x="955.25" y="1355.9531"/><rect fill="#AACCCC" height="32" style="stroke: #A80036; stroke-width: 1.5;" width="202" x="955.25" y="1355.9531"/><ellipse cx="970.25" cy="1371.9531" fill="#ADD1B2" rx="11" ry="11" style="stroke: #A80036; stroke-width: 1.0;"/><path d="M973.2188,1377.5938 Q972.6406,1377.8906 972,1378.0391 Q971.3594,1378.1875 970.6563,1378.1875 Q968.1563,1378.1875 966.8359,1376.5391 Q965.5156,1374.8906 965.5156,1371.7656 Q965.5156,1368.6406 966.8359,1366.9844 Q968.1563,1365.3281 970.6563,1365.3281 Q971.3594,1365.3281 972.0078,1365.4844 Q972.6563,1365.6406 973.2188,1365.9375 L973.2188,1368.6563 Q972.5938,1368.0781 972,1367.8047 Q971.4063,1367.5313 970.7813,1367.5313 Q969.4375,1367.5313 968.75,1368.6016 Q968.0625,1369.6719 968.0625,1371.7656 Q968.0625,1373.8594 968.75,1374.9297 Q969.4375,1376 970.7813,1376 Q971.4063,1376 972,1375.7266 Q972.5938,1375.4531 973.2188,1374.875 L973.2188,1377.5938 Z "/><text fill="#000000" font-family="sans-serif" font-size="12" lengthAdjust="spacingAndGlyphs" textLength="170" x="984.25" y="1376.1074">input::dvb::delivery::System</text><line style="stroke: #A80036; stroke-width: 1.5;" x1="956.25" x2="1156.25" y1="1387.9531" y2="1387.9531"/><line style="stroke: #A80036; stroke-width: 1.5;" x1="956.25" x2="1156.25" y1="1395.9531" y2="1395.9531"/><rect fill="#AACCCC" filter="url(#f1)" height="48" style="stroke: #A80036; stroke-width: 1.5;" width="65" x="1021" y="1478.9531"/><rect fill="#AACCCC" height="32" style="stroke: #A80036; stroke-width: 1.5;" width="65" x="1021" y="1478.9531"/><ellipse cx="1036" cy="1494.9531" fill="#ADD1B2" rx="11" ry="11" style="stroke: #A80036; stroke-width: 1.0;"/><path d="M1038.9688,1500.5938 Q1038.3906,1500.8906 1037.75,1501.0391 Q1037.1094,1501.1875 1036.4063,1501.1875 Q1033.9063,1501.1875 1032.5859,1499.5391 Q1031.2656,1497.8906 1031.2656,1494.7656 Q1031.2656,1491.6406 1032.5859,1489.9844 Q1033.9063,1488.3281 1036.4063,1488.3281 Q1037.1094,1488.3281 1037.7578,1488.4844 Q1038.4063,1488.6406 1038.9688,1488.9375 L1038.9688,1491.6563 Q1038.3438,1491.0781 1037.75,1490.8047 Q1037.1563,1490.5313 1036.5313,1490.5313 Q1035.1875,1490.5313 1034.5,1491.6016 Q1033.8125,1492.6719 1033.8125,1494.7656 Q1033.8125,1496.8594 1034.5,1497.9297 Q1035.1875,1499 1036.5313,1499 Q1037.1563,1499 1037.75,1498.7266 Q1038.3438,1498.4531 1038.9688,1497.875 L1038.9688,1500.5938 Z "/><text fill="#000000" font-family="sans-serif" font-size="12" lengthAdjust="spacingAndGlyphs" textLength="33" x="1050" y="1499.1074">DVBS</text><line style="stroke: #A80036; stroke-width: 1.5;" x1="1022" x2="1085" y1="1510.9531" y2="1510.9531"/><line style="stroke: #A80036; stroke-width: 1.5;" x1="1022" x2="1085" y1="1518.9531" y2="1518.9531"/><rect fill="#AACCCC" filter="url(#f1)" height="48" style="stroke: #A80036; stroke-width: 1.5;" width="65" x="1121" y="1478.9531"/><rect fill="#AACCCC" height="32" style="stroke: #A80036; stroke-width: 1.5;" width="65" x="1121" y="1478.9531"/><ellipse cx="1136" cy="1494.9531" fill="#ADD1B2" rx="11" ry="11" style="stroke: #A80036; stroke-width: 1.0;"/><path d="M1138.9688,1500.5938 Q1138.3906,1500.8906 1137.75,1501.0391 Q1137.1094,1501.1875 1136.4063,1501.1875 Q1133.9063,1501.1875 1132.5859,1499.5391 Q1131.2656,1497.8906 1131.2656,1494.7656 Q1131.2656,1491.6406 1132.5859,1489.9844 Q1133.9063,1488.3281 1136.4063,1488.3281 Q1137.1094,1488.3281 1137.7578,1488.4844 Q1138.4063,1488.6406 1138.9688,1488.9375 L1138.9688,1491.6563 Q1138.3438,1491.0781 1137.75,1490.8047 Q1137.1563,1490.5313 1136.5313,1490.5313 Q1135.1875,1490.5313 1134.5,1491.6016 Q1133.8125,1492.6719 1133.8125,1494.7656 Q1133.8125,1496.8594 1134.5,1497.9297 Q1135.1875,1499 1136.5313,1499 Q1137.1563,1499 1137.75,1498.7266 Q1138.3438,1498.4531 1138.9688,1497.875 L1138.9688,1500.5938 Z "/><text fill="#000000" font-family="sans-serif" font-size="12" lengthAdjust="spacingAndGlyphs" textLength="33" x="1150" y="1499.1074">DVBC</text><line style="stroke: #A80036; stroke-width: 1.5;" x1="1122" x2="1185" y1="1510.9531" y2="1510.9531"/><line style="stroke: #A80036; stroke-width: 1.5;" x1="1122" x2="1185" y1="1518.9531" y2="1518.9531"/><rect fill="#AACCCC" filter="url(#f1)" height="48" style="stroke: #A80036; stroke-width: 1.5;" width="64" x="1221.25" y="1478.9531"/><rect fill="#AACCCC" height="32" style="stroke: #A80036; stroke-width: 1.5;" width="64" x="1221.25" y="1478.9531"/><ellipse cx="1236.25" cy="1494.9531" fill="#ADD1B2" rx="11" ry="11" style="stroke: #A80036; stroke-width: 1.0;"/><path d="M1239.2188,1500.5938 Q1238.6406,1500.8906 1238,1501.0391 Q1237.3594,1501.1875 1236.6563,1501.1875 Q1234.1563,1501.1875 1232.8359,1499.5391 Q1231.5156,1497.8906 1231.5156,1494.7656 Q1231.5156,1491.6406 1232.8359,1489.9844 Q1234.1563,1488.3281 1236.6563,1488.3281 Q1237.3594,1488.3281 1238.0078,1488.4844 Q1238.6563,1488.6406 1239.2188,1488.9375 L1239.2188,1491.6563 Q1238.5938,1491.0781 1238,1490.8047 Q1237.4063,1490.5313 1236.7813,1490.5313 Q1235.4375,1490.5313 1234.75,1491.6016 Q1234.0625,1492.6719 1234.0625,1494.7656 Q1234.0625,1496.8594 1234.75,1497.9297 Q1235.4375,1499 1236.7813,1499 Q1237.4063,1499 1238,1498.7266 Q1238.5938,1498.4531 1239.2188,1497.875 L1239.2188,1500.5938 Z "/><text fill="#000000" font-family="sans-serif" font-size="12" lengthAdjust="spacingAndGlyphs" textLength="32" x="1250.25" y="1499.1074">DVBT</text><line style="stroke: #A80036; stroke-width: 1.5;" x1="1222.25" x2="1284.25" y1="1510.9531" y2="1510.9531"/><line style="stroke: #A80036; stroke-width: 1.5;" x1="1222.25" x2="1284.25" y1="1518.9531" y2="1518.9531"/><rect fill="#AACCCC" filter="url(#f1)" height="48" style="stroke: #A80036; stroke-width: 1.5;" width="63" x="923" y="1478.9531"/><rect fill="#AACCCC" height="32" style="stroke: #A80036; stroke-width: 1.5;" width="63" x="923" y="1478.9531"/><ellipse cx="938" cy="1494.9531" fill="#ADD1B2" rx="11" ry="11" style="stroke: #A80036; stroke-width: 1.0;"/><path d="M940.9688,1500.5938 Q940.3906,1500.8906 939.75,1501.0391 Q939.1094,1501.1875 938.4063,1501.1875 Q935.9063,1501.1875 934.5859,1499.5391 Q933.2656,1497.8906 933.2656,1494.7656 Q933.2656,1491.6406 934.5859,1489.9844 Q935.9063,1488.3281 938.4063,1488.3281 Q939.1094,1488.3281 939.7578,1488.4844 Q940.4063,1488.6406 940.9688,1488.9375 L940.9688,1491.6563 Q940.3438,1491.0781 939.75,1490.8047 Q939.1563,1490.5313 938.5313,1490.5313 Q937.1875,1490.5313 936.5,1491.6016 Q935.8125,1492.6719 935.8125,1494.7656 Q935.8125,1496.8594 936.5,1497.9297 Q937.1875,1499 938.5313,1499 Q939.1563,1499 939.75,1498.7266 Q940.3438,1498.4531 940.9688,1497.875 L940.9688,1500.5938 Z "/><text fill="#000000" font-family="sans-serif" font-size="12" lengthAdjust="spacingAndGlyphs" textLength="31" x="952" y="1499.1074">ATSC</text><line style="stroke: #A80036; stroke-width: 1.5;" x1="924" x2="985" y1="1510.9531" y2="1510.9531"/><line style="stroke: #A80036; stroke-width: 1.5;" x1="924" x2="985" y1="1518.9531" y2="1518.9531"/><rect fill="#AACCCC" filter="url(#f1)" height="48" style="stroke: #A80036; stroke-width: 1.5;" width="115" x="837" y="1730.9531"/><rect fill="#AACCCC" height="32" style="stroke: #A80036; stroke-width: 1.5;" width="115" x="837" y="1730.9531"/><ellipse cx="852" cy="1746.9531" fill="#ADD1B2" rx="11" ry="11" style="stroke: #A80036; stroke-width: 1.0;"/><path d="M854.9688,1752.5938 Q854.3906,1752.8906 853.75,1753.0391 Q853.1094,1753.1875 852.4063,1753.1875 Q849.9063,1753.1875 848.5859,1751.5391 Q847.2656,1749.8906 847.2656,1746.7656 Q847.2656,1743.6406 848.5859,1741.9844 Q849.9063,1740.3281 852.4063,1740.3281 Q853.1094,1740.3281 853.7578,1740.4844 Q854.4063,1740.6406 854.9688,1740.9375 L854.9688,1743.6563 Q854.3438,1743.0781 853.75,1742.8047 Q853.1563,1742.5313 852.5313,1742.5313 Q851.1875,1742.5313 850.5,1743.6016 Q849.8125,1744.6719 849.8125,1746.7656 Q849.8125,1748.8594 850.5,1749.9297 Q851.1875,1751 852.5313,1751 Q853.1563,1751 853.75,1750.7266 Q854.3438,1750.4531 854.9688,1749.875 L854.9688,1752.5938 Z "/><text fill="#000000" font-family="sans-serif" font-size="12" lengthAdjust="spacingAndGlyphs" textLength="83" x="866" y="1751.1074">DiSEqcSwitch</text><line style="stroke: #A80036; stroke-width: 1.5;" x1="838" x2="951" y1="1762.9531" y2="1762.9531"/><line style="stroke: #A80036; stroke-width: 1.5;" x1="838" x2="951" y1="1770.9531" y2="1770.9531"/><rect fill="#AACCCC" filter="url(#f1)" height="48" style="stroke: #A80036; stroke-width: 1.5;" width="132" x="987.25" y="1730.9531"/><rect fill="#AACCCC" height="32" style="stroke: #A80036; stroke-width: 1.5;" width="132" x="987.25" y="1730.9531"/><ellipse cx="1002.25" cy="1746.9531" fill="#ADD1B2" rx="11" ry="11" style="stroke: #A80036; stroke-width: 1.0;"/><path d="M1005.2188,1752.5938 Q1004.6406,1752.8906 1004,1753.0391 Q1003.3594,1753.1875 1002.6563,1753.1875 Q1000.1563,1753.1875 998.8359,1751.5391 Q997.5156,1749.8906 997.5156,1746.7656 Q997.5156,1743.6406 998.8359,1741.9844 Q1000.1563,1740.3281 1002.6563,1740.3281 Q1003.3594,1740.3281 1004.0078,1740.4844 Q1004.6563,1740.6406 1005.2188,1740.9375 L1005.2188,1743.6563 Q1004.5938,1743.0781 1004,1742.8047 Q1003.4063,1742.5313 1002.7813,1742.5313 Q1001.4375,1742.5313 1000.75,1743.6016 Q1000.0625,1744.6719 1000.0625,1746.7656 Q1000.0625,1748.8594 1000.75,1749.9297 Q1001.4375,1751 1002.7813,1751 Q1003.4063,1751 1004,1750.7266 Q1004.5938,1750.4531 1005.2188,1749.875 L1005.2188,1752.5938 Z "/><text fill="#000000" font-family="sans-serif" font-size="12" lengthAdjust="spacingAndGlyphs" textLength="100" x="1016.25" y="1751.1074">DiSEqcEN50494</text><line style="stroke: #A80036; stroke-width: 1.5;" x1="988.25" x2="1118.25" y1="1762.9531" y2="1762.9531"/><line style="stroke: #A80036; stroke-width: 1.5;" x1="988.25" x2="1118.25" y1="1770.9531" y2="1770.9531"/><rect fill="#AACCCC" filter="url(#f1)" height="48" style="stroke: #A80036; stroke-width: 1.5;" width="132" x="1154.25" y="1730.9531"/><rect fill="#AACCCC" height="32" style="stroke: #A80036; stroke-width: 1.5;" width="132" x="1154.25" y="1730.9531"/><ellipse cx="1169.25" cy="1746.9531" fill="#ADD1B2" rx="11" ry="11" style="stroke: #A80036; stroke-width: 1.0;"/><path d="M1172.2188,1752.5938 Q1171.6406,1752.8906 1171,1753.0391 Q1170.3594,1753.1875 1169.6563,1753.1875 Q1167.1563,1753.1875 1165.8359,1751.5391 Q1164.5156,1749.8906 1164.5156,1746.7656 Q1164.5156,1743.6406 1165.8359,1741.9844 Q1167.1563,1740.3281 1169.6563,1740.3281 Q1170.3594,1740.3281 1171.0078,1740.4844 Q1171.6563,1740.6406 1172.2188,1740.9375 L1172.2188,1743.6563 Q1171.5938,1743.0781 1171,1742.8047 Q1170.4063,1742.5313 1169.7813,1742.5313 Q1168.4375,1742.5313 1167.75,1743.6016 Q1167.0625,1744.6719 1167.0625,1746.7656 Q1167.0625,1748.8594 1167.75,1749.9297 Q1168.4375,1751 1169.7813,1751 Q1170.4063,1751 1171,1750.7266 Q1171.5938,1750.4531 1172.2188,1749.875 L1172.2188,1752.5938 Z "/><text fill="#000000" font-family="sans-serif" font-size="12" lengthAdjust="spacingAndGlyphs" textLength="100" x="1183.25" y="1751.1074">DiSEqcEN50607</text><line style="stroke: #A80036; stroke-width: 1.5;" x1="1155.25" x2="1285.25" y1="1762.9531" y2="1762.9531"/><line style="stroke: #A80036; stroke-width: 1.5;" x1="1155.25" x2="1285.25" y1="1770.9531" y2="1770.9531"/><rect fill="#AACCCC" filter="url(#f1)" height="48" style="stroke: #A80036; stroke-width: 1.5;" width="75" x="1016" y="1604.9531"/><rect fill="#AACCCC" height="32" style="stroke: #A80036; stroke-width: 1.5;" width="75" x="1016" y="1604.9531"/><ellipse cx="1031" cy="1620.9531" fill="#ADD1B2" rx="11" ry="11" style="stroke: #A80036; stroke-width: 1.0;"/><path d="M1033.9688,1626.5938 Q1033.3906,1626.8906 1032.75,1627.0391 Q1032.1094,1627.1875 1031.4063,1627.1875 Q1028.9063,1627.1875 1027.5859,1625.5391 Q1026.2656,1623.8906 1026.2656,1620.7656 Q1026.2656,1617.6406 1027.5859,1615.9844 Q1028.9063,1614.3281 1031.4063,1614.3281 Q1032.1094,1614.3281 1032.7578,1614.4844 Q1033.4063,1614.6406 1033.9688,1614.9375 L1033.9688,1617.6563 Q1033.3438,1617.0781 1032.75,1616.8047 Q1032.1563,1616.5313 1031.5313,1616.5313 Q1030.1875,1616.5313 1029.5,1617.6016 Q1028.8125,1618.6719 1028.8125,1620.7656 Q1028.8125,1622.8594 1029.5,1623.9297 Q1030.1875,1625 1031.5313,1625 Q1032.1563,1625 1032.75,1624.7266 Q1033.3438,1624.4531 1033.9688,1623.875 L1033.9688,1626.5938 Z "/><text fill="#000000" font-family="sans-serif" font-size="12" lengthAdjust="spacingAndGlyphs" textLength="43" x="1045" y="1625.1074">DiSEqc</text><line style="stroke: #A80036; stroke-width: 1.5;" x1="1017" x2="1090" y1="1636.9531" y2="1636.9531"/><line style="stroke: #A80036; stroke-width: 1.5;" x1="1017" x2="1090" y1="1644.9531" y2="1644.9531"/><rect fill="#AACCCC" filter="url(#f1)" height="48" style="stroke: #A80036; stroke-width: 1.5;" width="54" x="1321.25" y="1730.9531"/><rect fill="#AACCCC" height="32" style="stroke: #A80036; stroke-width: 1.5;" width="54" x="1321.25" y="1730.9531"/><ellipse cx="1336.25" cy="1746.9531" fill="#ADD1B2" rx="11" ry="11" style="stroke: #A80036; stroke-width: 1.0;"/><path d="M1339.2188,1752.5938 Q1338.6406,1752.8906 1338,1753.0391 Q1337.3594,1753.1875 1336.6563,1753.1875 Q1334.1563,1753.1875 1332.8359,1751.5391 Q1331.5156,1749.8906 1331.5156,1746.7656 Q1331.5156,1743.6406 1332.8359,1741.9844 Q1334.1563,1740.3281 1336.6563,1740.3281 Q1337.3594,1740.3281 1338.0078,1740.4844 Q1338.6563,1740.6406 1339.2188,1740.9375 L1339.2188,1743.6563 Q1338.5938,1743.0781 1338,1742.8047 Q1337.4063,1742.5313 1336.7813,1742.5313 Q1335.4375,1742.5313 1334.75,1743.6016 Q1334.0625,1744.6719 1334.0625,1746.7656 Q1334.0625,1748.8594 1334.75,1749.9297 Q1335.4375,1751 1336.7813,1751 Q1337.4063,1751 1338,1750.7266 Q1338.5938,1750.4531 1339.2188,1749.875 L1339.2188,1752.5938 Z "/><text fill="#000000" font-family="sans-serif" font-size="12" lengthAdjust="spacingAndGlyphs" textLength="22" x="1350.25" y="1751.1074">Lnb</text><line style="stroke: #A80036; stroke-width: 1.5;" x1="1322.25" x2="1374.25" y1="1762.9531" y2="1762.9531"/><line style="stroke: #A80036; stroke-width: 1.5;" x1="1322.25" x2="1374.25" y1="1770.9531" y2="1770.9531"/><rect fill="#FEFECE" filter="url(#f1)" height="48" style="stroke: #A80036; stroke-width: 1.5;" width="152" x="312.25" y="1856.9531"/><ellipse cx="327.25" cy="1872.9531" fill="#ADD1B2" rx="11" ry="11" style="stroke: #A80036; stroke-width: 1.0;"/><path d="M330.2188,1878.5938 Q329.6406,1878.8906 329,1879.0391 Q328.3594,1879.1875 327.6563,1879.1875 Q325.1563,1879.1875 323.8359,1877.5391 Q322.5156,1875.8906 322.5156,1872.7656 Q322.5156,1869.6406 323.8359,1867.9844 Q325.1563,1866.3281 327.6563,1866.3281 Q328.3594,1866.3281 329.0078,1866.4844 Q329.6563,1866.6406 330.2188,1866.9375 L330.2188,1869.6563 Q329.5938,1869.0781 329,1868.8047 Q328.4063,1868.5313 327.7813,1868.5313 Q326.4375,1868.5313 325.75,1869.6016 Q325.0625,1870.6719 325.0625,1872.7656 Q325.0625,1874.8594 325.75,1875.9297 Q326.4375,1877 327.7813,1877 Q328.4063,1877 329,1876.7266 Q329.5938,1876.4531 330.2188,1875.875 L330.2188,1878.5938 Z "/><text fill="#000000" font-family="sans-serif" font-size="12" lengthAdjust="spacingAndGlyphs" textLength="120" x="341.25" y="1877.1074">dvbcsa_bs_batch_s</text><line style="stroke: #A80036; stroke-width: 1.5;" x1="313.25" x2="463.25" y1="1888.9531" y2="1888.9531"/><line style="stroke: #A80036; stroke-width: 1.5;" x1="313.25" x2="463.25" y1="1896.9531" y2="1896.9531"/><path d="M601.222,100.1331 C697.847,165.4531 901.726,321.3531 972.25,514.9531 C983.507,545.8531 985.734,558.9531 972.25,588.9531 C964.881,605.3431 952.242,619.7231 938.765,631.5631 " fill="none" style="stroke: #A80036; stroke-width: 1.0;"/><polygon fill="#A80036" points="590.264,92.8031,593.0259,99.4643,600.237,99.4769,597.4751,92.8157,590.264,92.8031" style="stroke: #A80036; stroke-width: 1.0;"/><path d="M494.999,73.6931 C440.657,82.0231 355.764,99.4231 289.25,132.9531 C272.096,141.6031 255.186,153.1731 239.832,165.2431 " fill="none" style="stroke: #A80036; stroke-width: 1.0;"/><polygon fill="#A80036" points="508.127,71.7631,501.609,68.6783,496.2546,73.5084,502.7725,76.5932,508.127,71.7631" style="stroke: #A80036; stroke-width: 1.0;"/><path d="M521.303,114.5231 C508.183,136.8531 492.677,163.2431 479.987,184.8431 " fill="none" style="stroke: #A80036; stroke-width: 1.0;"/><polygon fill="#A80036" points="527.92,103.2631,521.4317,106.4099,521.8409,113.6094,528.3292,110.4626,527.92,103.2631" style="stroke: #A80036; stroke-width: 1.0;"/><path d="M599.989,106.0331 C608.059,114.1831 615.596,123.2731 621.25,132.9531 C657.091,194.3331 666.718,280.0931 669.303,320.7731 " fill="none" style="stroke: #A80036; stroke-width: 1.0;"/><polygon fill="#A80036" points="590.352,96.9231,591.9613,103.9524,599.0688,105.1704,597.4595,98.1412,590.352,96.9231" style="stroke: #A80036; stroke-width: 1.0;"/><path d="M559.369,115.8331 C566.992,161.8231 573.737,232.2131 558.25,290.9531 C545.354,339.8631 512.441,389.5731 491.56,417.7031 " fill="none" style="stroke: #A80036; stroke-width: 1.0;"/><polygon fill="#A80036" points="557.106,102.9631,554.2085,109.5665,559.1895,114.7809,562.087,108.1775,557.106,102.9631" style="stroke: #A80036; stroke-width: 1.0;"/><path d="M494.986,78.0631 C448.496,90.6631 384.014,116.1631 351.25,164.9531 C249.369,316.6831 289.704,555.4231 308.064,638.3831 " fill="none" style="stroke: #A80036; stroke-width: 1.0;"/><polygon fill="#A80036" points="507.879,74.7731,501.0759,72.3818,496.252,77.7418,503.0551,80.1331,507.879,74.7731" style="stroke: #A80036; stroke-width: 1.0;"/><path d="M286.546,1264.8581 C273.662,1284.1261 258.832,1306.3031 245.692,1325.9521 " fill="none" style="stroke: #A80036; stroke-width: 1.0;"/><polygon fill="none" points="251.376,1330.0451,234.44,1342.7801,239.738,1322.2631,251.376,1330.0451" style="stroke: #A80036; stroke-width: 1.0;"/><path d="M177.328,718.5131 C208.786,743.1231 246.876,772.9131 278.314,797.5031 " fill="none" style="stroke: #A80036; stroke-width: 1.0;"/><polygon fill="none" points="282.637,792.0031,294.077,809.8331,274.011,803.0231,282.637,792.0031" style="stroke: #A80036; stroke-width: 1.0;"/><path d="M62.1206,729.1831 C38.6377,761.3831 16.25,803.2731 16.25,845.9531 C16.25,845.9531 16.25,845.9531 16.25,1215.9531 C16.25,1281.1691 81.3096,1325.5151 136.077,1351.2921 " fill="none" style="stroke: #A80036; stroke-width: 1.0;"/><polygon fill="#A80036" points="70.0956,718.6531,63.2855,721.0242,62.8549,728.2225,69.665,725.8514,70.0956,718.6531" style="stroke: #A80036; stroke-width: 1.0;"/><text fill="#000000" font-family="sans-serif" font-size="13" lengthAdjust="spacingAndGlyphs" textLength="47" x="17.25" y="1035.02">_server</text><path d="M138.175,731.0831 C179.036,840.0531 263.655,1065.6981 300.934,1165.1121 " fill="none" style="stroke: #A80036; stroke-width: 1.0;"/><polygon fill="#A80036" points="133.533,718.7131,131.898,725.7364,137.7523,729.9469,139.3872,722.9236,133.533,718.7131" style="stroke: #A80036; stroke-width: 1.0;"/><text fill="#000000" font-family="sans-serif" font-size="13" lengthAdjust="spacingAndGlyphs" textLength="59" x="218.25" y="940.02">_client[..]</text><path d="M418.352,589.2431 C411.583,623.1131 400.385,674.8931 387.25,718.9531 C380.117,742.8831 370.814,768.8131 362.369,790.9631 " fill="none" style="stroke: #A80036; stroke-width: 1.0;"/><polygon fill="none" points="368.859,793.5831,355.093,809.6931,355.809,788.5231,368.859,793.5831" style="stroke: #A80036; stroke-width: 1.0;"/><path d="M651.853,369.0431 C627.796,398.2931 583.38,449.2031 538.25,484.9531 C529.791,491.6531 520.58,498.1431 511.189,504.2631 " fill="none" style="stroke: #A80036; stroke-width: 1.0;"/><polygon fill="none" points="514.886,510.2031,494.211,514.8531,507.476,498.3231,514.886,510.2031" style="stroke: #A80036; stroke-width: 1.0;"/><path d="M173.669,290.5531 C173.408,318.2231 173.1,350.8131 172.838,378.5731 " fill="none" style="stroke: #A80036; stroke-width: 1.0;"/><polygon fill="none" points="179.837,378.7631,172.649,398.7031,165.838,378.6331,179.837,378.7631" style="stroke: #A80036; stroke-width: 1.0;"/><path d="M399,271.0931 C354.636,304.3231 292.448,350.9131 244.416,386.8931 " fill="none" style="stroke: #A80036; stroke-width: 1.0;"/><polygon fill="none" points="248.597,392.5031,228.394,398.8931,240.204,381.3031,248.597,392.5031" style="stroke: #A80036; stroke-width: 1.0;"/><path d="M459.929,284.0631 C463.621,327.5531 468.586,386.0231 471.292,417.8831 " fill="none" style="stroke: #A80036; stroke-width: 1.0; stroke-dasharray: 7.0,7.0;"/><polygon fill="#A80036" points="458.828,271.0931,455.3501,277.4101,459.8434,283.0501,463.3214,276.7331,458.828,271.0931" style="stroke: #A80036; stroke-width: 1.0;"/><path d="M161.596,485.0131 C153.448,517.1731 142.044,562.1931 132.587,599.5131 " fill="none" style="stroke: #A80036; stroke-width: 1.0;"/><polygon fill="none" points="139.334,601.3931,127.637,619.0531,125.763,597.9531,139.334,601.3931" style="stroke: #A80036; stroke-width: 1.0;"/><path d="M274.67,462.1831 C367.015,479.9131 491.573,504.9531 513.25,514.9531 C562.163,537.5231 560.189,566.7031 609.25,588.9531 C671.961,617.3931 695.235,599.3731 761.25,618.9531 C773.723,622.6531 786.69,627.1331 799.312,631.8631 " fill="none" style="stroke: #A80036; stroke-width: 1.0; stroke-dasharray: 7.0,7.0;"/><polygon fill="#A80036" points="261.867,459.7331,267.0071,464.7907,273.6526,461.9913,268.5125,456.9337,261.867,459.7331" style="stroke: #A80036; stroke-width: 1.0;"/><text fill="#000000" font-family="sans-serif" font-size="13" lengthAdjust="spacingAndGlyphs" textLength="109" x="610.25" y="556.02">_streamManager</text><path d="M206.081,496.1831 C234.296,540.5731 273.465,602.2131 296.407,638.3031 " fill="none" style="stroke: #A80036; stroke-width: 1.0; stroke-dasharray: 7.0,7.0;"/><polygon fill="#A80036" points="198.979,485.0131,198.8207,492.2225,205.4147,495.1414,205.5729,487.932,198.979,485.0131" style="stroke: #A80036; stroke-width: 1.0;"/><path d="M1521.25,1074.1651 C1521.25,1105.5311 1521.25,1147.8751 1521.25,1177.7141 " fill="none" style="stroke: #A80036; stroke-width: 1.0; stroke-dasharray: 7.0,7.0;"/><polygon fill="#A80036" points="1521.25,1190.8561,1525.25,1184.8561,1521.25,1178.8561,1517.25,1184.8561,1521.25,1190.8561" style="stroke: #A80036; stroke-width: 1.0;"/><path d="M896.921,861.1131 C1008.67,891.3331 1285.07,966.0831 1429.71,1005.1971 " fill="none" style="stroke: #A80036; stroke-width: 1.0;"/><polygon fill="none" points="1431.73,998.4931,1449.21,1010.4711,1428.08,1012.0071,1431.73,998.4931" style="stroke: #A80036; stroke-width: 1.0;"/><path d="M787.432,874.6231 C709.595,908.7611 575.399,967.6131 496.437,1002.2421 " fill="none" style="stroke: #A80036; stroke-width: 1.0;"/><polygon fill="#A80036" points="799.424,869.3631,792.3224,868.111,788.4353,874.1847,795.5368,875.4368,799.424,869.3631" style="stroke: #A80036; stroke-width: 1.0;"/><text fill="#000000" font-family="sans-serif" font-size="13" lengthAdjust="spacingAndGlyphs" textLength="59" x="671.25" y="940.02">_client[..]</text><path d="M840.452,909.6581 C836.916,937.6361 832.858,969.7491 829.825,993.7541 " fill="none" style="stroke: #A80036; stroke-width: 1.0;"/><polygon fill="#A80036" points="842.086,896.7231,837.3653,902.1743,840.5815,908.6284,845.3022,903.1773,842.086,896.7231" style="stroke: #A80036; stroke-width: 1.0;"/><path d="M910.153,847.3731 C1112.47,847.1231 1741.25,860.0131 1741.25,1029.9531 C1741.25,1029.9531 1741.25,1029.9531 1741.25,1380.9531 C1741.25,1423.5051 1703.58,1457.8441 1672.53,1478.9211 " fill="none" style="stroke: #A80036; stroke-width: 1.0;"/><polygon fill="#A80036" points="896.896,847.4131,902.907,851.3966,908.896,847.3802,902.885,843.3967,896.896,847.4131" style="stroke: #A80036; stroke-width: 1.0;"/><path d="M730.758,472.6231 C707.421,524.8231 667.745,635.4831 705.25,718.9531 C722.475,757.2931 757.626,788.7631 788.765,810.7931 " fill="none" style="stroke: #A80036; stroke-width: 1.0; stroke-dasharray: 7.0,7.0;"/><polygon fill="#A80036" points="799.576,818.1831,796.8773,811.4961,789.6666,811.4152,792.3654,818.1023,799.576,818.1831" style="stroke: #A80036; stroke-width: 1.0;"/><text fill="#000000" font-family="sans-serif" font-size="13" lengthAdjust="spacingAndGlyphs" textLength="55" x="710.25" y="673.02">_decrypt</text><path d="M736.078,472.6431 C728.286,503.8531 721.357,553.3031 742.25,588.9531 C750.955,603.8031 763.587,616.0831 777.764,626.1531 " fill="none" style="stroke: #A80036; stroke-width: 1.0;"/><polygon fill="#A80036" points="788.866,633.4331,786.0425,626.7978,778.8316,626.8521,781.6551,633.4874,788.866,633.4331" style="stroke: #A80036; stroke-width: 1.0;"/><text fill="#000000" font-family="sans-serif" font-size="13" lengthAdjust="spacingAndGlyphs" textLength="55" x="747.25" y="556.02">_decrypt</text><path d="M786.077,482.3731 C795.344,492.4731 804.676,503.6931 812.25,514.9531 C819.215,525.3131 848.396,589.7431 867.112,631.6231 " fill="none" style="stroke: #A80036; stroke-width: 1.0; stroke-dasharray: 7.0,7.0;"/><polygon fill="#A80036" points="776.9,472.6731,778.122,479.7799,785.1521,481.3853,783.9301,474.2785,776.9,472.6731" style="stroke: #A80036; stroke-width: 1.0;"/><text fill="#000000" font-family="sans-serif" font-size="13" lengthAdjust="spacingAndGlyphs" textLength="109" x="853.25" y="556.02">_streamManager</text><path d="M873.498,718.9931 C868.638,743.4331 862.779,772.8931 857.929,797.2831 " fill="none" style="stroke: #A80036; stroke-width: 1.0;"/><polygon fill="#A80036" points="876.083,705.9931,870.9868,711.095,873.7362,717.7614,878.8324,712.6595,876.083,705.9931" style="stroke: #A80036; stroke-width: 1.0;"/><text fill="#000000" font-family="sans-serif" font-size="13" lengthAdjust="spacingAndGlyphs" textLength="71" x="872.25" y="762.02">_stream[..]</text><path d="M445.919,1100.2681 C451.318,1150.3941 450.008,1217.6891 416.25,1264.9531 C384.415,1309.5241 329.466,1338.6691 284.323,1356.3261 " fill="none" style="stroke: #A80036; stroke-width: 1.0;"/><polygon fill="#A80036" points="444.329,1087.2671,441.0865,1093.7081,445.7849,1099.1785,449.0274,1092.7375,444.329,1087.2671" style="stroke: #A80036; stroke-width: 1.0;"/><text fill="#000000" font-family="sans-serif" font-size="13" lengthAdjust="spacingAndGlyphs" textLength="25" x="453.25" y="1219.02">_rtp</text><path d="M357.514,1048.7591 C297.279,1066.5431 216.917,1101.1751 178.25,1164.9531 C144.752,1220.2051 170.712,1297.8151 191.355,1342.7981 " fill="none" style="stroke: #A80036; stroke-width: 1.0;"/><polygon fill="#A80036" points="370.039,1045.2151,363.1767,1042.9994,358.4921,1048.4816,365.3544,1050.6973,370.039,1045.2151" style="stroke: #A80036; stroke-width: 1.0;"/><text fill="#000000" font-family="sans-serif" font-size="13" lengthAdjust="spacingAndGlyphs" textLength="32" x="183.25" y="1219.02">_rtcp</text><path d="M391.824,1098.0891 C377.925,1120.2801 362.687,1144.6071 349.778,1165.2161 " fill="none" style="stroke: #A80036; stroke-width: 1.0; stroke-dasharray: 7.0,7.0;"/><polygon fill="#A80036" points="398.737,1087.0531,392.1623,1090.015,392.3675,1097.2232,398.9423,1094.2613,398.737,1087.0531" style="stroke: #A80036; stroke-width: 1.0;"/><text fill="#000000" font-family="sans-serif" font-size="13" lengthAdjust="spacingAndGlyphs" textLength="40" x="385.25" y="1130.02">_httpc</text><path d="M1632.25,1540.1651 C1632.25,1560.9631 1632.25,1586.4731 1632.25,1604.6231 " fill="none" style="stroke: #A80036; stroke-width: 1.0;"/><polygon fill="#A80036" points="1632.25,1526.9861,1628.25,1532.9861,1632.25,1538.9861,1636.25,1532.9861,1632.25,1526.9861" style="stroke: #A80036; stroke-width: 1.0;"/><text fill="#000000" font-family="sans-serif" font-size="13" lengthAdjust="spacingAndGlyphs" textLength="75" x="1637.25" y="1570.02">_tsBuffer[..]</text><path d="M1633.81,1465.8611 C1634.38,1450.7521 1634.97,1433.0041 1635.25,1416.9531 C1635.83,1384.0691 1639.23,1375.6011 1635.25,1342.9531 C1625.4,1262.0581 1620.22,1241.1231 1591.25,1164.9531 C1579.24,1133.3691 1561.47,1099.7051 1546.84,1074.1481 " fill="none" style="stroke: #A80036; stroke-width: 1.0; stroke-dasharray: 7.0,7.0;"/><polygon fill="#A80036" points="1633.28,1478.8701,1637.5169,1473.035,1633.7601,1466.8797,1629.5233,1472.7149,1633.28,1478.8701" style="stroke: #A80036; stroke-width: 1.0;"/><path d="M1521.25,1238.9611 C1521.25,1264.1881 1521.25,1305.2161 1521.25,1336.3511 " fill="none" style="stroke: #A80036; stroke-width: 1.0;"/><polygon fill="#A80036" points="1521.25,1349.4391,1525.25,1343.4391,1521.25,1337.4391,1517.25,1343.4391,1521.25,1349.4391" style="stroke: #A80036; stroke-width: 1.0;"/><path d="M1548.4,1410.5531 C1563.15,1426.6231 1581.53,1446.6691 1597.33,1463.8891 " fill="none" style="stroke: #A80036; stroke-width: 1.0;"/><polygon fill="none" points="1602.57,1459.2451,1610.93,1478.7151,1592.25,1468.7091,1602.57,1459.2451" style="stroke: #A80036; stroke-width: 1.0;"/><path d="M1356.19,1403.9971 C1410.74,1423.3521 1489.05,1451.1391 1548.34,1472.1781 " fill="none" style="stroke: #A80036; stroke-width: 1.0;"/><polygon fill="none" points="1550.75,1465.6071,1567.26,1478.8921,1546.07,1478.8011,1550.75,1465.6071" style="stroke: #A80036; stroke-width: 1.0;"/><path d="M825.25,1088.6061 C825.25,1123.0951 825.25,1165.2991 825.25,1190.8791 " fill="none" style="stroke: #A80036; stroke-width: 1.0;"/><polygon fill="none" points="818.25,1088.3461,825.25,1068.3461,832.25,1088.3461,818.25,1088.3461" style="stroke: #A80036; stroke-width: 1.0;"/><path d="M769.278,1081.6451 C729.18,1117.2441 677.023,1163.5491 646.239,1190.8791 " fill="none" style="stroke: #A80036; stroke-width: 1.0;"/><polygon fill="none" points="764.654,1076.3901,784.258,1068.3461,773.949,1086.8591,764.654,1076.3901" style="stroke: #A80036; stroke-width: 1.0;"/><path d="M618.258,1252.0271 C616.511,1283.6741 614.022,1328.7491 612.528,1355.7991 " fill="none" style="stroke: #A80036; stroke-width: 1.0;"/><polygon fill="#A80036" points="618.98,1238.9611,614.6557,1244.7318,618.3193,1250.9429,622.6436,1245.1722,618.98,1238.9611" style="stroke: #A80036; stroke-width: 1.0;"/><path d="M608.965,1403.9971 C607.44,1419.3731 605.387,1440.0721 603.561,1458.4801 " fill="none" style="stroke: #A80036; stroke-width: 1.0;"/><polygon fill="none" points="610.507,1459.3711,601.568,1478.5831,596.576,1457.9891,610.507,1459.3711" style="stroke: #A80036; stroke-width: 1.0;"/><path d="M881.495,1081.6451 C921.789,1117.2441 974.2,1163.5491 1005.134,1190.8791 " fill="none" style="stroke: #A80036; stroke-width: 1.0;"/><polygon fill="none" points="876.796,1086.8341,866.442,1068.3461,886.065,1076.3421,876.796,1086.8341" style="stroke: #A80036; stroke-width: 1.0;"/><path d="M1058.03,1074.6721 C1051.06,1110.9491 1041.31,1161.6371 1035.7,1190.8031 " fill="none" style="stroke: #A80036; stroke-width: 1.0;"/><polygon fill="none" points="1051.17,1073.3221,1061.82,1055.0031,1064.91,1075.9661,1051.17,1073.3221" style="stroke: #A80036; stroke-width: 1.0;"/><path d="M1036.78,1252.0271 C1041.64,1283.6741 1048.55,1328.7491 1052.7,1355.7991 " fill="none" style="stroke: #A80036; stroke-width: 1.0;"/><polygon fill="#A80036" points="1034.78,1238.9611,1031.7356,1245.4981,1036.5987,1250.8225,1039.6432,1244.2856,1034.78,1238.9611" style="stroke: #A80036; stroke-width: 1.0;"/><text fill="#000000" font-family="sans-serif" font-size="13" lengthAdjust="spacingAndGlyphs" textLength="123" x="1050.25" y="1308.02">_deliverySystem[..]</text><path d="M974.702,1245.0721 C961.486,1251.7231 947.421,1258.6781 934.25,1264.9531 C857.741,1301.4021 818.851,1281.7311 760.25,1342.9531 C699.415,1406.5081 733.026,1451.8211 687.25,1526.9531 C669.341,1556.3471 642.727,1585.5111 623.459,1604.8871 " fill="none" style="stroke: #A80036; stroke-width: 1.0;"/><polygon fill="#A80036" points="986.552,1239.0771,979.3924,1238.2165,975.8443,1244.4943,983.0039,1245.3549,986.552,1239.0771" style="stroke: #A80036; stroke-width: 1.0;"/><path d="M995.631,1247.8531 C960.189,1279.5951 906.661,1327.5361 875.103,1355.7991 " fill="none" style="stroke: #A80036; stroke-width: 1.0;"/><polygon fill="#A80036" points="1005.56,1238.9611,998.4218,1239.9842,996.6208,1246.9667,1003.7589,1245.9437,1005.56,1238.9611" style="stroke: #A80036; stroke-width: 1.0;"/><text fill="#000000" font-family="sans-serif" font-size="13" lengthAdjust="spacingAndGlyphs" textLength="75" x="945.25" y="1308.02">_translation</text><path d="M1055.18,1424.0361 C1054.73,1442.4121 1054.21,1463.1311 1053.83,1478.5831 " fill="none" style="stroke: #A80036; stroke-width: 1.0;"/><polygon fill="none" points="1048.18,1423.8171,1055.68,1403.9971,1062.18,1424.1641,1048.18,1423.8171" style="stroke: #A80036; stroke-width: 1.0;"/><path d="M1087.46,1419.8861 C1102.97,1439.2291 1121.19,1461.9561 1134.52,1478.5831 " fill="none" style="stroke: #A80036; stroke-width: 1.0;"/><polygon fill="none" points="1081.77,1423.9801,1074.72,1403.9971,1092.69,1415.2231,1081.77,1423.9801" style="stroke: #A80036; stroke-width: 1.0;"/><path d="M1111.28,1414.7561 C1146.66,1436.4831 1191.39,1463.9561 1221.09,1482.1981 " fill="none" style="stroke: #A80036; stroke-width: 1.0;"/><polygon fill="none" points="1107.15,1420.4291,1093.77,1403.9971,1114.47,1408.5001,1107.15,1420.4291" style="stroke: #A80036; stroke-width: 1.0;"/><path d="M1023.92,1419.3011 C1007.51,1438.7691 988.108,1461.7881 973.951,1478.5831 " fill="none" style="stroke: #A80036; stroke-width: 1.0;"/><polygon fill="none" points="1018.58,1414.7771,1036.82,1403.9971,1029.29,1423.8001,1018.58,1414.7771" style="stroke: #A80036; stroke-width: 1.0;"/><path d="M1007.91,1665.3141 C980.942,1686.3441 947.502,1712.4231 923.895,1730.8331 " fill="none" style="stroke: #A80036; stroke-width: 1.0;"/><polygon fill="none" points="1003.64,1659.7651,1023.72,1652.9861,1012.25,1670.8051,1003.64,1659.7651" style="stroke: #A80036; stroke-width: 1.0;"/><path d="M1053.25,1673.1871 C1053.25,1692.4891 1053.25,1714.4701 1053.25,1730.6231 " fill="none" style="stroke: #A80036; stroke-width: 1.0;"/><polygon fill="none" points="1046.25,1672.9861,1053.25,1652.9861,1060.25,1672.9861,1046.25,1672.9861" style="stroke: #A80036; stroke-width: 1.0;"/><path d="M1100.47,1665.0171 C1128.86,1686.0981 1164.2,1712.3361 1189.11,1730.8331 " fill="none" style="stroke: #A80036; stroke-width: 1.0;"/><polygon fill="none" points="1096.15,1670.5291,1084.27,1652.9861,1104.5,1659.2891,1096.15,1670.5291" style="stroke: #A80036; stroke-width: 1.0;"/><path d="M1053.25,1540.1651 C1053.25,1560.9631 1053.25,1586.4731 1053.25,1604.6231 " fill="none" style="stroke: #A80036; stroke-width: 1.0;"/><polygon fill="#A80036" points="1053.25,1526.9861,1049.25,1532.9861,1053.25,1538.9861,1057.25,1532.9861,1053.25,1526.9861" style="stroke: #A80036; stroke-width: 1.0;"/><text fill="#000000" font-family="sans-serif" font-size="13" lengthAdjust="spacingAndGlyphs" textLength="48" x="1058.25" y="1570.02">_diseqc</text><path d="M1103.05,1648.3201 C1154.14,1667.5521 1235.63,1699.3081 1304.25,1730.9531 C1309.73,1733.4801 1315.5,1736.3451 1321,1739.1731 " fill="none" style="stroke: #A80036; stroke-width: 1.0;"/><polygon fill="#A80036" points="1090.74,1643.7081,1094.9567,1649.5579,1101.9783,1647.9154,1097.7616,1642.0657,1090.74,1643.7081" style="stroke: #A80036; stroke-width: 1.0;"/><text fill="#000000" font-family="sans-serif" font-size="13" lengthAdjust="spacingAndGlyphs" textLength="97" x="1234.25" y="1696.02">_lnb[MAX_LNB]</text><path d="M281.936,1787.7641 C306.729,1809.264 338.912,1837.1703 361.345,1856.6228 " fill="none" style="stroke: #A80036; stroke-width: 1.0;"/><polygon fill="#A80036" points="271.812,1778.9861,273.7243,1785.939,280.8779,1786.8481,278.9656,1779.8951,271.812,1778.9861" style="stroke: #A80036; stroke-width: 1.0;"/><text fill="#000000" font-family="sans-serif" font-size="13" lengthAdjust="spacingAndGlyphs" textLength="43" x="331.25" y="1822.02">_batch</text><path d="M245.25,1792.1651 C245.25,1812.9635 245.25,1838.473 245.25,1856.6228 " fill="none" style="stroke: #A80036; stroke-width: 1.0;"/><polygon fill="#A80036" points="245.25,1778.9861,241.25,1784.9861,245.25,1790.9861,249.25,1784.9861,245.25,1778.9861" style="stroke: #A80036; stroke-width: 1.0;"/><path d="M219.003,1789.5051 C202.382,1810.7529 181.31,1837.6914 166.5,1856.6228 " fill="none" style="stroke: #A80036; stroke-width: 1.0;"/><polygon fill="#A80036" points="227.232,1778.9861,220.3845,1781.2471,219.8379,1788.4374,226.6854,1786.1765,227.232,1778.9861" style="stroke: #A80036; stroke-width: 1.0;"/><path d="M599.25,1547.1871 C599.25,1566.4891 599.25,1588.4701 599.25,1604.6231 " fill="none" style="stroke: #A80036; stroke-width: 1.0;"/><polygon fill="none" points="592.25,1546.9861,599.25,1526.9861,606.25,1546.9861,592.25,1546.9861" style="stroke: #A80036; stroke-width: 1.0;"/><path d="M474.579,1403.9971 C498.586,1422.8601 532.787,1449.7321 559.296,1470.5611 " fill="none" style="stroke: #A80036; stroke-width: 1.0;"/><polygon fill="#A80036" points="569.769,1478.7891,567.5231,1471.9367,560.334,1471.3743,562.5799,1478.2267,569.769,1478.7891" style="stroke: #A80036; stroke-width: 1.0;"/><path d="M504.847,1644.1911 C461.103,1652.5571 409.015,1665.0791 364.25,1682.9531 C340.23,1692.5441 315.398,1706.6011 294.672,1719.6811 " fill="none" style="stroke: #A80036; stroke-width: 1.0;"/><polygon fill="none" points="298.215,1725.7271,277.638,1730.7881,290.568,1714.0001,298.215,1725.7271" style="stroke: #A80036; stroke-width: 1.0;"/><text fill="#000000" font-family="sans-serif" font-size="13" lengthAdjust="spacingAndGlyphs" textLength="135" x="369.25" y="1696.02">Only with LIBDVBCSA</text><path d="M480.369,1778.9861 C501.644,1797.0551 531.662,1822.5494 556.21,1843.3989 " fill="none" style="stroke: #A80036; stroke-width: 1.0;"/><polygon fill="none" points="561.068,1838.3405,571.78,1856.6228,552.005,1849.0113,561.068,1838.3405" style="stroke: #A80036; stroke-width: 1.0;"/><path d="M599.25,1778.9861 C599.25,1795.0661 599.25,1817.0281 599.25,1836.3629 " fill="none" style="stroke: #A80036; stroke-width: 1.0;"/><polygon fill="none" points="606.25,1836.6229,599.25,1856.6228,592.25,1836.6228,606.25,1836.6229" style="stroke: #A80036; stroke-width: 1.0;"/><path d="M718.945,1778.9861 C697.422,1797.1411 667.012,1822.7936 642.23,1843.6979 " fill="none" style="stroke: #A80036; stroke-width: 1.0;"/><polygon fill="none" points="646.709,1849.0779,626.908,1856.6228,637.682,1838.3767,646.709,1849.0779" style="stroke: #A80036; stroke-width: 1.0;"/><path d="M562.133,1661.4771 C536.774,1683.0151 503.726,1711.0831 480.72,1730.6231 " fill="none" style="stroke: #A80036; stroke-width: 1.0;"/><polygon fill="#A80036" points="572.131,1652.9861,564.9684,1653.8215,562.9847,1660.7544,570.1473,1659.919,572.131,1652.9861" style="stroke: #A80036; stroke-width: 1.0;"/><text fill="#000000" font-family="sans-serif" font-size="13" lengthAdjust="spacingAndGlyphs" textLength="28" x="540.25" y="1696.02">_pat</text><path d="M599.25,1666.1651 C599.25,1686.9631 599.25,1712.4731 599.25,1730.6231 " fill="none" style="stroke: #A80036; stroke-width: 1.0;"/><polygon fill="#A80036" points="599.25,1652.9861,595.25,1658.9861,599.25,1664.9861,603.25,1658.9861,599.25,1652.9861" style="stroke: #A80036; stroke-width: 1.0;"/><text fill="#000000" font-family="sans-serif" font-size="13" lengthAdjust="spacingAndGlyphs" textLength="33" x="604.25" y="1696.02">_pmt</text><path d="M636.621,1661.4771 C662.154,1683.0151 695.429,1711.0831 718.592,1730.6231 " fill="none" style="stroke: #A80036; stroke-width: 1.0;"/><polygon fill="#A80036" points="626.555,1652.9861,628.5619,1659.9123,635.7272,1660.7237,633.7203,1653.7975,626.555,1652.9861" style="stroke: #A80036; stroke-width: 1.0;"/><text fill="#000000" font-family="sans-serif" font-size="13" lengthAdjust="spacingAndGlyphs" textLength="27" x="687.25" y="1696.02">_sdt</text></g></svg>